<svg width="67" height="59" fill="none" xmlns="http://www.w3.org/2000/svg"><path d="M20.518.078c-2.764.45-5.203 2.888-6.212 6.203-.44 1.46-.611 3.549-.403 5.078.269 1.988.954 3.742 2.024 5.163 1.345 1.794 3.075 2.842 4.982 3.02 3.889.365 7.337-2.903 8.162-7.748.134-.808.183-2.47.098-3.269-.16-1.405-.593-2.896-1.174-4.03-1.632-3.183-4.536-4.89-7.477-4.417z" fill="#0357ED"/><path d="M55.427 16.158c.165-.225 2.665-3.564 5.557-7.423l5.258-7.003.379.427.379.427-.135.194c-.073.109-4.273 5.715-9.33 12.462-5.055 6.754-9.261 12.368-9.347 12.484l-.147.21.184.474a4.38 4.38 0 01.3 1.94 4.481 4.481 0 01-.526 1.91c-.129.257-.948 1.538-1.81 2.866-.868 1.32-2.745 4.2-4.17 6.39-1.43 2.189-2.733 4.169-2.904 4.402a5.654 5.654 0 01-.758.815c-1.308 1.11-2.745.9-3.784-.559-.569-.8-.905-1.685-1.376-3.634-.14-.574-.275-1.133-.306-1.242-.06-.217-.617-2.461-.806-3.26-.068-.28-.141-.59-.172-.7-.03-.108-.195-.76-.366-1.46l-.312-1.257h-.856c-.465 0-.85.015-.85.039 0 .023.128.598.281 1.265.153.668.3 1.32.33 1.452.03.124.471 2.066.979 4.31.507 2.243.947 4.176.978 4.308.11.497 1.638 7.252 1.681 7.407l.037.163H9.794l.11-.527c.159-.761.483-2.306.611-2.889.214-1.01.44-2.073.55-2.6.11-.513.319-1.492.55-2.602.062-.28.184-.854.276-1.28.3-1.445.403-1.919.58-2.757.172-.784.258-1.204.545-2.586.116-.527.208-.97.617-2.911l.172-.792h-1.633l-.122.52c-.067.295-.177.807-.25 1.149-.074.342-.178.846-.24 1.126-.06.28-.232 1.048-.372 1.708-.14.66-.36 1.677-.49 2.252a285.9 285.9 0 00-.488 2.251c-.14.66-.361 1.677-.49 2.252-.128.575-.317 1.467-.427 1.98-.104.512-.22 1.017-.245 1.126-.024.108-.14.613-.244 1.125-.11.513-.306 1.406-.428 1.98a43.26 43.26 0 00-.27 1.258l-.036.217H4.677c-2.678 0-3.393-.023-3.393-.1 0-.047.073-.412.153-.792.085-.389.226-1.033.311-1.437l.324-1.514c.098-.427.263-1.196.373-1.708.11-.512.3-1.405.428-1.98.233-1.063.434-2.01.795-3.688.11-.512.3-1.405.428-1.98.128-.574.318-1.467.428-1.98.11-.512.3-1.405.428-1.98.128-.574.318-1.467.428-1.98.892-4.184 1.033-4.759 1.278-5.434.807-2.182 2.36-4.387 4.139-5.862.984-.815 2.298-1.53 3.478-1.887.536-.162.678-.163 6.736-.193h.081c6.75-.032 6.92-.024 8.199.372 2.665.823 4.903 2.842 6.504 5.862.612 1.164 1.223 3.012 1.633 4.969l.11.505c.055.225.25 1.063.41 1.77l.11.497 1.014-1.545 2.311-3.518c1.682-2.554 1.993-2.958 2.574-3.33.899-.567 1.773-.59 2.709-.063.41.233.422.233.526.086-.05.093 8.07-10.272 8.235-10.497zM0 56.748V59h41.634v-4.503H0v2.251z" fill="#0357ED"/></svg>