<svg width="13" height="12" fill="none" xmlns="http://www.w3.org/2000/svg"><rect width="13" height="12" rx="2" fill="#fff"/><mask id="a" maskUnits="userSpaceOnUse" x="0" y="0" width="13" height="12"><rect width="13" height="12" rx="2" fill="#fff"/></mask><g mask="url(#a)"><path fill="#1537D1" d="M0 0h13v12H0z"/><path fill="#EA3058" d="M6.19 0H13v12H6.19z"/><path fill-rule="evenodd" clip-rule="evenodd" d="M4.333 12h4.334V0H4.333v12z" fill="#FFCF3C"/><path fill-rule="evenodd" clip-rule="evenodd" d="M5.881 5.2H6.5v.4h-.619v-.4z" fill="#FFEDB1"/><path d="M6.283 5.133h.435c.192 0 .345.163.332.355l-.059.918a.492.492 0 01-.982 0l-.06-.918a.333.333 0 01.334-.355z" stroke="#D32E28" stroke-width=".667"/><path fill-rule="evenodd" clip-rule="evenodd" d="M5.881 5.6h1.238V6H5.881v-.4z" fill="#D32E28"/></g></svg>