<svg width="13" height="12" fill="none" xmlns="http://www.w3.org/2000/svg"><rect width="13" height="12" rx="2" fill="#fff"/><mask id="a" maskUnits="userSpaceOnUse" x="0" y="0" width="13" height="12"><rect width="13" height="12" rx="2" fill="#fff"/></mask><g mask="url(#a)"><path fill="#1AB11F" d="M6.19 0H13v12H6.19z"/><path fill-rule="evenodd" clip-rule="evenodd" d="M0 12h4.333V0H0v12z" fill="#262626"/><path fill-rule="evenodd" clip-rule="evenodd" d="M4.333 12h4.334V0H4.333v12z" fill="#DC0D18"/><path opacity=".75" d="M5.929 5.6a.667.667 0 00-1.334 0H5.93zm-.45 1.918a.667.667 0 00.8-1.066l-.8 1.066zm1.262-1.083a.667.667 0 10.85 1.028l-.85-1.028zM8.405 5.6a.667.667 0 10-1.334 0h1.334zm-3.81 0c0 .764.32 1.495.885 1.918l.8-1.066c-.174-.13-.351-.433-.351-.852H4.595zm2.996 1.863c.52-.43.814-1.13.814-1.863H7.07c0 .4-.162.696-.33.835l.85 1.028z" fill="#fff"/><path fill-rule="evenodd" clip-rule="evenodd" d="M6.5 6.4c.342 0 .62-.537.62-1.2 0-.663-.278-1.2-.62-1.2-.342 0-.619.537-.619 1.2 0 .663.277 1.2.619 1.2z" fill="#fff" fill-opacity=".5"/></g></svg>