<svg width="13" height="12" fill="none" xmlns="http://www.w3.org/2000/svg"><rect x=".25" y=".25" width="12.5" height="11.5" rx="1.75" fill="#fff" stroke="#F5F5F5" stroke-width=".5"/><mask id="a" maskUnits="userSpaceOnUse" x="0" y="0" width="13" height="12"><rect x=".25" y=".25" width="12.5" height="11.5" rx="1.75" fill="#fff" stroke="#fff" stroke-width=".5"/></mask><g mask="url(#a)"><path fill="#D6182D" d="M4.952 0h3.095v12H4.952z"/><path fill="#1425A2" d="M0 4h13v4H0z"/><path fill-rule="evenodd" clip-rule="evenodd" d="M5.262 7l-.219.083.064-.283-.064-.283.219.083.219-.083-.064.283.064.283L5.26 7zm2.476 0l-.219.083.064-.283-.064-.283.22.083.218-.083-.064.283.064.283L7.738 7zm-3.714-.8l-.22.083L3.87 6l-.064-.283.219.083.219-.083L4.179 6l.064.283-.22-.083zm4.952 0l-.219.083L8.821 6l-.064-.283.22.083.218-.083L9.131 6l.064.283-.219-.083zM6.5 5.4l-.219.083.064-.283-.064-.283L6.5 5l.219-.083-.064.283.064.283L6.5 5.4z" fill="#fff"/></g></svg>