<svg width="13" height="12" fill="none" xmlns="http://www.w3.org/2000/svg"><rect width="13" height="12" rx="2" fill="#fff"/><mask id="a" maskUnits="userSpaceOnUse" x="0" y="0" width="13" height="12"><rect width="13" height="12" rx="2" fill="#fff"/></mask><g mask="url(#a)"><path fill="#0B36B2" d="M0 0h13v12H0z"/><g filter="url(#filter0_d)"><path fill-rule="evenodd" clip-rule="evenodd" d="M10.524 12V0h-6.5l6.5 12z" fill="#FFD045"/></g><path fill-rule="evenodd" clip-rule="evenodd" d="M8.048 11.2l-.438.166.128-.566-.128-.566.438.166.437-.166-.128.566.128.566-.437-.166zM6.81 8.8l-.438.166L6.5 8.4l-.128-.566.437.166.438-.166-.128.566.128.566L6.81 8.8zM5.571 6.4l-.437.166L5.262 6l-.128-.566.437.166.438-.166L5.881 6l.128.566-.438-.166zM4.333 4l-.437.166.128-.566-.128-.566.437.166.438-.166-.128.566.128.566L4.333 4zM3.095 1.6l-.437.166.128-.566-.128-.566.437.166.438-.166-.128.566.128.566-.438-.166z" fill="#fff"/></g><defs><filter id="filter0_d" x="4.024" y="0" width="6.5" height="12" filterUnits="userSpaceOnUse" color-interpolation-filters="sRGB"><feFlood flood-opacity="0" result="BackgroundImageFix"/><feColorMatrix in="SourceAlpha" values="0 0 0 0 0 0 0 0 0 0 0 0 0 0 0 0 0 0 127 0"/><feOffset/><feColorMatrix values="0 0 0 0 0 0 0 0 0 0 0 0 0 0 0 0 0 0 0.06 0"/><feBlend in2="BackgroundImageFix" result="effect1_dropShadow"/><feBlend in="SourceGraphic" in2="effect1_dropShadow" result="shape"/></filter></defs></svg>