<svg width="13" height="12" fill="none" xmlns="http://www.w3.org/2000/svg"><rect width="13" height="12" rx="2" fill="#fff"/><mask id="a" maskUnits="userSpaceOnUse" x="0" y="0" width="13" height="12"><rect width="13" height="12" rx="2" fill="#fff"/></mask><g mask="url(#a)"><path fill="url(#paint0_linear)" d="M0 0h13v12H0z"/><path fill="#08379D" d="M6.19 0H13v12H6.19z"/><path fill-rule="evenodd" clip-rule="evenodd" d="M0 12h4.333V0H0v12z" fill="#08379D"/><path fill-rule="evenodd" clip-rule="evenodd" d="M4.333 12h4.334V0H4.333v12z" fill="#FFCC50"/><path fill-rule="evenodd" clip-rule="evenodd" d="M6.212 4.172a.333.333 0 01.592.005l.19.374a.172.172 0 01-.154.249.17.17 0 00-.17.185l.124 1.613a.219.219 0 00.39.118l.174-.221a.333.333 0 00.07-.206v-.583a.31.31 0 00-.064-.19.31.31 0 01.122-.474l.023-.01a.33.33 0 01.456.349l-.19 1.328a.333.333 0 01-.07.162l-.523.65a.21.21 0 01-.163.079.21.21 0 00-.21.21v.28a.31.31 0 11-.619 0v-.282a.208.208 0 00-.207-.208.208.208 0 01-.164-.08l-.504-.652a.333.333 0 01-.066-.153l-.206-1.332a.326.326 0 01.451-.35l.02.009a.31.31 0 01.122.474.31.31 0 00-.065.19v.583c0 .075.025.147.071.206l.173.22a.22.22 0 00.391-.118l.125-1.614a.17.17 0 00-.17-.183.17.17 0 01-.15-.249l.2-.38z" fill="#262626"/></g><defs><linearGradient id="paint0_linear" x1="0" y1="0" x2="0" y2="12" gradientUnits="userSpaceOnUse"><stop stop-color="#1132C7"/><stop offset="1" stop-color="#0522A5"/></linearGradient></defs></svg>