<svg width="13" height="12" fill="none" xmlns="http://www.w3.org/2000/svg"><rect width="13" height="12" rx="2" fill="#fff"/><mask id="a" maskUnits="userSpaceOnUse" x="0" y="0" width="13" height="12"><rect width="13" height="12" rx="2" fill="#fff"/></mask><g mask="url(#a)"><path fill="#E4233B" d="M0 0h13v12H0z"/><path fill-rule="evenodd" clip-rule="evenodd" d="M0 0l5.571 6L0 12V0zm13 0L7.429 6 13 12V0z" fill="#34CD4E"/><path fill-rule="evenodd" clip-rule="evenodd" d="M5.125 3.836L-.595-1.15-1.288.177l5.72 4.985A3.56 3.56 0 004.333 6c0 .292.035.573.099.838l-5.72 4.985.693 1.327 5.72-4.986c.374.397.853.636 1.375.636s1.001-.239 1.375-.636l5.72 4.986.693-1.327-5.72-4.985A3.56 3.56 0 008.667 6a3.56 3.56 0 00-.099-.838l5.72-4.985-.693-1.327-5.72 4.986C7.501 3.44 7.022 3.2 6.5 3.2s-1.001.239-1.375.636z" fill="#fff"/><path fill-rule="evenodd" clip-rule="evenodd" d="M6.5 5.2l-.438.166.128-.566-.128-.566.438.166.438-.166-.129.566.129.566L6.5 5.2zm-.929 2l-.437.166.128-.566-.128-.566.437.166.438-.166-.128.566.128.566-.438-.166zm1.42.166l.438-.166.437.166-.128-.566.128-.566-.437.166-.438-.166.128.566-.128.566z" fill="#DF2239"/></g></svg>