<svg width="13" height="12" fill="none" xmlns="http://www.w3.org/2000/svg"><rect width="13" height="12" rx="2" fill="#fff"/><mask id="a" maskUnits="userSpaceOnUse" x="0" y="0" width="13" height="12"><rect width="13" height="12" rx="2" fill="#fff"/></mask><g mask="url(#a)"><path fill="#DC1F37" d="M0 0h13v12H0z"/><path fill="#042C90" d="M0 0h5.571v5.6H0z"/><path fill-rule="evenodd" clip-rule="evenodd" d="M8.048 6V4h2.476v2c0 1.2-1.238 2-1.238 2s-1.238-.8-1.238-2z" fill="#fff"/><mask id="b" maskUnits="userSpaceOnUse" x="8" y="4" width="3" height="4"><path fill-rule="evenodd" clip-rule="evenodd" d="M8.048 6V4h2.476v2c0 1.2-1.238 2-1.238 2s-1.238-.8-1.238-2z" fill="#fff"/></mask><g mask="url(#b)"><path fill-rule="evenodd" clip-rule="evenodd" d="M9.286 7.2c.342 0 .619-.358.619-.8 0-.442-.277-.8-.62-.8-.341 0-.618.358-.618.8 0 .442.277.8.619.8z" fill="#65B5D2"/><path fill-rule="evenodd" clip-rule="evenodd" d="M9.286 5.6c.17 0 .31-.18.31-.4 0-.22-.14-.4-.31-.4-.171 0-.31.18-.31.4 0 .22.139.4.31.4zm-.62.8c.172 0 .31-.18.31-.4 0-.22-.138-.4-.31-.4-.17 0-.309.18-.309.4 0 .22.139.4.31.4zm1.548-.4c0 .22-.138.4-.31.4-.17 0-.309-.18-.309-.4 0-.22.139-.4.31-.4.17 0 .31.18.31.4z" fill="url(#paint0_linear)"/><path fill="#2F8F22" d="M8.048 7.2h2.476V8H8.048z"/></g><path d="M0-.333h-.75l.503.556 2.08 2.305v.526l-2.06 1.901-.106.1v1.242l.542-.439 2.385-1.926h.37l2.038 1.88a.45.45 0 00.64-.632L3.738 3.07v-.525L5.69.744a.667.667 0 00.215-.49v-.952l-.543.439-2.385 1.926h-.37L.536-.245.44-.333H0z" fill="#DB1E36" stroke="#fff" stroke-width=".667"/><path fill-rule="evenodd" clip-rule="evenodd" d="M0 2v1.6h2.167v1.781a.62.62 0 001.238 0V3.6h1.81a.667.667 0 00.666-.667v-.266A.667.667 0 005.214 2h-1.81V0H2.168v2H0z" fill="#fff"/><path fill-rule="evenodd" clip-rule="evenodd" d="M0 2.4h2.476V0h.62v2.4H5.57v.8H3.095v2.4h-.619V3.2H0v-.8z" fill="url(#paint1_linear)"/></g><defs><linearGradient id="paint0_linear" x1="8.357" y1="4.8" x2="8.357" y2="6.4" gradientUnits="userSpaceOnUse"><stop stop-color="#E20B0C"/><stop offset="1" stop-color="#D40001"/></linearGradient><linearGradient id="paint1_linear" x1="0" y1="0" x2="0" y2="5.6" gradientUnits="userSpaceOnUse"><stop stop-color="#DB1E36"/><stop offset="1" stop-color="#D51931"/></linearGradient></defs></svg>