<svg width="13" height="12" fill="none" xmlns="http://www.w3.org/2000/svg"><rect width="13" height="12" rx="2" fill="#fff"/><mask id="a" maskUnits="userSpaceOnUse" x="0" y="0" width="13" height="12"><rect width="13" height="12" rx="2" fill="#fff"/></mask><g mask="url(#a)"><path fill="#05AB41" d="M0 0h13v12H0z"/><path fill-rule="evenodd" clip-rule="evenodd" d="M1.85 6.511a.667.667 0 010-1.022l4.222-3.531a.667.667 0 01.856 0l4.222 3.53a.667.667 0 010 1.023l-4.222 3.531a.667.667 0 01-.856 0L1.85 6.512z" fill="#FDD216"/><path fill-rule="evenodd" clip-rule="evenodd" d="M6.5 8.8c1.197 0 2.167-1.254 2.167-2.8 0-1.546-.97-2.8-2.167-2.8-1.197 0-2.167 1.254-2.167 2.8 0 1.546.97 2.8 2.167 2.8z" fill="#053087"/><mask id="b" maskUnits="userSpaceOnUse" x="4" y="3" width="5" height="6"><path fill-rule="evenodd" clip-rule="evenodd" d="M6.5 8.8c1.197 0 2.167-1.254 2.167-2.8 0-1.546-.97-2.8-2.167-2.8-1.197 0-2.167 1.254-2.167 2.8 0 1.546.97 2.8 2.167 2.8z" fill="#fff"/></mask><g mask="url(#b)"><path d="M4.076 5.268c.34-.356 1.438-.019 2.463.335 1.025.353 2.094 1.093 2.366 1.528" stroke="#fff" stroke-width="1.333" stroke-linecap="square"/></g></g></svg>