<svg width="13" height="12" fill="none" xmlns="http://www.w3.org/2000/svg"><rect width="13" height="12" rx="2" fill="#fff"/><mask id="a" maskUnits="userSpaceOnUse" x="0" y="0" width="13" height="12"><rect width="13" height="12" rx="2" fill="#fff"/></mask><g mask="url(#a)" fill-rule="evenodd" clip-rule="evenodd"><path d="M0 8h13V0H0v8z" fill="#E54252"/><path d="M0 12h13V8H0v4z" fill="#5CBE6B"/><path d="M0 0h1.857v1.8l-.31.6.31.6v1.2l-.31.6.31.6v1.2l-.31.6.31.6V9l-.31.6.31.6V12H0V0z" fill="#fff"/><path d="M-.31 1.2l-.619 1.2.62 1.2-.62 1.2.62 1.2-.62 1.2.62 1.2-.62 1.2.62 1.2.619-1.2-.62-1.2.62-1.2L-.31 6l.62-1.2-.62-1.2.62-1.2-.62-1.2z" fill="#E54252"/><path d="M.31 1.2L.929 0l.619 1.2-.62 1.2L.31 1.2zm.619 3.6l-.62-1.2.62-1.2.619 1.2-.62 1.2zm0 2.4L.309 6l.62-1.2.619 1.2-.62 1.2zm0 2.4l.619-1.2-.62-1.2L.31 8.4l.619 1.2zm0 0l.619 1.2-.62 1.2-.618-1.2.619-1.2z" fill="#E54252"/></g></svg>