<svg width="13" height="12" fill="none" xmlns="http://www.w3.org/2000/svg"><rect x=".25" y=".25" width="12.5" height="11.5" rx="1.75" fill="#fff" stroke="#F5F5F5" stroke-width=".5"/><mask id="a" maskUnits="userSpaceOnUse" x="0" y="0" width="13" height="12"><rect x=".25" y=".25" width="12.5" height="11.5" rx="1.75" fill="#fff" stroke="#fff" stroke-width=".5"/></mask><g mask="url(#a)" fill="#FF3131"><path d="M9.286 0H13v12H9.286z"/><path fill-rule="evenodd" clip-rule="evenodd" d="M0 12h3.714V0H0v12zm7.583-6.6c-.124.16-.379.05-.348-.15L7.428 4l-.619.4-.31-1.2-.309 1.2-.619-.4.194 1.25c.03.2-.225.31-.348.15a.196.196 0 00-.31 0l-.155.2-.619-.4.31.8-.152.196a.333.333 0 000 .408l.77.996h.93l.154 1.2h.31l.154-1.2h.929l.77-.996a.333.333 0 000-.408L8.359 6l.309-.8-.62.4-.154-.2a.196.196 0 00-.31 0z"/></g></svg>