<svg width="13" height="12" fill="none" xmlns="http://www.w3.org/2000/svg"><rect width="13" height="12" rx="2" fill="#fff"/><mask id="a" maskUnits="userSpaceOnUse" x="0" y="0" width="13" height="12"><rect width="13" height="12" rx="2" fill="#fff"/></mask><g mask="url(#a)"><path fill="#19BFBF" d="M0 0h13v12H0z"/><path fill-rule="evenodd" clip-rule="evenodd" d="M2.574 4.947a.333.333 0 00.13.4l.782.506a.333.333 0 01.13.4l-.063.165a.333.333 0 01-.492.16l-.193-.125a.333.333 0 00-.18-.053H2.19a.333.333 0 00-.334.333v.248c0 .133.08.253.202.306l.36.155a.31.31 0 01.122.474.31.31 0 00-.065.19v.252c0 .028.004.056.01.083l.267 1.033a.338.338 0 00.142.197l.253.163a.333.333 0 00.444-.076l.432-.558.087-.113a.333.333 0 00-.082-.484l-.22-.141a.208.208 0 01.178-.374l.735.237c.137.045.23.173.23.318v.476c0 .053.013.106.038.153l.517 1.003a.23.23 0 00.424-.037l.33-1.058a.284.284 0 01.536-.019c.01.026.023.05.04.072l.559.722a.33.33 0 00.082.076l.057.037a.333.333 0 00.515-.28v-.074a.333.333 0 00-.07-.204l-.082-.106a.333.333 0 010-.408l.052-.067A.333.333 0 018.21 8.8h.357a.333.333 0 00.181-.053l.384-.249a.333.333 0 00.153-.28v-.504a.333.333 0 00-.07-.204l-.082-.106a.333.333 0 010-.408l.1-.129a.333.333 0 01.574.084l.061.157a.144.144 0 00.27-.104l-.136-.351a.333.333 0 01.13-.4l.163-.106a.333.333 0 00.13-.4l-.161-.417a.333.333 0 00-.18-.185L9.68 4.97a.333.333 0 01-.132-.51l.256-.33a.333.333 0 01.263-.13h.537a.333.333 0 00.31-.213l.073-.186a.333.333 0 00-.272-.451l-2.557-.3a.24.24 0 01-.161-.385.24.24 0 00.05-.147v-.385a.333.333 0 00-.334-.333h-1.05c-.104 0-.2.048-.264.13l-.765.988a.333.333 0 01-.162.114l-1.14.368-1.128.365a.243.243 0 01-.207-.028.243.243 0 00-.366.265l.127.494a.333.333 0 01-.012.204l-.173.447zM6.81 10c0 .22-.139.4-.31.4-.17 0-.31-.18-.31-.4 0-.22.14-.4.31-.4.171 0 .31.18.31.4zM4.643 6.4c.17 0 .31-.18.31-.4 0-.22-.14-.4-.31-.4-.171 0-.31.18-.31.4 0 .22.139.4.31.4zm5.88 1.2V8l-.335.434a.227.227 0 10.392.22L10.833 8l-.31-.4zm0 0l.218-.14a.141.141 0 10-.218-.118V7.6z" fill="#fff"/></g></svg>