<svg width="13" height="12" fill="none" xmlns="http://www.w3.org/2000/svg"><rect width="13" height="12" rx="2" fill="#fff"/><mask id="a" maskUnits="userSpaceOnUse" x="0" y="0" width="13" height="12"><rect width="13" height="12" rx="2" fill="#fff"/></mask><g mask="url(#a)"><path fill="#19BFBF" d="M0 0h13v12H0z"/><path fill-rule="evenodd" clip-rule="evenodd" d="M7.784 10.46l-.313-.406a.333.333 0 01-.06-.12L7.15 8.917a.156.156 0 00-.304.068l.25 1.286a.29.29 0 01-.515.233l-.015-.02a.31.31 0 01-.065-.19v-.632a.333.333 0 00-.022-.12l-.205-.529a.333.333 0 00-.311-.213H5.36a.333.333 0 00-.18.053l-.428.276a.333.333 0 00-.142.197l-.244.948a.333.333 0 01-.142.197l-.329.212a.334.334 0 01-.362 0l-.285-.184a.333.333 0 01-.153-.28V9.133c0-.184.15-.333.334-.333h.261c.185 0 .334-.15.334-.333v-.425a.33.33 0 01.01-.083l.235-.909a.333.333 0 01.323-.25h.262a.333.333 0 00.18-.053l.455-.294a.333.333 0 01.18-.053h.223a.298.298 0 00.298-.298v-.02a.24.24 0 01.463-.087l.074.192c.05.128.173.213.311.213h.442a.333.333 0 00.323-.25l.18-.7a.333.333 0 01.323-.25h.16a.2.2 0 100-.4h-.109a.31.31 0 01-.31-.31v-.428c0-.04.008-.082.023-.12l.232-.599a.272.272 0 00-.47-.265l-.334.432a.333.333 0 00-.07.204v.644a.333.333 0 01-.01.083l-.252.975a.245.245 0 01-.43.09l-.198-.256a.184.184 0 01-.038-.113.184.184 0 00-.283-.154l-.13.084a.267.267 0 01-.356-.061l-.09-.116a.333.333 0 01-.07-.204v-.572c0-.074.025-.146.07-.204l.55-.71.875-1.132a.333.333 0 01.132-.102l.786-.339a.333.333 0 01.132-.027h.322c.138 0 .261.085.311.213l.205.529c.015.038.022.08.022.12v1.024c0 .074.025.146.07.204l.14.18a.333.333 0 01.059.288L9.028 5a.333.333 0 00.105.336L9.905 6l.365.236c.144.093.194.28.115.433l-.443.86a.333.333 0 00-.037.152v.9c0 .133-.08.253-.202.306l-.598.258a.333.333 0 00-.18.185l-.24.625a.334.334 0 01-.048.083l-.326.421a.333.333 0 01-.527 0zm-2.522-.06c.17 0 .31-.18.31-.4 0-.22-.14-.4-.31-.4-.171 0-.31.18-.31.4 0 .22.139.4.31.4zm-.929-5.2c0 .22-.138.4-.31.4-.17 0-.309-.18-.309-.4 0-.22.139-.4.31-.4.17 0 .31.18.31.4z" fill="#fff"/><path fill-rule="evenodd" clip-rule="evenodd" d="M4.62 5.258a.333.333 0 00.023-.12v-.276a.333.333 0 00-.023-.12l-.154-.4a.252.252 0 11.487-.09v.886c0 .04.007.082.022.12l.12.309a.318.318 0 11-.594 0l.12-.309z" fill="#fff"/></g></svg>