<svg width="13" height="12" fill="none" xmlns="http://www.w3.org/2000/svg"><rect width="13" height="12" rx="2" fill="#fff"/><mask id="a" maskUnits="userSpaceOnUse" x="0" y="0" width="13" height="12"><rect width="13" height="12" rx="2" fill="#fff"/></mask><g mask="url(#a)"><path fill="red" d="M0 0h13v12H0z"/><path fill-rule="evenodd" clip-rule="evenodd" d="M5.571 7.2H4.048a.333.333 0 01-.334-.333V5.133c0-.184.15-.333.334-.333H5.57V2.733c0-.184.15-.333.334-.333h1.19c.184 0 .334.15.334.333V4.8h1.523c.184 0 .334.15.334.333v1.734c0 .184-.15.333-.334.333H7.43v2.067c0 .184-.15.333-.334.333h-1.19a.333.333 0 01-.334-.333V7.2z" fill="#fff"/></g></svg>