<svg width="13" height="12" fill="none" xmlns="http://www.w3.org/2000/svg"><rect width="13" height="12" rx="2" fill="#fff"/><mask id="a" maskUnits="userSpaceOnUse" x="0" y="0" width="13" height="12"><rect width="13" height="12" rx="2" fill="#fff"/></mask><g mask="url(#a)"><path fill="url(#paint0_linear)" d="M6.19 0H13v12H6.19z"/><path fill-rule="evenodd" clip-rule="evenodd" d="M0 12h4.333V0H0v12z" fill="#059170"/><path fill-rule="evenodd" clip-rule="evenodd" d="M4.333 12h4.334V0H4.333v12z" fill="#E21A30"/><path fill-rule="evenodd" clip-rule="evenodd" d="M8.667 12H13V0H8.667v12z" fill="#FFDC44"/><path fill-rule="evenodd" clip-rule="evenodd" d="M6.5 6.78l-.91.838.336-1.377-.898-.859 1.117-.013L6.5 4l.355 1.369 1.117.013-.898.859.336 1.377-.91-.838z" fill="#FFDC42"/></g><defs><linearGradient id="paint0_linear" x1="6.19" y1="0" x2="6.19" y2="12" gradientUnits="userSpaceOnUse"><stop stop-color="#FFDC44"/><stop offset="1" stop-color="#FDD216"/></linearGradient></defs></svg>