<svg width="13" height="12" fill="none" xmlns="http://www.w3.org/2000/svg"><rect width="13" height="12" rx="2" fill="#fff"/><mask id="a" maskUnits="userSpaceOnUse" x="0" y="0" width="13" height="12"><rect width="13" height="12" rx="2" fill="#fff"/></mask><g mask="url(#a)"><path fill="url(#paint0_linear)" d="M0 0h13v12H0z"/><path fill-rule="evenodd" clip-rule="evenodd" d="M6.305 2a.284.284 0 00-.197.08l-1.1 1.066a.333.333 0 01-.13.078l-1.122.363a.334.334 0 00-.078.037l-1.11.717a.333.333 0 00-.13.16L1.91 5.86a.333.333 0 00.015.272l.513.995c.024.047.037.1.037.153v1.005c0 .074.025.146.07.204l.362.468c.106.137.299.17.444.076l1.518-.98A.333.333 0 015.05 8h.995c.093 0 .181.039.244.107l1.66 1.786a.333.333 0 00.244.107h.89c.124 0 .239-.07.296-.18l1.108-2.148a.333.333 0 00.037-.153V6.081a.333.333 0 00-.037-.153L9.286 3.6l-.867-1.866a.231.231 0 00-.21-.134h-.075a.194.194 0 00-.154.313.194.194 0 01.028.19l-.187.484a.333.333 0 01-.311.213h-.472a.333.333 0 01-.31-.213L6.57 2.18A.284.284 0 006.305 2zm2.671 8.4h-.619l.046.06a.333.333 0 00.527 0l.046-.06z" fill="#fff"/></g><defs><linearGradient id="paint0_linear" x1="0" y1="0" x2="0" y2="12" gradientUnits="userSpaceOnUse"><stop stop-color="#19BFBF"/><stop offset="1" stop-color="#10ACAC"/></linearGradient></defs></svg>