<svg width="13" height="12" fill="none" xmlns="http://www.w3.org/2000/svg"><rect width="13" height="12" rx="2" fill="#fff"/><mask id="a" maskUnits="userSpaceOnUse" x="0" y="0" width="13" height="12"><rect width="13" height="12" rx="2" fill="#fff"/></mask><g mask="url(#a)"><path fill="#19BFBF" d="M0 0h13v12H0z"/><path fill-rule="evenodd" clip-rule="evenodd" d="M4.643 9.632c0-.021.002-.043.006-.063L4.952 8l.296-1.526a.333.333 0 00-.005-.147l-.258-1a.333.333 0 00-.142-.198l-.357-.23a.333.333 0 01-.153-.28V3.262c0-.04.008-.082.023-.12l.287-.742.227-.587a.333.333 0 01.31-.213h1.296c.184 0 .333.15.333.333v.157c0 .171.139.31.31.31.17 0 .31.139.31.31v.309c0 .113.057.218.152.28l.933.603a.333.333 0 01.153.28v.556a.333.333 0 01-.023.12l-.257.664a.333.333 0 01-.093.132l-.802.692a.333.333 0 00-.094.132L6.84 7.922a.333.333 0 01-.094.132l-.802.692a.333.333 0 00-.093.132l-.507 1.309a.333.333 0 01-.31.213h-.058a.333.333 0 01-.333-.333v-.435z" fill="#fff"/></g></svg>