<svg width="13" height="12" fill="none" xmlns="http://www.w3.org/2000/svg"><rect x=".25" y=".25" width="12.5" height="11.5" rx="1.75" fill="#fff" stroke="#F5F5F5" stroke-width=".5"/><mask id="a" maskUnits="userSpaceOnUse" x="0" y="0" width="13" height="12"><rect x=".25" y=".25" width="12.5" height="11.5" rx="1.75" fill="#fff" stroke="#fff" stroke-width=".5"/></mask><g mask="url(#a)"><path fill-rule="evenodd" clip-rule="evenodd" d="M2 0a2 2 0 00-2 2v2.8h3.714V0H2zm3.571 0v4.8H13V2a2 2 0 00-2-2H5.571zM13 7.2H5.571V12H11a2 2 0 002-2V7.2zM3.714 12V7.2H0V10a2 2 0 002 2h1.714z" fill="#EF264D"/></g></svg>