<svg width="13" height="12" fill="none" xmlns="http://www.w3.org/2000/svg"><rect width="13" height="12" rx="2" fill="#fff"/><mask id="a" maskUnits="userSpaceOnUse" x="0" y="0" width="13" height="12"><rect width="13" height="12" rx="2" fill="#fff"/></mask><g mask="url(#a)"><path fill-rule="evenodd" clip-rule="evenodd" d="M0 8.8h13V5.6H0v3.2z" fill="#0748AE"/><path fill-rule="evenodd" clip-rule="evenodd" d="M0 12h13V8.8H0V12z" fill="#DE2035"/><path fill-rule="evenodd" clip-rule="evenodd" d="M0 5.6h13V0H0v5.6z" fill="#FFD935"/><path fill-rule="evenodd" clip-rule="evenodd" d="M5.757 4.8c-.3.292-.495.757-.495 1.28 0 .884.554 1.6 1.238 1.6.684 0 1.238-.716 1.238-1.6 0-.523-.194-.988-.495-1.28l-.434 1.68H6.19L5.757 4.8z" fill="#FFD935"/><path fill-rule="evenodd" clip-rule="evenodd" d="M6.5 4.4l.31 2h-.62l.31-2z" fill="#5FC0DC"/><path opacity=".66" d="M8.048 3.6l-.929-.4L6.5 4l-.619-.8-.929.4" stroke="#3F2821" stroke-width=".667" stroke-linecap="round" stroke-linejoin="round"/></g></svg>