<svg width="13" height="12" fill="none" xmlns="http://www.w3.org/2000/svg"><rect x=".25" y=".25" width="12.5" height="11.5" rx="1.75" fill="#fff" stroke="#F5F5F5" stroke-width=".5"/><mask id="a" maskUnits="userSpaceOnUse" x="0" y="0" width="13" height="12"><rect x=".25" y=".25" width="12.5" height="11.5" rx="1.75" fill="#fff" stroke="#fff" stroke-width=".5"/></mask><g mask="url(#a)"><path fill-rule="evenodd" clip-rule="evenodd" d="M0 4h13V0H0v4z" fill="#E41D33"/><path fill-rule="evenodd" clip-rule="evenodd" d="M0 12h13V8H0v4z" fill="#262626"/><path d="M5.57 5.72l.224.58-.13-.153a.229.229 0 01-.378-.173v-.713c0-.047.025-.089.064-.11l.22.57zm1.238 0h0l.134.347h-.897l.143-.336h0V5.73l.002-.006.01-.022a3.359 3.359 0 01.172-.33c.047-.079.093-.146.135-.195.04.047.085.113.13.19a2.77 2.77 0 01.16.326l.009.022.002.005zm.398.58l.224-.58.22-.57a.128.128 0 01.064.111v.713c0 .196-.23.301-.377.173l-.131.152zm-.639-1.181l-.002.001a.013.013 0 01.002-.001zm-.116.005h-.002.002z" fill="#F4B32E" fill-opacity=".25" stroke="#C6A846" stroke-width=".667"/></g></svg>