<svg width="13" height="12" fill="none" xmlns="http://www.w3.org/2000/svg"><rect width="13" height="12" rx="2" fill="#fff"/><mask id="a" maskUnits="userSpaceOnUse" x="0" y="0" width="13" height="12"><rect width="13" height="12" rx="2" fill="#fff"/></mask><g mask="url(#a)"><path fill="#043CAE" d="M0 0h13v12H0z"/><path fill-rule="evenodd" clip-rule="evenodd" d="M6.062 2.566L6.5 2.4l.438.166L6.81 2l.128-.566L6.5 1.6l-.438-.166.129.566-.129.566zm0 8L6.5 10.4l.438.166L6.81 10l.128-.566L6.5 9.6l-.438-.166.129.566-.129.566zM9.595 6.4l-.437.166L9.286 6l-.128-.566.437.166.438-.166L9.905 6l.128.566-.438-.166zm-6.628.166l.438-.166.438.166L3.714 6l.129-.566-.438.166-.438-.166.128.566-.128.566zM9.181 4.4l-.438.166L8.87 4l-.128-.566.438.166.437-.166L9.49 4l.128.566-.437-.166zm-5.8 4.166L3.82 8.4l.438.166L4.13 8l.128-.566-.438.166-.437-.166L3.51 8l-.128.566zm4.667-5.63l-.438.166.128-.566-.128-.566.438.166.437-.166-.128.566.128.566-.437-.166zM4.515 10.03l.437-.166.438.166-.128-.566.128-.566-.438.166-.437-.166.128.566-.128.566zM9.18 8.4l-.438.166L8.87 8l-.128-.566.438.166.437-.166L9.49 8l.128.566-.437-.166zm-5.8-3.834l.44-.166.438.166L4.13 4l.128-.566-.438.166-.437-.166L3.51 4l-.128.566zm4.667 5.298l-.438.166.128-.566-.128-.566.438.166.437-.166-.128.566.128.566-.437-.166zM4.515 3.102l.437-.166.438.166-.128-.566.128-.566-.438.166-.437-.166.128.566-.128.566z" fill="#FFD429"/></g></svg>