<svg width="13" height="12" fill="none" xmlns="http://www.w3.org/2000/svg"><rect width="13" height="12" rx="2" fill="#fff"/><mask id="a" maskUnits="userSpaceOnUse" x="0" y="0" width="13" height="12"><rect width="13" height="12" rx="2" fill="#fff"/></mask><g mask="url(#a)"><path fill="#95CEF5" d="M0 0h13v12H0z"/><path fill-rule="evenodd" clip-rule="evenodd" d="M5.772 4.094l.728-.638.728.638-.245-1.091.695-.697-.88-.037L6.5 1.2l-.298 1.07-.88.036.695.697-.245 1.091zm0 6.4l.728-.638.728.638-.245-1.091.695-.697-.88-.037L6.5 7.6l-.298 1.07-.88.036.695.697-.245 1.091zm3.204-3.838l-.728.638.245-1.091-.694-.697.879-.037.298-1.069.299 1.07.879.036-.695.697.245 1.091-.728-.638zm-5.68.638l.728-.638.728.638-.245-1.091.694-.697-.879-.037L4.024 4.4l-.299 1.07-.879.036.695.697-.245 1.091z" fill="#fff"/></g></svg>