<svg width="13" height="12" fill="none" xmlns="http://www.w3.org/2000/svg"><rect width="13" height="12" rx="2" fill="#fff"/><mask id="a" maskUnits="userSpaceOnUse" x="0" y="0" width="13" height="12"><rect width="13" height="12" rx="2" fill="#fff"/></mask><g mask="url(#a)"><path fill="#0A17A7" d="M0 0h13v12H0z"/><path fill-rule="evenodd" clip-rule="evenodd" d="M3.099 8l-4.387 3.823.693 1.327 5.547-4.836V12.8h3.096V8.314l5.547 4.836.693-1.327L9.902 8H13V4H9.902L14.288.177l-.693-1.327-5.547 4.836V-.8H4.952v4.486L-.595-1.15-1.288.177 3.1 4H0v4h3.099z" fill="#fff"/><path d="M8.667 3.8l5.88-5M9.292 8.218l5.271 4.592M3.717 3.786l-5.499-4.789m6.095 9.166l-6.095 5.223" stroke="#DB1F35" stroke-width=".667" stroke-linecap="round"/><path fill-rule="evenodd" clip-rule="evenodd" d="M0 7.2h5.571V12H7.43V7.2H13V4.8H7.429V0H5.57v4.8H0v2.4z" fill="#E6273E"/></g></svg>