<svg width="13" height="12" fill="none" xmlns="http://www.w3.org/2000/svg"><rect x=".25" y=".25" width="12.5" height="11.5" rx="1.75" fill="#fff" stroke="#F5F5F5" stroke-width=".5"/><mask id="a" maskUnits="userSpaceOnUse" x="0" y="0" width="13" height="12"><rect x=".25" y=".25" width="12.5" height="11.5" rx="1.75" fill="#fff" stroke="#fff" stroke-width=".5"/></mask><g mask="url(#a)"><path fill="#E8112D" d="M4.952 0h3.095v12H4.952z"/><path fill="#E8112D" d="M0 4h13v4H0z"/><path fill="#F9DD16" d="M6.19 1.6h.619v8.8H6.19z"/><path fill-rule="evenodd" clip-rule="evenodd" d="M6.5 9.6l.619.8H5.881l.619-.8z" fill="#F9DD16"/><path fill="#F9DD16" d="M3.095 5.6h6.81v.8h-6.81z"/><path fill-rule="evenodd" clip-rule="evenodd" d="M6.5 2.4l.619-.8H5.881l.619.8zM3.714 6l-.619-.8v1.6l.62-.8zm5.572 0l.619-.8v1.6l-.62-.8z" fill="#F9DD16"/></g></svg>