<svg width="13" height="12" fill="none" xmlns="http://www.w3.org/2000/svg"><rect width="13" height="12" rx="2" fill="#fff"/><mask id="a" maskUnits="userSpaceOnUse" x="0" y="0" width="13" height="12"><rect width="13" height="12" rx="2" fill="#fff"/></mask><g mask="url(#a)" fill-rule="evenodd" clip-rule="evenodd"><path d="M0 12h13V0H0v12z" fill="#F0371D"/><path d="M6.492 4.887c.448-.483.475-.591.582-1.017.036-.142.01-.26-.02-.397-.042-.199-.095-.442.012-.868-.487-.205-1.054.31-1.265 1.15-.212.841.012 1.688.5 1.893.088.037.078.01.051-.061-.046-.126-.144-.392.14-.7zm-.925.884c-.218-.7-.29-.766-.57-1.03-.093-.087-.187-.092-.298-.098-.16-.01-.354-.02-.635-.283-.301.536-.097 1.392.456 1.911.553.52 1.246.506 1.548-.03.054-.096.031-.092-.03-.082-.107.018-.333.057-.471-.388zm2.79.381c-.346 0-.434 0-.928-.4-.315-.254-.48-.052-.558.044-.045.055-.061.075-.061-.044 0-.662.554-1.2 1.238-1.2.683 0 1.238.538 1.238 1.2-.347 0-.51.14-.643.254-.092.08-.17.146-.286.146zm0-.752c0 .11-.07.2-.155.2-.085 0-.154-.09-.154-.2 0-.11.069-.2.154-.2.086 0 .155.09.155.2zM7.081 7.17c-.141.73-.114.839-.007 1.265.036.142.11.217.196.306.125.129.278.285.385.712.488-.205.712-1.053.5-1.893-.21-.84-.777-1.356-1.265-1.15-.087.036-.067.05-.013.088.095.066.295.207.204.672zm.547 1.032c-.082.035-.17-.023-.195-.128-.027-.105.018-.218.099-.252s.168.023.195.128c.026.105-.018.218-.1.252zM5.93 7.182c-.582.05-.653.118-.933.381-.094.088-.127.202-.165.336-.056.193-.124.43-.405.693.302.536.995.55 1.548.03s.757-1.375.456-1.911c-.054-.096-.059-.067-.07.011-.02.137-.06.426-.431.46zm-.591.99c-.05-.09-.035-.215.034-.28.07-.065.166-.045.216.045.05.089.035.214-.034.279-.07.065-.166.045-.216-.044zM4.655 5.35c.05-.09.147-.109.216-.044.07.065.085.19.035.28-.05.089-.147.109-.216.044-.07-.065-.085-.19-.035-.28zM6.52 3.637c.081.034.126.147.1.252-.027.105-.114.163-.195.129-.082-.034-.126-.147-.1-.252.027-.105.114-.163.195-.129z" fill="#fff"/></g></svg>