<svg width="13" height="12" fill="none" xmlns="http://www.w3.org/2000/svg"><rect x=".25" y=".25" width="12.5" height="11.5" rx="1.75" fill="#fff" stroke="#F5F5F5" stroke-width=".5"/><mask id="a" maskUnits="userSpaceOnUse" x="0" y="0" width="13" height="12"><rect x=".25" y=".25" width="12.5" height="11.5" rx="1.75" fill="#fff" stroke="#fff" stroke-width=".5"/></mask><g mask="url(#a)" fill-rule="evenodd" clip-rule="evenodd"><path d="M0 4h13V0H0v4zm0 8h13V8H0v4z" fill="#0884E6"/><path d="M6.5 6.4l-.438.166L6.191 6l-.129-.566.438.166.438-.166L6.81 6l.128.566L6.5 6.4zm2.476-.8l-.438.166.129-.566-.129-.566.438.166.438-.166-.128.566.128.566-.438-.166zm0 1.6l-.438.166.129-.566-.129-.566.438.166.438-.166-.128.566.128.566-.438-.166zm-4.952 0l-.438.166.128-.566-.128-.566.438.166.438-.166-.129.566.129.566-.438-.166zm0-1.6l-.438.166.128-.566-.128-.566.438.166.438-.166-.129.566.129.566-.438-.166z" fill="#0E88E9"/></g></svg>