<svg width="13" height="12" fill="none" xmlns="http://www.w3.org/2000/svg"><rect x=".25" y=".25" width="12.5" height="11.5" rx="1.75" fill="#fff" stroke="#F5F5F5" stroke-width=".5"/><mask id="a" maskUnits="userSpaceOnUse" x="0" y="0" width="13" height="12"><rect x=".25" y=".25" width="12.5" height="11.5" rx="1.75" fill="#fff" stroke="#fff" stroke-width=".5"/></mask><g mask="url(#a)" fill-rule="evenodd" clip-rule="evenodd"><path d="M0 4h13V0H0v4z" fill="#FF202D"/><path opacity=".5" d="M4.952 3.2l.31-.4.31.4V4h-.62v-.8zm1.239 0l.309-.4.31.4V4h-.62v-.8zm1.547-.4l-.31.4V4h.62v-.8l-.31-.4z" fill="#1895DB"/><path opacity=".5" d="M5.88 2.8l-.309.4V4h.62v-.8l-.31-.4zm1.239 0l-.31.4V4h.62v-.8l-.31-.4z" fill="#191F94"/><path d="M0 12h13V8H0v4z" fill="#2027AC"/><path d="M5.571 4h-.31l-.309.8h.62V4zm.62 0h.619v.8h-.62V4zm1.238 0h.31l.309.8h-.62V4zm-1.858.8h.62v.8h-.62v.8h-.619v-.8h.62v-.8zm1.858 0h-.62v.8h-.618v.8h.619v-.8h.619v.8h.619v-.8h-.62v-.8zm-.62 1.6h.62v.8h-.62v-.8zm-1.238 0h.62v.8h-.62v-.8zm0 1.6v-.8h-.619V8h.62v.8h.618V8h-.619zm.62-.8h.619V8h.619v-.8h.619V8h-.62v.8H6.81V8h-.62v-.8z" fill="url(#paint0_linear)"/></g><defs><linearGradient id="paint0_linear" x1="4.952" y1="4" x2="4.952" y2="8.8" gradientUnits="userSpaceOnUse"><stop stop-color="#FF212E"/><stop offset="1" stop-color="#FD0D1B"/></linearGradient></defs></svg>