<svg width="13" height="12" fill="none" xmlns="http://www.w3.org/2000/svg"><rect width="13" height="12" rx="2" fill="#D01129"/><mask id="a" maskUnits="userSpaceOnUse" x="0" y="0" width="13" height="12"><rect width="13" height="12" rx="2" fill="#fff"/></mask><g mask="url(#a)" fill-rule="evenodd" clip-rule="evenodd"><path d="M6.448 6.024c.307 0 .556-.337.556-.753 0-.417-.25-.754-.556-.754-.307 0-.556.337-.556.754 0 .416.249.753.556.753" fill="#FFF101"/><path d="M5.941 4.968c.158-.069.362.01.496.186.143-.036.286-.279.33-.495-.049-.719-.395-1.263-.5-1.637-.034-.118-.188-.304-.349-.217-.132.071-.199.016-.642.316-.24.162-.442.329-.549.358-.106.03-.218.055-.304-.035-.117-.125-.248-.16-.325-.253-.095-.115-.156-.202-.22-.237-.064-.035-.173.043-.127.23.104.42.347.488.452.881.05.186.12.325.276.185.157-.141.38-.328.757-.348.254-.013.516-.14.637-.348-.001.18.046.327.033.561-.012.234-.01.525.035.853" fill="#fff"/><path d="M6.239 4.987c-.047-.354.038-.405-.063-.82a3.78 3.78 0 01-.1-.707l-.041.016c0 .146.04.458.1.708.098.4.022.462.06.785a.388.388 0 01.044.018" fill="#FFF101"/><path d="M6 4.948c0-.045-.002-.092-.007-.132.071-.023.194.066.19 0 0-.021 0-.09.002-.125-.002.056-.172-.04-.2-.015-.032-.206.007-.417-.018-.547.056-.02.16.025.148-.035-.007-.031-.021-.108-.03-.156.009.05-.074.009-.102.038a4.332 4.332 0 01-.036-.42l-.074-.002c-.001.18.046.327.033.561-.012.234-.01.525.035.853a.713.713 0 01.06-.02m-.189-1.643c-.11.217-.375.367-.62.4a1.126 1.126 0 00-.62.294c-.012-.03-.034-.045-.053-.065-.208-.208-.122-.49-.044-.45-.03-.015-.047-.036-.063-.052-.027-.028-.106.078-.096.245a.583.583 0 00.085.233c-.066-.017-.098-.04-.138-.104a.143.143 0 01.074-.032c-.008-.026-.019-.054-.021-.097a.162.162 0 00-.107.047c-.082-.111-.167-.2-.216-.33-.079-.21.001-.343.105-.203-.095-.115-.156-.202-.22-.237-.064-.035-.173.043-.127.23.104.42.347.488.452.881.05.186.122.33.276.185l.044-.041c.049-.039.126.026.118.166.04-.129.014-.168-.02-.245-.024.018-.022-.088-.037-.101.088-.075.195-.15.33-.202.005.063.018.13.06.12l.07-.019c-.042.01-.054-.063-.059-.126.064-.02.134-.035.21-.044a.917.917 0 00.266-.072c.013.06.04.162.083.142a.856.856 0 00.113-.058c-.061.04-.085-.073-.1-.133a.694.694 0 00.264-.264l-.009-.068" fill="#FFF101"/><path d="M6.302 3.413c.054-.057.1-.084.053-.204-.076-.197-.028-.198-.195-.323-.17-.127-.149-.137-.373-.03-.056.027-.043.054-.034.163.021.234.06.423.097.616.141-.025.359-.124.452-.222z" fill="#FFF101"/><path d="M5.774 3.36c-.03-.116-.021-.1.086-.065.035-.152.084-.28.111-.403.03-.137.04-.162.085-.128.057.043.12.088.16.116.072.047.062.064.028.14-.035.075-.146.228-.215.388.09.087.12.095.055.132a1.264 1.264 0 01-.242.106c-.01-.076-.04-.178-.068-.287zM4.708 4.441l-.007.119-.064-.08-.072.067.005-.118-.083-.034.07-.07-.03-.109.082.033.044-.102.033.109.086-.018-.042.104.063.08-.085.02" fill="#FFF101"/><path d="M6.508 6.017c-.122-.15-.174-.43-.13-.675-.093-.15-.32-.197-.48-.14-.434.416-.609 1.095-.794 1.406-.06.098-.1.373.035.518.112.12.11.226.523.597.224.2.431.355.503.465.072.11.144.23.13.375-.022.2.022.372 0 .51-.025.168-.05.283-.04.376.009.093.113.181.209.034.217-.332.138-.652.337-.971.094-.151.148-.304-.02-.418-.169-.114-.399-.28-.6-.715-.136-.292-.348-.537-.541-.575.115-.088.186-.217.341-.32.156-.102.34-.25.527-.467" fill="#fff"/><path d="M6.372 5.658c-.203.232-.278.158-.492.484a2.446 2.446 0 01-.401.472l.03.04c.093-.075.273-.277.402-.473.207-.315.284-.256.472-.462a.827.827 0 01-.011-.061" fill="#FFF101"/><path d="M6.466 5.958a.59.59 0 00-.08.074c-.051-.072-.055-.26-.096-.223a1.574 1.574 0 01-.08.06c.036-.025.06.222.09.244-.115.14-.27.2-.34.294-.042-.056-.064-.202-.097-.157-.016.024-.058.079-.084.114.028-.036.043.082.075.1a2.577 2.577 0 01-.25.253l.036.087c.115-.088.186-.217.341-.32.156-.102.34-.25.527-.467a1.156 1.156 0 01-.042-.059M5.511 7c.194.022.422.258.565.53.168.316.347.477.498.58-.012.03-.012.063-.014.096-.03.348-.252.388-.266.276.005.043 0 .073-.002.1-.004.046.103.086.205-.009a.535.535 0 00.106-.217.355.355 0 01.002.214.207.207 0 01-.057-.07c-.012.022-.025.049-.05.073a.233.233 0 00.082.102c-.03.152-.044.296-.103.42-.095.196-.22.169-.181-.023-.026.17-.051.284-.042.377.01.093.114.181.21.034.217-.332.138-.652.337-.971.094-.151.15-.31-.02-.418l-.048-.03c-.05-.039-.047-.162.047-.222-.102.017-.115.067-.147.145.024.02-.044.07-.046.096a1.397 1.397 0 01-.294-.288c.038-.037.074-.085.047-.13a1.777 1.777 0 01-.047-.074c.027.045-.013.096-.051.133a2.03 2.03 0 01-.133-.226 1.558 1.558 0 00-.179-.276c.032-.045.084-.127.049-.169a1.114 1.114 0 00-.093-.103c.055.053-.005.137-.035.184a.568.568 0 00-.3-.178L5.51 7" fill="#FFF101"/><path d="M5.256 6.419c-.063-.035-.032-.083-.085.032-.088.188-.105.145-.101.403.004.263.041.221.222.432a5.58 5.58 0 00.41-.495c-.086-.153-.337-.312-.446-.372z" fill="#FFF101"/><path d="M5.565 7.018c-.059.092-.053.075-.084-.069-.115.035-.203.075-.295.104-.103.033-.123.034-.124-.035a7.55 7.55 0 00-.007-.247c-.005-.108.01-.104.076-.102.065.002.201.024.338.025.01-.15 0-.188.056-.13.063.063.156.178.189.231-.044.049-.094.135-.15.223zm1.224.712l.079-.051-.019.115.079.052-.078.053.02.114-.08-.048-.054.091-.02-.114h-.088l.053-.094-.054-.092.087-.002.02-.115.055.09" fill="#FFF101"/><path d="M6.895 4.827c-.036.219-.188.42-.367.49-.049.185.035.474.15.635.484.302 1.005.167 1.296.23.092.02.288-.069.313-.301.02-.19.089-.242.12-.913.016-.363.01-.684.045-.823.034-.14.074-.285.174-.34.138-.075.226-.212.325-.256.12-.054.206-.082.26-.14.055-.058.06-.224-.082-.263-.32-.09-.486.163-.789.09-.143-.035-.268-.023-.256.232.011.255.02.609-.157 1.063-.118.305-.168.677-.096.922-.114-.091-.232-.11-.375-.241a2.286 2.286 0 00-.561-.385" fill="#fff"/><path d="M6.733 5.167c.25.122.24.247.555.336.19.053.408.164.502.235l.01-.056a1.776 1.776 0 00-.502-.235c-.305-.086-.306-.206-.53-.324a.55.55 0 01-.035.044" fill="#FFF101"/><path d="M6.878 4.905c.028.023.06.044.087.058-.02.096-.139.195-.094.224.014.01.056.045.079.064-.035-.03.11-.182.11-.228.146.066.262.217.357.253-.015.077-.096.176-.051.192.023.007.079.029.114.042-.036-.015.032-.091.027-.138.079.038.225.12.286.168l.038-.087c-.114-.091-.232-.11-.375-.241a2.286 2.286 0 00-.561-.385 1.566 1.566 0 01-.017.078m1.142.602c-.083-.239-.046-.625.055-.929a2.36 2.36 0 00.122-.876c.025 0 .046-.017.069-.03.236-.14.374.102.309.174.024-.027.046-.037.065-.048.03-.019.003-.164-.109-.236-.048-.031-.137-.03-.191-.016.044-.07.075-.096.135-.11a.304.304 0 01-.016.103c.02.003.044.004.072.023a.345.345 0 00.024-.15c.112-.04.21-.095.319-.087.173.012.218.172.077.224.12-.054.206-.082.26-.14.055-.058.06-.224-.082-.263-.32-.09-.486.163-.789.09-.143-.035-.272-.022-.256.232l.004.071c0 .077-.08.136-.165.056.062.111.1.101.166.1.001-.038.067.017.084.006.003.14-.003.304-.036.489-.043-.026-.092-.044-.107.01l-.024.093c.016-.055.068-.033.11-.007a2.248 2.248 0 01-.077.27 2.017 2.017 0 00-.086.348c-.045-.016-.123-.035-.133.026a1.795 1.795 0 00-.019.162c.006-.092.09-.064.135-.051a1.15 1.15 0 00.036.442l.048.024" fill="#FFF101"/><path d="M7.688 6.006c.01.092.003.16.103.165.164.009.15.036.314-.097.166-.136.17-.11.214-.427.01-.078-.013-.077-.087-.12-.16-.093-.3-.087-.44-.14-.056.178-.12.46-.104.619z" fill="#FFF101"/><path d="M8.005 5.435c.088.023.074.024-.002.133.08.117.14.2.205.293.072.104.083.128.04.164a4.138 4.138 0 00-.155.13c-.066.061-.072.04-.103-.038-.031-.077-.076-.247-.144-.407-.1.063-.12.093-.112-.001a2.9 2.9 0 01.054-.338c.053.027.133.042.217.064zM7.847 3.64l-.072-.067.083-.036-.006-.117.073.064.063-.08.008.118.086.018-.063.081.043.102-.086-.015-.031.11-.045-.102-.083.035.03-.11" fill="#FFF101"/><path d="M6.435 5.157c-.134-.175-.337-.252-.492-.185l-.005-.004a4.455 4.455 0 01-.035-.853c.006-.108 0-.187-.016-.327a4.582 4.582 0 01-.01-.09 1.372 1.372 0 01-.007-.13c-.12.194-.37.325-.634.339-.31.016-.504.122-.755.346-.139.125-.218.051-.281-.186-.042-.157-.093-.248-.215-.415l-.01-.013a1.14 1.14 0 01-.227-.454c-.04-.166.047-.281.131-.235a.497.497 0 01.109.1l.078.096.034.041.013.015a.05.05 0 00-.02-.01l-.032-.04-.077-.095a.492.492 0 00-.107-.099c-.079-.043-.161.065-.123.224.044.176.099.277.226.45l.01.014c.122.167.174.259.216.417.062.233.137.304.272.183.25-.226.446-.332.758-.349.266-.013.52-.147.634-.346l.007.003c0 .045.002.089.007.142l.01.09c.017.142.021.221.016.33-.015.276-.006.556.034.846l-.003.001.004.004v-.005c.156-.066.36.012.492.187.133-.033.28-.262.327-.49-.023-.341-.109-.65-.262-1.03a34.06 34.06 0 00-.12-.287l-.017-.041a2.527 2.527 0 01-.102-.277c-.043-.156-.208-.288-.344-.215a.409.409 0 01-.099.039c-.18.053-.28.1-.543.277l-.022.015-.248.176-.063.044a.835.835 0 01-.216.124c-.155.042-.234.04-.307-.037a.642.642 0 00-.095-.083l.002-.003v-.006a.805.805 0 01.098.085c.07.075.147.077.3.035a.832.832 0 00.215-.123l.063-.045.248-.175.022-.015c.263-.178.364-.224.545-.278a.74.74 0 00.098-.038c.14-.075.308.06.353.22.02.074.052.157.1.275l.018.041.12.287c.154.381.24.691.262 1.036-.047.233-.196.464-.335.497zM4.32 3.349l.007.006v-.001a.075.075 0 00-.007-.005zm-.024-.006c.008 0 .016.002.024.006a1.166 1.166 0 00-.04-.027L4.243 3.3v-.002a.133.133 0 00-.017-.009l-.013-.008a.534.534 0 01-.095-.073l-.005-.005.005.005v.007l-.003.002a.06.06 0 01-.002-.002v-.008l-.003.004a.316.316 0 01-.015-.016l-.002-.003c-.043-.011-.093.049-.121.145l.005.005.138-.125a.512.512 0 00.084.065c-.053-.003-.097.06-.154.224l.005.006.19-.203.037.023.019.012zm.021.015a1.06 1.06 0 00-.021-.015c-.06-.001-.118.107-.152.3l.005.003.177-.282-.006-.004.004.002v-.007l-.004.004-.003-.001zm-.163.267c.038-.2.102-.298.163-.267l.003.002-.166.265zm0 0l-.004.02-.006-.005.01-.015zm.08-.322l.007.005.002-.003v-.006l-.01-.006-.007-.005a.08.08 0 00-.027-.007l.01.007.014.009c-.059-.025-.104.023-.165.194l-.012.012.005.006.007-.018.176-.188zm0 0a.116.116 0 00-.01-.006l.007.005.003.001zm0 0l.006.002v-.007l-.005.004zm-.252.022l.128-.115c-.041-.034-.096.018-.128.115zm0 0l-.009.009.005.005a.46.46 0 01.004-.014z" fill="#000"/><path d="M6.23 4.656a1.69 1.69 0 00.012.33l-.004.006-.019-.009a.543.543 0 01-.028-.013 1.724 1.724 0 01-.009-.298l.001-.026a1.484 1.484 0 00-.05-.46 3.581 3.581 0 01-.099-.714l.045-.012c.001.16.044.475.1.706.047.193.057.302.051.464v.026zm.01.327l-.004.005-.001-.008a.26.26 0 01.005.003zm-.045-.018c.009.002.027.01.04.015a1.718 1.718 0 01-.012-.324V4.63a1.484 1.484 0 00-.05-.46 3.43 3.43 0 01-.096-.705l-.039.011c.001.16.045.475.1.706.048.193.057.302.052.464l-.001.026c-.004.125-.003.19.006.293z" fill="#000"/><path d="M5.44 3.006c-.037.022-.037.1-.006.222.024.098.068.22.12.345l.006-.004-.115-.56-.004-.003zm.557 1.81c.005.038.007.085.007.133L6 4.953l-.012.003a.344.344 0 01-.05.012 4.455 4.455 0 01-.036-.853c.006-.108 0-.187-.016-.327a4.571 4.571 0 01-.01-.09.815.815 0 01-.004-.148l.078.005c0 .083.016.274.034.413.01-.007.023-.009.045-.008h.008c.02 0 .028 0 .035-.002.008-.003.01-.008.008-.019l.007-.002-.006.002.003.02a.02.02 0 01-.01.008.095.095 0 01-.037.002H6.03c-.024 0-.037.002-.045.01l-.005-.003a3.321 3.321 0 01-.033-.416l-.07-.006c0 .045.002.089.007.142l.01.09c.017.142.021.221.016.33-.015.278-.006.56.03.847a.695.695 0 01.057-.018v.003l.002-.004h-.002c0-.045-.002-.09-.005-.132l.004-.001v.004zm-.01-.137l-.001.001-.005-.003a1.85 1.85 0 01-.01-.317 1.383 1.383 0 00-.005-.235.148.148 0 01.058-.006l.02.001a.167.167 0 00.054 0c.013-.003.017-.01.014-.025a2.347 2.347 0 01-.017-.086l-.001-.005-.009-.045c.003-.005.005-.012.003-.02l.012.063.001.005.017.086c.004.02-.003.032-.019.036a.169.169 0 01-.055 0H5.97c.01.051.01.098.007.232a1.841 1.841 0 00.01.309v.01zm.194.029c-.001.05-.002.092-.001.108 0 .015-.005.02-.021.02a.232.232 0 01-.061-.014.564.564 0 00-.034-.009.142.142 0 00-.068-.002l-.009-.132c.01-.006.033-.002.09.016l.005.001a.36.36 0 00.07.017c.013.001.023 0 .03-.005zm0 0V4.69h.007c0 .008-.002.014-.007.018zm-.093-.77v-.001.002zm-.648-.92l-.001-.006.004.003-.003.002zm.106.517a2.466 2.466 0 01-.106-.31c-.028-.113-.03-.186 0-.208l.106.518zm0 0l.014.033-.006.004-.008-.037zm.01.098a.88.88 0 01-.096.056l.003.01-.003-.01.096-.056.002.01-.002-.01zm.002.01zm0 0l-.095.056a.886.886 0 00.095-.057zm-.095.056zm-.479.098a.982.982 0 00-.071.029l.002.01.07-.028h.001l-.002-.01zm0 0l-.07.029v.01h.002a.978.978 0 01.07-.028l-.002-.01z" fill="#000"/><path d="M5.192 3.7c.259-.035.513-.193.618-.398l.006.002.008.072a.653.653 0 01-.264.26l.007.025.007.028c.02.07.045.1.081.077a.723.723 0 01-.028.017c-.025-.004-.043-.037-.06-.091a.783.783 0 01-.007-.028.096.096 0 01-.004-.031.7.7 0 00.262-.259l-.008-.058a.602.602 0 00.005-.009l-.006-.001.001.01c-.108.204-.36.359-.617.393a1.149 1.149 0 00-.624.293.138.138 0 00-.04-.052.427.427 0 01-.143-.334c.005-.077.034-.134.068-.14a.162.162 0 00.02.012l.002-.008a.035.035 0 00-.022-.004.197.197 0 01-.018-.015l-.025-.024v-.001c-.034-.033-.1.1-.092.24a.569.569 0 00.085.23l-.003.008c-.068-.017-.1-.04-.14-.112a.146.146 0 01.071-.032l.002.006.003-.007-.005.001-.005-.016a.275.275 0 01-.01-.042.137.137 0 01-.001-.03h-.003a.185.185 0 00-.107.045l-.015-.02a10.952 10.952 0 00-.069-.09.82.82 0 01-.132-.222c-.037-.1-.042-.19-.016-.237.018-.031.045-.038.076-.02l.011.014.018.022c-.041-.046-.079-.048-.1-.01-.023.043-.02.13.017.227a.812.812 0 00.148.242l.051.067a.048.048 0 01.012.02.148.148 0 01.105-.044m-.229-.509a.151.151 0 00-.033-.028 7.658 7.658 0 00-.066-.082.492.492 0 00-.107-.099c-.079-.043-.161.065-.123.224.044.176.099.277.226.45l.01.014c.122.167.174.259.216.417.029.108.06.179.098.215.046.043.102.036.174-.032l.024-.023.02-.018c.054-.043.12.028.123.144a.698.698 0 01-.007.024l.007.002V4.35a.237.237 0 00-.012-.185.105.105 0 01-.01-.03c-.008.006-.015.001-.02-.012a.225.225 0 01-.01-.041v-.006c-.004-.027-.007-.039-.011-.043v-.007c.104-.088.21-.155.335-.199.007.082.023.124.057.116l.047-.013a.031.031 0 00.024.004 1.026 1.026 0 00-.07.018c-.04.01-.058-.037-.06-.12-.12.047-.223.112-.326.198.004.007.007.02.01.044l.001.006.009.039c.003.009.007.011.016.01l.014.032a.485.485 0 01.012.03c.02.054.019.103-.007.187l-.006-.002c.007-.125-.06-.204-.113-.162l-.02.018-.024.022c-.073.07-.133.078-.181.033-.04-.038-.071-.11-.1-.22-.042-.156-.093-.247-.215-.414l-.01-.013c-.128-.175-.183-.276-.227-.454-.04-.166.047-.281.131-.235a.498.498 0 01.109.1l.078.096.017.021zm.962.766zm0-.01a.952.952 0 00-.024.006c-.022-.014-.033-.059-.037-.132a1.17 1.17 0 01.212-.043c.089-.01.18-.035.269-.069.02.098.046.154.079.139a.908.908 0 00.083-.041.048.048 0 00.029-.007.862.862 0 01-.11.057c-.04.017-.066-.042-.084-.142a.92.92 0 01-.266.072 1.608 1.608 0 00-.207.038c.006.086.022.13.055.123zm0 0v.01-.01zm-.962-.756a.265.265 0 01.017.02l-.005.007.005-.007a4.36 4.36 0 01-.017-.02zm1.573.609l.003-.002-.003-.008.003.008-.003.002zm0-.01zm-1.263.137a.647.647 0 01-.058-.124.218.218 0 00-.069.024c.036.06.066.083.127.1zm1.989 1.44c-.045.245.008.522.128.671v.007a2.506 2.506 0 01-.527.468.874.874 0 00-.193.173l-.04.043a.892.892 0 01-.1.097c.184.042.393.273.533.574.166.357.33.533.6.714.148.101.14.232.02.425-.08.128-.111.232-.157.464-.05.252-.086.364-.18.507-.085.131-.202.085-.215-.036a.683.683 0 01.007-.162l.03-.188.004-.029a.537.537 0 00.003-.02l.003.027-.004.024-.029.188a.672.672 0 00-.007.158c.011.114.122.157.204.032.092-.142.127-.252.177-.504.047-.233.079-.338.16-.467.117-.19.124-.313-.02-.41-.27-.183-.435-.359-.602-.718-.141-.305-.354-.536-.538-.572V6.8a.843.843 0 00.108-.102 16.747 16.747 0 00.08-.088.88.88 0 01.153-.13c.184-.12.358-.27.523-.463l.003.004v-.007l-.003.003c-.12-.152-.172-.43-.127-.672-.088-.14-.307-.199-.476-.14a2.189 2.189 0 00-.426.61c-.035.07-.107.23-.176.387a9.28 9.28 0 01-.168.367 1.175 1.175 0 01-.024.042c-.077.13-.08.389.035.512a.543.543 0 01.062.078l.02.029a1.566 1.566 0 00.115.158c.076.093.18.2.326.331.075.067.31.268.308.267.104.09.163.15.195.2.105.16.143.254.13.378a1.111 1.111 0 00-.005.153h-.003l-.004.004c-.001-.06 0-.106.006-.159.012-.12-.025-.211-.129-.37a1.092 1.092 0 00-.193-.199c0 .001-.234-.199-.309-.266a3.092 3.092 0 01-.327-.332 1.575 1.575 0 01-.08-.106l-.036-.053-.02-.029a.703.703 0 00-.06-.077c-.118-.127-.116-.392-.036-.525.008-.013.016-.026.023-.041a8.3 8.3 0 00.168-.366c.07-.156.141-.318.177-.388a2.19 2.19 0 01.428-.613c.172-.06.394-.002.485.146zm-.096 3.389V8.72h-.001v.01zm.008.032a.122.122 0 01-.008-.032c0 .032.003.067.006.109v.007l-.001.001a1.073 1.073 0 01.005.192v.01-.01l.005-.004.002.002v.003l-.005.004.004.003v.001a.558.558 0 01-.003.023v.005c.014.056.077.085.152.07l.001-.009-.149-.1a.904.904 0 000-.132c.024.064.087.085.22.07v-.009L6.3 8.846V8.84a4.333 4.333 0 01-.005-.076zm-.002-.033l.002.033c.03.071.127.085.267.029v-.009l-.269-.067v.01-.006l-.004.005h.004v.005zm.253.059c-.147.054-.242.029-.253-.06v-.003l.253.063zm0 0l.014-.006v.009l-.014-.003zm-.246.066v-.01l-.003-.002-.004.004.002.025a.176.176 0 00.009.034L6.3 8.871c.014.083.067.112.208.098l.013.008.001-.01-.014.002-.209-.113zm0 0l.001.015v-.015h-.002zm0 0l-.001-.008-.005.005.005.003zm.14.285l-.137-.092v.001c0 .065.06.102.137.09zm0 0l.01.006.001-.008a.207.207 0 01-.01.002z" fill="#000"/><path d="M6.157 5.84c.1-.07.14-.103.212-.186l.006.003.004.026.006.04a.965.965 0 01-.194.165l-.02.014a.93.93 0 00-.258.282c-.12.183-.3.392-.406.473l-.03-.047c.102-.082.281-.29.4-.471a.936.936 0 01.261-.285l.02-.014zm.211-.181l.006.002-.005.006v-.008zm.001.008a.968.968 0 01-.209.181l-.019.014a.929.929 0 00-.258.283c-.12.182-.3.39-.402.465l.027.04c.101-.082.28-.29.4-.472a.937.937 0 01.26-.285l.02-.013a1.03 1.03 0 00.191-.159.777.777 0 01-.01-.054z" fill="#000"/><path d="M6.383 6.029a.592.592 0 01.082-.075l.004.001.008.012a.604.604 0 01.033.054 2.506 2.506 0 01-.527.468.874.874 0 00-.193.173l-.04.043a.564.564 0 01-.113.102l-.035-.094c.053-.042.167-.157.246-.247-.01-.008-.018-.024-.029-.052L5.813 6.4a.385.385 0 00-.006-.015c-.01-.022-.017-.027-.025-.018l.01-.013c.007.002.014.011.02.027a.395.395 0 01.007.014l.006.016c.012.03.02.045.03.05l.001.008a1.93 1.93 0 01-.25.246l.032.086a.841.841 0 00.109-.102 15.182 15.182 0 00.08-.088.88.88 0 01.153-.13c.185-.121.36-.273.525-.46a1.134 1.134 0 01-.04-.056l.003-.002h-.004l.002.002c-.03.022-.057.048-.083.071a.32.32 0 01-.04-.102l-.009-.036-.008-.033a.183.183 0 00-.016-.047c-.006-.01-.01-.01-.018-.004-.01.009-.039.03-.07.053-.005-.004-.01-.004-.014 0l.003.008-.003-.008c.034-.025.07-.051.08-.06.01-.01.02-.008.027.005a.19.19 0 01.018.05l.008.033.009.036a.53.53 0 00.033.099zm-.172-.155l.011-.008a.074.074 0 01.018.032.65.65 0 01.025.092l.01.044c.011.045.02.07.027.075v.007a.756.756 0 01-.117.113l-.101.075-.04.029a.667.667 0 00-.086.077.31.31 0 01-.036-.073l-.004-.01-.012-.033a.254.254 0 00-.015-.033c-.01-.017-.017-.019-.025-.008a1.742 1.742 0 01-.049.067v.001l-.025.032c-.005-.002-.01 0-.015.007l.005.007-.005-.006.035-.047.049-.067c.012-.016.023-.012.035.008.005.008.01.02.016.035l.012.033.004.01.025.059.005.012a.412.412 0 01.082-.08l.04-.029.102-.074a.755.755 0 00.113-.108.23.23 0 01-.026-.076l-.01-.044a.806.806 0 00-.025-.091c-.008-.024-.016-.033-.023-.028zm0 0zm-.43.493zm-.275 1.22c.033.033.083-.007.146-.103.05-.078.106-.19.16-.314l-.006-.005-.3.415v.006zm.008-.005l-.003.004v-.007l.003.003zm.132-.104c-.057.09-.103.127-.132.104l.277-.383c-.049.11-.1.209-.145.279zm.145-.28l.015-.032.005.005-.02.028zm.058-.06c.028.028.054.057.079.088l.004-.007-.004.007-.08-.088.005-.007-.004.007zm.005-.006l-.001-.001.001.001zm0 0l.077.085a1.198 1.198 0 00-.077-.085zm.077.085l.001.002-.001-.002zm.365.587l.005-.006-.005.007zm-.056-.076l.056.076a1.866 1.866 0 01-.056-.076zm0 0zm.005-.007l-.005.007.005-.007zm0 0zm0 0l.056.077a1.842 1.842 0 01-.056-.077z" fill="#000"/><path d="M5.513 7.004l-.002-.008h.009l-.007.008zm.395-.025a.1.1 0 01-.002.06.287.287 0 01-.057.1.576.576 0 00-.296-.18l-.033.038c.184.026.409.245.56.53.145.274.303.448.497.586a.197.197 0 00-.013.073v.001l-.001.02c-.013.157-.067.266-.14.314-.052.033-.103.027-.123-.01l-.002-.03-.007.002c.001.01.004.02.009.028 0 .016 0 .032-.003.053l-.001.019c-.005.055.114.066.2-.014a.524.524 0 00.103-.215h.007a.334.334 0 01-.002.22.206.206 0 01-.056-.067l.003-.005h-.006l.003.005-.01.019a.266.266 0 01-.016.025c-.007.01-.014.018-.022.02l.002.003a.097.097 0 01-.004.004.234.234 0 01-.003-.009.176.176 0 00.038-.049l.012-.023h.006l.001.002a.684.684 0 00.05-.13.34.34 0 010 .2.345.345 0 01-.05-.07m-.264.601a.397.397 0 01.004-.029l.007.002-.005.03M6.288 9.1l-.03.188a.684.684 0 00-.007.162c.013.121.13.167.216.036.093-.143.128-.255.179-.507.046-.232.078-.336.158-.464a.508.508 0 00.09-.228c.004-.08-.03-.145-.112-.197l-.027-.017-.02-.013c-.054-.042-.037-.16.046-.214l-.002-.009c-.075.013-.104.04-.133.108a4.058 4.058 0 00-.016.04c.005.01.006.014.002.022a.137.137 0 01-.018.027l-.004.004a.132.132 0 00-.025.038 1.387 1.387 0 01-.29-.284c.052-.044.073-.089.047-.13a1.779 1.779 0 01-.047-.074l-.005.006c.022.035.001.075-.05.126a2.972 2.972 0 01-.128-.224 1.563 1.563 0 00-.18-.277c.056-.071.08-.132.05-.169a1.126 1.126 0 00-.094-.103l-.004.007.004-.007.002.002a.074.074 0 01.018.03.87.87 0 00-.024-.025m.024.025c.023.023.045.049.069.078.026.031.003.088-.05.162.067.087.128.182.179.282.043.083.087.158.133.226.045-.04.069-.076.066-.108l.032.048c.022.036.004.076-.045.125.09.125.185.216.294.295l.005-.004c0-.007.006-.016.024-.038l.003-.004a.143.143 0 00.02-.03c.005-.011.005-.021-.003-.028.002.003.012-.02.016-.03l.001-.004c.026-.06.05-.085.11-.099-.073.061-.085.175-.03.218l.02.013.027.017c.08.05.112.113.108.189a.5.5 0 01-.089.222c-.08.13-.112.234-.159.467-.05.252-.085.362-.177.504-.082.125-.193.082-.204-.032a.672.672 0 01.007-.158l.021-.136c.004.046.022.075.05.08.044.007.1-.044.144-.137a1.11 1.11 0 00.083-.305 4.75 4.75 0 01.02-.116.268.268 0 01-.081-.102m.26-.724a.342.342 0 01.018-.004l-.002-.008a.168.168 0 00-.017.012zM6.287 9.1a.275.275 0 00-.002.054zm-.002.054l.008-.052zm.02-1.535a.071.071 0 00-.01-.03v-.001l-.006.006.015.025z" fill="#000"/><path d="M6.79 7.724l-.054-.088-.006.002-.02.115-.083-.001-.003.007.054.092-.052.088.002.007h.087l.017.111.006.002.055-.092.075.05.005-.005-.02-.114.076-.048v-.01l-.078-.051.02-.11-.005-.005-.076.05zm.073-.037l-.073.047-.004-.001-.05-.084V7.64l-.005.002.004.007-.02.11-.081.001-.004-.007-.003.008h.007l.05.09-.049.086h-.007l.003.007.004-.007.084.004.018.105-.004.007.006.002-.002-.009.055-.086.073.045.001.01.005-.006-.006-.004-.017-.11.072-.05.006.005v-.01l-.006.004-.074-.052.017-.106zm0 0l.006-.004-.004-.005-.002.009zm-.336-2.375c.18-.07.33-.27.364-.486l.005-.003c.207.098.392.229.562.385.07.065.113.091.237.156.06.03.094.051.13.079-.066-.237-.023-.599.1-.914.144-.373.174-.655.156-1.06-.01-.227.076-.283.26-.238.12.029.204.014.366-.043l.012-.005c.183-.065.273-.08.41-.042.127.035.156.196.085.272a.365.365 0 01-.116.076l-.107.047-.04.017-.005.003a.071.071 0 00.014-.016l.03-.013a6.44 6.44 0 00.106-.047.36.36 0 00.114-.075c.066-.07.039-.222-.082-.255-.136-.038-.225-.023-.407.042l-.013.005c-.162.058-.248.072-.368.043-.18-.044-.262.01-.253.228.019.407-.01.69-.157 1.065-.123.319-.165.684-.096.919l-.005.005a.773.773 0 00-.136-.085.914.914 0 01-.239-.156 2.265 2.265 0 00-.557-.383l.001-.005-.004.003.003.002c-.036.217-.188.417-.366.485-.045.174.027.46.15.63.065.04.134.075.205.103.22.086.4.105.757.106.183 0 .255.004.331.02.122.026.288-.1.31-.297a.918.918 0 01.015-.096l.023-.097c.01-.044.018-.082.026-.126.025-.143.043-.328.055-.593.005-.103.006-.143.012-.362.007-.274.014-.385.034-.463.05-.204.09-.295.176-.342a.598.598 0 00.1-.07l.002.004.004.002a.607.607 0 01-.103.073c-.083.045-.123.135-.173.336-.02.077-.026.188-.033.46-.006.22-.008.26-.012.362a4.75 4.75 0 01-.056.595 2.27 2.27 0 01-.026.127l-.022.096a.9.9 0 00-.016.096c-.022.201-.192.331-.317.304a1.543 1.543 0 00-.33-.02c-.358-.001-.539-.02-.76-.106a1.225 1.225 0 01-.207-.105c-.124-.173-.198-.463-.149-.643zm2.211-1.581l-.007.006h.001a.093.093 0 00.006-.006zm.017-.026a.095.095 0 01-.017.026l.035-.032.036-.034.001.001a.174.174 0 00.015-.015l.014-.014a.73.73 0 01.093-.074v.001a.072.072 0 00.014-.008.229.229 0 00-.014.007l-.005-.003v-.004a.269.269 0 01.008-.004v.001a.068.068 0 01-.005.003l.005.004v-.007a.061.061 0 00.006-.005.224.224 0 01.009-.004l.01-.004c.03-.046.015-.132-.038-.212l-.007.003.012.225a.685.685 0 00-.085.067c.029-.06.01-.145-.066-.293l-.006.003.035.325-.036.034-.014.013zm-.02.018l.02-.018c.03-.07-.01-.191-.115-.328l-.006.005.092.349.006-.005-.004.003.005.003-.001-.006.002-.003zm-.09-.326c.11.146.14.27.09.326l-.003.003-.086-.329zm0 0l-.01-.013.006-.005.005.018zm.166.256l-.006.005v.005l.004.002.008-.007.008-.007a.137.137 0 00.017-.028l-.007.007-.015.014c.046-.057.038-.135-.041-.293l-.002-.019-.006.003.008.016.032.302zm0 .001a.165.165 0 00.01-.01l-.008.007-.002.002v.001zm0 0l-.004.005.005.003-.001-.008zm.113-.308l.01.206a.249.249 0 01.007-.004c.042-.034.033-.12-.017-.202zm0 0l-.001-.015-.007.003a.382.382 0 01.008.012z" fill="#000"/><path d="M6.783 5.198a.912.912 0 00-.05-.027l-.002-.008.016-.018a.794.794 0 01.021-.026.89.89 0 01.207.149c.104.09.176.133.324.174.176.05.4.157.504.242l-.015.058a1.776 1.776 0 00-.5-.235.723.723 0 01-.327-.176.93.93 0 00-.178-.133zm-.047-.028l-.001-.008.005.003a.483.483 0 01-.004.005zm.034-.044a.51.51 0 01-.03.04.909.909 0 01.225.158c.104.09.176.132.324.174.176.05.4.157.498.24l.011-.052a1.778 1.778 0 00-.5-.235.723.723 0 01-.327-.175.926.926 0 00-.18-.135.076.076 0 01-.021-.015z" fill="#000"/><path d="M8.144 4.191l-.008-.002-.022.096.007.002v-.002c.009-.032.016-.063.022-.092V4.19zm0 0l-.008-.002-.022.096.007.002v-.002l.022-.092V4.19zm-1.18.777a.529.529 0 01-.088-.059l-.002-.005.004-.015c.006-.023.012-.048.018-.066.207.098.392.229.562.385.07.065.113.091.237.156a.54.54 0 01.139.092l-.042.088a2.036 2.036 0 00-.281-.166.137.137 0 01-.013.048l-.007.014a.222.222 0 00-.017.045c-.003.011 0 .017.007.02L7.467 5.5a.04.04 0 010-.018.225.225 0 01.019-.046l.006-.015a.108.108 0 00.012-.049l.004-.005c.098.048.233.126.282.17l.04-.08a.773.773 0 00-.137-.084.914.914 0 01-.239-.157 2.435 2.435 0 00-.556-.388 1.52 1.52 0 01-.016.075l-.003-.001.002.005v-.004c.03.023.06.043.088.062a.371.371 0 01-.051.107l-.027.039a.32.32 0 00-.02.033c-.01.02-.01.032.001.039.01.007.039.03.069.056 0 .007.002.012.007.016a1.51 1.51 0 00-.079-.064c-.015-.01-.015-.027-.003-.052a.328.328 0 01.02-.034l.026-.04a.363.363 0 00.047-.09c.001-.004.003-.008.005-.007zm-.012.28l-.004.007.004-.007zm0 0l-.011-.01c0-.009.004-.02.01-.035a.607.607 0 01.045-.073L7 5.125c.044-.064.057-.087.057-.102l.004-.005a.74.74 0 01.172.116l.003.002.096.081a.596.596 0 00.09.06.264.264 0 01-.017.051.795.795 0 01-.015.034.641.641 0 00-.028.061l-.002.008c-.006.019-.004.028.007.032a.915.915 0 01.068.025h.003l.023.01.007.002a.02.02 0 00.012.014l.002-.008-.002.008-.02-.008-.024-.009h-.003a1.11 1.11 0 00-.067-.025c-.016-.005-.02-.02-.013-.044l.003-.009a.642.642 0 01.028-.061v-.001a.78.78 0 00.015-.033l.008-.019a.197.197 0 01.01-.025.34.34 0 01-.088-.055l-.097-.082-.002-.002a.748.748 0 00-.167-.112c-.002.018-.016.042-.058.103l-.003.004a.603.603 0 00-.044.072c-.01.02-.012.034-.006.04zm0 0zm.53.258H7.48zm.915-.287c.005-.055-.045-.094-.138-.119a1.193 1.193 0 00-.28-.031v.009l.414.145.004-.004zm-.006-.006l.003.001-.004.004v-.005zm-.384-.134c.095.002.183.012.25.03.087.023.134.058.134.104l-.384-.134zm0 0H7.98v-.01l.028.01zm-.048-.174l-.007-.002c-.008.044-.014.09-.019.137l.008.001.018-.136zm0 0c-.008.044-.014.09-.018.136l-.008-.001.019-.137.007.002z" fill="#000"/><path d="M8.078 4.58c-.107.322-.133.7-.054.925l-.005.006-.05-.026a1.09 1.09 0 01-.033-.44l-.017-.005a.288.288 0 00-.036-.007c-.048-.007-.074.008-.078.057l.003-.04c.014-.024.04-.032.075-.027a.292.292 0 01.037.008c.004.001.016.005.02.01a1.14 1.14 0 00.034.437l.04.02a.542.542 0 00.003.01l.005-.006-.008-.003c-.075-.23-.048-.604.058-.923.103-.308.135-.582.125-.878.016 0 .028-.006.053-.021a.415.415 0 01.014-.01c.107-.062.204-.053.271.009.047.043.068.106.056.148a.187.187 0 00-.018.018l.004.007a.065.065 0 00.014-.025.325.325 0 01.043-.028l.004-.002c.038-.022-.014-.167-.108-.228-.043-.028-.128-.032-.19-.015l-.003-.008c.045-.071.077-.097.142-.107a.31.31 0 01-.015.099l-.005-.001.003.006.002-.005h.002c.02.003.032.006.043.011a.078.078 0 01.02.013v-.003a.395.395 0 00.025-.148l.06-.023c.08-.032.093-.037.127-.048a.363.363 0 01.133-.017c.082.006.142.046.16.1a.094.094 0 01-.026.1l-.019.007-.018.008c.05-.026.07-.068.056-.111-.016-.05-.074-.089-.153-.095a.358.358 0 00-.131.017c-.034.01-.047.016-.127.048a.245.245 0 01-.058.018.314.314 0 01-.024.146m-.077-.024a.474.474 0 00.019-.093c-.056.013-.086.036-.127.098a.323.323 0 01.108-.005zm.516.01a.141.141 0 00.035-.025l.088-.039a.36.36 0 00.114-.075c.066-.07.039-.222-.082-.255-.136-.038-.225-.023-.407.042l-.013.005c-.162.058-.248.072-.369.043-.083-.02-.143-.02-.185.007-.05.033-.074.103-.067.22l.003.039v.002l.002.031c0 .086-.08.128-.154.074a.536.536 0 01-.012-.02l-.005.006.017.014A.177.177 0 008 3.68c.019.01.034.012.075.01.006 0 .01 0 .01.005 0-.013.007-.019.017-.018.008 0 .016.003.031.01h.002c.023.01.031.013.036.01l.004.004c.004.166-.006.324-.04.493-.056-.033-.091-.035-.103.008l-.015.062a.057.057 0 00-.014.027l.023-.092c.014-.05.052-.049.106-.01.03-.164.04-.319.037-.482-.007.001-.016-.002-.036-.01l-.002-.002a.095.095 0 00-.029-.009c-.007 0-.01.002-.014.014h-.013c-.042.001-.057 0-.078-.011-.026-.014-.05-.041-.078-.091l.005-.007c.076.071.16.032.16-.051l-.002-.032v-.001l-.002-.039c-.008-.12.016-.195.07-.229.044-.028.105-.029.19-.008.12.029.205.014.366-.043l.012-.005c.183-.065.273-.08.41-.042.127.035.156.196.085.272a.365.365 0 01-.116.076l-.107.047-.018.008zm-.963.75a2.2 2.2 0 00.008-.03c.02-.019.054-.009.102.023a2.4 2.4 0 01-.078.27 2.41 2.41 0 00-.09.351c-.073-.025-.121-.023-.128.023a1.94 1.94 0 00-.016.12.093.093 0 00-.01.037c.004-.05.01-.102.019-.159.008-.054.06-.056.132-.026.019-.12.049-.24.087-.35a3.55 3.55 0 00.08-.263c-.059-.035-.095-.038-.106.005zm-.205.798h-.007v-.004.003l.007.001zm0 0zm.205-.797l-.007-.004.007.004zm.963-.751a.181.181 0 01-.021.01l-.002-.01.002.01c.003-.003.011-.006.021-.01z" fill="#000"/></g></svg>