<svg width="13" height="12" fill="none" xmlns="http://www.w3.org/2000/svg"><rect x=".25" y=".25" width="12.5" height="11.5" rx="1.75" fill="#fff" stroke="#F5F5F5" stroke-width=".5"/><mask id="a" maskUnits="userSpaceOnUse" x="0" y="0" width="13" height="12"><rect x=".25" y=".25" width="12.5" height="11.5" rx="1.75" fill="#fff" stroke="#fff" stroke-width=".5"/></mask><g mask="url(#a)"><path fill-rule="evenodd" clip-rule="evenodd" d="M0 4h13V0H0v4z" fill="#38BB56"/><path fill-rule="evenodd" clip-rule="evenodd" d="M0 12h13V8H0v4z" fill="#DE1B27"/><path fill-rule="evenodd" clip-rule="evenodd" d="M.929 3.2a.31.31 0 00-.31.31v.18a.31.31 0 00.62 0v-.18a.31.31 0 00-.31-.31zm1.238 0a.31.31 0 00-.31.31v.18a.31.31 0 10.62 0v-.18a.31.31 0 00-.31-.31zm.928.31a.31.31 0 11.62 0v.18a.31.31 0 01-.62 0v-.18zm1.548-.31a.31.31 0 00-.31.31v.18a.31.31 0 00.62 0v-.18a.31.31 0 00-.31-.31zm.928.31a.31.31 0 11.62 0v.18a.31.31 0 01-.62 0v-.18zM7.12 3.2a.31.31 0 00-.31.31v.18a.31.31 0 00.62 0v-.18a.31.31 0 00-.31-.31zm.929.31a.31.31 0 11.619 0v.18a.31.31 0 01-.62 0v-.18zm1.547-.31a.31.31 0 00-.31.31v.18a.31.31 0 10.62 0v-.18a.31.31 0 00-.31-.31zm.929.31a.31.31 0 11.619 0v.18a.31.31 0 01-.62 0v-.18zm1.547-.31a.31.31 0 00-.31.31v.18a.31.31 0 00.62 0v-.18a.31.31 0 00-.31-.31zM.62 8.31a.31.31 0 11.62 0v.18a.31.31 0 01-.62 0v-.18zM2.167 8a.31.31 0 00-.31.31v.18a.31.31 0 10.62 0v-.18a.31.31 0 00-.31-.31zm.928.31a.31.31 0 11.62 0v.18a.31.31 0 01-.62 0v-.18zM4.643 8a.31.31 0 00-.31.31v.18a.31.31 0 00.62 0v-.18a.31.31 0 00-.31-.31zm.928.31a.31.31 0 11.62 0v.18a.31.31 0 01-.62 0v-.18zM7.12 8a.31.31 0 00-.31.31v.18a.31.31 0 00.62 0v-.18A.31.31 0 007.12 8zm.929.31a.31.31 0 11.619 0v.18a.31.31 0 01-.62 0v-.18zM9.595 8a.31.31 0 00-.31.31v.18a.31.31 0 10.62 0v-.18a.31.31 0 00-.31-.31zm.929.31a.31.31 0 11.619 0v.18a.31.31 0 01-.62 0v-.18zM12.07 8a.31.31 0 00-.31.31v.18a.31.31 0 00.62 0v-.18a.31.31 0 00-.31-.31z" fill="#fff" fill-opacity=".5"/><mask id="b" fill="#fff"><path fill-rule="evenodd" clip-rule="evenodd" d="M5.875 5.113c-.187.22-.304.535-.304.887 0 .663.416 1.2.929 1.2.513 0 .929-.537.929-1.2a1.38 1.38 0 00-.293-.875"/></mask><path d="M5.367 4.681A2.04 2.04 0 004.905 6h1.333c0-.209.07-.368.145-.456l-1.016-.863zM4.905 6c0 .862.565 1.867 1.595 1.867V6.533c-.008 0-.06-.002-.13-.092A.729.729 0 016.239 6H4.905zM6.5 7.867c1.03 0 1.595-1.005 1.595-1.867H6.762a.72.72 0 01-.133.44c-.07.09-.12.093-.129.093v1.334zM8.095 6c0-.485-.157-.95-.445-1.299l-1.029.848a.72.72 0 01.14.451h1.334z" fill="#D80915" mask="url(#b)"/><rect x="6.19" y="5.6" width=".619" height="1.6" rx=".31" fill="#D80915"/></g></svg>