<svg width="13" height="12" fill="none" xmlns="http://www.w3.org/2000/svg"><rect x=".25" y=".25" width="12.5" height="11.5" rx="1.75" fill="#fff" stroke="#F5F5F5" stroke-width=".5"/><mask id="a" maskUnits="userSpaceOnUse" x="0" y="0" width="13" height="12"><rect x=".25" y=".25" width="12.5" height="11.5" rx="1.75" fill="#fff" stroke="#fff" stroke-width=".5"/></mask><g mask="url(#a)" fill-rule="evenodd" clip-rule="evenodd"><path d="M0 12h13V8H0v4z" fill="#199E56"/><path d="M0 4h13V0H0v4z" fill="#262626"/><path d="M0 0l6.19 6L0 12V0z" fill="#E6223A"/><path d="M2.167 6.6l-.403.481.04-.707-.543-.107.453-.4-.273-.615.524.207.202-.659.201.66.525-.208-.274.614.453.401-.542.107.04.707-.403-.481z" fill="#fff"/></g></svg>