<svg width="13" height="12" fill="none" xmlns="http://www.w3.org/2000/svg"><rect width="13" height="12" rx="2" fill="#fff"/><mask id="a" maskUnits="userSpaceOnUse" x="0" y="0" width="13" height="12"><rect width="13" height="12" rx="2" fill="#fff"/></mask><g mask="url(#a)" fill-rule="evenodd" clip-rule="evenodd"><path d="M0 3.2h13V0H0v3.2zM0 12h13V8.8H0V12z" fill="#0F3EB6"/><path d="M0 8.8h13V3.2H0v5.6z" fill="#ED1A3C"/><path d="M5.571 5.236h.62V4.71a.31.31 0 11.619 0v.526h.619V6H5.57v-.764zM8.048 4.8a.31.31 0 00-.31.31V6h.62v-.89a.31.31 0 00-.31-.31zM5.262 6.4h-.62L4.025 8h1.238V6.4zm.31 0V8h1.857V6.4H5.57zM7.737 8V6.4h.62L8.975 8H7.738zM4.952 4.8a.31.31 0 00-.31.31V6h.62v-.89a.31.31 0 00-.31-.31z" fill="#fff"/></g></svg>