<svg width="13" height="12" fill="none" xmlns="http://www.w3.org/2000/svg"><rect x=".25" y=".25" width="12.5" height="11.5" rx="1.75" fill="#fff" stroke="#F5F5F5" stroke-width=".5"/><mask id="a" maskUnits="userSpaceOnUse" x="0" y="0" width="13" height="12"><rect x=".25" y=".25" width="12.5" height="11.5" rx="1.75" fill="#fff" stroke="#fff" stroke-width=".5"/></mask><g mask="url(#a)" fill-rule="evenodd" clip-rule="evenodd"><path d="M0 3.2h13V0H0v3.2z" fill="#FFCB49"/><path d="M0 8.8h13V5.6H0v3.2z" fill="#DC1D34"/><path d="M0 12h13V8.8H0V12z" fill="#4985D4"/><path d="M0 12l6.19-6L0 0v12z" fill="#4BA343"/><path d="M2.476 8.4c.16 0 .316-.026.464-.076C2.14 8.058 1.548 7.118 1.548 6c0-1.118.591-2.058 1.392-2.324a1.466 1.466 0 00-.464-.076C1.45 3.6.62 4.674.62 6c0 1.325.831 2.4 1.857 2.4zm1.238-4c0 .22-.138.4-.31.4-.17 0-.309-.18-.309-.4 0-.221.139-.4.31-.4.17 0 .31.18.31.4zm-.31 2c.172 0 .31-.18.31-.4 0-.22-.138-.4-.31-.4-.17 0-.309.18-.309.4 0 .22.139.4.31.4zm.31 1.2c0 .22-.138.4-.31.4-.17 0-.309-.18-.309-.4 0-.22.139-.4.31-.4.17 0 .31.18.31.4z" fill="#fff"/></g></svg>