<svg width="13" height="12" fill="none" xmlns="http://www.w3.org/2000/svg"><rect width="13" height="12" rx="2" fill="#fff"/><mask id="a" maskUnits="userSpaceOnUse" x="0" y="0" width="13" height="12"><rect width="13" height="12" rx="2" fill="#fff"/></mask><g mask="url(#a)" fill-rule="evenodd" clip-rule="evenodd"><path d="M0 2.4h13V0H0v2.4zM0 12h13V9.6H0V12z" fill="#1461B6"/><path d="M0 9.6h13V2.4H0v7.2z" fill="#fff"/><path d="M0 8.8h13V3.2H0v5.6z" fill="#F53846"/><path d="M6.19 6c0 1.105-.692 2-1.547 2s-1.548-.895-1.548-2 .693-2 1.548-2l-.365 1.35-1.107.032.881.866-.319 1.37.91-.815.91.815-.32-1.37.882-.866-1.107-.031L4.643 4c.855 0 1.547.895 1.547 2z" fill="#fff"/></g></svg>