<svg width="13" height="12" fill="none" xmlns="http://www.w3.org/2000/svg"><rect x=".25" y=".25" width="12.5" height="11.5" rx="1.75" fill="#fff" stroke="#F5F5F5" stroke-width=".5"/><mask id="a" maskUnits="userSpaceOnUse" x="0" y="0" width="13" height="12"><rect x=".25" y=".25" width="12.5" height="11.5" rx="1.75" fill="#fff" stroke="#fff" stroke-width=".5"/></mask><g mask="url(#a)" fill-rule="evenodd" clip-rule="evenodd"><path d="M0 3.2h13V0H0v3.2zM0 12h13V8.8H0V12z" fill="#F03340"/><path d="M6.028 7.41a.343.343 0 000-.42l-.035-.045a.26.26 0 00-.286-.089l-.022.007c-.257.083-.45-.237-.256-.425l.171-.166A.158.158 0 005.49 6c-.158 0-.22-.206-.086-.292l.335-.216c.133-.086.072-.292-.086-.292a.158.158 0 01-.11-.272l.608-.59a.502.502 0 01.698 0l.608.59a.158.158 0 01-.11.272c-.158 0-.219.206-.086.292l.335.216c.133.086.072.292-.086.292a.158.158 0 00-.11.272l.17.166c.194.188.002.508-.255.425l-.022-.007a.26.26 0 00-.286.089l-.035.045a.343.343 0 000 .42l.008.01a.36.36 0 01-.285.58h-.39a.36.36 0 01-.285-.58l.008-.01z" fill="#1FC065"/></g></svg>