<svg width="13" height="12" fill="none" xmlns="http://www.w3.org/2000/svg"><rect x=".25" y=".25" width="12.5" height="11.5" rx="1.75" fill="#fff" stroke="#F5F5F5" stroke-width=".5"/><mask id="a" maskUnits="userSpaceOnUse" x="0" y="0" width="13" height="12"><rect x=".25" y=".25" width="12.5" height="11.5" rx="1.75" fill="#fff" stroke="#fff" stroke-width=".5"/></mask><g mask="url(#a)"><path fill-rule="evenodd" clip-rule="evenodd" d="M13 0H6.19v1.6H13V0zm0 3.2H6.19v1.6H13V3.2zM6.19 6.4H13V8H6.19V6.4zM13 9.6H0v1.6h13V9.6z" fill="#E1244A"/><path fill="#0C3F8E" d="M0 0h6.19v8H0z"/><path fill-rule="evenodd" clip-rule="evenodd" d="M3.095 4.936L2.004 5.942l.402-1.653L1.33 3.26l1.34-.016.426-1.643.426 1.643 1.34.015L3.785 4.29l.403 1.653-1.092-1.006z" fill="#fff"/></g></svg>