<svg width="13" height="12" fill="none" xmlns="http://www.w3.org/2000/svg"><rect x=".25" y=".25" width="12.5" height="11.5" rx="1.75" fill="#fff" stroke="#F5F5F5" stroke-width=".5"/><mask id="a" maskUnits="userSpaceOnUse" x="0" y="0" width="13" height="12"><rect x=".25" y=".25" width="12.5" height="11.5" rx="1.75" fill="#fff" stroke="#fff" stroke-width=".5"/></mask><g mask="url(#a)"><path fill-rule="evenodd" clip-rule="evenodd" d="M0 4h13V0H0v4z" fill="#0C33B8"/><path fill-rule="evenodd" clip-rule="evenodd" d="M0 12h13V8H0v4z" fill="#1DB158"/><path fill-rule="evenodd" clip-rule="evenodd" d="M6.19 6c.083-.32.537-.32.62 0l.521 1.011c.06.115.046.255-.057.334-.15.115-.407.255-.774.255-.367 0-.625-.14-.774-.255-.103-.079-.117-.219-.057-.334L6.19 6z" fill="#262626"/><path d="M6.786 5.2c0 .342-.203.467-.286.467-.083 0-.286-.125-.286-.467s.203-.467.286-.467c.083 0 .286.125.286.467z" stroke="#262626" stroke-width=".667"/></g></svg>