<svg width="13" height="12" fill="none" xmlns="http://www.w3.org/2000/svg"><rect width="13" height="12" rx="2" fill="#fff"/><mask id="a" maskUnits="userSpaceOnUse" x="0" y="0" width="13" height="12"><rect width="13" height="12" rx="2" fill="#fff"/></mask><g mask="url(#a)"><path fill="#E81B26" d="M0 0h13v12H0z"/><path fill-rule="evenodd" clip-rule="evenodd" d="M6.5 8c.855 0 1.548-.895 1.548-2S7.355 4 6.5 4c-.855 0-1.548.895-1.548 2S5.645 8 6.5 8zm-1.44.092a2.7 2.7 0 01-.32-.46l-5.072 4.703 1.243 1.783L5.06 8.092zm-.705-1.696a3.638 3.638 0 010-.792L0 4.8v2.4l4.355-.804zm1.72 2.35L5.571 12H7.43l-.504-3.254a1.703 1.703 0 01-.85 0zm1.865-.654l4.15 6.026 1.242-1.783L8.26 7.632a2.702 2.702 0 01-.32.46zm.705-1.696L13 7.2V4.8l-4.355.804a3.638 3.638 0 010 .792zm-.384-2.028l5.07-4.703-1.242-1.783L7.94 3.908c.12.137.227.292.32.46zM6.925 3.254L7.429 0H5.57l.504 3.254a1.704 1.704 0 01.85 0z" fill="#FFE94F"/></g></svg>