<svg width="13" height="12" fill="none" xmlns="http://www.w3.org/2000/svg"><rect x=".25" y=".25" width="12.5" height="11.5" rx="1.75" fill="#fff" stroke="#F5F5F5" stroke-width=".5"/><mask id="a" maskUnits="userSpaceOnUse" x="0" y="0" width="13" height="12"><rect x=".25" y=".25" width="12.5" height="11.5" rx="1.75" fill="#fff" stroke="#fff" stroke-width=".5"/></mask><g mask="url(#a)"><path fill-rule="evenodd" clip-rule="evenodd" d="M6.81 12H13V0H6.81v12z" fill="#DE233C"/><mask id="b" maskUnits="userSpaceOnUse" x=".238" y=".6" width="4" height="5" fill="#000"><path fill="#fff" d="M.238.6h4v5h-4z"/><path fill-rule="evenodd" clip-rule="evenodd" d="M2.476 1.6h-.619v.8h-.619v.8h.62V4h.618v-.8h.62v-.8h-.62v-.8z"/></mask><path fill-rule="evenodd" clip-rule="evenodd" d="M2.476 1.6h-.619v.8h-.619v.8h.62V4h.618v-.8h.62v-.8h-.62v-.8z" fill="#CCCCCD"/><path d="M1.857 1.6V.933h-.666V1.6h.666zm.62 0h.666V.933h-.667V1.6zm-.62.8v.667h.667V2.4h-.667zm-.619 0v-.667H.571V2.4h.667zm0 .8H.571v.667h.667V3.2zm.62 0h.666v-.667h-.667V3.2zm0 .8H1.19v.667h.666V4zm.618 0v.667h.667V4h-.667zm0-.8v-.667H1.81V3.2h.666zm.62 0v.667h.666V3.2h-.667zm0-.8h.666v-.667h-.667V2.4zm-.62 0H1.81v.667h.666V2.4zm-.619-.133h.62V.933h-.62v1.334zm.667.133v-.8H1.19v.8h1.333zm-1.286.667h.62V1.733h-.62v1.334zm.667.133v-.8H.57v.8h1.334zm-.048-.667h-.619v1.334h.62V2.533zM2.524 4v-.8H1.19V4h1.333zm-.048-.667h-.619v1.334h.62V3.333zM1.81 3.2V4h1.333v-.8H1.81zm1.285-.667h-.619v1.334h.62V2.533zM2.43 2.4v.8h1.333v-.8H2.429zm.047.667h.62V1.733h-.62v1.334zM1.81 1.6v.8h1.333v-.8H1.81z" fill="#7B716A" fill-opacity=".66" mask="url(#b)"/><path fill-rule="evenodd" clip-rule="evenodd" d="M2.167 3.2c.17 0 .31-.18.31-.4 0-.22-.14-.4-.31-.4-.171 0-.31.18-.31.4 0 .22.139.4.31.4z" fill="#7B716A"/></g></svg>