<svg width="13" height="12" fill="none" xmlns="http://www.w3.org/2000/svg"><rect width="13" height="12" rx="2" fill="#fff"/><mask id="a" maskUnits="userSpaceOnUse" x="0" y="0" width="13" height="12"><rect width="13" height="12" rx="2" fill="#fff"/></mask><g mask="url(#a)"><path fill-rule="evenodd" clip-rule="evenodd" d="M13 0H6.19v.8H13V0zm0 1.6H6.19v.8H13v-.8zM6.19 3.2H13V4H6.19v-.8zM13 4.8H6.19v.8H13v-.8zM0 6.4h13v.8H0v-.8zM13 8H0v.8h13V8zM0 9.6h13v.8H0v-.8zm13 1.6H0v.8h13v-.8z" fill="#E1244A"/><path fill="#0C3F8E" d="M0 0h7.429v6.4H0z"/><path fill-rule="evenodd" clip-rule="evenodd" d="M3.095 5.6c.44 0 .842-.197 1.16-.526-.168.082-.35.126-.54.126-.855 0-1.548-.895-1.548-2s.693-2 1.547-2c.19 0 .373.044.541.126C3.937.996 3.535.8 3.095.8 2.07.8 1.238 1.875 1.238 3.2s.832 2.4 1.857 2.4zm1.32-.958l.537-.786.538.786-.14-1.033.81-.053-.713-.502.473-.852-.747.407-.22-1.009-.22 1.009-.749-.407.474.852-.713.502.81.053-.14 1.033z" fill="#FFD34F"/></g></svg>