<svg width="13" height="12" fill="none" xmlns="http://www.w3.org/2000/svg"><rect width="13" height="12" rx="2" fill="#fff"/><mask id="a" maskUnits="userSpaceOnUse" x="0" y="0" width="13" height="12"><rect width="13" height="12" rx="2" fill="#fff"/></mask><g mask="url(#a)" fill-rule="evenodd" clip-rule="evenodd"><path d="M0 8l13-8H0v8z" fill="#0C4799"/><path d="M2.167 3.6l-.474.678.036-.912-.706.046.525-.612-.525-.612.706.046-.036-.912.474.678.473-.678-.036.912.707-.046-.525.612.525.612-.707-.046.036.912-.473-.678z" fill="#FFD243"/><path d="M0 12h13V4L0 12z" fill="#1BAC55"/><path d="M1.431 13.6L14.008 3.444 11.568-1.6-1.007 8.556l2.44 5.044z" fill="#fff"/><path d="M-.292 13.843L14.932 1.55l-1.64-3.392L-1.932 10.45l1.64 3.392z" fill="#E52347"/></g></svg>