<svg width="13" height="12" fill="none" xmlns="http://www.w3.org/2000/svg"><rect x=".25" y=".25" width="12.5" height="11.5" rx="1.75" fill="#fff" stroke="#F5F5F5" stroke-width=".5"/><path fill-rule="evenodd" clip-rule="evenodd" d="M0 1.102C0 .493.493 0 1.102 0a.37.37 0 01.24.089l4.605 3.968c.936.806.365 2.343-.87 2.343H3.713l2.992 3.383c.761.861.15 2.217-.998 2.217H2a2 2 0 01-2-2V1.102z" fill="#fff"/><mask id="a" maskUnits="userSpaceOnUse" x="0" y="0" width="8" height="12"><path fill-rule="evenodd" clip-rule="evenodd" d="M0 1.102C0 .493.493 0 1.102 0a.37.37 0 01.24.089l4.605 3.968c.936.806.365 2.343-.87 2.343H3.713l2.992 3.383c.761.861.15 2.217-.998 2.217H2a2 2 0 01-2-2V1.102z" fill="#fff"/></mask><g mask="url(#a)"><path d="M5.708 11.333H.667V.667H.99l4.52 3.895a.667.667 0 01-.435 1.171H3.714a.667.667 0 00-.5 1.109l2.993 3.383a.667.667 0 01-.5 1.108z" fill="#EE1B44" stroke="#0543A8" stroke-width="1.333" stroke-linejoin="round"/><path fill-rule="evenodd" clip-rule="evenodd" d="M3.18 4.68c.18-.063.344-.15.489-.254-.144.677-.624 1.174-1.194 1.174s-1.05-.497-1.194-1.174c.146.105.311.192.49.255l.24-.281-.393-.46.53.036-.027-.685.355.509.355-.509-.027.685.53-.035-.394.459.24.28zm-1.178 5.598l.474-.678.474.678-.036-.912.706.046-.525-.612.525-.612-.706.046.036-.912L2.476 8l-.474-.678.036.912-.706-.046.525.612-.525.612.706-.046-.036.912z" fill="#fff"/></g></svg>