<svg width="13" height="12" fill="none" xmlns="http://www.w3.org/2000/svg"><rect x=".25" y=".25" width="12.5" height="11.5" rx="1.75" fill="#fff" stroke="#F5F5F5" stroke-width=".5"/><mask id="a" maskUnits="userSpaceOnUse" x="0" y="0" width="13" height="12"><rect x=".25" y=".25" width="12.5" height="11.5" rx="1.75" fill="#fff" stroke="#fff" stroke-width=".5"/></mask><g mask="url(#a)" fill-rule="evenodd" clip-rule="evenodd"><path d="M0 12h13V5.6H5.778l.412.4L0 12z" fill="#DD1C34"/><path d="M13 5.6H5.778L0 0h13v5.6z" fill="#0D4BC3"/><path d="M.929 2.4c.17 0 .31-.18.31-.4 0-.22-.14-.4-.31-.4-.171 0-.31.18-.31.4 0 .22.139.4.31.4zm3.714 4c.17 0 .31-.18.31-.4 0-.22-.14-.4-.31-.4-.171 0-.31.18-.31.4 0 .22.139.4.31.4zM1.238 10c0 .22-.139.4-.31.4-.17 0-.309-.18-.309-.4 0-.22.139-.4.31-.4.17 0 .31.18.31.4zm.866-3.204l-.53 1.052.201-1.228a.743.743 0 01-.088-.114l-.95.26.814-.685a1.044 1.044 0 010-.162l-.814-.684.95.26a.744.744 0 01.088-.115l-.2-1.228.53 1.052a.485.485 0 01.124 0l.53-1.052-.201 1.228a.743.743 0 01.088.114l.95-.26-.813.685a1.044 1.044 0 010 .162l.813.684-.95-.26a.742.742 0 01-.088.115l.2 1.228-.529-1.052a.485.485 0 01-.125 0z" fill="#FDD64D"/></g></svg>