<svg width="13" height="12" fill="none" xmlns="http://www.w3.org/2000/svg"><rect x=".25" y=".25" width="12.5" height="11.5" rx="1.75" fill="#fff" stroke="#F5F5F5" stroke-width=".5"/><mask id="a" maskUnits="userSpaceOnUse" x="0" y="0" width="13" height="12"><rect x=".25" y=".25" width="12.5" height="11.5" rx="1.75" fill="#fff" stroke="#fff" stroke-width=".5"/></mask><g mask="url(#a)"><path fill-rule="evenodd" clip-rule="evenodd" d="M0 0h13v2.4H0V0zm0 4.8h13v2.4H0V4.8zm0 4.8V12h13V9.6H0z" fill="#FA2222"/><path fill-rule="evenodd" clip-rule="evenodd" d="M0 0l6.19 6L0 12V0z" fill="#1D63F9"/><g filter="url(#filter0_d)"><path fill-rule="evenodd" clip-rule="evenodd" d="M2.167 6.764l-.91.854.347-1.382-.91-.854H1.82L2.167 4l.347 1.382H3.64l-.91.854.347 1.382-.91-.854z" fill="url(#paint0_linear)"/></g></g><defs><linearGradient id="paint0_linear" x1=".619" y1="4" x2=".619" y2="8" gradientUnits="userSpaceOnUse"><stop stop-color="#fff"/><stop offset="1" stop-color="#F0F0F0"/></linearGradient><filter id="filter0_d" x=".695" y="4" width="2.944" height="4.618" filterUnits="userSpaceOnUse" color-interpolation-filters="sRGB"><feFlood flood-opacity="0" result="BackgroundImageFix"/><feColorMatrix in="SourceAlpha" values="0 0 0 0 0 0 0 0 0 0 0 0 0 0 0 0 0 0 127 0"/><feOffset dy="1"/><feColorMatrix values="0 0 0 0 0 0 0 0 0 0 0 0 0 0 0 0 0 0 0.06 0"/><feBlend in2="BackgroundImageFix" result="effect1_dropShadow"/><feBlend in="SourceGraphic" in2="effect1_dropShadow" result="shape"/></filter></defs></svg>