<svg width="13" height="12" fill="none" xmlns="http://www.w3.org/2000/svg"><rect x=".25" y=".25" width="12.5" height="11.5" rx="1.75" fill="#fff" stroke="#F5F5F5" stroke-width=".5"/><mask id="a" maskUnits="userSpaceOnUse" x="0" y="0" width="13" height="12"><rect x=".25" y=".25" width="12.5" height="11.5" rx="1.75" fill="#fff" stroke="#fff" stroke-width=".5"/></mask><g mask="url(#a)" fill-rule="evenodd" clip-rule="evenodd"><path d="M0 6.4h13V0H0v6.4z" fill="#E12237"/><path d="M3.095 5.6c.44 0 .842-.197 1.16-.526-.168.082-.35.126-.54.126-.855 0-1.548-.895-1.548-2s.693-2 1.547-2c.19 0 .373.044.541.126C3.937.996 3.535.8 3.095.8 2.07.8 1.238 1.875 1.238 3.2s.832 2.4 1.857 2.4zm.62-2.8c0 .22-.14.4-.31.4-.171 0-.31-.18-.31-.4 0-.22.139-.4.31-.4.17 0 .31.18.31.4zm.309 2c.17 0 .31-.18.31-.4 0-.22-.14-.4-.31-.4-.171 0-.31.18-.31.4 0 .22.139.4.31.4zm1.547-.4c0 .22-.138.4-.309.4-.171 0-.31-.18-.31-.4 0-.22.139-.4.31-.4.17 0 .31.18.31.4zm.31-1.2c.17 0 .31-.18.31-.4 0-.22-.14-.4-.31-.4-.171 0-.31.18-.31.4 0 .22.14.4.31.4zm-.929-1.6c0 .22-.138.4-.31.4-.17 0-.309-.18-.309-.4 0-.22.139-.4.31-.4.17 0 .31.18.31.4z" fill="#fff"/></g></svg>