<svg width="13" height="12" fill="none" xmlns="http://www.w3.org/2000/svg"><rect width="13" height="12" rx="2" fill="#fff"/><mask id="a" maskUnits="userSpaceOnUse" x="0" y="0" width="13" height="12"><rect width="13" height="12" rx="2" fill="#fff"/></mask><g mask="url(#a)"><path fill="url(#paint0_linear)" d="M0 0h13v12H0z"/><path fill-rule="evenodd" clip-rule="evenodd" d="M8.048 6V4.533c0-.736.597-1.333 1.333-1.333h.429c.736 0 1.333.597 1.333 1.333V6c0 2-1.548 2.8-1.548 2.8S8.048 8 8.048 6z" fill="#8FC5FF"/><mask id="b" maskUnits="userSpaceOnUse" x="8" y="3" width="4" height="6"><path fill-rule="evenodd" clip-rule="evenodd" d="M8.048 6V4.533c0-.736.597-1.333 1.333-1.333h.429c.736 0 1.333.597 1.333 1.333V6c0 2-1.548 2.8-1.548 2.8S8.048 8 8.048 6z" fill="#fff"/></mask><g mask="url(#b)"><path fill-rule="evenodd" clip-rule="evenodd" d="M9.327 7.13s.31-.518.493-.518c.182 0 .215.344.495.344s.428-.549.698-.549c.27 0 0 1.8 0 1.8l-.365.488-2.141.32.82-1.885z" fill="#366CC9"/><path fill-rule="evenodd" clip-rule="evenodd" d="M8.416 6.33L8.689 6l.268.85.36-.85.31 2.421-.515-.135L7.43 7.29l.987-.96z" fill="#CF6200"/><path fill="#FF0" d="M8.048 3.2h3.095v2.4H8.048z"/></g><path d="M8.38 6V4.533a1 1 0 011-1h.43a1 1 0 011 1V6c0 .906-.349 1.531-.694 1.933a2.874 2.874 0 01-.52.474 2.873 2.873 0 01-.521-.474C8.728 7.53 8.38 6.906 8.38 6z" stroke="#fff" stroke-width=".667"/><path d="M0-.333h-.75l.503.556 2.08 2.305v.526l-2.06 1.901-.106.1v1.242l.542-.439 2.385-1.926h.37l2.038 1.88a.45.45 0 00.64-.632L3.738 3.07v-.525L5.69.744a.667.667 0 00.215-.49v-.952l-.543.439-2.385 1.926h-.37L.536-.245.44-.333H0z" fill="#DB1E36" stroke="#fff" stroke-width=".667"/><path fill-rule="evenodd" clip-rule="evenodd" d="M0 2v1.6h2.167v1.781a.62.62 0 001.238 0V3.6h1.81a.667.667 0 00.666-.667v-.266A.667.667 0 005.214 2h-1.81V0H2.168v2H0z" fill="#fff"/><path fill-rule="evenodd" clip-rule="evenodd" d="M0 2.4h2.476V0h.62v2.4H5.57v.8H3.095v2.4h-.619V3.2H0v-.8z" fill="#DB1E36"/></g><defs><linearGradient id="paint0_linear" x1="0" y1="0" x2="0" y2="12" gradientUnits="userSpaceOnUse"><stop stop-color="#07319C"/><stop offset="1" stop-color="#00247E"/></linearGradient></defs></svg>