<svg width="13" height="12" fill="none" xmlns="http://www.w3.org/2000/svg"><rect x=".25" y=".25" width="12.5" height="11.5" rx="1.75" fill="#fff" stroke="#F5F5F5" stroke-width=".5"/><mask id="a" maskUnits="userSpaceOnUse" x="0" y="0" width="13" height="12"><rect x=".25" y=".25" width="12.5" height="11.5" rx="1.75" fill="#fff" stroke="#fff" stroke-width=".5"/></mask><g mask="url(#a)"><path fill-rule="evenodd" clip-rule="evenodd" d="M0 8h13V4H0v4z" fill="#0C47B7"/><path fill-rule="evenodd" clip-rule="evenodd" d="M0 12h13V8H0v4z" fill="#E53B35"/><path d="M5.36 1.733H3.925a2 2 0 00-1.999 1.94l-.1 3.372a2 2 0 00.514 1.4l.323.357a2.667 2.667 0 003.96 0l.322-.358a2 2 0 00.515-1.4l-.1-3.37a2 2 0 00-2-1.94z" fill="#F73744" stroke="#fff" stroke-width="1.333"/><mask id="b" maskUnits="userSpaceOnUse" x="1" y="1" width="8" height="10"><path d="M5.36 1.733H3.925a2 2 0 00-1.999 1.94l-.1 3.372a2 2 0 00.514 1.4l.323.357a2.667 2.667 0 003.96 0l.322-.358a2 2 0 00.515-1.4l-.1-3.37a2 2 0 00-2-1.94z" fill="#fff" stroke="#fff" stroke-width="1.333"/></mask><g mask="url(#b)" fill-rule="evenodd" clip-rule="evenodd"><path d="M4.333 6.733A.333.333 0 004 6.4h-.262a.333.333 0 01-.333-.333v-.134c0-.184.149-.333.333-.333H4c.184 0 .333-.15.333-.333V5.11a.31.31 0 00-.31-.31.31.31 0 01-.309-.31v-.18a.31.31 0 01.31-.31.31.31 0 00.31-.31v-.18a.31.31 0 11.619 0v.18c0 .171.138.31.309.31.17 0 .31.139.31.31v.18a.31.31 0 01-.31.31.31.31 0 00-.31.31v.157c0 .184.15.333.334.333h.262c.184 0 .333.15.333.333v.134c0 .184-.15.333-.333.333h-.262a.333.333 0 00-.334.333v.957a.31.31 0 11-.619 0v-.957z" fill="#fff"/><path d="M4.084 8.055c-.753.154-1.298.608-1.298 1.145 0 .663.831 1.2 1.857 1.2 1.025 0 1.857-.537 1.857-1.2 0-.537-.546-.991-1.298-1.145-.1-.269-.313-.455-.56-.455-.246 0-.458.186-.558.455z" fill="#1251A1"/></g></g></svg>