<svg width="13" height="12" fill="none" xmlns="http://www.w3.org/2000/svg"><rect width="13" height="12" rx="2" fill="#fff"/><mask id="a" maskUnits="userSpaceOnUse" x="0" y="0" width="13" height="12"><rect width="13" height="12" rx="2" fill="#fff"/></mask><g mask="url(#a)" fill-rule="evenodd" clip-rule="evenodd"><path d="M0 12h13V8H0v4zm0-8h13V0H0v4z" fill="#2ACB41"/><path d="M0 8h13V4H0v4z" fill="#FDD043"/><path d="M0 0l4.952 6L0 12V0z" fill="#E71E43"/><path d="M6.81 6.656l-.728.638.245-1.091-.695-.697.88-.037L6.81 4.4l.298 1.07.879.036-.695.697.245 1.091-.727-.638zm3.095 0l-.728.638.245-1.091-.695-.697.88-.037.298-1.069.298 1.07.88.036-.695.697.245 1.091-.728-.638z" fill="#262626"/></g></svg>