<svg width="13" height="12" fill="none" xmlns="http://www.w3.org/2000/svg"><rect x=".25" y=".25" width="12.5" height="11.5" rx="1.75" fill="#fff" stroke="#F5F5F5" stroke-width=".5"/><mask id="a" maskUnits="userSpaceOnUse" x="0" y="0" width="13" height="12"><rect x=".25" y=".25" width="12.5" height="11.5" rx="1.75" fill="#fff" stroke="#fff" stroke-width=".5"/></mask><g mask="url(#a)" fill-rule="evenodd" clip-rule="evenodd"><path d="M0 12h13V8H0v4z" fill="#262626"/><path d="M0 4h13V0H0v4z" fill="#E32139"/><path d="M4.333 6.656l-.727.638.245-1.091-.695-.697.879-.037.298-1.069.299 1.07.879.036-.695.697.245 1.091-.728-.638zm4.334 0l-.728.638.245-1.091-.695-.697.88-.037.298-1.069.298 1.07.88.036-.696.697.245 1.091-.727-.638z" fill="#128A49"/></g></svg>