<svg width="13" height="12" fill="none" xmlns="http://www.w3.org/2000/svg"><rect width="13" height="12" rx="2" fill="#fff"/><mask id="a" maskUnits="userSpaceOnUse" x="0" y="0" width="13" height="12"><rect width="13" height="12" rx="2" fill="#fff"/></mask><g mask="url(#a)"><path fill="#E92434" d="M0 0h13v12H0z"/><path fill-rule="evenodd" clip-rule="evenodd" d="M8.831 6.461l-.569.891.04-1.154-.832-.423.86-.31.056-1.152.493.963.865-.29-.556.905.48.974-.837-.404z" fill="#fff"/><path fill-rule="evenodd" clip-rule="evenodd" d="M8.08 8.21c-.51.846-1.305 1.39-2.2 1.39-1.538 0-2.785-1.612-2.785-3.6s1.247-3.6 2.786-3.6c.894 0 1.69.544 2.199 1.39-.394-.37-.888-.59-1.425-.59-1.282 0-2.322 1.254-2.322 2.8 0 1.546 1.04 2.8 2.322 2.8.537 0 1.031-.22 1.425-.59z" fill="#fff"/></g></svg>