<svg width="13" height="12" fill="none" xmlns="http://www.w3.org/2000/svg"><rect width="13" height="12" rx="2" fill="#fff"/><mask id="a" maskUnits="userSpaceOnUse" x="0" y="0" width="13" height="12"><rect width="13" height="12" rx="2" fill="#fff"/></mask><g mask="url(#a)" fill-rule="evenodd" clip-rule="evenodd"><path d="M0 1.6h13V0H0v1.6zM0 8h13V6.4H0V8z" fill="#262626"/><path d="M0 6.4h13V4H0v2.4z" fill="#ED1623"/><path d="M0 4h13V1.6H0V4z" fill="#FEE044"/><path d="M0 12h13v-1.6H0V12z" fill="#ED1623"/><path d="M0 10.4h13V8H0v2.4z" fill="#FEE044"/><path d="M6.5 8.8c1.197 0 2.167-1.254 2.167-2.8 0-1.546-.97-2.8-2.167-2.8-1.197 0-2.167 1.254-2.167 2.8 0 1.546.97 2.8 2.167 2.8z" fill="#fff"/><path d="M6.036 4.6a.327.327 0 010-.4l.144-.187a1.31 1.31 0 01.052-.082c.087-.13.486-.102.56.036.025.046.007.06-.012.11l-.258.665a.333.333 0 00-.022.12v.157c0 .113.057.218.152.28l.42.27c.03.02.059.046.082.076l.469.606c.071.093.09.216.047.324l-.136.352a.165.165 0 01-.284.042.165.165 0 00-.262 0l-.114.147a.31.31 0 00-.064.19v.221a.21.21 0 00.044.13.213.213 0 01-.168.343h-.062a.213.213 0 01-.168-.343.212.212 0 00.044-.13v-.12a.208.208 0 00-.372-.127l-.053.07a.245.245 0 11-.387-.3l.12-.155A.245.245 0 016 6.8a.245.245 0 00.194-.395l-.466-.601a.333.333 0 010-.408L6.036 5a.327.327 0 000-.4z" fill="#262626"/></g></svg>