<svg width="13" height="12" fill="none" xmlns="http://www.w3.org/2000/svg"><rect x=".25" y=".25" width="12.5" height="11.5" rx="1.75" fill="#fff" stroke="#F5F5F5" stroke-width=".5"/><mask id="a" maskUnits="userSpaceOnUse" x="0" y="0" width="13" height="12"><rect x=".25" y=".25" width="12.5" height="11.5" rx="1.75" fill="#fff" stroke="#fff" stroke-width=".5"/></mask><g mask="url(#a)" fill-rule="evenodd" clip-rule="evenodd"><path d="M0 4h13V0H0v4z" fill="#04AAC8"/><path d="M0 12h13V8H0v4z" fill="#23C840"/><path d="M2.167 3.2a.785.785 0 00.516-.202A.608.608 0 012.63 3c-.427 0-.774-.448-.774-1s.347-1 .774-1c.017 0 .035 0 .052.002A.785.785 0 002.167.8c-.513 0-.929.537-.929 1.2 0 .663.416 1.2.929 1.2zm1.547-.4c0 .22-.138.4-.31.4-.17 0-.309-.18-.309-.4 0-.22.139-.4.31-.4.17 0 .31.18.31.4zm.929-1.2c.17 0 .31-.18.31-.4 0-.22-.14-.4-.31-.4-.171 0-.31.18-.31.4 0 .22.139.4.31.4zm1.548-.4c0 .22-.14.4-.31.4-.171 0-.31-.18-.31-.4 0-.22.14-.4.31-.4.17 0 .31.18.31.4zm-.31 2c.17 0 .31-.18.31-.4 0-.22-.14-.4-.31-.4-.171 0-.31.18-.31.4 0 .22.14.4.31.4zm-.929-.4c0 .22-.138.4-.31.4-.17 0-.309-.18-.309-.4 0-.22.139-.4.31-.4.17 0 .31.18.31.4z" fill="#fff"/></g></svg>