<svg width="13" height="12" fill="none" xmlns="http://www.w3.org/2000/svg"><rect width="13" height="12" rx="2" fill="#009F60"/><mask id="a" maskUnits="userSpaceOnUse" x="0" y="0" width="13" height="12"><rect width="13" height="12" rx="2" fill="#fff"/></mask><g mask="url(#a)"><path fill="#EA8B42" d="M11.143 6.4H13V12h-1.857z"/><path fill-rule="evenodd" clip-rule="evenodd" d="M9.286 12h1.857V6.4H9.286V12z" fill="#1A1919"/><path fill-rule="evenodd" clip-rule="evenodd" d="M7.429 12h1.857V6.4H7.429V12z" fill="#DB3C36"/><path fill-rule="evenodd" clip-rule="evenodd" d="M9.757 2.09c-.043.002-.074-.017-.086-.05.07-.052.117-.04.175.027a.198.198 0 00-.024-.146c-.025-.035-.045-.035-.079-.038-.034-.003-.067-.015-.09-.015-.033-.093-.115-.054-.194-.015a.65.65 0 00-.296.288c-.024.052-.027.072-.041.102.012-.002.01-.002.018-.008-.009.128-.02.247-.003.323-.022.112-.004.182.023.217s.038.05.042.09c.005.042.018.08.04.103a.153.153 0 01.039.079c.002.02.072.109.1.132.012.008.014.026.028.05-.03.222.087.444.06.663.02.003.047 0 .074-.008.023.187.036.277-.09.333-.125.056-.194.11-.159.173.025.043.076.005.108-.033a.233.233 0 01.076-.064c.023-.009.027 0 .016.038s-.072.12-.074.161c-.002.041.025.07.067.038a.325.325 0 00.09-.167c.007-.035.018-.058.016 0-.002.059-.03.164.031.182.06.017.079-.076.059-.161-.02-.085-.027-.132-.018-.161.009-.03.018-.047.04-.038.022.009.067-.003.065-.05-.002-.047-.034-.085-.07-.058-.035.026-.062.022-.047-.035.012-.041.032-.091.034-.123.025.046.164.052.22.008.013.088.05.167-.03.25-.078.081-.14.16-.138.218.002.059.02.094.06.065a.19.19 0 00.074-.108c.01-.038.027-.038.018.008-.009.047-.025.114-.018.155.007.041.056.044.076.006.02-.038.016-.088.012-.137a.312.312 0 01.01-.123c.01-.02.028-.05.046.006.018.055.027.1.063.114.035.014.062-.006.056-.062-.007-.055-.054-.117-.101-.163-.047-.047-.032-.07-.03-.114.003-.044-.004-.123-.006-.158.042.04.09.035.112.035.022 0 .06-.01.022-.053-.074-.088-.049-.14-.1-.205a.614.614 0 01-.115-.248c-.016-.085-.05-.24-.119-.32-.038-.043-.05-.163-.04-.3.009-.138.011-.29-.085-.36-.097-.07-.095-.129-.063-.19.031-.062.071-.122.123-.126.012-.001.039-.004.05-.014a.034.034 0 00-.027-.013" fill="#EA8B42"/><path fill-rule="evenodd" clip-rule="evenodd" d="M9.13 2.406a.598.598 0 00.007.152c-.022.112-.004.182.023.217s.038.05.043.09a.17.17 0 00.04.103.153.153 0 01.038.079c.002.02.072.109.1.132.012.008.014.026.028.05a.872.872 0 00.018.276c-.159.172-.315.09-.25-.085-.13.137-.358.133-.307 0-.207.094-.27.016-.242-.07-.174.09-.264.004-.24-.058-.143.05-.236.02-.251-.012-.015-.031.02-.101.054-.136a.292.292 0 01-.189.02c-.06-.013-.044-.036-.032-.071.012-.035.027-.09.075-.145-.114.029-.258.05-.359.005-.019-.008-.051-.017-.031-.043a.538.538 0 01.155-.132c-.169.032-.487.055-.577-.076.088.023.2-.024.271-.062-.282-.04-.668-.292-.672-.538.08.17.22.228.359.281-.189-.143-.267-.316-.274-.43.107.135.271.287.433.322-.115-.08-.263-.31-.303-.471a1.3 1.3 0 00.442.301c-.101-.102-.265-.345-.256-.48.038.05.132.144.325.29s.298.135.457.18a.588.588 0 01-.057-.136c.047.009.092.032.226.14.135.108.429.142.597.237.123.07.299.027.348.07m1.015 1.503c.008-.008.008-.021-.01-.043-.075-.088-.05-.14-.102-.205a.614.614 0 01-.114-.248c-.016-.085-.05-.24-.119-.32-.038-.043-.05-.163-.04-.3.007-.118.01-.247-.05-.325.113-.041.216-.05.252-.003.186-.062.347-.08.506-.094.182-.015.526-.117.771-.331a.531.531 0 01-.173.253c.248-.078.547-.222.802-.468-.004.172-.111.3-.174.37.174-.124.428-.28.514-.475.038.2-.22.461-.362.605.144-.09.33-.172.401-.305-.001.162-.164.363-.32.48.159-.078.335-.16.437-.28.012.162-.474.536-.715.639.21-.067.482-.156.601-.25-.006.033-.055.08-.09.114-.146.14-.37.214-.508.249.018.097-.006.152-.09.16a.804.804 0 01-.388-.1.107.107 0 01-.053.018c.099.096.133.167.112.208-.02.04-.09.033-.144.019.042.155-.1.144-.219.057.047.079.054.146-.011.163-.065.018-.117.012-.18-.04-.004.058-.048.097-.105.077.197.155.186.212.152.27-.033.059-.15.047-.214-.005-.027.12-.134.12-.214.025 0 .047-.077.142-.153.085" fill="#EA8B42"/><path fill-rule="evenodd" clip-rule="evenodd" d="M9.229 4.497c.003-.037.006-.08.03-.107.023-.028.038-.051.06-.024.02.027.007.053-.022.065a.1.1 0 00-.052.066c-.004.021-.02.033-.016 0m.163.179c-.015-.061-.008-.14.009-.164.016-.023.037-.039.056-.015.02.023.027.056-.009.076-.031.017-.034.06-.035.092-.002.03-.012.048-.021.011m.209-.158c-.012.025.003.127.042.152.027.018.04.014.024-.02a.092.092 0 01-.002-.081c.01-.018.008-.049-.012-.064-.02-.016-.043-.006-.052.013m.169-.091c-.025-.025-.048.004-.057.025-.018.04-.004.1.024.133s.024-.012.015-.032c-.009-.02-.01-.058.009-.062.02-.004.033-.041.009-.064m.14.066c-.024-.01-.047.023-.044.062.002.03.004.067.027.086.015.013.025.022.017-.013-.007-.036.005-.065.018-.075.014-.01.008-.05-.018-.06m.2-.166c-.018.016-.017.053 0 .067.016.013.04.033.035.066-.004.033.01.045.021.008.012-.037.014-.092 0-.117-.013-.026-.042-.037-.057-.024" fill="#000"/><path fill-rule="evenodd" clip-rule="evenodd" d="M9.676 2.038c.01.03.04.047.08.046.013 0 .02.004.03.024-.01.01-.028.013-.052.015-.043.004-.08.046-.12.123-.035.07-.022.12.062.181.083.06.1.167.088.366-.01.145.004.256.038.296.057.066.094.18.12.322a.63.63 0 00.114.246c.012.015.02.03.028.048l.011.035a.271.271 0 00.062.121c.018.022.022.04.01.053-.007.008-.021.011-.036.011h-.009a.136.136 0 01-.098-.028l.003.032a1.989 1.989 0 01.003.113.359.359 0 01-.002.022l-.002.03c.001.018.01.035.032.056.057.058.096.117.102.168.007.058-.02.086-.062.069-.025-.01-.038-.032-.053-.078l-.013-.04c-.007-.022-.014-.03-.02-.028-.005.002-.01.01-.016.023a.307.307 0 00-.01.119c.006.076.005.109-.013.142-.022.042-.077.039-.085-.008a.287.287 0 01.005-.089 1.22 1.22 0 01.006-.034l.007-.035c.004-.018.003-.028.002-.029-.002 0-.007.009-.01.023a.197.197 0 01-.077.112c-.04.03-.065 0-.068-.07-.002-.054.046-.124.141-.224a.17.17 0 00.039-.06c.013-.037.011-.066-.003-.14a1.074 1.074 0 01-.007-.034c-.056.038-.175.035-.213-.004A.515.515 0 019.671 4a.907.907 0 00-.013.043c-.007.024-.005.037.001.04.008.004.022 0 .039-.013.037-.027.074.008.077.064.002.046-.04.069-.072.056-.016-.007-.024.002-.034.034-.008.026-.003.069.018.157.024.098-.003.187-.064.169-.037-.01-.047-.05-.042-.116a1.004 1.004 0 01.007-.072V4.34a.204.204 0 00-.006.024.328.328 0 01-.092.17c-.043.033-.078.008-.075-.043a.218.218 0 01.033-.082l.006-.01a.36.36 0 00.035-.071c.01-.033.009-.037-.01-.03a.227.227 0 00-.074.063c-.044.053-.09.074-.115.031-.018-.033-.01-.066.02-.097a.482.482 0 01.142-.085c.106-.047.114-.092.093-.321a.115.115 0 01-.08.001.968.968 0 00-.031-.325c-.034-.168-.043-.244-.03-.334a.187.187 0 01-.009-.019l-.006-.015a.035.035 0 00-.01-.014.449.449 0 01-.103-.136.146.146 0 00-.036-.075.184.184 0 01-.043-.106c-.003-.035-.009-.046-.04-.088-.034-.043-.045-.12-.024-.219-.014-.058-.013-.115 0-.291l.002-.023a.024.024 0 01-.006.002l-.007.001-.005-.01a.244.244 0 00.009-.018l.004-.011a2.448 2.448 0 01.028-.072.656.656 0 01.3-.291c.122-.06.17-.064.195.015a.18.18 0 01.048.007l.042.007.008.001c.029.002.04.006.055.018a.112.112 0 01.02.021.206.206 0 01.025.153l-.008.003c-.059-.068-.104-.075-.167-.034zm.104.07c-.008-.008-.013-.011-.023-.011-.044.001-.078-.018-.088-.062.067-.05.115-.045.174.02a.169.169 0 01-.002.01l.008-.003a.377.377 0 00-.006-.007.188.188 0 00-.025-.13.102.102 0 00-.017-.02c-.013-.01-.024-.013-.05-.015h-.008a.342.342 0 01-.043-.008l-.015-.003a.653.653 0 01-.036-.008c-.026-.073-.071-.07-.188-.012a.645.645 0 00-.311.326l-.011.03m-.008.019h.001a.054.054 0 00.006-.005l.007.006-.002.035c-.013.174-.014.23 0 .29-.02.097-.01.17.02.21.033.043.04.057.044.095a.17.17 0 00.039.098.16.16 0 01.04.083.483.483 0 00.098.127c.006.004.01.01.013.019l.007.015.002.005.008.017c-.012.093-.004.167.03.333.033.166.041.24.026.324.018.003.042 0 .07-.003h.008c.029.24.02.29-.093.34a.475.475 0 00-.138.083c-.028.027-.034.053-.019.08.019.033.06.015.1-.033a.235.235 0 01.079-.066c.027-.01.034.005.022.046a.357.357 0 01-.037.074l-.006.01a.214.214 0 00-.031.075c-.002.04.024.06.06.032a.316.316 0 00.087-.162.12.12 0 01.013-.04c.006-.004.01.001.012.01a.596.596 0 01-.006.104c-.005.061.003.093.034.102.051.015.074-.062.053-.152-.022-.091-.027-.136-.018-.166.011-.037.023-.05.046-.041.027.01.06-.009.059-.043-.002-.047-.032-.076-.062-.054-.02.015-.037.02-.047.014-.014-.006-.016-.027-.007-.057a.929.929 0 01.013-.043.344.344 0 00.02-.078l.009-.003c.023.044.16.05.213.007l.008.004a.865.865 0 00.007.042c.016.077.018.108.003.149a.182.182 0 01-.041.064c-.093.097-.14.165-.138.214.003.061.02.083.054.06a.185.185 0 00.071-.105c.005-.02.013-.034.022-.032.009.002.01.02.006.044l-.007.035a1.209 1.209 0 00-.006.034.275.275 0 00-.005.083c.006.035.05.038.067.004.016-.03.017-.06.01-.133a.32.32 0 01.012-.127c.007-.016.014-.026.022-.029.012-.004.023.007.032.035l.013.04c.014.043.025.062.047.07.035.015.055-.006.05-.054-.006-.047-.044-.104-.1-.16-.024-.023-.034-.043-.035-.066l.002-.032a.755.755 0 00-.002-.132l-.002-.046.008-.006a.129.129 0 00.1.034h.009c.013 0 .025-.003.03-.008.006-.006.004-.016-.011-.033a.284.284 0 01-.064-.126.346.346 0 00-.011-.034.168.168 0 00-.026-.045.621.621 0 01-.116-.252c-.026-.14-.062-.252-.117-.315-.038-.044-.052-.158-.042-.307.012-.195-.004-.296-.083-.354-.089-.064-.103-.123-.065-.199.041-.08.08-.125.128-.129a.468.468 0 00.019-.002.071.071 0 01.027 0m-.649.126l-.003.001-.007.001.005.01a.246.246 0 00.005-.012z" fill="#000"/><path fill-rule="evenodd" clip-rule="evenodd" d="M9.008 2.376c.077.003.105.008.124.025l.002.006a.618.618 0 00.008.153c-.02.097-.01.17.021.21.033.043.04.057.044.095a.17.17 0 00.039.098.16.16 0 01.04.083.483.483 0 00.098.127c.006.004.01.01.014.019l.006.015.002.005.008.017c-.01.08-.004.16.016.281-.075.081-.156.113-.213.09-.052-.022-.073-.084-.051-.16a.327.327 0 01-.21.088c-.071 0-.11-.037-.095-.097-.17.074-.265.032-.242-.07-.14.068-.257.021-.239-.06-.121.04-.226.026-.247-.018-.013-.027.007-.082.038-.124a.3.3 0 01-.17.01c-.028-.005-.043-.014-.046-.029-.003-.011-.002-.015.009-.046l.001-.004a3.203 3.203 0 01.023-.063.331.331 0 01.041-.069c-.14.034-.26.039-.344.001l-.013-.005c-.012-.005-.02-.01-.024-.016-.007-.01-.006-.021.003-.033a.565.565 0 01.127-.115c-.243.041-.476.023-.549-.084l.005-.01c.068.018.156-.005.25-.052-.31-.054-.653-.315-.657-.542l.009-.003.001.003-.009.004a.642.642 0 00.011.022c.03.217.368.463.667.506l.001.012c-.096.051-.186.078-.258.066a.136.136 0 01-.011-.014l-.005.01.016.004c.084.094.321.105.56.06l.003.012a.552.552 0 00-.153.13c-.006.007-.006.011-.003.015.003.005.01.008.02.013l.013.005c.086.038.21.031.356-.006l.004.011-.006.007a.345.345 0 00-.068.136l-.002.004c-.009.027-.01.03-.008.037.002.009.014.016.039.02a.287.287 0 00.184-.017l.002-.002.005.012c-.036.038-.065.103-.053.128.018.038.125.051.246.008l.006.01c-.029.074.087.125.233.05l.006.008c-.031.099.058.142.236.061l.006.01c-.022.056.012.09.081.09a.321.321 0 00.217-.096l.003-.003.007.008c-.03.08-.013.143.038.164.053.022.131-.008.202-.08a.801.801 0 01-.017-.275.188.188 0 01-.01-.019l-.006-.015a.035.035 0 00-.01-.014.449.449 0 01-.103-.136.146.146 0 00-.036-.075.184.184 0 01-.043-.106c-.003-.035-.01-.046-.04-.088-.034-.043-.045-.12-.025-.219a.583.583 0 01-.006-.148l-.002-.006v.004c-.017-.014-.046-.018-.116-.021a.972.972 0 01-.11-.009.337.337 0 01-.12-.038 1.258 1.258 0 00-.27-.101L8.5 2.238c-.182-.054-.257-.083-.319-.133-.118-.096-.169-.127-.217-.138a.067.067 0 01-.002-.01l-.005.008a.19.19 0 01.007.002.687.687 0 00.055.123l-.005.01a1.656 1.656 0 00-.167-.037.719.719 0 01-.291-.142 2.057 2.057 0 01-.318-.28v-.015l-.009.004a.427.427 0 00.009.01c.003.118.131.336.254.46l-.005.011a1.323 1.323 0 01-.43-.287.516.516 0 01-.006-.022l-.008.007.015.016c.047.158.186.37.294.444l-.003.012c-.14-.03-.295-.152-.426-.311a.33.33 0 01-.001-.018l-.009.006.01.012c.015.13.11.286.27.407l-.004.012h-.002c-.188-.072-.281-.133-.349-.261a.225.225 0 01-.002-.026c.063.13.147.192.319.26-.15-.124-.237-.28-.244-.409l.008-.005c.123.153.268.273.402.313a1.046 1.046 0 01-.28-.455l.008-.007c.085.098.28.237.417.291-.124-.134-.246-.351-.239-.465l.009-.004c.047.062.155.16.324.288a.71.71 0 00.34.152c.056.012.076.017.103.024a.563.563 0 01-.051-.125l.005-.008c.053.01.103.04.229.142.06.049.135.077.315.131l.008.003c.146.044.21.067.273.102.032.019.07.03.116.037.03.005.053.006.109.009zm-2.17-.274z" fill="#000"/><path fill-rule="evenodd" clip-rule="evenodd" d="M10.142 3.914v-.01c.005-.006.003-.016-.012-.033a.286.286 0 01-.064-.126.345.345 0 00-.011-.034.17.17 0 00-.026-.045.62.62 0 01-.116-.252c-.026-.14-.062-.252-.117-.315-.038-.044-.052-.158-.042-.307l.003-.052.003.002.006.004-.002.047c-.01.145.004.256.038.296.058.066.094.18.12.322a.63.63 0 00.114.246c.012.015.02.03.028.048l.012.035a.271.271 0 00.06.121c.016.018.021.034.016.046l-.005-.004v.01a.022.022 0 00.005-.006c.06.039.14-.025.14-.084l.008-.004c.081.096.182.088.207-.022l.007-.004c.064.054.177.06.208.008.041-.072.017-.129-.152-.261l.004-.012c.053.018.095-.015.1-.072l.007-.005c.058.049.107.059.176.04.056-.015.057-.071.008-.153l.007-.01c.059.044.123.067.167.062.046-.006.063-.043.044-.111l.006-.009c.069.019.124.016.14-.016.018-.038-.018-.108-.112-.199l.003-.011a.14.14 0 00.056-.018.8.8 0 00.385.1c.078-.008.103-.055.09-.16.2-.05.383-.132.505-.249a1.592 1.592 0 00.054-.055.212.212 0 00.028-.037.72.72 0 00.014-.01l-.008-.007a.063.063 0 01-.006.017c-.103.074-.282.143-.589.24l-.002-.012c.272-.116.694-.468.71-.619l.01-.01-.009-.004v.014c-.071.08-.17.143-.337.226l-.047.023-.046.023-.004-.012c.167-.126.302-.31.316-.452a.302.302 0 00.01-.018l-.009-.004a.26.26 0 010 .022c-.047.074-.124.131-.271.217l-.069.04-.053.032-.006-.01c.074-.076.1-.103.14-.148a1.25 1.25 0 00.172-.236.354.354 0 00.051-.2l.007-.014-.01-.001c.002.005.002.01.003.016-.054.11-.157.21-.323.332l-.139.098-.048.033-.005-.01c.106-.118.165-.222.171-.353l.008-.008-.007-.005v.013c-.227.216-.505.37-.796.462l-.003-.009v-.003a.55.55 0 00.166-.233l.012-.01-.007-.007a.18.18 0 01-.005.017c-.213.181-.53.303-.762.323-.21.018-.346.04-.51.091-.031-.04-.123-.038-.238.002l-.006-.008-.002.011.008-.003c.04.058.052.134.048.254l-.01.003v.01c.005-.13-.008-.209-.051-.266l.002-.01c.122-.045.22-.048.251-.003a2.04 2.04 0 01.508-.094c.234-.02.557-.146.769-.33l.007.006a.526.526 0 01-.15.237c.282-.093.551-.246.77-.458l.008.005a.522.522 0 01-.143.338l.01-.007.139-.098c.172-.125.276-.228.326-.341l.01.001a.35.35 0 01-.051.227c-.04.074-.097.152-.174.237a3.13 3.13 0 01-.106.114l.015-.009.069-.04c.157-.091.233-.15.276-.23l.01.003c-.002.138-.121.317-.279.45l.045-.022c.172-.086.272-.15.342-.234l.008.005c.01.136-.354.457-.635.606.267-.087.424-.151.514-.221l.007.007a.142.142 0 01-.037.061.621.621 0 01-.028.03l-.027.026a1.06 1.06 0 01-.506.242c.02.105-.01.16-.094.168a.774.774 0 01-.386-.101.094.094 0 01-.043.017c.09.091.126.162.104.207-.019.037-.073.041-.142.024.016.07-.006.111-.056.118-.04.005-.098-.014-.153-.05.04.077.033.135-.027.15a.178.178 0 01-.177-.036c-.007.05-.042.081-.085.079.153.124.177.186.133.262-.034.058-.147.054-.216 0-.03.11-.13.12-.213.029-.011.065-.096.126-.16.077zm-.155-1.21a.17.17 0 00.006-.028l-.006-.007-.22.056v.009L9.76 2.73l-.001.012.007-.001v.005c.085.056.179.052.213-.024.075.053.193.027.231-.047.107.05.208.02.226-.107l-.007-.007-.21.093a.116.116 0 00.004-.034l-.237.084zm-.002.007l.002-.007-.01.003v.012l.003.003.002-.003.01-.004c.07.044.176.019.214-.042l.005.002.003-.004.008-.004c.096.041.183.015.203-.09l.008-.004-.006-.007a.318.318 0 01-.002.011l-.203.09a.262.262 0 01-.006-.003.106.106 0 00.004-.01l-.006.003a.093.093 0 00.006-.03l-.228.088-.007-.004zm.227-.05l.004.003a.078.078 0 01-.002.007l-.005.002v-.006a.11.11 0 00.003-.005zm0 0h-.003v.006a.063.063 0 01-.003.006V2.66l.008-.004a.499.499 0 01-.002.005zm-.227.05l-.003.008H9.98l.001-.011.004.003zm-.211.028l-.007.002v-.007l.007.005zm.207-.055c-.017.101-.116.114-.207.055l.207-.055zm0 0l.002-.01.006.008-.008.002zm1.082-.393l.004.012c.005-.002-.136.064-.186.086l-.042.02c-.1.043-.174.071-.222.082l-.002-.013.448-.187-.185.086-.043.019a1.35 1.35 0 01-.22.082l.003.012.448-.187-.003-.012zm0 0zm-1.306.446v.003-.003zm-1.748-.64a.267.267 0 00.01.017l-.01-.018zm.094.115a.543.543 0 01-.084-.098l.153.26-.187-.077-.007.008c.006.026.015.05.027.07l-.163-.085a.23.23 0 00.044-.004l.003-.011-.117-.138c.02.007.041.011.062.014l.003-.012-.453-.302-.006.01a.868.868 0 00.367.282.16.16 0 00-.004.083l-.253-.116-.005.011c.056.06.143.094.263.121l.002.005c.01.025.029.042.055.05a.137.137 0 00-.007.042c-.12-.03-.197-.04-.228-.021a.067.067 0 00-.033.038.774.774 0 00-.092-.04 7.903 7.903 0 01-.092-.033l-.003.012.185.074c-.002.023.008.048.031.071a.195.195 0 00.03.024.059.059 0 00-.028.064l-.374-.137-.004.011c.096.08.217.122.383.141a.114.114 0 00.02.033.085.085 0 00-.013.055.164.164 0 00-.075.018l.002.013.075-.016a.131.131 0 00.029.054c.12.141.418.138.7.012.005.018.022.03.048.04l.032.01-.346.194.003.012a.917.917 0 00.352-.194l.066.113-.34.156.003.012c.111-.042.253-.105.345-.155l.04.069-.323.183.003.012c.074-.025.21-.1.33-.179l.046.08-.233.142.003.012a.909.909 0 00.243-.132l.036.06-.231.15.003.013a.487.487 0 00.124-.06 1.292 1.292 0 00.116-.081l.029.049-.128.077.003.012a.506.506 0 00.14-.065l.034.06-.085.054.003.012a.911.911 0 00.09-.052l.04.068v.002h.001c.063-.033.15-.085.222-.133a.811.811 0 00.184-.14.192.192 0 00-.001.082l-.295.232.004.011a1.42 1.42 0 00.295-.23c.007.022.02.038.038.05l-.205.169.005.011a.8.8 0 00.212-.173h.002c.045.023.09.024.134-.006l-.176.171.005.011a1.19 1.19 0 00.222-.215l-.007-.01v.001l-.002-.01-.208-.117.037-.037.042-.043-.004-.01-.136.032.095-.095-.006-.01a3.05 3.05 0 00-.12.112l-.122.03a.942.942 0 00.22-.235l-.005-.01-.18.033.025-.02.054-.048a2.35 2.35 0 01.052-.044l-.004-.011-.172.131-.159.03a.689.689 0 00.248-.192.612.612 0 00.075-.018h.001l.002-.001v-.013l-.298-.074a.54.54 0 00.059-.008v-.013l-.342-.13-.006.006v.013l-.358-.226-.008.005v.015l-.159-.158-.007.01h.001v.001l.093.114zm.073.053a.271.271 0 01-.073-.053l.081.101c.008.03.02.058.037.082l-.049-.02.01.017-.191-.08a.224.224 0 01-.003-.01l-.006.007.009.004c.01.04.03.07.053.093l-.023-.008.002-.001v-.012l-.018-.01a.195.195 0 00.008.012l-.006.003-.195-.102v-.002a.145.145 0 00.03.004l-.03-.016-.007.003-.002.006.006.002h-.001l.004.003a.118.118 0 00-.006.04l-.002-.001-.008-.002.001.013c-.12-.03-.196-.039-.225-.022-.037.02-.04.061-.002.1.01.01.023.02.038.028h-.004a.08.08 0 00-.01.006.284.284 0 00.01.007h.001c-.039.018-.04.061-.005.098l-.005.002-.003.005a.143.143 0 00.007.008c-.02.031-.013.072.017.107.114.134.4.134.672.016l.02.003v.002l.003-.002v-.024l-.006-.002a.16.16 0 01.013-.044v-.001l.007.011c-.02.052-.01.074.035.09a.319.319 0 00.022.007l.008.014v.001h.001v.002l-.045.036-.254.143a.37.37 0 01-.048.012l.003.012.045-.024a.97.97 0 00.254-.143l.05-.028.002.002.01-.008a.355.355 0 00.088.006.167.167 0 00-.006.103l-.026.012.001.003a3.275 3.275 0 01-.34.153l.003.012.342-.157.002.002.022-.012c.011.028.032.05.062.056l-.044.025.003.006c-.03.02-.06.04-.092.058l-.107.06a.927.927 0 01-.126.058l.003.012.123-.07c.034-.017.07-.038.107-.06l.095-.054.004.006a2.14 2.14 0 00.057-.039.353.353 0 00.098-.008l.015.018a.219.219 0 00-.007.039l-.117.07.007.01-.173.106a.655.655 0 01-.067.026l.004.012.063-.038a1.07 1.07 0 00.173-.104l.006.01a3.17 3.17 0 00.104-.077c0 .03.007.057.022.079l-.09.059.006.01-.183.12a.321.321 0 01-.053.02l.004.011.049-.032a1.279 1.279 0 00.183-.119l.006.01a2.11 2.11 0 00.086-.07.11.11 0 00.078.038l-.135.082.006.01-.077.047a.422.422 0 01-.056.02l.003.012.053-.032a.571.571 0 00.079-.043l.006.01a.853.853 0 00.1-.073l.045-.033a.183.183 0 00.018-.003l.045.056-.173.112.002.005a.884.884 0 01-.087.05l.004.012.087-.056.002.004c.057-.035.124-.081.173-.117l.003.004a.1.1 0 00.014.037c.008.014.018.022.03.023l-.183.11.003.011.001.002-.004-.012a2.6 2.6 0 00.188-.11l-.184.122.217-.131.005-.002.011-.008-.003-.01a.648.648 0 00.145-.108l.034-.034.003-.002a.329.329 0 00-.005.021l.008-.008.005-.005c-.022.081-.003.132.044.155.056.027.112.02.162-.039l.007.004-.002-.01-.005.006-.206-.116.01-.009-.01-.006-.002.001.042-.042.026-.027.02-.004-.004-.012-.016.016-.135.033.017-.017-.008.002a2.39 2.39 0 01.103-.096l-.006-.01-.11.109-.01.002-.017.017-.136.033a.538.538 0 00.031-.02l-.034.007a.867.867 0 00.237-.237l.014-.003-.005-.01-.009.013-.187.034.02-.016-.02.003.15-.115-.004-.011a2.34 2.34 0 00-.053.044l-.055.047a3.26 3.26 0 01-.042.036l-.022.004-.023.017-.193.036a.669.669 0 00.057-.024l-.059.011a.705.705 0 00.29-.199l.017-.003.001-.001-.003-.01a.588.588 0 00.055-.012l.022.005h.001v-.012a.62.62 0 01-.023.007l-.317-.08c.014 0 .03-.001.044-.003l-.043-.01c.025 0 .05-.003.077-.007l.022.008v-.012a.55.55 0 01-.022.004l-.313-.119V2.44l-.006.006.006.002c0 .004 0 .008.002.012l-.011-.008v.01l-.006.001-.35-.221v-.01l-.008.006.007.004a.27.27 0 00.017.094l-.018-.022a.283.283 0 01-.008-.048zm0-.003v.003l.005.001.004-.011-.01-.01v.006a.173.173 0 01-.027-.017l-.1-.1a.34.34 0 01-.031-.045l-.007.008v.001l.038.037a.516.516 0 00.1.1l.028.027zm0 0v-.011a.088.088 0 00.007.003l-.004.011-.003-.003zm.111.179a.204.204 0 01-.085-.106l.085.106zm.23.029a.426.426 0 01.02-.008v.001a.272.272 0 01-.02.007zm-.047.02a.483.483 0 01.046-.02.338.338 0 01-.229-.03l.019.024a.188.188 0 01-.068-.048l.002-.003-.001-.01-.018-.008a.213.213 0 00.01.012l-.004.004-.045-.019.021.036a.125.125 0 01-.043.015l-.116-.037c.012.01.025.019.038.025l-.042-.014a.178.178 0 01-.019-.019v-.013l-.008.002a.184.184 0 00.007.01l-.013-.007-.005.002-.196-.064.002.014-.006-.002-.005-.002c.009.069.084.108.205.067l.038.012a.15.15 0 00.119.04l.075.024.04.066c-.127.01-.286 0-.424-.024l-.242-.079c.056.035.143.06.242.079l.077.025a1.624 1.624 0 01-.08-.013l-.241-.078h.001-.003.002c.057.034.144.06.242.078l.43.14h-.01l-.668-.12a.147.147 0 00.02.017l-.02-.004.002-.002-.004.002H7.6v.002c.01.01.025.021.042.03.116.059.437.1.625.089l.021.004.017-.007.003.01h.001v-.01l.001-.001v-.013h-.004V2.67l-.378-.122c.12.016.25.02.353.012l.039.065a.217.217 0 01.058-.073l.007.01a.206.206 0 00-.057.07l-.002.004.057.097a.35.35 0 00.148.008l-.026.004-.003.003a.121.121 0 00-.005.01l.01-.001h.002c-.027.056-.013.15.05.16a.23.23 0 00.017.002l-.019.01.004.001-.045.03.003.005.059-.033h.002l.007-.005-.003-.008a.341.341 0 00.085-.006l.009.01a.5.5 0 00.023-.005.25.25 0 00-.008.024l.008.01c-.018.078.012.145.084.156.01.001.02.002.03 0l-.021.014h.003l-.029.022-.044.034-.06.036.003.004a.843.843 0 00.057-.04l.093-.056.003-.002-.004-.011.01-.001.01.011a.291.291 0 00.08-.03.215.215 0 00-.025.08l-.01.006v.001a3.53 3.53 0 01-.17.116l.003.006.175-.113.002-.001v.005l.018.021a.103.103 0 00.005.009c.003.006.008.01.013.013l.012.016-.002.001h.004c.01 0 .02-.002.033-.008l.016-.01-.004-.01V3.22l-.015.008c-.02.009-.033.01-.044.004l-.018-.022c-.016-.033-.009-.068.024-.13l.008-.005-.006.001.001-.002-.003.003h.002l-.002.003a.436.436 0 01-.017.009.625.625 0 01.01-.02l.012-.007-.007.002-.003.003-.001.002a.288.288 0 01-.1.039L8.7 2.952a.238.238 0 01.012-.037.578.578 0 00.033-.011l-.03.006v-.003l-.003.003h.002l-.002.005-.012.003a.27.27 0 01.006-.015.572.572 0 00.037-.012l-.032.006-.004.003-.001.003a.48.48 0 01-.038.01l-.128-.16.25-.03-.17.099.003.012a1.19 1.19 0 00.21-.117l.16-.02a.53.53 0 00.04-.005h.001l.014-.002-.004-.011h.004v-.002l-.077.01c-.115.002-.195-.04-.186-.101h.001V2.58l-.005.004.004.002h-.01a.09.09 0 01.002-.01l.004-.003h.006l-.005-.001h-.001a.425.425 0 01-.063-.004l-.165-.108v.001h-.001L8.55 2.46h-.002l-.005.001v.001l-.006.002.008.005.001.004a.3.3 0 01-.076.018zm-.059.036a.508.508 0 01.06-.036.36.36 0 01-.162-.025l-.003-.001.03.037-.111-.036-.016-.027a.148.148 0 00.03-.022l-.003-.003-.002-.01-.003.004.005.006v.002l-.01-.004a.136.136 0 01-.023.017l.006.01a.136.136 0 01-.027.013l-.022-.008a.128.128 0 01-.043 0l-.035-.012a.14.14 0 00.035.012l.042.013a.133.133 0 00.023-.005l.043.014.01.016.115.038.014.017a.889.889 0 01-.09.011l.006.013a.853.853 0 00.093-.013l.004.005.009-.007a.45.45 0 00.026-.007v-.012zm-.001 0h.001L8.336 2.5l.014.018.038.012a.572.572 0 01-.024.005l.01.011.012-.002a.443.443 0 01.013-.01l.01.003v-.011zm0 0l-.011.009-.011-.004a.428.428 0 00.022-.005zm.136-.053l.003-.001-.003.001zm.125.098c-.064-.019-.11-.054-.125-.098a.488.488 0 00-.162.088l.087.108.059.072a.477.477 0 00.245-.121l.005.003.003.006a.514.514 0 01-.164.102l-.089.01.009.012a.397.397 0 01-.03.004v-.002l-.002.002h.001l.032-.003-.001-.001a.433.433 0 00.08-.022l.199-.025-.029.016.017-.002a1.1 1.1 0 01-.186.101l.004.012.196-.115.012-.001.023-.016.052-.007a.42.42 0 00.085.003l.042-.006.01-.012a.508.508 0 01-.073.007l-.064.008a.3.3 0 01-.034-.006v-.001l-.004-.012-.013.008c-.035-.012-.061-.03-.073-.054l.004-.005v-.01l-.012-.008v-.02l-.033-.002-.024-.016a.361.361 0 01-.032-.006l-.126-.083a.087.087 0 01-.007-.018V2.46v.011l-.003.001.01.007c.018.037.064.067.126.083l.029.019a.37.37 0 01-.024-.005l-.004-.012-.016.007zm.004.001l-.004-.001-.202.086.002.012a.47.47 0 00.22-.093l-.004-.012-.012.008zm-.054.034l.07-.03a.337.337 0 01-.016-.004.707.707 0 01-.054.034zm-.082.035a.403.403 0 00.082-.035l-.082.035zm0 0a.547.547 0 01-.07.015l.003.013.067-.028zm.176-.06l.06.039.003-.003.002.006.002.002v-.011l-.004.003a.07.07 0 01-.003-.011l-.033-.022a.408.408 0 01-.027-.003zm.143.103l-.002-.001-.038.023.011-.002a1.38 1.38 0 01-.023.016l.014-.002.028-.016.007-.001.018-.013-.004-.012-.01.008zm0 0a1.31 1.31 0 01-.029.02l.02-.002.023-.014a.246.246 0 01-.014-.004zm-.31-.212h.003l-.004-.001h.002zm-.003-.004l-.002-.007.007-.002v.012l-.005-.003zm.43.758a2.532 2.532 0 01-.035.023l-.002-.001.032-.02.005-.002zm0 0l.01-.006v.001a.223.223 0 01-.01.005zm-.085-.043l-.002.002-.007-.009.009-.007a.1.1 0 000 .014zm.003-.016l.005.011-.008.006.007-.005-.004-.012zm0 0zm0 0l-.003.002.003-.002zm-.078-.058l.004.011-.003.002h-.02a.647.647 0 01.018-.013zm0 0h-.001zm-.232-.19l.002.008-.008.005a.24.24 0 01-.017-.002l.016-.011h.007zm0 0l-.002-.004-.006.004h.001l.005-.003.002.003zm-.278-.236h.004v.002-.001h-.004v-.001zM8.3 2.682l-.02-.007c.01 0 .018-.002.026-.003v.01H8.3zm.006.003a.702.702 0 01-.038.004l-.061-.011.061-.002.032.006.006.002v.001zm0 0h.003-.003zm-.1-.007c-.188 0-.457-.038-.56-.09a.191.191 0 01-.026-.016l.587.106zm-.224-.28a.38.38 0 00.02-.006l.02.006a.426.426 0 01-.02.007l-.02-.007zm0 0l-.173-.056c.01.054.072.085.173.056zm.982.466l-.025.004-.13.1.004.012a.856.856 0 00.175-.12l-.023.004.023-.018h-.004l-.02.018zm-.014.01l.014-.01h.001l-.015.01zm0 0l-.044.035.044-.034zm-.044.035a.632.632 0 01-.097.059l.005.011.092-.07zm.18.131l-.009.002c-.04.04-.074.076-.088.094l.007.01.112-.111-.01.002.019-.017-.014.003-.017.017zm0 0l-.096.095.006.01a1.47 1.47 0 01.103-.108l-.013.003zm.091.045zm0 0l.002-.006-.007.003.005.003zm-.002-.014l-.006.006v-.003l.006-.003zm-.46.013l.004-.002-.005-.012-.006.005a2.808 2.808 0 01-.083.068l-.001.001h.001l.09-.06zm0 0a.108.108 0 01-.006-.009l.005-.004.005.011-.004.002zm-.03-.089v.001l.007-.005-.004-.011h-.002a3.446 3.446 0 01-.096.073l-.014.009v.001l.014-.01.096-.058zm0 0l.007-.004-.005-.011-.001.015zm-.19-.122l-.024.011-.005-.008.026-.014a.132.132 0 00.003.011zm0 0l.004-.001-.004.002zm-.003-.011l.003-.002.004.012-.004-.012-.004.001zm-.084-.11l-.01.006-.005-.008.001-.001.014.003zm0 0h.001l-.005-.012-.01.009h-.002v-.002l.013-.007.005.011-.001.001zm-.598-.467l.004.001.001-.004-.005.003zm1.585.919l-.043.041a.197.197 0 00.04-.038 1.22 1.22 0 01-.216.209l.006.01.22-.213-.007-.009zm0 0l-.002.003.002-.003zm-.18.047l.003-.003-.006-.01-.008.006.002.001a.6.6 0 01-.069.07l-.04.033A.755.755 0 019 3.412l.004.012.093-.076a.894.894 0 00.04-.033l.078-.064zm0 0l.002-.003-.006-.01-.005.007a.109.109 0 00.009.006zm-.05-.057l.006-.005-.006-.01-.003.002v.001c-.028.03-.07.067-.115.104l-.07.055a.806.806 0 01-.11.071l.005.012.106-.083.07-.055.117-.092zm0 0a.117.117 0 01-.003-.012l.002-.003.006.01-.005.005zM7.58 2.63v.001h.005v-.014h-.007v.001l-.074.016.002.012a.154.154 0 01.074-.016zm0 0a.099.099 0 01-.002-.012l.005-.001v.013H7.58zm-.01-.102h.004l.001-.012-.009-.003v.002a1.323 1.323 0 01-.05-.007l-.29-.106a.515.515 0 01-.033-.025l-.004.011.038.014a.683.683 0 00.29.106l.053.02zm0 0a.084.084 0 01-.004-.013h.009l-.002.014-.003-.001zm-.037-.174l.004.002.003-.013-.005-.002-.184-.073-.003.012a7.81 7.81 0 00.121.045.765.765 0 01.064.029zm0 0l.003.002.004-.013-.005-.002a.061.061 0 00-.002.013zm.212-.128v.001h.001l.002-.012-.007-.004v.002c-.02-.004-.04-.01-.058-.015l-.164-.075a.256.256 0 01-.03-.027l-.004.011.034.016a.476.476 0 00.164.075l.062.03v-.002zm0 0a.12.12 0 01-.004-.013l.007.002-.003.011zm.01-.108a.82.82 0 01-.342-.248l.393.262a.503.503 0 01-.05-.014zm0 0l-.007.001a.117.117 0 00-.003.009l.007.002.002.003a.137.137 0 00.002.093c.017.038.055.056.118.048l.009.01.002-.012-.01.002-.12-.14v-.003a.538.538 0 00.017.005l-.015-.018h-.002zm0 .013h-.003l-.003-.004.008-.001-.002.005zm.051.001l.027.018.003-.012a.466.466 0 01-.03-.006zm-.393-.262a1.291 1.291 0 01-.028-.033l-.005.01.033.023zm1.88 1.59l.007.009a2.56 2.56 0 00.106-.162L9.398 3.3l-.105.16zm0 0c.033-.046.085-.125.105-.16l.008.008-.106.16-.007-.008z" fill="#000"/><path fill-rule="evenodd" clip-rule="evenodd" d="M9.142 2.24a.098.098 0 01.04-.016.08.08 0 00.009-.003.078.078 0 00.032-.028c.079-.104.205-.22.28-.262v.002c.003-.002.005-.001.008.003l.009.013v.001c.015.022.032.03.058.017.017-.008.025-.024.028-.046l.002-.022c.001-.015.002-.019.004-.02a.138.138 0 01.042-.004v-.013a.146.146 0 00-.044.005h-.003a.266.266 0 00-.042.018l-.058.03a1.12 1.12 0 00-.291.269.062.062 0 01-.028.024.072.072 0 01-.009.003.106.106 0 00-.042.018l.005.012zm.458-.357c0-.009.003-.013.007-.015l.003-.001h.001v.012l-.006.002-.004.001H9.6zm-.084.04l.016-.007c.051-.026.06-.031.068-.033a.177.177 0 00-.002.015c0 .01 0 .015-.002.02-.002.019-.008.03-.021.037-.023.01-.035.005-.047-.014l-.01-.014-.002-.003zm0 0c-.005-.005-.01-.006-.017-.002l.004.01.007-.004.006-.003zm1.777.624l-.005.002-.004-.012.008-.004v.014zm-.038.114a.272.272 0 00.038-.114 2.59 2.59 0 00.483-.28 1.68 1.68 0 00.21-.183l-.006-.01a1.768 1.768 0 01-.209.182 2.573 2.573 0 01-.479.277c-.001-.026-.01-.047-.03-.058.19-.08.368-.188.436-.275l-.007-.009c-.068.087-.25.196-.444.276a1.878 1.878 0 01-.17.062.193.193 0 00-.048-.02.517.517 0 00-.407.083.99.99 0 00-.043-.013c.033-.038.05-.088.037-.134l-.01.005c.028.093-.094.207-.198.181l-.002.013c.058.014.12-.012.163-.055.052.014.11.035.162.059h.001a.46.46 0 01.138.087c.03.033.046.061.045.083-.001.025-.023.043-.07.054a.357.357 0 01-.145.01l-.03-.008v.002a1.447 1.447 0 01-.065-.014 1.138 1.138 0 00-.29-.178l-.004.012c.11.05.217.112.287.175v.002h.003c.02.02.036.037.05.055.03.044.026.073-.008.09a.28.28 0 01-.159.005c-.127-.025-.337-.164-.444-.288l-.006.01c.064.074.166.155.264.212a.346.346 0 01.057.121c.01.04-.003.059-.03.056a.215.215 0 01-.102-.034l-.002.004a.28.28 0 00-.07-.071.948.948 0 01-.233-.265l-.008.008c.05.09.155.21.237.268.092.065.12.166.092.219-.025.047-.108.053-.19-.01-.1-.077-.214-.32-.23-.49l-.01.001c.017.175.133.42.234.5a.263.263 0 00.05.03.37.37 0 01.008.112c-.002.066-.04.11-.085.088-.045-.022-.08-.07-.103-.131l-.008.006c.024.063.06.114.108.137a.058.058 0 00.035.006.524.524 0 01.04.148c-.003.03-.009.04-.03.033l-.002.012c.028.009.038-.007.042-.043a.5.5 0 00-.04-.152.058.058 0 00.016-.01 4.456 4.456 0 00.13.21.867.867 0 00.09.119l.006-.01a.863.863 0 01-.119-.162 4.413 4.413 0 01-.1-.164.136.136 0 00.03-.086.54.54 0 00-.002-.078c.1.148.33.425.4.475l.005-.01a3.341 3.341 0 01-.408-.49l-.002-.005c.058.023.11.014.136-.017a.743.743 0 00.33.258l.002-.013a.732.732 0 01-.326-.255l.001-.002c.017-.032.017-.077-.002-.123.065.071.176.176.278.268l.006-.01a4.416 4.416 0 01-.291-.283.219.219 0 00.086.025.043.043 0 00.034-.011c.07.093.248.282.319.327l.004-.011a2 2 0 01-.317-.327.084.084 0 000-.05.363.363 0 00-.044-.105.596.596 0 00.203.072v.001c.087.1.249.238.344.296l.004-.011a1.89 1.89 0 01-.333-.284.32.32 0 00.071-.003c.027.029.077.069.15.12l.029.021.12.084.03.02.005-.01-.03-.022a23.698 23.698 0 01-.12-.083l-.03-.021a1.332 1.332 0 01-.14-.111.119.119 0 00.024-.01.072.072 0 00.018-.012c.185.15.302.23.422.266l.002-.013c-.118-.035-.234-.114-.416-.262.009-.014.01-.032.004-.052l.076.042.103.057.02.01c.115.064.187.1.236.117l.003-.013a1.64 1.64 0 01-.235-.115l-.02-.011-.103-.057a3.005 3.005 0 00-.088-.047.325.325 0 00-.046-.06c.03.007.054.012.076.015.19.048.373.111.418.16l.006-.009c-.041-.046-.192-.102-.36-.147a.46.46 0 00.085-.013.126.126 0 00.06-.028.692.692 0 00.022-.003c.086.048.224.061.29.02.022.054-.01.136-.048.151l.003.012c.02-.008.04-.033.051-.064.098.03.318.035.425.005l-.002-.013c-.105.03-.321.024-.419-.004a.17.17 0 00.007-.045c.147.017.323.003.412-.053l-.004-.012c-.088.054-.263.068-.408.051a.114.114 0 00-.007-.034l.003-.003a.17.17 0 00.028-.032c.18-.033.313-.087.434-.166.026-.017.08-.057.125-.089.03-.022.054-.04.063-.045a.53.53 0 01.045-.027l-.004-.012a.528.528 0 00-.045.027l-.064.046c-.045.032-.099.072-.125.089-.118.076-.247.13-.421.163a.125.125 0 00.012-.053c.303-.099.565-.245.741-.433l-.006-.01c-.175.186-.435.332-.736.43a.116.116 0 00-.037-.075c.16-.044.265-.105.467-.251l.013-.01a3.5 3.5 0 01.125-.087l-.005-.011a3.547 3.547 0 00-.124.087l-.014.01c-.195.14-.3.202-.45.245zm-.012.017a.142.142 0 00.012-.017l-.015.004.002.012-.005-.004-.005.01.003.003a.522.522 0 01-.285.164.253.253 0 01-.016-.008l-.004.012a.605.605 0 00.02-.004c.09.043.224.05.277.004.058-.049.057-.126.008-.168l.005-.005.002-.003h.001zm0 0zm.037.075l-.007.002.002.013.006-.002v-.013zm-.011.066l-.013.002.001.013h.004a.13.13 0 00.008-.015zm-.032.083v.014l-.005-.001v-.013h.005zm-.007.059l-.005-.002-.003.013h.004a.169.169 0 00.004-.011zm0-.093a.102.102 0 01-.01.006V2.87l.008-.007.002.005zm-.312-.025l-.011.002v.012a.055.055 0 00.011-.014zm-.022-.095c.02.026.03.05.028.071a.053.053 0 01-.006.024.514.514 0 00.316-.172.231.231 0 00.046-.102c.008-.045-.001-.076-.033-.088l.015-.006a.068.068 0 00-.015-.008l-.002.013h.002a1.919 1.919 0 01-.157.058.13.13 0 00-.013-.01l.002.013.01-.003c.02.015.03.033.034.054a.118.118 0 01-.028.091c-.038.045-.117.072-.2.065zm-.012-.014h-.001l-.001.012a.31.31 0 00.014.002.285.285 0 00-.012-.014zm-.132-.09a.43.43 0 01.125.081l.007.009c.084.01.167-.016.204-.06a.103.103 0 00.025-.08c-.006-.031-.033-.058-.086-.073a.51.51 0 00-.39.076l-.015-.005-.002.002.005.011.011-.008c.033.01.066.024.096.038h-.003l.002.013h.001l.02-.004zm0 0a1.74 1.74 0 01.27-.032V2.6a1.7 1.7 0 00-.29.036l.02.009zm.01.254c-.02 0-.04 0-.063-.004l-.03-.007.001-.01.03.004.063.017zm-.093.04l-.004.013.012.005a.12.12 0 00-.008-.017zm.004.07a.054.054 0 01-.008.009l-.003-.003.005-.01.006.004zm-.05.03l-.009-.008-.006.01.001.001.014-.002zm-.085.006l-.015-.002.006-.009.01.01zm-.174.081l-.003-.003-.007.008.004.006a.037.037 0 00.006-.01zm-.133-.007l.007.004-.014-.015-.002-.003-.003.007.001.001-.003.004.028.03a.228.228 0 00-.014-.028zm0 0l-.01-.006.003-.005a.315.315 0 01.007.011zm.015.154a.072.072 0 01-.006.01l-.005-.008.009-.007.002.005zm-.14.031a.247.247 0 01.004.026l-.012-.018.007-.008zm-.024.19l-.003-.005-.008.008.003.004a.069.069 0 00.008-.007zm-.024.017l-.003-.01-.01.006.003.006a.05.05 0 00.01-.002zm.046-.211a.207.207 0 01-.011-.005v-.002l.008-.005a.744.744 0 01.003.012zm.216-.33l-.022-.011.007-.01.015.022zm.303-.09a.431.431 0 00-.018-.017l-.006-.002-.001.01.003.004.022.005zm-.054-.29a.19.19 0 00.01-.01l-.013-.003-.002.012.005.001zm-.607-.13a.326.326 0 00-.11.067l.006.011a.318.318 0 01.106-.066l-.002-.012zm.194.266c.114.084.268.178.375.229l.003-.013a2.58 2.58 0 01-.374-.227l-.005.011zm.416.007a1.52 1.52 0 00-.226-.044v-.013c.073.008.145.023.228.045.033.009.068.018.112.032l.115.034-.003.013-.115-.035a3.677 3.677 0 00-.111-.032zm-.713.045c.02.079.164.311.231.366l.006-.01a1.189 1.189 0 01-.227-.36l-.01.004zm.126.559a4.208 4.208 0 00-.235-.464l.008-.007c.075.126.214.394.236.466l-.009.005zm-.035-.577c.046.068.198.217.267.253L10.22 3a1.16 1.16 0 01-.262-.25l-.008.009zm-.28-.724a.186.186 0 00-.066.084l.009.007a.174.174 0 01.06-.08l-.004-.011zm-.464.422a.634.634 0 01.012-.158l.01.004a.617.617 0 00-.012.153h-.01zm.007.08a.772.772 0 00.01.207l.009-.003a.76.76 0 01-.009-.202l-.01-.002zm.036.346a.153.153 0 01-.01-.027l.009-.004a.306.306 0 00.03.059.68.68 0 00.022.032l-.007.01a.69.69 0 01-.044-.07zm.038-.27a.595.595 0 00.06.266c.007.08.05.193.11.272l.007-.01a.584.584 0 01-.109-.267.592.592 0 01-.058-.26h-.01zm-.013-.083a.573.573 0 01-.002-.125l.01.003a.56.56 0 00.002.12l-.01.002zm.085-.419a.895.895 0 00-.025.255.27.27 0 01-.002.056.588.588 0 00.016.215l.01-.005a.573.573 0 01-.016-.209.27.27 0 00.002-.058.88.88 0 01.025-.249l-.01-.005zm.07.496a1.436 1.436 0 010-.43l.01.003a1.392 1.392 0 000 .423l-.01.004zm-.027.035a.529.529 0 00.004.208l.01-.004a.513.513 0 01-.005-.201l-.01-.003zm.18-.106a.577.577 0 01-.093-.314h.01a.561.561 0 00.09.306l-.007.008zm-.109.007a.965.965 0 00.014.272.49.49 0 01.011.067l.004.033.004.034c.008.05.018.088.033.116l.009-.007a.34.34 0 01-.032-.112 1.313 1.313 0 01-.004-.033l-.004-.033a.5.5 0 00-.011-.07.952.952 0 01-.014-.266h-.01zm.08.182l-.003-.019.01-.003.003.018a.513.513 0 01.01.065.187.187 0 01-.007.073l-.01-.005a.172.172 0 00.007-.067.5.5 0 00-.01-.062zm.055-.103c.017.07.027.156.025.193l.01.001a.867.867 0 00-.025-.198l-.01.004zm.07.569a.612.612 0 01-.043-.181l.01-.002a.583.583 0 00.042.176l-.009.007zm-.117-.005a.465.465 0 00.08.179l.006-.01a.456.456 0 01-.076-.173l-.01.004zm.276.205a.645.645 0 00-.064-.174l.008-.007c.032.06.045.098.065.177l-.009.004z" fill="#000"/><path fill-rule="evenodd" clip-rule="evenodd" d="M9.408 3.235l.021.002c.025.001.034.004.045.02a.21.21 0 01.022.047.712.712 0 00.147.233.804.804 0 01.066.401.157.157 0 00-.051-.1.269.269 0 00-.037-.027.258.258 0 01-.08.065l.003.013a.206.206 0 00.079-.068l.021.021.008.007a.144.144 0 01.047.091l.01-.002v.003l.009.004a.804.804 0 00-.06-.398c.069.04.112.086.12.15l.01.002.005-.014a.302.302 0 00.022-.158l.001.001.008.013.057.089.003.06.005.096c.004.068.007.113.012.143l.01-.003a1.437 1.437 0 01-.012-.14l-.005-.097-.002-.042c.02.034.026.046.03.059 0 .004 0 .008.002.013v.005a.46.46 0 00.073.167l.007-.009a.446.446 0 01-.07-.16l-.001-.007a.2.2 0 00-.002-.015c-.006-.022-.019-.042-.098-.166l-.01-.014-.018-.03-.008.007c.02.056.014.102-.012.18-.015-.062-.06-.106-.127-.144a.641.641 0 01-.153-.234.204.204 0 00-.024-.051c-.013-.018-.024-.023-.051-.024a.245.245 0 01-.02-.002l-.002.013zm.484.412a.527.527 0 00-.002-.019l-.009.002.01.017zm-.183.291zm-.05-.39l-.005-.004a.076.076 0 01-.01-.007l.008-.007.007.017zm-.181-.118c.017.068.031.15.033.197h.01a1.08 1.08 0 00-.034-.2l-.009.003zm.15.336a1.262 1.262 0 00-.038-.205l.01-.004c.018.067.037.169.039.208h-.01zm.175-.023a.51.51 0 01.02.158l.01.002a.525.525 0 00-.021-.165l-.01.005z" fill="#000"/></g></svg>