<svg width="13" height="12" fill="none" xmlns="http://www.w3.org/2000/svg"><rect width="13" height="12" rx="2" fill="#fff"/><mask id="a" maskUnits="userSpaceOnUse" x="0" y="0" width="13" height="12"><rect width="13" height="12" rx="2" fill="#fff"/></mask><g mask="url(#a)"><path fill="#E2243B" d="M0 0h13v12H0z"/><path fill-rule="evenodd" clip-rule="evenodd" d="M0 0h13L6.5 12 0 0z" fill="#262626"/><mask id="b" maskUnits="userSpaceOnUse" x="0" y="0" width="13" height="12"><path fill-rule="evenodd" clip-rule="evenodd" d="M0 0h13L6.5 12 0 0z" fill="#fff"/></mask><g mask="url(#b)"><g filter="url(#filter0_d)"><path fill-rule="evenodd" clip-rule="evenodd" d="M6.5 6.6L5.434 8.126l.081-2.053-1.589.105L5.107 4.8 3.714 3.2l1.801.4-.253-2.4 1.238 2 1.238-2-.253 2.4 1.8-.4-1.392 1.6 1.18 1.378-1.588-.105.081 2.053L6.5 6.6z" fill="#FFCF3C"/></g><g filter="url(#filter1_d)"><path fill-rule="evenodd" clip-rule="evenodd" d="M0 8h13V4.8H0V8z" fill="#1984D8"/></g><path fill-rule="evenodd" clip-rule="evenodd" d="M0 12h13V8H0v4z" fill="#fff"/></g></g><defs><filter id="filter0_d" x="3.714" y="1.2" width="5.571" height="6.926" filterUnits="userSpaceOnUse" color-interpolation-filters="sRGB"><feFlood flood-opacity="0" result="BackgroundImageFix"/><feColorMatrix in="SourceAlpha" values="0 0 0 0 0 0 0 0 0 0 0 0 0 0 0 0 0 0 127 0"/><feOffset/><feColorMatrix values="0 0 0 0 0 0 0 0 0 0 0 0 0 0 0 0 0 0 0.06 0"/><feBlend in2="BackgroundImageFix" result="effect1_dropShadow"/><feBlend in="SourceGraphic" in2="effect1_dropShadow" result="shape"/></filter><filter id="filter1_d" x="0" y="4.8" width="13" height="3.2" filterUnits="userSpaceOnUse" color-interpolation-filters="sRGB"><feFlood flood-opacity="0" result="BackgroundImageFix"/><feColorMatrix in="SourceAlpha" values="0 0 0 0 0 0 0 0 0 0 0 0 0 0 0 0 0 0 127 0"/><feOffset/><feColorMatrix values="0 0 0 0 0 0 0 0 0 0 0 0 0 0 0 0 0 0 0.06 0"/><feBlend in2="BackgroundImageFix" result="effect1_dropShadow"/><feBlend in="SourceGraphic" in2="effect1_dropShadow" result="shape"/></filter></defs></svg>