<svg width="13" height="12" fill="none" xmlns="http://www.w3.org/2000/svg"><mask id="a" maskUnits="userSpaceOnUse" x="0" y="0" width="13" height="12"><rect width="13" height="12" rx="2" fill="#fff"/></mask><g mask="url(#a)"><path fill="#EE343C" d="M0 0h13v12H0z"/><path fill-rule="evenodd" clip-rule="evenodd" d="M5.902 2.827a.513.513 0 10-.684.744l.426.276c.148.095.237.26.237.435v.04a.478.478 0 01-.737.402l-.731-.473a.504.504 0 10-.547.847l.353.228a.377.377 0 01.042.603.377.377 0 00.152.652l.149.038c.307.08.408.464.18.684l-.3.292a.236.236 0 00.237.394l.436-.141a.332.332 0 01.397.468.332.332 0 00.295.484h.177c.122 0 .228.082.258.2.069.266.447.266.516 0 .03-.118.136-.2.258-.2h.177c.249 0 .41-.263.295-.484a.332.332 0 01.397-.468l.437.14a.236.236 0 00.237-.394l-.302-.29a.406.406 0 01.181-.685l.15-.038a.377.377 0 00.151-.652.377.377 0 01.042-.603l.353-.228a.504.504 0 10-.547-.847l-.73.473a.478.478 0 01-.737-.402v-.04c0-.176.088-.34.236-.435l.426-.275a.513.513 0 10-.684-.744l-.087.111a.647.647 0 01-1.022 0l-.087-.112z" fill="#262626"/></g></svg>