<svg width="13" height="12" viewBox="0 0 13 12" fill="none" xmlns="http://www.w3.org/2000/svg">
<rect x="0.25" y="0.25" width="12.5" height="11.5" rx="1.75" fill="white" stroke="#F5F5F5" stroke-width="0.5"/>
<mask id="mask0" mask-type="alpha" maskUnits="userSpaceOnUse" x="0" y="0" width="13" height="12">
<rect x="0.25" y="0.25" width="12.5" height="11.5" rx="1.75" fill="white" stroke="white" stroke-width="0.5"/>
</mask>
<g mask="url(#mask0)">
<rect x="9.28577" width="3.71429" height="12" fill="#FF3131"/>
<path fill-rule="evenodd" clip-rule="evenodd" d="M0 12H3.71429V0H0V12Z" fill="#FF3131"/>
<path fill-rule="evenodd" clip-rule="evenodd" d="M7.58321 5.40006C7.45948 5.55996 7.20406 5.45015 7.23499 5.25034L7.42849 4.00001L6.80944 4.40001L6.49992 3.20001L6.19039 4.40001L5.57135 4.00001L5.76485 5.25034C5.79577 5.45015 5.54036 5.55996 5.41662 5.40006V5.40006C5.33826 5.2988 5.18538 5.2988 5.10702 5.40006L4.9523 5.60001L4.33325 5.20001L4.64278 6.00001L4.4911 6.19602C4.39816 6.31613 4.39816 6.48389 4.4911 6.60401L5.26182 7.60001H6.19039L6.34516 8.80001H6.65468L6.80944 7.60001H7.73801L8.50873 6.60401C8.60168 6.48389 8.60168 6.31613 8.50873 6.19602L8.35706 6.00001L8.66658 5.20001L8.04754 5.60001L7.89281 5.40006C7.81445 5.2988 7.66157 5.2988 7.58321 5.40006V5.40006Z" fill="#FF3131"/>
</g>
</svg>
