<svg width="13" height="12" viewBox="0 0 13 12" fill="none" xmlns="http://www.w3.org/2000/svg">
<rect width="13" height="12" rx="2" fill="white"/>
<mask id="mask0" mask-type="alpha" maskUnits="userSpaceOnUse" x="0" y="0" width="13" height="12">
<rect width="13" height="12" rx="2" fill="white"/>
</mask>
<g mask="url(#mask0)">
<rect width="13" height="12" fill="#19BFBF"/>
<path fill-rule="evenodd" clip-rule="evenodd" d="M3.73193 3.3372C3.7206 3.24936 3.7447 3.16062 3.7989 3.09057L4.85225 1.72933C4.91537 1.64775 5.01272 1.59999 5.11587 1.59999H5.65246C5.79014 1.59999 5.91365 1.68464 5.96333 1.81304L6.10799 2.18694C6.15767 2.31534 6.28119 2.39999 6.41887 2.39999H7.20007C7.33776 2.39999 7.46127 2.48464 7.51095 2.61304L8.27466 4.58694C8.32434 4.71534 8.44785 4.79999 8.58554 4.79999H8.70681C8.96374 4.79999 9.12407 5.07842 8.99511 5.30064L8.37023 6.37736C8.36148 6.39242 8.35393 6.40815 8.34765 6.4244L8.07002 7.14195C8.05518 7.18031 8.04757 7.22109 8.04757 7.26223V7.93776C8.04757 7.97889 8.03995 8.01967 8.02511 8.05804L7.73804 8.79999L7.42852 9.59999L7.20143 10.1869C7.15175 10.3153 7.02823 10.4 6.89055 10.4H6.72839C6.59071 10.4 6.4672 10.3153 6.41752 10.1869L6.21288 9.65803C6.19804 9.61967 6.19042 9.57889 6.19042 9.53776V7.3139C6.19042 7.24006 6.1659 7.1683 6.12071 7.1099L5.9229 6.85427C5.89519 6.81846 5.87507 6.77738 5.86376 6.73353L5.63588 5.85007C5.59791 5.70286 5.46514 5.59999 5.31311 5.59999H4.31686C4.14925 5.59999 4.00771 5.47553 3.98627 5.30929L3.73193 3.3372Z" fill="white"/>
<path fill-rule="evenodd" clip-rule="evenodd" d="M8.66675 8.30952C8.66675 8.13858 8.80533 8 8.97627 8V8C9.14722 8 9.2858 8.13858 9.2858 8.30952V8.73776C9.2858 8.7789 9.27818 8.81968 9.26334 8.85804L9.02169 9.48261C8.99432 9.55336 8.92626 9.6 8.85041 9.6V9.6C8.74897 9.6 8.66675 9.51777 8.66675 9.41634V8.30952Z" fill="white"/>
</g>
</svg>
