<svg width="13" height="12" fill="none" xmlns="http://www.w3.org/2000/svg"><rect width="13" height="12" rx="2" fill="#fff"/><mask id="a" maskUnits="userSpaceOnUse" x="0" y="0" width="13" height="12"><rect width="13" height="12" rx="2" fill="#fff"/></mask><g mask="url(#a)"><path fill="#19BFBF" d="M0 0h13v12H0z"/><path fill-rule="evenodd" clip-rule="evenodd" d="M3.732 3.337a.333.333 0 01.067-.246l1.053-1.362a.333.333 0 01.264-.129h.536c.138 0 .262.085.311.213l.145.374c.05.128.173.213.31.213H7.2c.138 0 .261.085.311.213l.764 1.974c.05.128.173.213.31.213h.122c.257 0 .417.278.288.5L8.37 6.378a.332.332 0 00-.022.047l-.278.718a.333.333 0 00-.022.12v.676a.333.333 0 01-.023.12l-.287.742-.31.8-.227.587a.333.333 0 01-.31.213h-.163a.333.333 0 01-.31-.213l-.205-.529a.333.333 0 01-.023-.12V7.314a.333.333 0 00-.07-.204l-.197-.256a.333.333 0 01-.06-.12l-.227-.884a.333.333 0 00-.323-.25h-.996a.333.333 0 01-.33-.29l-.255-1.973zM8.667 8.31a.31.31 0 11.619 0v.428a.333.333 0 01-.023.12l-.241.625a.184.184 0 01-.355-.066V8.31z" fill="#fff"/></g></svg>