<svg width="13" height="12" fill="none" xmlns="http://www.w3.org/2000/svg"><rect x=".25" y=".25" width="12.5" height="11.5" rx="1.75" fill="#fff" stroke="#F5F5F5" stroke-width=".5"/><mask id="a" maskUnits="userSpaceOnUse" x="0" y="0" width="13" height="12"><rect x=".25" y=".25" width="12.5" height="11.5" rx="1.75" fill="#fff" stroke="#fff" stroke-width=".5"/></mask><g mask="url(#a)" fill-rule="evenodd" clip-rule="evenodd"><path d="M0 3.2h13V0H0v3.2z" fill="#083D96"/><path d="M0 8.8h13V5.6H0v3.2z" fill="#37AE39"/><path d="M0 12h13V8.8H0V12z" fill="#FFD13F"/><path d="M4.952 12h3.096V0H4.952v12z" fill="#E42346"/><path d="M2.167 2.068l-.546.503.201-.826-.538-.516.67-.008L2.167.4l.213.821.67.008-.539.516.202.826-.546-.503z" fill="#FFD03B"/></g></svg>