<svg width="13" height="12" fill="none" xmlns="http://www.w3.org/2000/svg"><rect width="13" height="12" rx="2" fill="#fff"/><mask id="a" maskUnits="userSpaceOnUse" x="0" y="0" width="13" height="12"><rect width="13" height="12" rx="2" fill="#fff"/></mask><g mask="url(#a)"><path fill="#F1361D" d="M0 0h13v12H0z"/><path fill-rule="evenodd" clip-rule="evenodd" d="M4.677 1.86l.45.1.337.396.076-.58.307-.436-.45-.1L5.06.844l-.076.58-.307.436zM5.88 3.893l.39-.307.456.014-.237-.504.01-.589-.39.307-.456-.014.238.504-.011.589zm-.529 3.29l-.38.323-.006-.59-.25-.492.455-.007.382-.323.005.589.25.493-.456.006zm.331-1.524l.454-.065.409.261-.05-.586.202-.528-.454.065-.409-.261.05.586-.202.528zm-2.587-.723L2.004 5.942l.402-1.653L1.33 3.26l1.34-.016.426-1.643.426 1.643 1.34.015L3.785 4.29l.403 1.653-1.092-1.006z" fill="#FFDC42"/></g></svg>