<svg width="13" height="12" viewBox="0 0 13 12" fill="none" xmlns="http://www.w3.org/2000/svg">
<rect width="13" height="12" rx="2" fill="white"/>
<mask id="mask0" mask-type="alpha" maskUnits="userSpaceOnUse" x="0" y="0" width="13" height="12">
<rect width="13" height="12" rx="2" fill="white"/>
</mask>
<g mask="url(#mask0)">
<rect width="13" height="12" fill="#F1361D"/>
<path fill-rule="evenodd" clip-rule="evenodd" d="M4.67664 1.86044L5.12627 1.9595L5.4635 2.3564L5.54015 1.77533L5.84728 1.33953L5.39764 1.24046L5.06041 0.843567L4.98376 1.42463L4.67664 1.86044ZM5.88104 3.89279L6.27068 3.58634L6.72668 3.59997L6.48954 3.09644L6.50009 2.50715L6.11045 2.8136L5.65445 2.79997L5.89159 3.3035L5.88104 3.89279ZM5.35246 7.1825L4.97134 7.50633L4.96597 6.91692L4.71538 6.4244L5.17147 6.41745L5.55259 6.09362L5.55797 6.68302L5.80855 7.17555L5.35246 7.1825ZM5.68343 5.65884L6.13678 5.5939L6.5456 5.8553L6.49535 5.26944L6.69762 4.74112L6.24428 4.80606L5.83546 4.54466L5.88571 5.13052L5.68343 5.65884Z" fill="#FFDC42"/>
<path fill-rule="evenodd" clip-rule="evenodd" d="M3.0953 4.93598L2.0037 5.94162L2.40647 4.28922L1.32905 3.25834L2.66958 3.24274L3.0953 1.59998L3.52103 3.24274L4.86155 3.25834L3.78414 4.28922L4.1869 5.94162L3.0953 4.93598Z" fill="#FFDC42"/>
</g>
</svg>
