<svg width="13" height="12" viewBox="0 0 13 12" fill="none" xmlns="http://www.w3.org/2000/svg">
<rect width="13" height="12" rx="2" fill="white"/>
<mask id="mask0" mask-type="alpha" maskUnits="userSpaceOnUse" x="0" y="0" width="13" height="12">
<rect width="13" height="12" rx="2" fill="white"/>
</mask>
<g mask="url(#mask0)">
<rect width="13" height="12" fill="#19BFBF"/>
<path fill-rule="evenodd" clip-rule="evenodd" d="M6.19051 8.79999L5.94608 8.16823C5.90685 8.06683 5.80932 7.99999 5.7006 7.99999V7.99999C5.61915 7.99999 5.54228 7.96228 5.49243 7.89786L4.40308 6.49008C4.35789 6.43168 4.33337 6.35993 4.33337 6.28608V5.7139C4.33337 5.64006 4.30885 5.5683 4.26366 5.5099L3.76289 4.86276C3.73096 4.82149 3.70916 4.7733 3.69925 4.72207L3.43828 3.37307C3.41733 3.26479 3.34418 3.17388 3.24289 3.13025L2.50184 2.81102C2.48479 2.80368 2.46839 2.79493 2.4528 2.78486L2.00961 2.49848C1.91457 2.43708 1.85718 2.33166 1.85718 2.21851V1.93332C1.85718 1.74923 2.00642 1.59999 2.19051 1.59999H2.31269C2.41584 1.59999 2.51318 1.64775 2.57631 1.72933L2.68567 1.87065C2.74879 1.95223 2.84614 1.99999 2.94929 1.99999H3.24126C3.34441 1.99999 3.44175 1.95223 3.50488 1.87065L3.61424 1.72933C3.67737 1.64775 3.77471 1.59999 3.87786 1.59999H4.85409C4.91827 1.59999 4.98109 1.61852 5.035 1.65335L5.48888 1.94663C5.54279 1.98146 5.6056 1.99999 5.66979 1.99999H6.09219C6.15637 1.99999 6.21919 1.98146 6.27309 1.94663L6.72698 1.65335C6.78088 1.61852 6.8437 1.59999 6.90788 1.59999H7.71432C7.89842 1.59999 8.04765 1.74923 8.04765 1.93332V2.09047C8.04765 2.26141 7.90908 2.39999 7.73813 2.39999V2.39999C7.56718 2.39999 7.42861 2.53857 7.42861 2.70951V3.43147C7.42861 3.53654 7.4819 3.63443 7.57015 3.69145V3.69145C7.7761 3.82453 8.04765 3.67668 8.04765 3.43147V3.13332C8.04765 2.94923 8.19689 2.79999 8.38099 2.79999H8.77622C8.88668 2.79999 8.97623 2.88953 8.97623 2.99999V2.99999C8.97623 3.11045 9.06577 3.19999 9.17623 3.19999H9.57146C9.75556 3.19999 9.9048 3.34923 9.9048 3.53332V3.95769C9.9048 3.98578 9.90125 4.01375 9.89423 4.04095L9.61241 5.13353C9.60111 5.17738 9.58098 5.21846 9.55327 5.25427L8.69643 6.36158C8.67671 6.38705 8.6608 6.41525 8.64917 6.44529L8.37963 7.14195C8.36479 7.18031 8.35718 7.22109 8.35718 7.26223V7.81633C8.35718 7.91777 8.27495 7.99999 8.17352 7.99999V7.99999C8.09766 7.99999 8.02961 7.95335 8.00224 7.88261L7.82056 7.41305C7.77088 7.28464 7.64737 7.19999 7.50969 7.19999H7.038C6.90032 7.19999 6.77681 7.28464 6.72713 7.41305L6.54657 7.87971C6.51663 7.9571 6.51663 8.04288 6.54657 8.12027L6.72713 8.58694C6.77681 8.71534 6.90032 8.79999 7.038 8.79999H7.26507C7.36822 8.79999 7.46556 8.84775 7.52869 8.92933L7.97794 9.50991C8.02313 9.56831 8.04765 9.64006 8.04765 9.7139V10.0667C8.04765 10.2508 7.89842 10.4 7.71432 10.4H7.65705C7.51937 10.4 7.39586 10.3153 7.34617 10.1869L7.20151 9.81305C7.15183 9.68464 7.02832 9.59999 6.89064 9.59999H6.72848C6.5908 9.59999 6.46728 9.51534 6.4176 9.38694L6.19051 8.79999Z" fill="white"/>
</g>
</svg>
