<svg width="13" height="12" fill="none" xmlns="http://www.w3.org/2000/svg"><rect x=".25" y=".25" width="12.5" height="11.5" rx="1.75" fill="#fff" stroke="#F5F5F5" stroke-width=".5"/><mask id="a" maskUnits="userSpaceOnUse" x="0" y="0" width="13" height="12"><rect x=".25" y=".25" width="12.5" height="11.5" rx="1.75" fill="#fff" stroke="#fff" stroke-width=".5"/></mask><g mask="url(#a)"><path fill-rule="evenodd" clip-rule="evenodd" d="M9.286 2c.169-.11.373.076.28.255l-.25.486a.342.342 0 01-.08.102l-.835.719a.578.578 0 00-.08.792l.063.08a.598.598 0 010 .732l-.143.185a.343.343 0 01-.458.078.343.343 0 00-.507.164l-.078.203a.52.52 0 01-.28.29l-.601.26a.667.667 0 01-.264.054h-.174a.448.448 0 00-.418.286.448.448 0 01-.662.215l-.68-.44a.667.667 0 01-.165-.151l-.424-.55a.596.596 0 01-.124-.365v-.388c0-.115.093-.208.207-.208.065 0 .125-.03.165-.08l.41-.53A.49.49 0 014.572 4a.49.49 0 00.474-.367l.048-.187a.667.667 0 01.813-.48l.714.186a.667.667 0 00.372-.012l.97-.313a.667.667 0 00.157-.075l.546-.352.619-.4z" fill="#E7832C"/><path fill-rule="evenodd" clip-rule="evenodd" d="M6.5 9.6c.171 0 .31-.18.31-.4 0-.22-.139-.4-.31-.4-.17 0-.31.18-.31.4 0 .22.14.4.31.4z" fill="#445128"/><path opacity=".75" d="M7.429 8.8s.928-.4 1.238-1.2M5.571 8.8s-.928-.4-1.238-1.2" stroke="#445128" stroke-width="1.333" stroke-linecap="round"/></g></svg>