<svg width="13" height="12" fill="none" xmlns="http://www.w3.org/2000/svg"><rect width="13" height="12" rx="2" fill="#fff"/><mask id="a" maskUnits="userSpaceOnUse" x="0" y="0" width="13" height="12"><rect width="13" height="12" rx="2" fill="#fff"/></mask><g mask="url(#a)" clip-rule="evenodd"><path fill-rule="evenodd" d="M0 4.8h13V0H0v4.8zM0 12h13V7.2H0V12z" fill="#108753"/><path fill-rule="evenodd" d="M7.429 12H5.57V7.2H0V4.8h5.571V0H7.43v4.8H13v2.4H7.429V12z" fill="#fff"/><path fill-rule="evenodd" d="M6.81 12h-.62V6.4H0v-.8h6.19V0h.62v5.6H13v.8H6.81V12z" fill="#262626"/><path fill-rule="evenodd" d="M6.19 12h-.619V5.6H0v-.8h5.571V0h.62v4.8H13v.8H6.19V12z" fill="#FCD449"/><path fill-rule="evenodd" d="M6.5 8.8c1.197 0 2.167-1.254 2.167-2.8 0-1.546-.97-2.8-2.167-2.8-1.197 0-2.167 1.254-2.167 2.8 0 1.546.97 2.8 2.167 2.8z" fill="url(#paint0_linear)"/><path d="M6.5 8c.855 0 1.548-.895 1.548-2S7.355 4 6.5 4c-.855 0-1.548.895-1.548 2S5.645 8 6.5 8z" stroke="#0E673F" stroke-width="1.333" stroke-linecap="round" stroke-dasharray="0.67 2.67"/><path fill-rule="evenodd" d="M6.5 6.8c.342 0 .31-.358.31-.8 0-.442.032-.8-.31-.8-.342 0-.31.358-.31.8 0 .442-.032.8.31.8z" fill="#0E673F"/></g><defs><linearGradient id="paint0_linear" x1="4.333" y1="3.2" x2="4.333" y2="8.8" gradientUnits="userSpaceOnUse"><stop stop-color="#E02C42"/><stop offset="1" stop-color="#D22036"/></linearGradient></defs></svg>