<svg width="13" height="12" fill="none" xmlns="http://www.w3.org/2000/svg"><rect x=".25" y=".25" width="12.5" height="11.5" rx="1.75" fill="#fff" stroke="#F5F5F5" stroke-width=".5"/><mask id="a" maskUnits="userSpaceOnUse" x="0" y="0" width="13" height="12"><rect x=".25" y=".25" width="12.5" height="11.5" rx="1.75" fill="#fff" stroke="#fff" stroke-width=".5"/></mask><g mask="url(#a)"><path fill-rule="evenodd" clip-rule="evenodd" d="M0 4.8h5.571V0H0v4.8zM7.429 12H13V7.2H7.429V12z" fill="#083D7A"/><path fill-rule="evenodd" clip-rule="evenodd" d="M0 12h5.571V7.2H0V12zm7.429-7.2H13V0H7.429v4.8z" fill="#DF1E35"/><mask id="b" fill="#fff"><path fill-rule="evenodd" clip-rule="evenodd" d="M5.843 5.151c-.362.47-.362 1.229 0 1.698.363.468.95.468 1.314 0 .362-.47.362-1.229 0-1.698"/></mask><path d="M5.435 4.624c-.588.76-.588 1.992 0 2.752l.816-1.055a.553.553 0 010-.642l-.816-1.055zm0 2.752c.588.76 1.542.76 2.13 0L6.749 6.32c-.138.178-.36.178-.498 0l-.816 1.055zm2.13 0c.588-.76.588-1.992 0-2.752L6.749 5.68a.553.553 0 010 .642l.816 1.055z" fill="#0F6D1A" mask="url(#b)"/><path fill-rule="evenodd" clip-rule="evenodd" d="M6.5 6.4c.17 0 .31-.18.31-.4 0-.22-.14-.4-.31-.4-.171 0-.31.18-.31.4 0 .221.139.4.31.4z" fill="#042F60"/></g></svg>