<svg width="13" height="12" fill="none" xmlns="http://www.w3.org/2000/svg"><rect x=".25" y=".25" width="12.5" height="11.5" rx="1.75" fill="#fff" stroke="#F5F5F5" stroke-width=".5"/><mask id="a" maskUnits="userSpaceOnUse" x="0" y="0" width="13" height="12"><rect x=".25" y=".25" width="12.5" height="11.5" rx="1.75" fill="#fff" stroke="#fff" stroke-width=".5"/></mask><g mask="url(#a)" fill-rule="evenodd" clip-rule="evenodd"><path d="M0 12h6.81V0H0v12z" fill="#048345"/><path d="M8.048 6.624l-.728.67.268-1.101-.718-.687.894-.01.284-1.096.283 1.095.894.01-.718.688.268 1.101-.727-.67z" fill="#E81B42"/><path d="M8.208 8.629c-.477.602-1.118.971-1.824.971-1.474 0-2.67-1.612-2.67-3.6s1.196-3.6 2.67-3.6c.706 0 1.347.369 1.825.971a2.08 2.08 0 00-1.096-.316C5.772 3.055 4.685 4.373 4.685 6c0 1.627 1.087 2.945 2.428 2.945a2.08 2.08 0 001.095-.316z" fill="#E81B42"/></g></svg>