<svg width="13" height="12" fill="none" xmlns="http://www.w3.org/2000/svg"><rect width="13" height="12" rx="2" fill="#fff"/><mask id="a" maskUnits="userSpaceOnUse" x="0" y="0" width="13" height="12"><rect width="13" height="12" rx="2" fill="#fff"/></mask><g mask="url(#a)"><path fill-rule="evenodd" clip-rule="evenodd" d="M13 0v6H0V0h13z" fill="#29C53F"/><path fill-rule="evenodd" clip-rule="evenodd" d="M13 6v6.4H0V6h13z" fill="#579DED"/><path fill-rule="evenodd" clip-rule="evenodd" d="M0 12l13-6L0 0v12z" fill="#F42D56"/><path d="M5.524 6c0 1.347-.82 2.133-1.5 2.133s-1.5-.786-1.5-2.133.82-2.133 1.5-2.133 1.5.786 1.5 2.133z" stroke="#FFC63C" stroke-width="1.333"/><path fill-rule="evenodd" clip-rule="evenodd" d="M3.714 5.6c.171 0 .31-.18.31-.4 0-.22-.139-.4-.31-.4-.17 0-.31.18-.31.4 0 .22.14.4.31.4zm.619.4c.171 0 .31-.18.31-.4 0-.22-.139-.4-.31-.4-.17 0-.31.18-.31.4 0 .22.14.4.31.4z" fill="#FFC63C"/><path fill-rule="evenodd" clip-rule="evenodd" d="M4.024 5.2c.17 0 .31-.18.31-.4 0-.22-.14-.4-.31-.4-.171 0-.31.18-.31.4 0 .22.139.4.31.4zm-.31 1.2c.171 0 .31-.18.31-.4 0-.22-.139-.4-.31-.4-.17 0-.31.18-.31.4 0 .221.14.4.31.4zm.619.4c.171 0 .31-.18.31-.4 0-.22-.139-.4-.31-.4-.17 0-.31.18-.31.4 0 .22.14.4.31.4z" fill="#FFC63C"/><path fill-rule="evenodd" clip-rule="evenodd" d="M3.714 7.2c.171 0 .31-.18.31-.4 0-.221-.139-.4-.31-.4-.17 0-.31.179-.31.4 0 .22.14.4.31.4zm.619.4c.171 0 .31-.18.31-.4 0-.22-.139-.4-.31-.4-.17 0-.31.18-.31.4 0 .22.14.4.31.4z" fill="#FFC63C"/></g></svg>