<svg width="13" height="12" fill="none" xmlns="http://www.w3.org/2000/svg"><rect width="13" height="12" rx="2" fill="#fff"/><mask id="a" maskUnits="userSpaceOnUse" x="0" y="0" width="13" height="12"><rect width="13" height="12" rx="2" fill="#fff"/></mask><g mask="url(#a)"><path fill-rule="evenodd" clip-rule="evenodd" d="M0 3.2h13V0H0v3.2zM0 12h13V8.8H0V12z" fill="#DD172C"/><path fill-rule="evenodd" clip-rule="evenodd" d="M0 8.8h13V3.2H0v5.6z" fill="#FFD133"/><path fill-rule="evenodd" clip-rule="evenodd" d="M3.405 5.6h.619V6h-.62v-.4z" fill="#FFEDB1"/><path d="M3.342 5.533h.126c.192 0 .345.163.332.355l-.069 1.073a.327.327 0 01-.652 0l-.07-1.073a.333.333 0 01.333-.355z" stroke="#A41517" stroke-width=".667"/><path fill-rule="evenodd" clip-rule="evenodd" d="M2.786 6h1.238v.4h-.31l-.31.8-.309-.8h-.31V6z" fill="#A41517"/><rect x="1.857" y="4.8" width=".619" height="2.8" rx=".31" fill="#A41517"/><rect x="4.333" y="4.8" width=".619" height="2.8" rx=".31" fill="#A41517"/><path d="M2.786 4.619a.62.62 0 011.238 0v.021a.16.16 0 01-.16.16h-.918a.16.16 0 01-.16-.16v-.021z" fill="#A41517"/></g></svg>