<svg width="13" height="12" fill="none" xmlns="http://www.w3.org/2000/svg"><rect width="13" height="12" rx="2" fill="#fff"/><mask id="a" maskUnits="userSpaceOnUse" x="0" y="0" width="13" height="12"><rect width="13" height="12" rx="2" fill="#fff"/></mask><g mask="url(#a)"><path fill-rule="evenodd" clip-rule="evenodd" d="M0 4h13V0H0v4z" fill="#20AA46"/><path fill-rule="evenodd" clip-rule="evenodd" d="M0 12h13V8H0v4z" fill="#E92F3B"/><path fill-rule="evenodd" clip-rule="evenodd" d="M0 8h13V4H0v4z" fill="#FADF50"/><path fill-rule="evenodd" clip-rule="evenodd" d="M6.5 8.8c1.197 0 2.167-1.254 2.167-2.8 0-1.546-.97-2.8-2.167-2.8-1.197 0-2.167 1.254-2.167 2.8 0 1.546.97 2.8 2.167 2.8z" fill="#205CCA"/><path d="M6.726 6.535L6.5 6.327l-.226.208-.099.091.075-.306.045-.187L6.156 6l-.307-.294.3-.004.255-.003.064-.246.032-.124.032.124.064.246.255.003.3.004L6.844 6l-.14.133.046.187.075.306-.1-.091z" stroke="#FFDB3D" stroke-width=".667"/></g></svg>