<svg width="13" height="12" fill="none" xmlns="http://www.w3.org/2000/svg"><rect width="13" height="12" rx="2" fill="#fff"/><mask id="a" maskUnits="userSpaceOnUse" x="0" y="0" width="13" height="12"><rect width="13" height="12" rx="2" fill="#fff"/></mask><g mask="url(#a)"><path fill="#07319C" d="M0 0h13v12H0z"/><path fill-rule="evenodd" clip-rule="evenodd" d="M8.048 6V4.533c0-.736.597-1.333 1.333-1.333h.429c.736 0 1.333.597 1.333 1.333V6c0 2-1.548 2.8-1.548 2.8S8.048 8 8.048 6z" fill="#0072C4"/><mask id="b" maskUnits="userSpaceOnUse" x="8" y="3" width="4" height="6"><path fill-rule="evenodd" clip-rule="evenodd" d="M8.048 6V4.533c0-.736.597-1.333 1.333-1.333h.429c.736 0 1.333.597 1.333 1.333V6c0 2-1.548 2.8-1.548 2.8S8.048 8 8.048 6z" fill="#fff"/></mask><g mask="url(#b)"><path fill-rule="evenodd" clip-rule="evenodd" d="M8.76 5.56c-.317.415.305.362.305.362l.443-.183s.199.031.333.083a4.3 4.3 0 01.337.178s.523-.135.34-.44c-.185-.304-1.44-.413-1.757 0z" fill="#005121"/><path fill-rule="evenodd" clip-rule="evenodd" d="M10.08 5.13c.012-.003.042-.002.053.015.018.027.053.018.07.045.018.026.038.05.038.088l-.003.15c.001.032.005.037.03.036.03 0 .072-.004.074-.074 0-.049-.037-.079-.048-.252.016-.018.031-.035.026-.059-.006-.024.03-.036.027-.073-.004-.036.037-.059.02-.099-.016-.04.02-.042.006-.075-.015-.032.023-.06.007-.089-.016-.028.022-.055.002-.09-.02-.034.01-.054-.01-.08.014-.026.002-.101-.038-.144-.04-.043-.097-.065-.13-.081-.06-.03-.175-.016-.256-.004-.08.012-.23.024-.276.016a.725.725 0 00-.238.002.084.084 0 01-.08-.026c-.014-.017-.022-.015-.035-.014-.012 0-.02-.004-.026-.025-.011-.035-.037-.01-.049-.055-.008-.03-.049-.004-.062-.03-.013-.025-.028-.028-.063-.025-.002-.015-.02-.026-.038-.022.003-.026-.017-.046-.049-.045.004-.031-.04-.056-.064-.036-.014-.024-.044-.019-.05 0-.016-.024-.066-.017-.078.009-.02-.015-.062.022-.058.08 0 .017.002.034-.02.04-.039.01-.062.066-.095.074-.034.008-.068.022-.074.047-.007.024.005.05-.008.062-.013.012.008.023.015.029.006.006.016.016.018.03.003.02.028.026.055.004.01-.009.03.019.061 0 .031-.02.075-.01.068.022-.004.015.004.031.015.046.01.015.025.061.016.087-.013.039.013.06.006.094-.006.035.004.066-.01.113-.013.046-.014.105.007.121.028.024.01.07.035.09.02.016.009.055.046.067.038.013.016.045.055.052.04.007.053.044.094.036.03-.006.046.003.064.012.004.033-.004.152-.006.182-.002.027-.013.07-.013.096 0 .016.026.02.055.02s.042-.015.034-.057a1.494 1.494 0 01-.007-.211c.026.015.05.038.049.062-.002.04-.002.11-.007.147-.003.026.002.068.004.095.002.01.051.009.071 0 .02-.01.02-.034.018-.144 0-.055-.045-.11.012-.138a.2.2 0 00.08-.072c.015-.028.047-.017.07-.003.022.015.059.036.082.027.029-.012.06.018.086 0 .025-.018.058.013.08-.01.02-.022.057 0 .072-.022.016-.02.08.013.103-.016.023-.028.054.008.075-.013.005-.006.012-.007.019-.006 0 .048-.008.124-.01.148 0 .027-.012.07-.012.096 0 .016.026.02.055.02.03 0 .042-.015.035-.057-.008-.043.003-.148.005-.212" fill="#A3A3A3"/><path fill-rule="evenodd" clip-rule="evenodd" d="M8.6 4.392c.012-.012.001-.035.007-.058s.039-.037.071-.044c.032-.008.054-.062.092-.071.02-.005.02-.021.018-.037-.003-.055.036-.09.056-.076.012-.024.06-.03.074-.009.007-.017.035-.022.049 0 .022-.018.065.005.061.035.031-.001.05.018.047.042.016-.004.035.006.037.02-.003.024.038.03.02.046-.018.013-.034.008-.053-.01-.02-.019-.083-.003-.092.007-.01.009-.02.013-.027.006-.007-.007-.025-.019-.033-.018a.033.033 0 01-.036-.02c-.01-.021-.035-.024-.04-.016-.004.008.01.037.025.049.015.01.007.032.025.044.011.008 0 .036-.006.052s-.03.01-.033-.001c-.002-.012-.008-.02-.023-.002-.014.018-.045.013-.053.008-.007-.005-.027-.014-.04-.01-.015.006.006.014.008.021.001.007-.023.01-.036.01-.014 0-.018.01-.01.012.008.002.04.004.053-.004.013-.008.052 0 .056.015.003.016-.023.022-.039.02-.023-.003-.057.013-.073.018-.016.005-.06-.008-.078-.002-.017.006-.034-.018-.027-.027" fill="#A3A3A3"/><path fill-rule="evenodd" clip-rule="evenodd" d="M8.894 4.516c-.016.008-.01.033.004.043.015.01.047.014.069.009.02-.005.025.003.011.013-.013.01.021.012.019.028-.003.016.012.013.027.012a.125.125 0 00.05-.024c.017-.011.029-.003.013.016a.155.155 0 01-.109.04c-.04-.002-.063.01-.054.027.01.017.053.02.076.011.023-.009.02.007.002.019-.017.01-.042.012-.063.01-.021 0-.04.023-.012.036.028.013.064.005.078.016.014.011.056-.006.057.014 0 .019-.012.026-.037.024-.025-.002-.017.012.001.02a.14.14 0 00.061.005c.016-.002.011.018-.004.025a.296.296 0 01-.09.017c-.026-.001-.014.019.018.019.098 0 .131-.06.156-.101.012-.02.035-.032.04-.02.006.013.007.016-.004.026-.01.01-.008.016.012.017a.21.21 0 00.067-.012c.017-.006.068.032.026.033a.59.59 0 00-.195.05c-.03.015-.08.042-.112.04-.023 0-.032.01-.023.024.01.013.039.013.055.007.017-.006.02 0 .01.012-.012.012-.039.017-.058.021-.02.004-.029.02-.014.026.028.013.003.024.023.03.02.006-.002.025.02.031.022.006.035.003.051-.01.017-.015.026-.023.043-.021.018.002.03-.008.04-.023.01-.016.043-.043.054-.03.011.013.034-.011.039.002.004.013.024.005.028.024.005.02.027.024.041.017.015-.007.027-.025.027-.05s.005-.035.01-.008c.006.027.026.035.036.022.01-.013.014-.058.007-.08-.007-.021-.008-.048-.001-.053.007-.005.025.041.032.061.007.02.026.015.027-.006.001-.02.019-.03.031-.015.013.015.006.066.01.09.003.025.039-.006.043.002.003.008.017.01.022-.007.006-.017.019-.032.026-.022.007.01.018.027.023.046.004.02.02.03.03.01a.18.18 0 00.015-.088c-.004-.027.002-.044.012-.03.009.014.008.053.009.084 0 .032.03.029.03-.018 0-.021.01-.025.013-.013.002.012.002.032.005.041.007.023.03.01.033-.005a.394.394 0 00-.007-.094c-.006-.024.005-.041.014-.028.01.013.011.047.013.086.002.038.021.04.031.03.01-.012.01-.044.006-.068-.005-.023.01-.023.016-.009.007.014.018.005.016-.006-.002-.011.007-.021.016-.006.01.015.007.05.002.077-.005.027.023.024.036.001.012-.023.006-.087-.005-.107a.097.097 0 01-.004-.07c.007-.023.019-.025.02-.014 0 .01.006.027.016.04.01.013.016.015.017-.005.002-.02.011-.015.015 0s.01.027.02.014c.008-.013.02-.003.013.017a.092.092 0 00-.002.06c.006.02.025.016.027-.007.004-.048.009-.016.014.005.004.021.018.02.02.008.003-.012.006-.015.006-.002s.005.025.016.025c.012 0 .01-.027.015-.043.005-.016.016.006.03.044.013.037.023.002.055.087.013.034.032.005.031-.007 0-.013.002-.02.018-.02.015 0 .028-.005.022-.018-.005-.013-.001-.037-.002-.065-.001-.027.002-.042.004-.027a.083.083 0 00.027.048c.014.01.024-.02.012-.039a.222.222 0 01-.027-.103c0-.029.011-.02.011 0 0 .021.01.058.023.066.014.008.02-.03.013-.049-.007-.02-.01-.046.003-.05.014-.006-.003-.027-.015-.042-.012-.015-.02-.03.002-.03.02.001.003-.016-.007-.027s-.027-.033 0-.03c.028.003.019-.015.008-.026-.011-.01-.018-.029.001-.028.02.001.032-.011.03-.02-.007-.035-.053-.076-.082-.108a.245.245 0 00-.098-.067c-.025-.006-.026.015-.02.027.007.012.02.02.021.008.002-.012.021.001.03.017.01.016.04.037.06.055.02.018-.026.01-.048-.015-.012-.014-.01.003.006.022.016.02-.005.027-.022.011a3.397 3.397 0 01-.09-.091c-.029-.03-.034-.022-.034-.003-.001.02.009.032.027.049.018.016.041.041.059.058.017.018.002.029-.009.016-.01-.012-.048-.045-.07-.068-.022-.024-.042-.035-.056-.032-.014.003-.013.02.004.039.016.018.037.052.037.073 0 .02-.015.034-.023-.002-.007-.037-.042-.08-.067-.112-.026-.032-.051-.038-.07-.036-.02.002-.019.026-.019.045 0 .02-.013.008-.014-.006 0-.014-.015-.026-.023-.025-.009 0-.006.03-.009.044-.002.013-.015.025-.015-.006 0-.03-.03-.045-.043-.046-.013-.001-.025.005-.018.018a.161.161 0 01-.001.069c-.005.02-.019-.015-.021-.053-.003-.037-.046-.064-.076-.052-.03.01-.007.035-.013.058-.006.024-.014.002-.017-.022-.002-.024-.017-.04-.037-.033-.02.006-.034.018-.033.034a.205.205 0 01-.004.057c-.004.026-.012.013-.011-.004a.23.23 0 00-.009-.062c-.004-.016-.012-.001-.01.02a.37.37 0 01-.01.094c-.007.029-.018.03-.013-.009a.245.245 0 00-.021-.121c-.01-.019-.032-.026-.032 0 0 .027.006.046.022.066.017.019.004.066-.012.092-.017.025-.016-.011-.01-.039.005-.027-.025-.036-.037-.041-.012-.005.013-.033.018-.07.003-.017 0-.028-.012-.03-.01 0-.04.034-.053.06.004-.027 0-.05-.01-.05-.012 0-.024.025-.032.043-.008.018-.016.008-.008-.01.008-.02.021-.072.005-.083-.017-.011-.032.034-.049.026-.01-.004.004-.033.01-.046.005-.013-.006-.024-.03 0a.196.196 0 00-.043.089c-.006.024-.05.064-.074.085-.024.021-.034.013-.022.004.012-.01.036-.037.048-.049.011-.01.006-.017-.017.002a.322.322 0 01-.107.066c-.025.007-.028.001-.004-.008a.313.313 0 00.096-.073c.008-.012-.014-.002-.025.001-.011.003-.02 0 .002-.01a.47.47 0 00.106-.12c.014-.03.002-.041-.008-.04-.009.001-.021.008-.019-.004.003-.012-.003-.028-.015-.023-.012.005-.011.034-.016.05-.004.017-.03.038-.046.038a.087.087 0 00-.057.02c-.018.014-.026 0-.018-.012.009-.012.027-.015.045-.016.019-.001.039-.004.054-.024.016-.019.017-.034.005-.035-.012-.001-.032-.018-.039-.025-.032-.036-.092.014-.115.043a1.014 1.014 0 01-.07.075c-.014.012-.008.03.014.006.023-.023.03-.007.01.01-.022.018-.037.043-.03.052.008.01.036-.002.051-.013.016-.011.023.016-.015.025-.026.006-.035.018-.015.02a.115.115 0 00.062-.022c.022-.014.039-.006.02.008a.18.18 0 01-.078.034c-.017 0 .003.027-.014.035z" fill="#fff"/><path fill-rule="evenodd" clip-rule="evenodd" d="M9 4.29c.022-.03.041-.043.062-.022.018.02.02.028-.003.022-.023-.007-.039 0-.052.019-.014.02-.03.012-.007-.02m-.362.076c.017-.021.043-.021.055-.045.012-.023.025-.015.01.008-.014.022-.043.026-.055.042-.012.016-.018.006-.01-.005m.102-.081c.01-.002.03-.017.042-.036.012-.018.037-.024.053-.003.015.022.024.029.032.033.008.005.008.018-.005.023-.012.004-.03.007-.039.002-.01-.006-.023-.01-.034-.007-.01.003-.015-.003-.006-.008s.02-.021.025-.028c.006-.006.02 0 .012.005-.008.007-.004.02.004.026.008.005.025.005.032-.004a.264.264 0 00-.037-.037c-.007-.006-.013-.008-.023.005-.009.013-.03.043-.052.042-.02 0-.015-.011-.003-.013m.578.19a.127.127 0 00-.017.049c0 .015.01.025.011.006.001-.018.003-.03.014-.043.012-.014 0-.028-.008-.012m-.112 0a.113.113 0 00.033-.027c.008-.01.013-.004.005.008a.097.097 0 01-.034.029c-.008.003-.014-.005-.004-.01m.013.059a.428.428 0 01-.08.078c-.015.01-.01.023.007.015a.195.195 0 01-.059.04c-.018.007-.022.025.005.014a.246.246 0 00.076-.054c.01-.013-.002-.019.013-.033a.28.28 0 00.049-.05c.006-.017-.001-.024-.01-.01m-.057.165a.246.246 0 00.067-.08c.006-.016.019-.014.009.01a.323.323 0 01-.06.075c-.013.012-.037.009-.016-.005m.416-.24a.187.187 0 00-.005.064c.002.016.013.029.011.004-.001-.024-.001-.048.005-.055.006-.008-.002-.037-.011-.013m.112.06c.009.011.013.063.012.082 0 .02.015.02.014-.008a.257.257 0 00-.01-.08c-.01-.018-.03-.01-.016.006m.098.034a.172.172 0 01.012.056c0 .019.012.01.013-.01a.12.12 0 00-.008-.055c-.007-.014-.026-.01-.018.009m.061-.016c-.005-.017-.013-.031-.019-.029-.005.002-.001.017.006.033s.018.014.013-.004m-.382.113c-.003.042-.02.08-.042.093-.02.013-.017.034.009.013a.159.159 0 00.05-.09c.005-.032-.016-.045-.017-.016m-.046-.019a.13.13 0 00-.018.067c0 .024.008.006.01-.007.001-.013.005-.031.014-.037.01-.006.005-.038-.006-.023m.792.029c.01.02.023.054.028.073.005.02-.006.024-.01.007a.458.458 0 00-.027-.069c-.007-.013-.002-.034.009-.011" fill="#A3A3A3"/><path d="M7.429 5.6s1.053.404 1.23.404c.05 0 .732-.202.937-.202.076 0 .782.139.966.202.185.064 1.2-.404 1.2-.404m-4.333.8s1.053.404 1.23.404c.05 0 .732-.202.937-.202.076 0 .782.139.966.202.185.064 1.2-.404 1.2-.404" stroke="#fff" stroke-width=".667" stroke-linecap="round" stroke-linejoin="round"/><path d="M7.429 8s1.053.404 1.23.404c.05 0 .457-.327.937-.327.48 0 .782.264.966.327.185.064 1.2-.404 1.2-.404l3.333.689" stroke="#fff" stroke-width="1.333" stroke-linecap="round" stroke-linejoin="round"/></g><path d="M8.38 6V4.533a1 1 0 011-1h.43a1 1 0 011 1V6c0 .906-.349 1.531-.694 1.933a2.875 2.875 0 01-.52.474 2.874 2.874 0 01-.521-.474C8.728 7.53 8.38 6.906 8.38 6zm1.06 2.505h0z" stroke="#fff" stroke-width=".667"/><path d="M0-.333h-.75l.503.556 2.08 2.305v.526l-2.06 1.901-.106.1v1.242l.542-.439 2.385-1.926h.37l2.038 1.88a.45.45 0 00.64-.632L3.738 3.07v-.525L5.69.744a.667.667 0 00.215-.49v-.952l-.543.439-2.385 1.926h-.37L.536-.245.44-.333H0z" fill="#DB1E36" stroke="#fff" stroke-width=".667"/><path fill-rule="evenodd" clip-rule="evenodd" d="M0 2v1.6h2.167v1.781a.62.62 0 001.238 0V3.6h1.81a.667.667 0 00.666-.667v-.266A.667.667 0 005.214 2h-1.81V0H2.168v2H0z" fill="#fff"/><path fill-rule="evenodd" clip-rule="evenodd" d="M0 2.4h2.476V0h.62v2.4H5.57v.8H3.095v2.4h-.619V3.2H0v-.8z" fill="#DB1E36"/></g></svg>