<svg width="13" height="12" viewBox="0 0 13 12" fill="none" xmlns="http://www.w3.org/2000/svg">
<rect width="13" height="12" rx="2" fill="white"/>
<mask id="mask0" mask-type="alpha" maskUnits="userSpaceOnUse" x="0" y="0" width="13" height="12">
<rect width="13" height="12" rx="2" fill="white"/>
</mask>
<g mask="url(#mask0)">
<rect width="13" height="12" fill="#07319C"/>
<path fill-rule="evenodd" clip-rule="evenodd" d="M8.04761 6.00001C8.04761 5.53232 8.04761 5.00387 8.04761 4.53307C8.04761 3.79669 8.64456 3.20001 9.38094 3.20001H9.80951C10.5459 3.20001 11.1428 3.79669 11.1428 4.53307C11.1428 5.00387 11.1428 5.53232 11.1428 6.00001C11.1428 8.00001 9.59523 8.80001 9.59523 8.80001C9.59523 8.80001 8.04761 8.00001 8.04761 6.00001Z" fill="#0072C4"/>
<mask id="mask1" mask-type="alpha" maskUnits="userSpaceOnUse" x="8" y="3" width="4" height="6">
<path fill-rule="evenodd" clip-rule="evenodd" d="M8.04761 6.00001C8.04761 5.53232 8.04761 5.00387 8.04761 4.53307C8.04761 3.79669 8.64456 3.20001 9.38094 3.20001H9.80951C10.5459 3.20001 11.1428 3.79669 11.1428 4.53307C11.1428 5.00387 11.1428 5.53232 11.1428 6.00001C11.1428 8.00001 9.59523 8.80001 9.59523 8.80001C9.59523 8.80001 8.04761 8.00001 8.04761 6.00001Z" fill="white"/>
</mask>
<g mask="url(#mask1)">
<path fill-rule="evenodd" clip-rule="evenodd" d="M8.76057 5.5606C8.44338 5.97464 9.06502 5.92213 9.06502 5.92213L9.50777 5.73893C9.50777 5.73893 9.70682 5.77005 9.84118 5.82239C9.93019 5.85707 10.1779 5.99998 10.1779 5.99998C10.1779 5.99998 10.701 5.86502 10.5171 5.5606C10.3331 5.25617 9.07776 5.14656 8.76057 5.5606Z" fill="#005121"/>
<path fill-rule="evenodd" clip-rule="evenodd" d="M10.0796 5.13051C10.0923 5.12677 10.1221 5.12761 10.1331 5.14506C10.1505 5.17234 10.1862 5.16327 10.2036 5.18956C10.2209 5.21592 10.241 5.24022 10.241 5.27771C10.241 5.31519 10.2377 5.40815 10.2383 5.42856C10.2392 5.46003 10.2434 5.46491 10.2684 5.46407C10.2986 5.46308 10.3403 5.46003 10.3416 5.39016C10.3425 5.34148 10.305 5.31108 10.2941 5.1379C10.3105 5.11969 10.3252 5.10346 10.3197 5.07923C10.3142 5.05493 10.3508 5.04274 10.3471 5.00624C10.3434 4.96982 10.3836 4.9475 10.3672 4.90704C10.3508 4.86651 10.3873 4.86453 10.3727 4.83207C10.358 4.79969 10.3964 4.77127 10.38 4.743C10.3636 4.71458 10.4019 4.6883 10.3818 4.65386C10.3617 4.61942 10.3928 4.59915 10.3727 4.57279C10.3855 4.54651 10.3745 4.47154 10.3343 4.42902C10.2941 4.38643 10.2374 4.36418 10.2045 4.34795C10.1432 4.31778 10.0289 4.33173 9.94845 4.34392C9.86797 4.35603 9.71802 4.36822 9.67228 4.36015C9.62661 4.35207 9.51876 4.34392 9.43367 4.36213C9.40458 4.36837 9.37149 4.3571 9.35416 4.33584C9.34027 4.31885 9.33222 4.32068 9.31942 4.32167C9.30663 4.32266 9.29927 4.31755 9.29287 4.29729C9.28159 4.26163 9.25635 4.28616 9.24445 4.24159C9.23647 4.2118 9.195 4.23755 9.18227 4.21226C9.16941 4.18696 9.15393 4.18392 9.11913 4.18696C9.11734 4.17173 9.09815 4.1606 9.08075 4.16464C9.0835 4.13935 9.06431 4.11908 9.03232 4.12007C9.03597 4.08868 8.99119 4.06437 8.96829 4.08365C8.95371 4.06034 8.9244 4.06536 8.91711 4.08365C8.90157 4.06034 8.85218 4.06742 8.84028 4.09272C8.8193 4.07755 8.77845 4.11481 8.78182 4.17378C8.78271 4.19001 8.78354 4.20685 8.76256 4.21226C8.72328 4.22239 8.70045 4.27908 8.66654 4.28715C8.63276 4.29531 8.59892 4.30948 8.59253 4.33378C8.58613 4.35809 8.59803 4.38346 8.58523 4.39557C8.57244 4.40776 8.59342 4.41889 8.59982 4.42491C8.60621 4.431 8.61626 4.44114 8.61811 4.45531C8.62073 4.47542 8.64638 4.48144 8.673 4.45935C8.68394 4.45028 8.70313 4.47763 8.73422 4.45835C8.76531 4.43915 8.80947 4.44929 8.8019 4.48068C8.79826 4.49584 8.80644 4.51207 8.81655 4.52723C8.82659 4.54239 8.84166 4.58818 8.83299 4.61432C8.8202 4.65279 8.84578 4.67413 8.83939 4.70849C8.83299 4.743 8.84303 4.77439 8.82935 4.82095C8.81559 4.8675 8.81538 4.92578 8.83574 4.94247C8.86408 4.96578 8.84695 5.01196 8.87137 5.03161C8.89146 5.04776 8.87963 5.08731 8.91711 5.09942C8.9546 5.11161 8.93266 5.14399 8.97193 5.15108C9.01128 5.15816 9.02496 5.19466 9.0661 5.18651C9.09643 5.18056 9.11239 5.19009 9.13007 5.19908C9.13371 5.23154 9.12559 5.35062 9.12374 5.38102C9.12209 5.40792 9.11094 5.45081 9.11094 5.47725C9.11094 5.4934 9.13653 5.49744 9.16583 5.49744C9.195 5.49744 9.20786 5.48228 9.2005 5.43976C9.19321 5.39717 9.19142 5.29348 9.19328 5.22864C9.21866 5.24441 9.2428 5.26651 9.2417 5.29089C9.23984 5.33036 9.24032 5.40121 9.23523 5.43771C9.23166 5.46407 9.23709 5.50559 9.23895 5.53295C9.24081 5.543 9.29012 5.54201 9.31028 5.53295C9.33036 5.5238 9.33036 5.4995 9.3285 5.3891C9.32761 5.33447 9.28276 5.27862 9.33951 5.25135C9.36695 5.23816 9.40533 5.20776 9.41999 5.1795C9.43457 5.15108 9.46662 5.1622 9.48946 5.17645C9.51229 5.19062 9.54889 5.21226 9.57179 5.20274C9.60102 5.19062 9.63211 5.22095 9.6577 5.20274C9.68329 5.18453 9.71623 5.21592 9.73721 5.19367C9.75826 5.17135 9.79485 5.1926 9.8104 5.17135C9.82594 5.15009 9.88991 5.18354 9.91282 5.15519C9.93565 5.12677 9.96674 5.16327 9.98779 5.14201C9.99329 5.13637 9.99983 5.13516 10.007 5.13584C10.0062 5.18376 9.99921 5.26003 9.99783 5.2838C9.99618 5.31077 9.98504 5.35359 9.98504 5.37996C9.98504 5.39618 10.0106 5.40022 10.0399 5.40022C10.0692 5.40022 10.082 5.38506 10.0747 5.34255C10.0673 5.30003 10.0778 5.19542 10.0796 5.13051" fill="#A3A3A3"/>
<path fill-rule="evenodd" clip-rule="evenodd" d="M8.60011 4.39201C8.61236 4.3805 8.60101 4.35658 8.60713 4.33357C8.61325 4.31064 8.64565 4.29723 8.67804 4.28961C8.71044 4.28191 8.73231 4.22835 8.77001 4.21875C8.79009 4.21365 8.78927 4.19772 8.78837 4.18241C8.78521 4.12671 8.82428 4.09151 8.84443 4.10591C8.85578 4.08191 8.9031 4.07521 8.91796 4.09723C8.92498 4.08001 8.95297 4.07521 8.967 4.09723C8.98888 4.07909 9.0318 4.10203 9.02829 4.13167C9.05897 4.13075 9.07733 4.14988 9.07472 4.1738C9.09136 4.16999 9.10973 4.1805 9.11152 4.19483C9.1087 4.21837 9.15031 4.22439 9.13105 4.23963C9.1142 4.25296 9.09817 4.2477 9.07898 4.22949C9.05979 4.21121 8.99575 4.22744 8.98661 4.23658C8.97746 4.24572 8.96742 4.24976 8.96006 4.24268C8.95276 4.23559 8.93543 4.22439 8.92718 4.22546C8.91892 4.22645 8.90159 4.22645 8.89148 4.20519C8.88144 4.18393 8.85585 4.18088 8.85131 4.18896C8.84677 4.19704 8.86135 4.22645 8.876 4.23757C8.89058 4.24877 8.88329 4.27003 8.9007 4.28214C8.91205 4.29014 8.90159 4.31757 8.89519 4.3338C8.8888 4.35003 8.8641 4.34492 8.86225 4.33281C8.86046 4.32069 8.85399 4.31254 8.83941 4.33075C8.82476 4.34904 8.79374 4.34393 8.78638 4.3389C8.77909 4.3338 8.75893 4.32473 8.74525 4.32976C8.73149 4.33487 8.75164 4.34294 8.7535 4.35003C8.75529 4.35711 8.73149 4.36016 8.7178 4.36016C8.70411 4.36016 8.6995 4.37022 8.70776 4.37228C8.71601 4.37433 8.74793 4.37639 8.76079 4.36824C8.77358 4.36016 8.81286 4.36824 8.81657 4.38348C8.82022 4.39864 8.79374 4.40473 8.77812 4.40268C8.75515 4.3997 8.72145 4.41586 8.70501 4.42089C8.68857 4.42599 8.64468 4.41281 8.62728 4.4189C8.60995 4.42492 8.59282 4.40108 8.60011 4.39201" fill="#A3A3A3"/>
<path fill-rule="evenodd" clip-rule="evenodd" d="M8.89424 4.51614C8.8778 4.52422 8.8833 4.54853 8.89796 4.55866C8.91261 4.56879 8.94548 4.57283 8.96653 4.5678C8.98751 4.5627 8.99212 4.57085 8.97843 4.58098C8.96468 4.59104 8.99941 4.5931 8.99666 4.60933C8.99398 4.62548 9.00945 4.62243 9.0241 4.62144C9.03875 4.62045 9.05794 4.60826 9.07438 4.59713C9.09082 4.58601 9.10272 4.59409 9.08718 4.61336C9.0717 4.63256 9.01956 4.65694 8.97843 4.6539C8.93723 4.65085 8.91529 4.66296 8.92444 4.68018C8.93359 4.6974 8.97747 4.70045 9.0003 4.69131C9.02321 4.68224 9.01956 4.69847 9.00216 4.70952C8.98476 4.72072 8.96007 4.72171 8.93909 4.72072C8.91804 4.71973 8.89974 4.74304 8.92719 4.75614C8.95463 4.76933 8.99123 4.76125 9.00491 4.77237C9.01867 4.7835 9.0607 4.76628 9.06159 4.78555C9.06248 4.80475 9.04969 4.81184 9.025 4.80986C9.0003 4.8078 9.0076 4.8222 9.02596 4.83005C9.0424 4.83721 9.0717 4.83721 9.08718 4.83515C9.10272 4.83317 9.09818 4.85336 9.08264 4.86045C9.06709 4.86753 9.01681 4.87767 8.99212 4.87668C8.96743 4.87569 8.97926 4.89595 9.01131 4.89595C9.10912 4.89595 9.14207 4.83614 9.16676 4.79462C9.17887 4.77428 9.20239 4.76323 9.20789 4.77542C9.21339 4.78753 9.21429 4.79058 9.20335 4.80072C9.19235 4.81085 9.19503 4.81694 9.21518 4.81793C9.23527 4.81893 9.26457 4.81184 9.28197 4.80582C9.2993 4.79973 9.35048 4.83805 9.30845 4.83919C9.23437 4.84125 9.14296 4.87569 9.11283 4.88986C9.08264 4.90403 9.03229 4.9307 9.00127 4.92933C8.97843 4.92833 8.96921 4.93946 8.97843 4.95264C8.98751 4.96582 9.01681 4.96582 9.03325 4.95973C9.04969 4.95363 9.05334 4.95973 9.0424 4.97184C9.03146 4.98403 9.00402 4.98906 8.98476 4.99317C8.96564 4.99721 8.95615 5.01306 8.97107 5.01946C8.99941 5.03165 8.97382 5.04277 8.99398 5.04887C9.01406 5.05496 8.99212 5.07416 9.01406 5.08026C9.036 5.08635 9.0488 5.08331 9.06524 5.06913C9.08174 5.05496 9.09082 5.04681 9.10823 5.04887C9.12563 5.05093 9.13753 5.04072 9.14757 5.02555C9.15761 5.01039 9.19145 4.98304 9.20239 4.99622C9.21339 5.0094 9.23623 4.98502 9.24084 4.9982C9.24538 5.01138 9.26457 5.00331 9.26918 5.02152C9.2742 5.04178 9.29566 5.04582 9.31031 5.03873C9.32489 5.03165 9.33679 5.01443 9.33679 4.98906C9.33679 4.96376 9.34229 4.95363 9.3478 4.98098C9.35323 5.00833 9.37338 5.01641 9.38343 5.00331C9.39347 4.99013 9.39711 4.94456 9.38982 4.92331C9.38253 4.90197 9.38157 4.87462 9.38893 4.86959C9.39622 4.86456 9.41362 4.91112 9.42091 4.93138C9.42827 4.95165 9.44739 4.94555 9.44836 4.92529C9.44925 4.90502 9.46665 4.89489 9.47945 4.91013C9.49224 4.92529 9.48495 4.97595 9.4886 5.00026C9.49224 5.02456 9.52787 4.99416 9.53158 5.00224C9.53523 5.01039 9.54892 5.01237 9.55442 4.99515C9.55992 4.97793 9.57272 4.96277 9.58001 4.97291C9.58737 4.98304 9.5983 5.00026 9.60284 5.01946C9.60745 5.03873 9.62389 5.04887 9.63393 5.0286C9.64398 5.00833 9.65134 4.96887 9.64769 4.94144C9.64398 4.91416 9.65044 4.89694 9.65952 4.91112C9.66867 4.92529 9.66778 4.96376 9.66867 4.99515C9.66963 5.02654 9.69976 5.02357 9.69976 4.97694C9.69976 4.95569 9.70891 4.95165 9.71166 4.96376C9.71441 4.97595 9.71441 4.99622 9.71716 5.00529C9.7239 5.02776 9.74736 5.01542 9.75004 5.00026C9.75279 4.98502 9.74825 4.93032 9.74275 4.90609C9.73725 4.88171 9.74825 4.86456 9.7574 4.87767C9.76655 4.89085 9.76834 4.92529 9.77019 4.96376C9.77198 5.00224 9.79117 5.0043 9.80128 4.99317C9.81133 4.98197 9.81133 4.94959 9.80679 4.92628C9.80218 4.90304 9.81683 4.90304 9.82322 4.91721C9.82962 4.93138 9.84063 4.92224 9.83877 4.91112C9.83698 4.89999 9.84606 4.88986 9.85521 4.90502C9.86436 4.92026 9.86161 4.9547 9.85707 4.98197C9.85246 5.0094 9.8799 5.00628 9.8927 4.98304C9.90549 4.95973 9.89909 4.89595 9.88816 4.87569C9.87715 4.85542 9.87811 4.82906 9.88444 4.80582C9.89091 4.78251 9.90281 4.78144 9.9037 4.79165C9.9046 4.80171 9.9101 4.81893 9.92014 4.83211C9.93018 4.84529 9.93568 4.84734 9.93747 4.827C9.93933 4.80681 9.94848 4.81184 9.95212 4.827C9.95584 4.84224 9.96217 4.85435 9.97131 4.84125C9.98046 4.82807 9.99236 4.8382 9.98507 4.85847C9.97771 4.87873 9.97771 4.89694 9.98321 4.91721C9.98872 4.93748 10.0079 4.93443 10.0098 4.91112C10.0135 4.86266 10.0189 4.89489 10.0235 4.91614C10.028 4.93748 10.0417 4.93641 10.0445 4.9243C10.0473 4.91211 10.05 4.90913 10.05 4.92224C10.05 4.93542 10.0545 4.94654 10.0664 4.94654C10.0783 4.94654 10.0756 4.92026 10.081 4.90403C10.0865 4.8878 10.0966 4.91013 10.1103 4.94753C10.124 4.98502 10.1341 4.94959 10.1661 5.0347C10.1792 5.06936 10.1981 5.03973 10.1972 5.02761C10.1962 5.01542 10.199 5.00734 10.2145 5.00734C10.2301 5.00734 10.2429 5.00331 10.2374 4.99013C10.2319 4.97694 10.2356 4.95264 10.2347 4.92529C10.2338 4.89793 10.2365 4.88277 10.2392 4.89793C10.242 4.9131 10.2511 4.93443 10.2657 4.94555C10.2804 4.95668 10.2904 4.92628 10.2785 4.90708C10.2667 4.8878 10.2502 4.84224 10.2511 4.80376C10.2518 4.77542 10.2621 4.78449 10.2621 4.80475C10.2621 4.82502 10.2712 4.86152 10.285 4.86959C10.2987 4.87767 10.3042 4.84018 10.2978 4.82098C10.2914 4.80171 10.2877 4.77542 10.3014 4.77032C10.3151 4.76529 10.2978 4.74403 10.2859 4.72879C10.274 4.71363 10.2667 4.69847 10.2877 4.69946C10.3087 4.70045 10.2914 4.68323 10.2813 4.67211C10.2712 4.66098 10.2539 4.63866 10.2813 4.64171C10.3087 4.64475 10.2996 4.62654 10.2886 4.61641C10.2776 4.60628 10.2712 4.587 10.2904 4.58807C10.3097 4.58906 10.3215 4.57687 10.3197 4.5678C10.3127 4.53268 10.2667 4.49184 10.2383 4.46045C10.21 4.42906 10.1643 4.39767 10.1396 4.39256C10.1149 4.38746 10.114 4.4078 10.1204 4.41992C10.1268 4.43203 10.1396 4.44018 10.1414 4.42799C10.1432 4.41588 10.1624 4.42906 10.1715 4.44521C10.1807 4.46144 10.2118 4.48171 10.231 4.49992C10.2502 4.51813 10.2054 4.50906 10.1834 4.48475C10.1709 4.47081 10.1724 4.48773 10.1889 4.507C10.2054 4.52628 10.1843 4.53435 10.167 4.51813C10.1496 4.50197 10.1048 4.45641 10.0765 4.427C10.0481 4.39767 10.0435 4.40475 10.0426 4.42395C10.0417 4.44323 10.0518 4.45641 10.0701 4.47256C10.0884 4.48879 10.1112 4.51409 10.1286 4.53131C10.146 4.54853 10.1314 4.55965 10.1204 4.54746C10.1094 4.53534 10.0719 4.50197 10.05 4.47866C10.028 4.45534 10.0079 4.44422 9.99422 4.44727C9.98046 4.45032 9.98143 4.46753 9.99786 4.48574C10.0143 4.50395 10.0345 4.53839 10.0345 4.55866C10.0345 4.57893 10.0198 4.5931 10.0124 4.55668C10.0052 4.52018 9.97042 4.47767 9.94483 4.44521C9.91925 4.41283 9.89359 4.40673 9.8744 4.40879C9.85521 4.41077 9.8561 4.43508 9.8561 4.45435C9.8561 4.47355 9.84331 4.46243 9.84242 4.44826C9.84152 4.43409 9.82687 4.42197 9.81862 4.42296C9.81043 4.42395 9.81318 4.45336 9.81043 4.46654C9.80768 4.47965 9.79489 4.49184 9.79489 4.46144C9.79489 4.43104 9.76469 4.41588 9.7519 4.41481C9.7391 4.41382 9.7272 4.41992 9.7336 4.4331C9.74 4.4462 9.73725 4.48171 9.73271 4.50197C9.7281 4.52216 9.71441 4.48673 9.71166 4.44925C9.70891 4.41184 9.66599 4.38548 9.63579 4.3966C9.6056 4.4078 9.6285 4.43203 9.623 4.45534C9.61749 4.47866 9.60924 4.4574 9.60649 4.4331C9.60381 4.40879 9.58916 4.39355 9.56907 4.39965C9.54892 4.40574 9.53523 4.41786 9.53612 4.43409C9.53702 4.45032 9.53702 4.46449 9.53248 4.49077C9.52787 4.51713 9.51969 4.50395 9.52058 4.48673C9.52154 4.46952 9.51693 4.44117 9.51233 4.42494C9.50779 4.40879 9.50043 4.42395 9.50228 4.44422C9.50414 4.46449 9.49953 4.51104 9.49224 4.53946C9.48495 4.5678 9.47394 4.56879 9.47945 4.53032C9.48495 4.49184 9.47119 4.43508 9.45751 4.40879C9.44767 4.38997 9.42552 4.3835 9.42552 4.40978C9.42552 4.43614 9.43192 4.45534 9.44836 4.47462C9.4648 4.49382 9.452 4.54144 9.43556 4.56681C9.41906 4.59211 9.42002 4.55561 9.42552 4.52826C9.43096 4.50091 9.40083 4.49184 9.38893 4.48673C9.37703 4.48171 9.40172 4.45435 9.40723 4.41786C9.40991 4.39988 9.40626 4.38853 9.39533 4.38746C9.38432 4.38647 9.35509 4.42091 9.34229 4.4462C9.34594 4.41992 9.34229 4.3966 9.33129 4.3966C9.32035 4.3966 9.30845 4.42197 9.30027 4.44018C9.29201 4.45839 9.28376 4.44826 9.29201 4.42906C9.30027 4.40978 9.31299 4.35813 9.29655 4.347C9.28011 4.33588 9.26546 4.38144 9.24813 4.37329C9.23829 4.36872 9.25178 4.33992 9.25728 4.32673C9.26271 4.31355 9.25178 4.30342 9.22708 4.32773C9.20239 4.35211 9.19145 4.39157 9.18499 4.41588C9.17866 4.44018 9.13478 4.47965 9.11098 4.50091C9.08718 4.52216 9.07714 4.51409 9.08903 4.50494C9.10093 4.49588 9.12466 4.46753 9.13656 4.45641C9.14846 4.44521 9.14296 4.43866 9.12012 4.45786C9.09729 4.47713 9.05568 4.51211 9.0131 4.52422C8.98813 4.53138 8.98476 4.52529 9.00945 4.51614C9.03415 4.507 9.09082 4.46342 9.10458 4.44323C9.11318 4.43051 9.09082 4.44117 9.07989 4.44422C9.06895 4.44727 9.0598 4.44323 9.08174 4.4331C9.10362 4.42296 9.17316 4.34296 9.18781 4.31355C9.20239 4.28422 9.1896 4.27302 9.18045 4.27409C9.1713 4.27508 9.15851 4.28216 9.16126 4.27005C9.16401 4.25786 9.15761 4.24163 9.14571 4.24673C9.13381 4.25176 9.13478 4.28117 9.13017 4.29733C9.12563 4.31355 9.09997 4.33489 9.08353 4.33489C9.06709 4.33489 9.04426 4.33893 9.02685 4.35409C9.00945 4.36925 9.00127 4.35508 9.00945 4.34296C9.01771 4.33077 9.036 4.32773 9.0543 4.32673C9.0726 4.32574 9.09268 4.3227 9.10823 4.30342C9.12377 4.28422 9.12466 4.26898 9.11283 4.26799C9.10093 4.267 9.08078 4.24978 9.07438 4.2427C9.04192 4.20666 8.98242 4.25687 8.95917 4.2862C8.94638 4.30243 8.9025 4.34906 8.88881 4.36117C8.87505 4.37329 8.88055 4.39051 8.90339 4.36727C8.92629 4.34395 8.93359 4.36018 8.91261 4.3774C8.89149 4.39462 8.87601 4.41992 8.8833 4.42906C8.8906 4.43813 8.91893 4.427 8.93448 4.41588C8.95002 4.40475 8.95738 4.43203 8.91893 4.44117C8.89314 4.44734 8.88413 4.45908 8.90435 4.46045C8.9199 4.46144 8.94363 4.45336 8.96564 4.43919C8.98751 4.42494 9.00491 4.4331 8.98662 4.44727C8.96832 4.46144 8.92808 4.48072 8.908 4.48072C8.89115 4.48072 8.91075 4.50807 8.89424 4.51614Z" fill="white"/>
<path fill-rule="evenodd" clip-rule="evenodd" d="M9.00027 4.28974C9.02228 4.26014 9.04147 4.24718 9.06155 4.26846C9.07978 4.28774 9.08171 4.29614 9.0588 4.28974C9.03597 4.28334 9.02042 4.28974 9.00673 4.30886C8.99298 4.32806 8.97743 4.32054 9.00027 4.28974" fill="#A3A3A3"/>
<path fill-rule="evenodd" clip-rule="evenodd" d="M8.63825 4.36493C8.65469 4.34365 8.68117 4.34365 8.69307 4.32029C8.70497 4.29685 8.71776 4.30541 8.70311 4.32773C8.68853 4.35005 8.66019 4.35437 8.64829 4.37029C8.63639 4.38621 8.62999 4.37557 8.63825 4.36493" fill="#A3A3A3"/>
<path fill-rule="evenodd" clip-rule="evenodd" d="M8.74077 4.28357C8.75067 4.28181 8.77 4.26653 8.7819 4.24845C8.7938 4.23037 8.81939 4.22397 8.83486 4.24525C8.85041 4.26653 8.85866 4.27397 8.86692 4.27829C8.8751 4.28253 8.8751 4.29637 8.86231 4.30053C8.84951 4.30485 8.83218 4.30805 8.82303 4.30269C8.81388 4.29741 8.80013 4.29317 8.78919 4.29637C8.77818 4.29949 8.77365 4.29317 8.78279 4.28781C8.79194 4.28253 8.80288 4.26653 8.80838 4.26013C8.81388 4.25381 8.82847 4.25909 8.82028 4.26549C8.81203 4.27189 8.81567 4.28565 8.82393 4.29101C8.83218 4.29637 8.84862 4.29637 8.85591 4.28677C8.84497 4.27293 8.82668 4.25485 8.81939 4.24957C8.81203 4.24421 8.80563 4.24205 8.79648 4.25485C8.78733 4.26765 8.76539 4.29845 8.74441 4.29741C8.72336 4.29637 8.72887 4.28565 8.74077 4.28357" fill="#A3A3A3"/>
<path fill-rule="evenodd" clip-rule="evenodd" d="M9.3185 4.47442C9.31038 4.48906 9.30295 4.50794 9.30206 4.52282C9.30116 4.5377 9.31169 4.54786 9.31299 4.52922C9.31437 4.51058 9.31574 4.49946 9.32716 4.48562C9.33865 4.47178 9.32764 4.45794 9.3185 4.47442" fill="#A3A3A3"/>
<path fill-rule="evenodd" clip-rule="evenodd" d="M9.20655 4.47405C9.21605 4.46909 9.23214 4.45757 9.23991 4.44693C9.24769 4.43637 9.25271 4.44325 9.24494 4.45493C9.23716 4.46661 9.21935 4.48045 9.21109 4.48365C9.20291 4.48685 9.19651 4.47941 9.20655 4.47405" fill="#A3A3A3"/>
<path fill-rule="evenodd" clip-rule="evenodd" d="M9.2206 4.53323C9.20746 4.55365 9.15566 4.60218 9.14012 4.61125C9.12457 4.62039 9.13008 4.63357 9.14748 4.62649C9.13469 4.63959 9.10628 4.66092 9.08805 4.66694C9.06975 4.67304 9.06604 4.69125 9.09348 4.68012C9.12093 4.669 9.15931 4.63959 9.16935 4.62649C9.17946 4.61331 9.16667 4.60721 9.18221 4.59304C9.19776 4.57887 9.22651 4.55296 9.23064 4.54237C9.23703 4.52622 9.22974 4.51906 9.2206 4.53323" fill="#A3A3A3"/>
<path fill-rule="evenodd" clip-rule="evenodd" d="M9.164 4.69845C9.1836 4.68611 9.2202 4.64245 9.23072 4.61739C9.23712 4.60223 9.24991 4.60421 9.23987 4.62752C9.22982 4.65083 9.19234 4.69236 9.17954 4.70348C9.16675 4.71461 9.14295 4.71156 9.164 4.69845" fill="#A3A3A3"/>
<path fill-rule="evenodd" clip-rule="evenodd" d="M9.57998 4.45838C9.57461 4.47263 9.57358 4.506 9.57544 4.52215C9.57723 4.53838 9.58823 4.55057 9.58637 4.52626C9.58459 4.50196 9.58459 4.47766 9.59091 4.47057C9.59738 4.46341 9.58913 4.43407 9.57998 4.45838" fill="#A3A3A3"/>
<path fill-rule="evenodd" clip-rule="evenodd" d="M9.69153 4.51806C9.70082 4.52911 9.70522 4.58092 9.70433 4.60012C9.70343 4.61939 9.71898 4.61939 9.71801 4.59204C9.71712 4.56469 9.71526 4.53025 9.70708 4.51204C9.69882 4.49376 9.67874 4.5029 9.69153 4.51806" fill="#A3A3A3"/>
<path fill-rule="evenodd" clip-rule="evenodd" d="M9.78938 4.55153C9.79502 4.56479 9.80217 4.59001 9.80217 4.60822C9.80217 4.6265 9.81407 4.61835 9.81496 4.59709C9.81586 4.57583 9.81318 4.55762 9.80678 4.54345C9.80038 4.52928 9.78112 4.53225 9.78938 4.55153" fill="#A3A3A3"/>
<path fill-rule="evenodd" clip-rule="evenodd" d="M9.84971 4.53571C9.84469 4.51939 9.83691 4.50483 9.83134 4.50699C9.82591 4.50915 9.82955 4.52403 9.83691 4.53995C9.84414 4.55595 9.85514 4.55379 9.84971 4.53571" fill="#A3A3A3"/>
<path fill-rule="evenodd" clip-rule="evenodd" d="M9.46753 4.64877C9.46478 4.69121 9.44737 4.72877 9.4264 4.74195C9.40535 4.75513 9.40899 4.77639 9.43458 4.75513C9.46024 4.73387 9.47943 4.69738 9.48493 4.665C9.49036 4.63254 9.46938 4.62042 9.46753 4.64877" fill="#A3A3A3"/>
<path fill-rule="evenodd" clip-rule="evenodd" d="M9.42175 4.62956C9.41082 4.64373 9.40442 4.67413 9.40442 4.69737C9.40442 4.72068 9.41171 4.70346 9.41357 4.69028C9.41542 4.6771 9.419 4.65889 9.42822 4.6528C9.4373 4.6467 9.43276 4.61539 9.42175 4.62956" fill="#A3A3A3"/>
<path fill-rule="evenodd" clip-rule="evenodd" d="M10.2136 4.6589C10.2232 4.67939 10.2374 4.71261 10.242 4.73181C10.2466 4.75109 10.2356 4.75612 10.2319 4.7389C10.2282 4.72168 10.2109 4.6832 10.2045 4.67002C10.1981 4.65692 10.2026 4.63558 10.2136 4.6589" fill="#A3A3A3"/>
<path d="M7.42859 5.59999C7.42859 5.59999 8.48155 6.00427 8.65928 6.00427C8.70922 6.00427 9.39126 5.80213 9.59574 5.80213C9.67221 5.80213 10.3782 5.9406 10.5625 6.00427C10.7469 6.06794 11.7629 5.59999 11.7629 5.59999" stroke="white" stroke-width="0.666667" stroke-linecap="round" stroke-linejoin="round"/>
<path d="M7.42859 6.40004C7.42859 6.40004 8.48155 6.80431 8.65928 6.80431C8.70922 6.80431 9.39126 6.60218 9.59574 6.60218C9.67221 6.60218 10.3782 6.74064 10.5625 6.80431C10.7469 6.86799 11.7629 6.40004 11.7629 6.40004" stroke="white" stroke-width="0.666667" stroke-linecap="round" stroke-linejoin="round"/>
<path d="M7.42859 8.00001C7.42859 8.00001 8.48155 8.40429 8.65928 8.40429C8.70922 8.40429 9.11581 8.07716 9.59574 8.07716C10.0757 8.07716 10.3782 8.34062 10.5625 8.40429C10.7469 8.46796 11.7629 8.00001 11.7629 8.00001L15.0952 8.68878" stroke="white" stroke-width="1.33333" stroke-linecap="round" stroke-linejoin="round"/>
</g>
<path d="M8.38094 6.00001V5.91164V5.86697V5.82201V5.77678V5.73131V5.68561V5.6397V5.59362V5.54737V5.50098V5.45447V5.40787V5.3612V5.31447V5.26771V5.24432V5.2414V5.23848V5.23556V5.23263V5.22971V5.22679V5.22386V5.22094V5.21802V5.2151V5.21217V5.20925V5.20633V5.2034V5.20048V5.19756V5.19464V5.19172V5.18879V5.18587V5.18295V5.18003V5.17711V5.17419V5.17126V5.16834V5.16542V5.1625V5.15958V5.15666V5.15374V5.15082V5.1479V5.14498V5.14206V5.13914V5.13622V5.1333V5.13038V5.12746V5.12455V5.12163V5.11871V5.11579V5.11287V5.10996V5.10704V5.10412V5.10121V5.09829V5.09537V5.09246V5.08954V5.08663V5.08371V5.0808V5.07788V5.07497V5.07206V5.06914V5.06623V5.06332V5.06041V5.05749V5.05458V5.05167V5.04876V5.04585V5.04294V5.04003V5.03712V5.03421V5.0313V5.02839V5.02549V5.02258V5.01967V5.01677V5.01386V5.01095V5.00805V5.00514V5.00224V4.99933V4.99643V4.99353V4.99062V4.98772V4.98482V4.98192V4.97902V4.97612V4.97322V4.97032V4.96742V4.96452V4.96162V4.95873V4.95583V4.95293V4.95004V4.94714V4.94425V4.94136V4.93846V4.93557V4.93268V4.92978V4.92689V4.924V4.92111V4.91822V4.91533V4.91245V4.90956V4.90667V4.90379V4.9009V4.89801V4.89513V4.89225V4.88936V4.88648V4.8836V4.88072V4.87784V4.87496V4.87208V4.8692V4.86632V4.86344V4.86057V4.85769V4.85482V4.85194V4.84907V4.8462V4.84332V4.84045V4.83758V4.83471V4.83184V4.82898V4.82611V4.82324V4.82038V4.81751V4.81465V4.81178V4.80892V4.80606V4.8032V4.80033V4.79748V4.79462V4.79176V4.7889V4.78604V4.78319V4.78033V4.77748V4.77463V4.77178V4.76892V4.76607V4.76322V4.76038V4.75753V4.75468V4.75184V4.74899V4.74615V4.7433V4.74046V4.73478V4.71209V4.6669V4.62199V4.57737V4.53307C8.38094 3.98087 8.82857 3.53335 9.38094 3.53335H9.80951C10.3619 3.53335 10.8095 3.98087 10.8095 4.53307V4.53583V4.53859V4.54135V4.54411V4.54688V4.54964V4.55241V4.55518V4.55795V4.56072V4.56349V4.56626V4.56904V4.57182V4.57459V4.57737V4.58015V4.58293V4.58571V4.5885V4.59128V4.59407V4.59685V4.59964V4.60243V4.60522V4.60801V4.61081V4.6136V4.6164V4.61919V4.62199V4.62479V4.62759V4.63039V4.63319V4.636V4.6388V4.64161V4.64441V4.64722V4.65003V4.65284V4.65565V4.65846V4.66127V4.66409V4.6669V4.66972V4.67254V4.67536V4.67818V4.681V4.68382V4.68664V4.68946V4.69229V4.69512V4.69794V4.70077V4.7036V4.70643V4.70926V4.71209V4.71492V4.71776V4.72059V4.72343V4.72626V4.7291V4.73194V4.73478V4.73762V4.74046V4.7433V4.74615V4.74899V4.75184V4.75468V4.75753V4.76038V4.76322V4.76607V4.76892V4.77178V4.77463V4.77748V4.78033V4.78319V4.78604V4.7889V4.79176V4.79462V4.79748V4.80033V4.8032V4.80606V4.80892V4.81178V4.81465V4.81751V4.82038V4.82324V4.82611V4.82898V4.83184V4.83471V4.83758V4.84045V4.84332V4.8462V4.84907V4.85194V4.85482V4.85769V4.86057V4.86344V4.86632V4.8692V4.87208V4.87496V4.87784V4.88072V4.8836V4.88648V4.88936V4.89225V4.89513V4.89801V4.9009V4.90379V4.90667V4.90956V4.91245V4.91533V4.91822V4.92111V4.924V4.92689V4.92978V4.93268V4.93557V4.93846V4.94136V4.94425V4.94714V4.95004V4.95293V4.95583V4.95873V4.96162V4.96452V4.96742V4.97032V4.97322V4.97612V4.97902V4.98192V4.98482V4.98772V4.99062V4.99353V4.99643V4.99933V5.00224V5.00514V5.00805V5.01095V5.01386V5.01677V5.01967V5.02258V5.02549V5.02839V5.0313V5.03421V5.03712V5.04003V5.04294V5.04585V5.04876V5.05167V5.05458V5.05749V5.06041V5.06332V5.06623V5.06914V5.07206V5.07497V5.07788V5.0808V5.08371V5.08663V5.08954V5.09246V5.09537V5.09829V5.10121V5.10412V5.10704V5.10996V5.11287V5.11579V5.11871V5.12163V5.12455V5.12746V5.13038V5.1333V5.13622V5.13914V5.14206V5.14498V5.1479V5.15082V5.15374V5.15666V5.15958V5.1625V5.16542V5.16834V5.17126V5.17419V5.17711V5.18003V5.18295V5.18587V5.18879V5.19172V5.19464V5.19756V5.20048V5.2034V5.20633V5.20925V5.21217V5.2151V5.21802V5.22094V5.22386V5.22679V5.22971V5.23263V5.23556V5.23848V5.2414V5.24432V5.24725V5.25017V5.25309V5.25602V5.25894V5.26186V5.26479V5.26771V5.27063V5.27355V5.27648V5.2794V5.28232V5.28525V5.28817V5.29109V5.29401V5.29694V5.29986V5.30278V5.3057V5.30862V5.31155V5.31447V5.31739V5.32031V5.32323V5.32615V5.32907V5.332V5.33492V5.33784V5.34076V5.34368V5.3466V5.34952V5.35244V5.35536V5.35828V5.3612V5.36411V5.36703V5.36995V5.37287V5.37579V5.37871V5.38162V5.38454V5.38746V5.39038V5.39329V5.39621V5.39912V5.40204V5.40496V5.40787V5.41079V5.4137V5.41662V5.41953V5.42244V5.42536V5.42827V5.43118V5.4341V5.43701V5.43992V5.44283V5.44574V5.44865V5.45156V5.45447V5.45738V5.46029V5.4632V5.46611V5.46902V5.47192V5.47483V5.47774V5.48065V5.48355V5.48646V5.48936V5.49227V5.49517V5.49807V5.50098V5.50388V5.50678V5.50969V5.51259V5.51549V5.51839V5.52129V5.52419V5.52709V5.52999V5.53288V5.53578V5.53868V5.54157V5.54447V5.54737V5.55026V5.55316V5.55605V5.55894V5.56184V5.56473V5.56762V5.57051V5.5734V5.57629V5.57918V5.58207V5.58495V5.58784V5.59073V5.59362V5.5965V5.59939V5.60227V5.60515V5.60804V5.61092V5.6138V5.61668V5.61956V5.62244V5.62532V5.6282V5.63107V5.63395V5.63683V5.6397V5.64258V5.64545V5.64832V5.6512V5.65407V5.65694V5.65981V5.66268V5.66555V5.66842V5.67128V5.67415V5.67702V5.67988V5.68274V5.68561V5.68847V5.69133V5.69419V5.69705V5.69991V5.70277V5.70563V5.70849V5.71134V5.7142V5.71705V5.7199V5.72276V5.72561V5.72846V5.73131V5.73416V5.73701V5.73985V5.7427V5.74555V5.74839V5.75123V5.75408V5.75692V5.75976V5.7626V5.76544V5.76828V5.77111V5.77395V5.77678V5.77962V5.78245V5.78528V5.78812V5.79095V5.79378V5.7966V5.79943V5.80226V5.80508V5.80791V5.81073V5.81355V5.81637V5.81919V5.82201V5.82483V5.82765V5.83046V5.83328V5.83609V5.8389V5.84172V5.84453V5.84734V5.85014V5.85295V5.85576V5.85856V5.86137V5.86417V5.86697V5.86977V5.87257V5.87537V5.87817V5.88096V5.88376V5.88655V5.88934V5.89213V5.89492V5.89771V5.9005V5.90329V5.90607V5.90885V5.91164V5.91442V5.9172V5.91998V5.92276V5.92553V5.92831V5.93108V5.93386V5.93663V5.9394V5.94217V5.94493V5.9477V5.95047V5.95323V5.95599V5.95875V5.96151V5.96427V5.96703V5.96979V5.97254V5.97529V5.97805V5.9808V5.98355V5.98629V5.98904V5.99179V5.99453V5.99727V6.00001C10.8095 6.90589 10.4614 7.53129 10.1163 7.9327C9.94246 8.13486 9.76884 8.28055 9.6401 8.37483C9.62442 8.38631 9.60943 8.39701 9.59523 8.40694C9.58102 8.39701 9.56604 8.38631 9.55035 8.37483C9.42161 8.28055 9.24799 8.13486 9.07417 7.9327C8.72905 7.53129 8.38094 6.90589 8.38094 6.00001ZM9.4409 8.50456L9.44092 8.50455L9.4409 8.50456Z" stroke="white" stroke-width="0.666667"/>
<mask id="mask2" mask-type="alpha" maskUnits="userSpaceOnUse" x="8" y="3" width="4" height="6">
<path d="M8.38094 6.00001V5.91164V5.86697V5.82201V5.77678V5.73131V5.68561V5.6397V5.59362V5.54737V5.50098V5.45447V5.40787V5.3612V5.31447V5.26771V5.24432V5.2414V5.23848V5.23556V5.23263V5.22971V5.22679V5.22386V5.22094V5.21802V5.2151V5.21217V5.20925V5.20633V5.2034V5.20048V5.19756V5.19464V5.19172V5.18879V5.18587V5.18295V5.18003V5.17711V5.17419V5.17126V5.16834V5.16542V5.1625V5.15958V5.15666V5.15374V5.15082V5.1479V5.14498V5.14206V5.13914V5.13622V5.1333V5.13038V5.12746V5.12455V5.12163V5.11871V5.11579V5.11287V5.10996V5.10704V5.10412V5.10121V5.09829V5.09537V5.09246V5.08954V5.08663V5.08371V5.0808V5.07788V5.07497V5.07206V5.06914V5.06623V5.06332V5.06041V5.05749V5.05458V5.05167V5.04876V5.04585V5.04294V5.04003V5.03712V5.03421V5.0313V5.02839V5.02549V5.02258V5.01967V5.01677V5.01386V5.01095V5.00805V5.00514V5.00224V4.99933V4.99643V4.99353V4.99062V4.98772V4.98482V4.98192V4.97902V4.97612V4.97322V4.97032V4.96742V4.96452V4.96162V4.95873V4.95583V4.95293V4.95004V4.94714V4.94425V4.94136V4.93846V4.93557V4.93268V4.92978V4.92689V4.924V4.92111V4.91822V4.91533V4.91245V4.90956V4.90667V4.90379V4.9009V4.89801V4.89513V4.89225V4.88936V4.88648V4.8836V4.88072V4.87784V4.87496V4.87208V4.8692V4.86632V4.86344V4.86057V4.85769V4.85482V4.85194V4.84907V4.8462V4.84332V4.84045V4.83758V4.83471V4.83184V4.82898V4.82611V4.82324V4.82038V4.81751V4.81465V4.81178V4.80892V4.80606V4.8032V4.80033V4.79748V4.79462V4.79176V4.7889V4.78604V4.78319V4.78033V4.77748V4.77463V4.77178V4.76892V4.76607V4.76322V4.76038V4.75753V4.75468V4.75184V4.74899V4.74615V4.7433V4.74046V4.73478V4.71209V4.6669V4.62199V4.57737V4.53307C8.38094 3.98087 8.82857 3.53335 9.38094 3.53335H9.80951C10.3619 3.53335 10.8095 3.98087 10.8095 4.53307V4.53583V4.53859V4.54135V4.54411V4.54688V4.54964V4.55241V4.55518V4.55795V4.56072V4.56349V4.56626V4.56904V4.57182V4.57459V4.57737V4.58015V4.58293V4.58571V4.5885V4.59128V4.59407V4.59685V4.59964V4.60243V4.60522V4.60801V4.61081V4.6136V4.6164V4.61919V4.62199V4.62479V4.62759V4.63039V4.63319V4.636V4.6388V4.64161V4.64441V4.64722V4.65003V4.65284V4.65565V4.65846V4.66127V4.66409V4.6669V4.66972V4.67254V4.67536V4.67818V4.681V4.68382V4.68664V4.68946V4.69229V4.69512V4.69794V4.70077V4.7036V4.70643V4.70926V4.71209V4.71492V4.71776V4.72059V4.72343V4.72626V4.7291V4.73194V4.73478V4.73762V4.74046V4.7433V4.74615V4.74899V4.75184V4.75468V4.75753V4.76038V4.76322V4.76607V4.76892V4.77178V4.77463V4.77748V4.78033V4.78319V4.78604V4.7889V4.79176V4.79462V4.79748V4.80033V4.8032V4.80606V4.80892V4.81178V4.81465V4.81751V4.82038V4.82324V4.82611V4.82898V4.83184V4.83471V4.83758V4.84045V4.84332V4.8462V4.84907V4.85194V4.85482V4.85769V4.86057V4.86344V4.86632V4.8692V4.87208V4.87496V4.87784V4.88072V4.8836V4.88648V4.88936V4.89225V4.89513V4.89801V4.9009V4.90379V4.90667V4.90956V4.91245V4.91533V4.91822V4.92111V4.924V4.92689V4.92978V4.93268V4.93557V4.93846V4.94136V4.94425V4.94714V4.95004V4.95293V4.95583V4.95873V4.96162V4.96452V4.96742V4.97032V4.97322V4.97612V4.97902V4.98192V4.98482V4.98772V4.99062V4.99353V4.99643V4.99933V5.00224V5.00514V5.00805V5.01095V5.01386V5.01677V5.01967V5.02258V5.02549V5.02839V5.0313V5.03421V5.03712V5.04003V5.04294V5.04585V5.04876V5.05167V5.05458V5.05749V5.06041V5.06332V5.06623V5.06914V5.07206V5.07497V5.07788V5.0808V5.08371V5.08663V5.08954V5.09246V5.09537V5.09829V5.10121V5.10412V5.10704V5.10996V5.11287V5.11579V5.11871V5.12163V5.12455V5.12746V5.13038V5.1333V5.13622V5.13914V5.14206V5.14498V5.1479V5.15082V5.15374V5.15666V5.15958V5.1625V5.16542V5.16834V5.17126V5.17419V5.17711V5.18003V5.18295V5.18587V5.18879V5.19172V5.19464V5.19756V5.20048V5.2034V5.20633V5.20925V5.21217V5.2151V5.21802V5.22094V5.22386V5.22679V5.22971V5.23263V5.23556V5.23848V5.2414V5.24432V5.24725V5.25017V5.25309V5.25602V5.25894V5.26186V5.26479V5.26771V5.27063V5.27355V5.27648V5.2794V5.28232V5.28525V5.28817V5.29109V5.29401V5.29694V5.29986V5.30278V5.3057V5.30862V5.31155V5.31447V5.31739V5.32031V5.32323V5.32615V5.32907V5.332V5.33492V5.33784V5.34076V5.34368V5.3466V5.34952V5.35244V5.35536V5.35828V5.3612V5.36411V5.36703V5.36995V5.37287V5.37579V5.37871V5.38162V5.38454V5.38746V5.39038V5.39329V5.39621V5.39912V5.40204V5.40496V5.40787V5.41079V5.4137V5.41662V5.41953V5.42244V5.42536V5.42827V5.43118V5.4341V5.43701V5.43992V5.44283V5.44574V5.44865V5.45156V5.45447V5.45738V5.46029V5.4632V5.46611V5.46902V5.47192V5.47483V5.47774V5.48065V5.48355V5.48646V5.48936V5.49227V5.49517V5.49807V5.50098V5.50388V5.50678V5.50969V5.51259V5.51549V5.51839V5.52129V5.52419V5.52709V5.52999V5.53288V5.53578V5.53868V5.54157V5.54447V5.54737V5.55026V5.55316V5.55605V5.55894V5.56184V5.56473V5.56762V5.57051V5.5734V5.57629V5.57918V5.58207V5.58495V5.58784V5.59073V5.59362V5.5965V5.59939V5.60227V5.60515V5.60804V5.61092V5.6138V5.61668V5.61956V5.62244V5.62532V5.6282V5.63107V5.63395V5.63683V5.6397V5.64258V5.64545V5.64832V5.6512V5.65407V5.65694V5.65981V5.66268V5.66555V5.66842V5.67128V5.67415V5.67702V5.67988V5.68274V5.68561V5.68847V5.69133V5.69419V5.69705V5.69991V5.70277V5.70563V5.70849V5.71134V5.7142V5.71705V5.7199V5.72276V5.72561V5.72846V5.73131V5.73416V5.73701V5.73985V5.7427V5.74555V5.74839V5.75123V5.75408V5.75692V5.75976V5.7626V5.76544V5.76828V5.77111V5.77395V5.77678V5.77962V5.78245V5.78528V5.78812V5.79095V5.79378V5.7966V5.79943V5.80226V5.80508V5.80791V5.81073V5.81355V5.81637V5.81919V5.82201V5.82483V5.82765V5.83046V5.83328V5.83609V5.8389V5.84172V5.84453V5.84734V5.85014V5.85295V5.85576V5.85856V5.86137V5.86417V5.86697V5.86977V5.87257V5.87537V5.87817V5.88096V5.88376V5.88655V5.88934V5.89213V5.89492V5.89771V5.9005V5.90329V5.90607V5.90885V5.91164V5.91442V5.9172V5.91998V5.92276V5.92553V5.92831V5.93108V5.93386V5.93663V5.9394V5.94217V5.94493V5.9477V5.95047V5.95323V5.95599V5.95875V5.96151V5.96427V5.96703V5.96979V5.97254V5.97529V5.97805V5.9808V5.98355V5.98629V5.98904V5.99179V5.99453V5.99727V6.00001C10.8095 6.90589 10.4614 7.53129 10.1163 7.9327C9.94246 8.13486 9.76884 8.28055 9.6401 8.37483C9.62442 8.38631 9.60943 8.39701 9.59523 8.40694C9.58102 8.39701 9.56604 8.38631 9.55035 8.37483C9.42161 8.28055 9.24799 8.13486 9.07417 7.9327C8.72905 7.53129 8.38094 6.90589 8.38094 6.00001ZM9.4409 8.50456L9.44092 8.50455L9.4409 8.50456Z" fill="white" stroke="white" stroke-width="0.666667"/>
</mask>
<g mask="url(#mask2)">
</g>
<path d="M0 -0.333333H-0.75L-0.247423 0.223368L1.83333 2.5282V3.05406L-0.226093 4.95507L-0.333333 5.05406V5.2V5.6V6.29771L0.209446 5.85931L2.59399 3.93333H2.96491L5.00214 5.81385C5.08536 5.89067 5.19447 5.93333 5.30773 5.93333C5.69811 5.93333 5.90374 5.47067 5.64214 5.1809L3.7381 3.07179V2.54594L5.69028 0.743925C5.827 0.617721 5.90476 0.440121 5.90476 0.254056V0V-0.697712L5.36198 -0.259314L2.97744 1.66667H2.60652L0.535617 -0.244934L0.439852 -0.333333H0.309524H0Z" fill="#DB1E36" stroke="white" stroke-width="0.666667"/>
<path fill-rule="evenodd" clip-rule="evenodd" d="M0 2V3.6H2.16667V5.38095C2.16667 5.72284 2.44382 6 2.78571 6V6C3.1276 6 3.40476 5.72284 3.40476 5.38095V3.6H5.21429C5.58247 3.6 5.88095 3.30152 5.88095 2.93333V2.66667C5.88095 2.29848 5.58248 2 5.21429 2H3.40476V0H2.16667V2H0Z" fill="white"/>
<path fill-rule="evenodd" clip-rule="evenodd" d="M0 2.4H2.47619V2V0H3.09524V2V2.4H5.57143V3.2H3.09524V3.6V5.6H2.47619V3.6V3.2H0V2.4Z" fill="#DB1E36"/>
</g>
</svg>
