<svg width="13" height="12" fill="none" xmlns="http://www.w3.org/2000/svg"><rect width="13" height="12" rx="2" fill="#fff"/><mask id="a" maskUnits="userSpaceOnUse" x="0" y="0" width="13" height="12"><rect width="13" height="12" rx="2" fill="#fff"/></mask><g mask="url(#a)"><path fill="#E42235" d="M0 0h13v12H0z"/><path fill="#079B77" d="M1.238 1.6h10.524v8.8H1.238z"/><mask id="b" maskUnits="userSpaceOnUse" x="1" y="1" width="11" height="10"><path fill="#fff" d="M1.238 1.6h10.524v8.8H1.238z"/></mask><g mask="url(#b)" fill-rule="evenodd" clip-rule="evenodd"><path d="M2.04 6.079c.175.363.427.602.661.663.13.034-.107-.73-.004-.814.088-.07.51.565.547.432.085-.305.035-.737-.154-1.129-.272-.562-.283-.19-1.017-.594.077.576-.305.88-.033 1.442z" fill="#FFD938"/><path d="M6.5 6l5.262-4.4H1.238L6.5 6zm0 0l5.262 4.4H1.238L6.5 6z" fill="#FFD93B"/><path d="M6.5 8c.855 0 1.548-.895 1.548-2S7.355 4 6.5 4c-.855 0-1.548.895-1.548 2S5.645 8 6.5 8z" fill="url(#paint0_linear)"/><path d="M6.5 6.617l-.728.677.274-1.103-.723-.685.896-.005L6.5 4.4l.28 1.1.898.006-.724.685.274 1.103-.728-.677z" fill="#FFD938"/></g></g><defs><linearGradient id="paint0_linear" x1="4.952" y1="4" x2="4.952" y2="8" gradientUnits="userSpaceOnUse"><stop stop-color="#E21C30"/><stop offset="1" stop-color="#CE1225"/></linearGradient></defs></svg>