<svg width="13" height="12" fill="none" xmlns="http://www.w3.org/2000/svg"><rect x=".25" y=".25" width="12.5" height="11.5" rx="1.75" fill="#fff" stroke="#F5F5F5" stroke-width=".5"/><mask id="a" maskUnits="userSpaceOnUse" x="0" y="0" width="13" height="12"><rect x=".25" y=".25" width="12.5" height="11.5" rx="1.75" fill="#fff" stroke="#fff" stroke-width=".5"/></mask><g mask="url(#a)" fill-rule="evenodd" clip-rule="evenodd"><path d="M7.429 12.8H5.57V7.2H-.62V4.8h6.19V-.8h1.86v5.6h6.19v2.4H7.43v5.6z" fill="#FF2B37"/><path d="M10.029 2.64l-.743.16V2l.743.16-.124-.96h.619l-.124.96.743-.16v.8l-.743-.16.124.96h-.62l.125-.96zm-7.429 0l-.743.16V2l.743.16-.124-.96h.62l-.125.96.743-.16v.8l-.743-.16.124.96h-.619l.124-.96zm0 7.2l-.743.16v-.8l.743.16-.124-.96h.62l-.125.96.743-.16v.8l-.743-.16.124.96h-.619l.124-.96zm7.429 0l-.743.16v-.8l.743.16-.124-.96h.619l-.124.96.743-.16v.8l-.743-.16.124.96h-.62l.125-.96z" fill="#FD0D1B"/></g></svg>