<svg width="13" height="12" fill="none" xmlns="http://www.w3.org/2000/svg"><rect x=".25" y=".25" width="12.5" height="11.5" rx="1.75" fill="#fff" stroke="#F5F5F5" stroke-width=".5"/><mask id="a" maskUnits="userSpaceOnUse" x="0" y="0" width="13" height="12"><rect x=".25" y=".25" width="12.5" height="11.5" rx="1.75" fill="#fff" stroke="#fff" stroke-width=".5"/></mask><g mask="url(#a)" fill-rule="evenodd" clip-rule="evenodd"><path d="M0 12h13V8H0v4zm4.333-4h3.715V4.8H4.333V8z" fill="#E34F4F"/><path d="M4.952 8h.62v-.8h-.62V8zM6.81 8h.619v-.8h-.62V8zM4.333 4.8h.62V4h-.62v.8zm1.857 0h.62V4h-.62v.8z" fill="#181A1A"/><path d="M5.571 4.8h.62V4h-.62v.8zm1.858 0h.619V4h-.62v.8z" fill="#181A1A"/><path d="M4.333 4h.62v-.8h-.62V4zM6.19 4h.62v-.8h-.62V4z" fill="#E34F4F"/><path d="M5.571 4h.62v-.8h-.62V4zm1.858 0h.619v-.8h-.62V4z" fill="#E34F4F"/></g></svg>