<svg width="13" height="12" fill="none" xmlns="http://www.w3.org/2000/svg"><rect width="13" height="12" rx="2" fill="#fff"/><mask id="a" maskUnits="userSpaceOnUse" x="0" y="0" width="13" height="12"><rect width="13" height="12" rx="2" fill="#fff"/></mask><g mask="url(#a)"><path fill-rule="evenodd" clip-rule="evenodd" d="M0 5.6h13V0H0v5.6z" fill="#112EBC"/><path fill-rule="evenodd" clip-rule="evenodd" d="M0 12h13V5.6H0V12z" fill="#E3264A"/><rect x="4.333" y="4" width="4.333" height="4.8" rx=".667" fill="url(#paint0_linear)"/><mask id="b" maskUnits="userSpaceOnUse" x="4" y="4" width="5" height="5"><rect x="4.333" y="4" width="4.333" height="4.8" rx=".667" fill="#fff"/></mask><g mask="url(#b)"><path d="M4.667 8.467V8.18l.425-.274a2.333 2.333 0 011.266-.374h.284c.45 0 .889.13 1.266.374l.425.274v.286H4.667z" fill="#AABCAE" stroke="#366C14" stroke-width=".667"/><path fill-rule="evenodd" clip-rule="evenodd" d="M6.5 7.2c.513 0 .929-.537.929-1.2 0-.663-.416-1.2-.929-1.2-.513 0-.929.537-.929 1.2 0 .663.416 1.2.929 1.2z" fill="#D4B872"/><path d="M5.703 7.255l.1.105a.968.968 0 001.393 0l.101-.105a.243.243 0 11.175.412H5.527a.243.243 0 11.175-.412z" fill="#C28321" stroke="#0D3488" stroke-width=".667"/><path fill-rule="evenodd" clip-rule="evenodd" d="M5.987 5.337a.333.333 0 01.264-.537h.498c.277 0 .433.318.264.537l-.25.322a.333.333 0 01-.527 0l-.249-.322z" fill="#216C30"/></g></g><defs><linearGradient id="paint0_linear" x1="4.333" y1="4" x2="4.333" y2="8.8" gradientUnits="userSpaceOnUse"><stop stop-color="#fff"/><stop offset="1" stop-color="#F0F0F0"/></linearGradient></defs></svg>