<svg width="13" height="12" fill="none" xmlns="http://www.w3.org/2000/svg"><rect x=".25" y=".25" width="12.5" height="11.5" rx="1.75" fill="#fff" stroke="#F5F5F5" stroke-width=".5"/><mask id="a" maskUnits="userSpaceOnUse" x="0" y="0" width="13" height="12"><rect x=".25" y=".25" width="12.5" height="11.5" rx="1.75" fill="#fff" stroke="#fff" stroke-width=".5"/></mask><g mask="url(#a)" fill-rule="evenodd" clip-rule="evenodd"><path d="M0 4h13V0H0v4z" fill="#DF1E35"/><path d="M0 12h13V8H0v4z" fill="#262626"/><path d="M8.667 5.369a.31.31 0 01.619 0V6.89a.31.31 0 11-.619 0V5.37zm-3.715 0a.31.31 0 11.619 0V6.89a.31.31 0 11-.619 0V5.37zm2.477 0a.31.31 0 01.619 0V6.89a.31.31 0 11-.619 0V5.368z" fill="#0F7A40"/><path d="M6.19 6.169a.31.31 0 11.619 0v.267h.93V7.2H6.523a.333.333 0 01-.334-.333v-.698zm-2.476 0a.31.31 0 11.62 0v.267h.928V7.2H4.048a.333.333 0 01-.334-.333v-.698z" fill="#0F7A40"/></g></svg>