<svg width="13" height="12" fill="none" xmlns="http://www.w3.org/2000/svg"><rect x=".25" y=".25" width="12.5" height="11.5" rx="1.75" fill="#fff" stroke="#F5F5F5" stroke-width=".5"/><mask id="a" maskUnits="userSpaceOnUse" x="0" y="0" width="13" height="12"><rect x=".25" y=".25" width="12.5" height="11.5" rx="1.75" fill="#fff" stroke="#fff" stroke-width=".5"/></mask><g mask="url(#a)"><path fill="#E3243B" d="M-2.93-1.55l.71-1.31 18.763 16.977-.71 1.311z"/><path fill="#E3243B" d="M16.542-1.55l-.71-1.31L-2.93 14.116l.71 1.311z"/><path fill-rule="evenodd" clip-rule="evenodd" d="M7.308 1.6h-.997l.04-.03-.458-.343.593.086L6.402.8l.408.427L7.217.8l-.084.513.593-.086-.458.342.04.031z" fill="#FAEF32"/><path fill-rule="evenodd" clip-rule="evenodd" d="M5.881 3.1v-.571a.929.929 0 111.857 0V3.1c0 1.071-.928 1.5-.928 1.5s-.929-.429-.929-1.5z" fill="#E3243B"/><mask id="b" maskUnits="userSpaceOnUse" x="5" y="1" width="3" height="4"><path fill-rule="evenodd" clip-rule="evenodd" d="M5.881 3.1v-.571a.929.929 0 111.857 0V3.1c0 1.071-.928 1.5-.928 1.5s-.929-.429-.929-1.5z" fill="#fff"/></mask><g mask="url(#b)" fill="#FAEF32"><rect x="6.655" y="4" width=".31" height=".4" rx=".155"/><rect x="6.191" y="3.2" width="1.238" height=".4" rx=".2"/><rect x="6.191" y="2.4" width="1.238" height=".4" rx=".2"/></g></g></svg>