<svg width="13" height="12" fill="none" xmlns="http://www.w3.org/2000/svg"><rect width="13" height="12" rx="2" fill="#fff"/><mask id="a" maskUnits="userSpaceOnUse" x="0" y="0" width="13" height="12"><rect width="13" height="12" rx="2" fill="#fff"/></mask><g mask="url(#a)"><path fill-rule="evenodd" clip-rule="evenodd" d="M0 3.2h13V0H0v3.2z" fill="#262626"/><path fill-rule="evenodd" clip-rule="evenodd" d="M0 12h13V8.8H0V12z" fill="#018301"/><path fill-rule="evenodd" clip-rule="evenodd" d="M0 8.8h13V3.2H0v5.6z" fill="#fff"/><path fill-rule="evenodd" clip-rule="evenodd" d="M0 8h13V4H0v4z" fill="#DC0808"/><path fill-rule="evenodd" clip-rule="evenodd" d="M6.5 10c.62 0 1.548-1.57 1.548-4 0-2.43-.929-4-1.548-4S4.952 3.57 4.952 6c0 2.43.929 4 1.548 4z" fill="#BC0000"/><mask id="b" maskUnits="userSpaceOnUse" x="4" y="2" width="5" height="8"><path fill-rule="evenodd" clip-rule="evenodd" d="M6.5 10c.62 0 1.548-1.57 1.548-4 0-2.43-.929-4-1.548-4S4.952 3.57 4.952 6c0 2.43.929 4 1.548 4z" fill="#fff"/></mask><g mask="url(#b)"><path fill-rule="evenodd" clip-rule="evenodd" d="M4.024 10.4c.855 0 1.547-1.97 1.547-4.4 0-2.43-.692-4.4-1.547-4.4S2.476 3.57 2.476 6c0 2.43.693 4.4 1.548 4.4zm4.952 0c.855 0 1.548-1.97 1.548-4.4 0-2.43-.693-4.4-1.548-4.4C8.121 1.6 7.43 3.57 7.43 6c0 2.43.692 4.4 1.547 4.4z" fill="#262626"/><g filter="url(#filter0_d)"><path fill-rule="evenodd" clip-rule="evenodd" d="M6.5 4.8c.171-.001.31-.717.31-1.6 0-.884-.139-1.6-.31-1.6-.17 0-.31.716-.31 1.6 0 .884.14 1.6.31 1.6zm.31 4c0 .884-.139 1.6-.31 1.6-.17 0-.31-.716-.31-1.6 0-.884.14-1.6.31-1.6.171 0 .31.716.31 1.6z" fill="url(#paint0_linear)"/></g></g></g><defs><linearGradient id="paint0_linear" x1="6.191" y1="1.6" x2="6.191" y2="10.4" gradientUnits="userSpaceOnUse"><stop stop-color="#fff"/><stop offset="1" stop-color="#F0F0F0"/></linearGradient><filter id="filter0_d" x="6.191" y="1.6" width=".619" height="9.8" filterUnits="userSpaceOnUse" color-interpolation-filters="sRGB"><feFlood flood-opacity="0" result="BackgroundImageFix"/><feColorMatrix in="SourceAlpha" values="0 0 0 0 0 0 0 0 0 0 0 0 0 0 0 0 0 0 127 0"/><feOffset dy="1"/><feColorMatrix values="0 0 0 0 0 0 0 0 0 0 0 0 0 0 0 0 0 0 0.06 0"/><feBlend in2="BackgroundImageFix" result="effect1_dropShadow"/><feBlend in="SourceGraphic" in2="effect1_dropShadow" result="shape"/></filter></defs></svg>