<svg width="13" height="12" viewBox="0 0 13 12" fill="none" xmlns="http://www.w3.org/2000/svg">
<rect x="0.25" y="0.25" width="12.5" height="11.5" rx="1.75" fill="white" stroke="#F5F5F5" stroke-width="0.5"/>
<mask id="mask0" mask-type="alpha" maskUnits="userSpaceOnUse" x="0" y="0" width="13" height="12">
<rect x="0.25" y="0.25" width="12.5" height="11.5" rx="1.75" fill="white" stroke="white" stroke-width="0.5"/>
</mask>
<g mask="url(#mask0)">
<path fill-rule="evenodd" clip-rule="evenodd" d="M0 3.2H13V0H0V3.2Z" fill="#FFCB49"/>
<path fill-rule="evenodd" clip-rule="evenodd" d="M0 8.80004H13V5.60004H0V8.80004Z" fill="#DC1D34"/>
<path fill-rule="evenodd" clip-rule="evenodd" d="M0 12H13V8.79999H0V12Z" fill="#4985D4"/>
<path fill-rule="evenodd" clip-rule="evenodd" d="M0 12L6.19048 6L0 0V12Z" fill="#4BA343"/>
<path fill-rule="evenodd" clip-rule="evenodd" d="M2.47616 8.39997C2.63648 8.39997 2.79205 8.37372 2.94045 8.32436C2.13945 8.05794 1.54759 7.11828 1.54759 5.99998C1.54759 4.88167 2.13945 3.94201 2.94045 3.67559C2.79205 3.62623 2.63648 3.59998 2.47616 3.59998C1.45049 3.59998 0.619019 4.67449 0.619019 5.99998C0.619019 7.32546 1.45049 8.39997 2.47616 8.39997ZM3.71424 4.39997C3.71424 4.62088 3.57566 4.79997 3.40471 4.79997C3.23377 4.79997 3.09519 4.62088 3.09519 4.39997C3.09519 4.17905 3.23377 3.99997 3.40471 3.99997C3.57566 3.99997 3.71424 4.17905 3.71424 4.39997ZM3.40471 6.39998C3.57566 6.39998 3.71424 6.2209 3.71424 5.99998C3.71424 5.77907 3.57566 5.59998 3.40471 5.59998C3.23377 5.59998 3.09519 5.77907 3.09519 5.99998C3.09519 6.2209 3.23377 6.39998 3.40471 6.39998ZM3.71424 7.59998C3.71424 7.82089 3.57566 7.99998 3.40471 7.99998C3.23377 7.99998 3.09519 7.82089 3.09519 7.59998C3.09519 7.37906 3.23377 7.19998 3.40471 7.19998C3.57566 7.19998 3.71424 7.37906 3.71424 7.59998Z" fill="white"/>
</g>
</svg>
