<svg width="13" height="12" fill="none" xmlns="http://www.w3.org/2000/svg"><rect width="13" height="12" rx="2" fill="#fff"/><mask id="a" maskUnits="userSpaceOnUse" x="0" y="0" width="13" height="12"><rect width="13" height="12" rx="2" fill="#fff"/></mask><g mask="url(#a)" fill-rule="evenodd" clip-rule="evenodd"><path d="M0 8l13-8H0v8z" fill="#1EC160"/><path d="M0 12h13V4L0 12z" fill="#DF2A40"/><path d="M.364 15.2L15.588 2.906 12.636-3.2-2.588 9.094.364 15.2z" fill="#FFD956"/><path d="M-.292 13.843L14.932 1.55l-1.64-3.392L-1.932 10.45l1.64 3.392z" fill="#262626"/><path d="M9.43 4.678l-.44.899-.284-.997-.797-.262.645-.658-.053-1.06.684.59.763-.393-.223 1.022.526.817-.822.042zm-4.953 3.88l-.439.899-.285-.997-.797-.262.646-.658-.054-1.06.684.59.764-.393-.223 1.022.526.817-.822.042z" fill="#fff"/></g></svg>