<svg width="13" height="12" viewBox="0 0 13 12" fill="none" xmlns="http://www.w3.org/2000/svg">
<rect width="13" height="12" rx="2" fill="white"/>
<mask id="mask0" mask-type="alpha" maskUnits="userSpaceOnUse" x="0" y="0" width="13" height="12">
<rect width="13" height="12" rx="2" fill="white"/>
</mask>
<g mask="url(#mask0)">
<rect width="13" height="12" fill="#07319C"/>
<path fill-rule="evenodd" clip-rule="evenodd" d="M9.59532 3.99999C10.1082 3.99999 10.5239 3.64182 10.5239 3.19999C10.5239 2.75817 10.1082 2.39999 9.59532 2.39999C9.08248 2.39999 8.66675 2.75817 8.66675 3.19999C8.66675 3.64182 9.08248 3.99999 9.59532 3.99999Z" fill="#FAD051"/>
<path fill-rule="evenodd" clip-rule="evenodd" d="M8.04761 5.99998C8.04761 4.79998 8.04761 3.19998 8.04761 3.19998H11.1428C11.1428 3.19998 11.1428 4.79998 11.1428 5.99998C11.1428 7.99998 9.59523 8.79998 9.59523 8.79998C9.59523 8.79998 8.04761 7.99998 8.04761 5.99998Z" fill="url(#paint0_linear)"/>
<mask id="mask1" mask-type="alpha" maskUnits="userSpaceOnUse" x="8" y="3" width="4" height="6">
<path fill-rule="evenodd" clip-rule="evenodd" d="M8.04761 5.99998C8.04761 4.79998 8.04761 3.19998 8.04761 3.19998H11.1428C11.1428 3.19998 11.1428 4.79998 11.1428 5.99998C11.1428 7.99998 9.59523 8.79998 9.59523 8.79998C9.59523 8.79998 8.04761 7.99998 8.04761 5.99998Z" fill="white"/>
</mask>
<g mask="url(#mask1)">
<path fill-rule="evenodd" clip-rule="evenodd" d="M8.04761 3.19998H11.1428V3.99998H9.90475H9.2857H8.04761V3.19998Z" fill="#CF142C"/>
<path fill-rule="evenodd" clip-rule="evenodd" d="M11.1428 4.79999H8.04761V5.59999H9.2857H9.90475H11.1428V4.79999ZM8.04761 6.39999H11.1428V7.19999H9.90475H9.2857H8.04761V6.39999ZM8.04761 7.99998H11.1428V8.79998H9.90475H9.2857H8.04761V7.99998Z" fill="#125FBA"/>
</g>
<path d="M0 -0.333333H-0.75L-0.247423 0.223368L1.83333 2.5282V3.05406L-0.226093 4.95507L-0.333333 5.05406V5.2V5.6V6.29771L0.209446 5.85931L2.59399 3.93333H2.96491L5.00214 5.81385C5.08536 5.89067 5.19447 5.93333 5.30773 5.93333C5.69811 5.93333 5.90374 5.47067 5.64214 5.1809L3.7381 3.07179V2.54594L5.69028 0.743925C5.827 0.617721 5.90476 0.440121 5.90476 0.254056V0V-0.697712L5.36198 -0.259314L2.97744 1.66667H2.60652L0.535617 -0.244934L0.439852 -0.333333H0.309524H0Z" fill="#DB1E36" stroke="white" stroke-width="0.666667"/>
<path fill-rule="evenodd" clip-rule="evenodd" d="M0 2V3.6H2.16667V5.38095C2.16667 5.72284 2.44382 6 2.78571 6V6C3.1276 6 3.40476 5.72284 3.40476 5.38095V3.6H5.21429C5.58247 3.6 5.88095 3.30152 5.88095 2.93333V2.66667C5.88095 2.29848 5.58248 2 5.21429 2H3.40476V0H2.16667V2H0Z" fill="white"/>
<path fill-rule="evenodd" clip-rule="evenodd" d="M0 2.4H2.47619V2V0H3.09524V2V2.4H5.57143V3.2H3.09524V3.6V5.6H2.47619V3.6V3.2H0V2.4Z" fill="#DB1E36"/>
</g>
<defs>
<linearGradient id="paint0_linear" x1="8.04761" y1="3.19998" x2="8.04761" y2="8.79998" gradientUnits="userSpaceOnUse">
<stop stop-color="white"/>
<stop offset="1" stop-color="#F0F0F0"/>
</linearGradient>
</defs>
</svg>
