<svg width="13" height="12" fill="none" xmlns="http://www.w3.org/2000/svg"><rect width="13" height="12" rx="2" fill="#fff"/><mask id="a" maskUnits="userSpaceOnUse" x="0" y="0" width="13" height="12"><rect width="13" height="12" rx="2" fill="#fff"/></mask><g mask="url(#a)"><path fill="#30C6E0" d="M0 0h13v12H0z"/><path fill-rule="evenodd" clip-rule="evenodd" d="M6.5 8.4c1.026 0 1.857-1.075 1.857-2.4S7.526 3.6 6.5 3.6 4.643 4.675 4.643 6 5.474 8.4 6.5 8.4z" fill="#FFCD4B"/><path fill-rule="evenodd" clip-rule="evenodd" d="M5.742 10.29L6.5 8.828l.758 1.462.192-1.742 1.173.892-.412-1.677 1.357.146-.934-1.28L9.904 6l-1.27-.63.934-1.28-1.357.147.412-1.677-1.173.892-.192-1.742L6.5 3.172 5.742 1.71 5.55 3.452 4.377 2.56l.412 1.677-1.357-.146.934 1.28L3.096 6l1.27.63-.934 1.28 1.357-.147-.412 1.677 1.173-.892.192 1.742zM8.667 6c0 1.546-.97 2.8-2.167 2.8-1.197 0-2.167-1.254-2.167-2.8 0-1.546.97-2.8 2.167-2.8 1.197 0 2.167 1.254 2.167 2.8zM.619 1.11a.31.31 0 01.62 0v.18a.31.31 0 11-.62 0v-.18zm0 1.6a.31.31 0 11.62 0v.18a.31.31 0 01-.62 0v-.18zM.929 4a.31.31 0 00-.31.31v.18a.31.31 0 10.62 0v-.18A.31.31 0 00.928 4zm-.31 1.91a.31.31 0 01.62 0v.18a.31.31 0 01-.62 0v-.18zm.31 1.29a.31.31 0 00-.31.31v.18a.31.31 0 00.62 0v-.18a.31.31 0 00-.31-.31zm-.31 1.91a.31.31 0 11.62 0v.18a.31.31 0 01-.62 0v-.18zm.31 1.29a.31.31 0 00-.31.31v.18a.31.31 0 00.62 0v-.18a.31.31 0 00-.31-.31zm.309-.49a.31.31 0 11.62 0v.18a.31.31 0 01-.62 0v-.18zM1.548 8a.31.31 0 00-.31.31v.18a.31.31 0 10.62 0v-.18a.31.31 0 00-.31-.31zm-.31-1.29a.31.31 0 11.62 0v.18a.31.31 0 01-.62 0v-.18zm.31-1.91a.31.31 0 00-.31.31v.18a.31.31 0 00.62 0v-.18a.31.31 0 00-.31-.31zm-.31-1.29a.31.31 0 01.62 0v.18a.31.31 0 11-.62 0v-.18zm.31-1.91a.31.31 0 00-.31.31v.18a.31.31 0 00.62 0v-.18a.31.31 0 00-.31-.31z" fill="#FFCD4B"/></g></svg>