<svg width="13" height="12" viewBox="0 0 13 12" fill="none" xmlns="http://www.w3.org/2000/svg">
<rect x="0.25" y="0.25" width="12.5" height="11.5" rx="1.75" fill="white" stroke="#F5F5F5" stroke-width="0.5"/>
<mask id="mask0" mask-type="alpha" maskUnits="userSpaceOnUse" x="0" y="0" width="13" height="12">
<rect x="0.25" y="0.25" width="12.5" height="11.5" rx="1.75" fill="white" stroke="white" stroke-width="0.5"/>
</mask>
<g mask="url(#mask0)">
<path fill-rule="evenodd" clip-rule="evenodd" d="M0 3.2H13V0H0V3.2Z" fill="#F03340"/>
<path fill-rule="evenodd" clip-rule="evenodd" d="M0 12H13V8.80002H0V12Z" fill="#F03340"/>
<path fill-rule="evenodd" clip-rule="evenodd" d="M6.0282 7.40967C6.12373 7.28621 6.12373 7.11379 6.0282 6.99033L5.99279 6.94457C5.92566 6.85782 5.81134 6.82248 5.70697 6.8562L5.68489 6.86333C5.42816 6.94628 5.23545 6.62561 5.42918 6.43784L5.59997 6.2723C5.70222 6.17319 5.63207 6 5.48967 6V6C5.33168 6 5.27095 5.79413 5.40365 5.70839L5.73914 5.49161C5.87184 5.40587 5.81111 5.2 5.65312 5.2V5.2C5.51072 5.2 5.44056 5.02681 5.54281 4.9277L6.15091 4.33832C6.34543 4.14978 6.6545 4.14978 6.84902 4.33832L7.45712 4.9277C7.55937 5.02681 7.48921 5.2 7.34681 5.2V5.2C7.18882 5.2 7.12809 5.40587 7.26079 5.49161L7.59628 5.70839C7.72898 5.79413 7.66825 6 7.51026 6V6C7.36786 6 7.29771 6.17319 7.39996 6.2723L7.57075 6.43784C7.76448 6.62561 7.57177 6.94628 7.31504 6.86333L7.29296 6.8562C7.18859 6.82248 7.07427 6.85782 7.00714 6.94457L6.97173 6.99033C6.8762 7.11379 6.8762 7.28621 6.97173 7.40967L6.97984 7.42014C7.16277 7.65655 6.99427 8 6.69535 8H6.30458C6.00566 8 5.83716 7.65655 6.02009 7.42014L6.0282 7.40967Z" fill="#1FC065"/>
</g>
</svg>
