<svg width="13" height="12" viewBox="0 0 13 12" fill="none" xmlns="http://www.w3.org/2000/svg">
<rect width="13" height="12" rx="2" fill="white"/>
<mask id="mask0" mask-type="alpha" maskUnits="userSpaceOnUse" x="0" y="0" width="13" height="12">
<rect width="13" height="12" rx="2" fill="white"/>
</mask>
<g mask="url(#mask0)">
<rect width="13" height="12" fill="#FFBF19"/>
<path fill-rule="evenodd" clip-rule="evenodd" d="M4.95239 0.799988H11.0476C11.784 0.799988 12.381 1.39694 12.381 2.13332V9.86665C12.381 10.603 11.784 11.2 11.0476 11.2H4.95239V0.799988Z" fill="#A52531"/>
<path d="M0.619019 2.13332C0.619019 1.39694 1.21597 0.799988 1.95235 0.799988H2.47616V11.2H1.95235C1.21597 11.2 0.619019 10.603 0.619019 9.86665V2.13332Z" fill="#03664F"/>
<rect x="2.4762" y="0.799988" width="1.85714" height="10.4" rx="0.666667" fill="#FF6816"/>
<path fill-rule="evenodd" clip-rule="evenodd" d="M6.19046 2.00001C6.19046 2.22092 6.05188 2.40001 5.88094 2.40001C5.70999 2.40001 5.57141 2.22092 5.57141 2.00001V1.60001H5.88094C6.05188 1.60001 6.19046 1.77909 6.19046 2.00001ZM11.1428 2.00001C11.1428 2.22092 11.2814 2.40001 11.4523 2.40001C11.6233 2.40001 11.7619 2.22092 11.7619 2.00001V1.60001H11.4523C11.2814 1.60001 11.1428 1.77909 11.1428 2.00001ZM11.4523 9.60001C11.2814 9.60001 11.1428 9.7791 11.1428 10C11.1428 10.2209 11.2814 10.4 11.4523 10.4H11.7619V10C11.7619 9.7791 11.6233 9.60001 11.4523 9.60001ZM6.19046 10C6.19046 9.7791 6.05188 9.60001 5.88094 9.60001C5.70999 9.60001 5.57141 9.7791 5.57141 10V10.4H5.88094C6.05188 10.4 6.19046 10.2209 6.19046 10Z" fill="#FFBF18"/>
<path fill-rule="evenodd" clip-rule="evenodd" d="M7.42861 7.4566C7.42861 7.31488 7.31373 7.19999 7.17201 7.19999V7.19999C7.1371 7.19999 7.10301 7.19312 7.07136 7.1784C6.88155 7.09012 6.19052 6.74506 6.19052 6.39999C6.19052 6.22328 6.25093 6.04656 6.31838 5.90433C6.41347 5.7038 6.45767 5.47404 6.39713 5.26052C6.2923 4.89085 6.15042 4.3109 6.19052 3.99999V3.99999C6.2499 3.53957 6.80957 3.77914 6.80957 4.24338V5.3257C6.80957 5.49671 6.89631 5.65604 7.03994 5.74885L7.23422 5.87439C7.34415 5.94542 7.49016 5.92046 7.57025 5.81695V5.81695C7.66057 5.70023 7.63169 5.53121 7.50772 5.45111L7.11909 5.19999V4.79999V4.79999C7.30111 4.79999 7.37107 4.56281 7.21819 4.46403L7.11909 4.39999V3.99999H7.48525C7.64476 3.99999 7.79528 3.92614 7.8929 3.79999V3.79999C7.99052 3.67384 8.14326 3.59999 8.30277 3.59999V3.59999C8.5202 3.59999 8.71843 3.73368 8.79689 3.93646L8.89896 4.20028C8.94921 4.33015 8.95753 4.4725 8.92275 4.60735L8.88161 4.76682C8.77278 5.18878 9.09139 5.59999 9.52715 5.59999H10.0572C10.1563 5.59999 10.2498 5.55411 10.3105 5.47573V5.47573C10.4253 5.32738 10.3886 5.11257 10.231 5.01077L10.0232 4.87652C9.94593 4.82657 9.85584 4.79999 9.7638 4.79999V4.79999C9.49978 4.79999 9.28576 4.58597 9.28576 4.32195V4.20375C9.28576 4.07166 9.32962 3.94331 9.41045 3.83885L9.59528 3.59999V4.09047C9.59528 4.26141 9.73386 4.39999 9.9048 4.39999V4.39999H10.067C10.3423 4.39999 10.5894 4.56929 10.6887 4.8261L10.7989 5.11083C10.8218 5.16997 10.8361 5.23185 10.8404 5.29511C10.8554 5.5153 10.885 6.06666 10.8334 6.39999C10.7951 6.64739 10.696 6.87857 10.6202 7.02816C10.562 7.14297 10.5239 7.26849 10.5239 7.39722V8.54826C10.5239 8.68729 10.4111 8.79999 10.2721 8.79999V8.79999C10.0952 8.79999 9.97352 8.62238 10.0373 8.45743L10.1935 8.05389C10.2069 8.01921 10.2069 7.98077 10.1935 7.9461L10.1838 7.92096C10.1261 7.77189 9.9048 7.8132 9.9048 7.97304V7.97304C9.9048 7.99086 9.90151 8.00851 9.89508 8.02513L9.66667 8.61549C9.62364 8.72669 9.51668 8.79999 9.39744 8.79999V8.79999C9.19462 8.79999 9.05503 8.59632 9.12822 8.40716L9.25064 8.09075C9.27385 8.03076 9.28576 7.967 9.28576 7.90268L9.28576 7.81904C9.28576 7.47715 9.0086 7.19999 8.66671 7.19999V7.19999C8.32482 7.19999 8.04766 7.47715 8.04766 7.81904V7.87552C8.04766 7.95779 8.03243 8.03935 8.00275 8.11608L7.80952 8.61549C7.7665 8.72669 7.65953 8.79999 7.5403 8.79999V8.79999C7.33747 8.79999 7.19789 8.59632 7.27108 8.40716L7.3935 8.09075C7.41671 8.03076 7.42861 7.967 7.42861 7.90268V7.4566Z" fill="#FFBF18"/>
</g>
</svg>
