<svg width="13" height="12" fill="none" xmlns="http://www.w3.org/2000/svg"><rect width="13" height="12" rx="2" fill="#fff"/><mask id="a" maskUnits="userSpaceOnUse" x="0" y="0" width="13" height="12"><rect width="13" height="12" rx="2" fill="#fff"/></mask><g mask="url(#a)" fill-rule="evenodd" clip-rule="evenodd"><path d="M4.333 12h4.334V0H4.333v12z" fill="#146BBC"/><path d="M0 12h4.333V0H0v12zm8.667 0H13V0H8.667v12z" fill="#E43642"/><path d="M2.167 6l.31.4h-.31c.17 0 .31.18.31.4 0 .22-.139.399-.309.4h.308l-.31.8-.309-.8v1.195c.002-.219.14-.395.31-.395.17 0 .31.18.31.4 0 .22-.14.4-.31.4-.17 0-.308-.177-.31-.395V8.8h.62l-.31.8-.31-.8v.8h-.619V7.2h.927c-.17-.001-.308-.18-.308-.4 0-.22.139-.4.31-.4h-.31l.31-.4zm.31 1.2h.618v2.4h-.619V7.2z" fill="url(#paint0_linear)"/></g><defs><linearGradient id="paint0_linear" x1="1.238" y1="6" x2="1.238" y2="9.6" gradientUnits="userSpaceOnUse"><stop stop-color="#F8D246"/><stop offset="1" stop-color="#F9CE2F"/></linearGradient></defs></svg>