<svg width="13" height="12" viewBox="0 0 13 12" fill="none" xmlns="http://www.w3.org/2000/svg">
<rect width="13" height="12" rx="2" fill="white"/>
<mask id="mask0" mask-type="alpha" maskUnits="userSpaceOnUse" x="0" y="0" width="13" height="12">
<rect width="13" height="12" rx="2" fill="white"/>
</mask>
<g mask="url(#mask0)">
<path fill-rule="evenodd" clip-rule="evenodd" d="M0 12H13V0H0V12Z" fill="#079D7B"/>
<path fill-rule="evenodd" clip-rule="evenodd" d="M7.37521 5.20001C7.37521 5.37513 7.36536 5.54498 7.34686 5.70685C7.39433 5.68799 7.4427 5.67001 7.49185 5.65298C8.31745 5.3671 9.05435 5.46143 9.13775 5.86367C9.21312 6.2272 8.72895 6.71781 8.02562 7.01991C7.90138 6.5437 7.26561 6.40001 6.5 6.40001C5.73354 6.40001 5.09722 6.54402 4.97397 7.02149C4.28017 6.71881 3.80468 6.23335 3.87943 5.87286C3.96283 5.47062 4.69972 5.37629 5.52532 5.66217C5.56867 5.67719 5.61141 5.69295 5.65345 5.70939C5.63477 5.54676 5.62481 5.37604 5.62481 5.20001C5.62481 4.09544 6.01665 3.20001 6.50001 3.20001C6.98337 3.20001 7.37521 4.09544 7.37521 5.20001ZM5.23207 7.12185C5.32066 7.15225 5.40819 7.17828 5.49398 7.20002H4.02383C4.09725 7.48484 4.19607 7.75321 4.31656 8.00002H8.68347C8.80396 7.75321 8.90278 7.48484 8.97621 7.20002H7.48597C7.57445 7.17875 7.66491 7.15288 7.75658 7.12231C7.65906 7.12649 7.54019 7.13714 7.4049 7.14925C7.15042 7.17203 6.83785 7.20001 6.5 7.20001C6.16215 7.20001 5.84958 7.17203 5.5951 7.14925C5.45452 7.13666 5.33167 7.12566 5.23207 7.12185ZM6.50002 9.60001C7.12529 9.60001 7.69951 9.30033 8.15044 8.80001H4.84959C5.30053 9.30033 5.87475 9.60001 6.50002 9.60001Z" fill="white"/>
<path fill-rule="evenodd" clip-rule="evenodd" d="M6.50002 2.40001C6.67097 2.40001 6.80954 2.22092 6.80954 2.00001C6.80954 1.77909 6.67097 1.60001 6.50002 1.60001C6.32907 1.60001 6.1905 1.77909 6.1905 2.00001C6.1905 2.22092 6.32907 2.40001 6.50002 2.40001ZM4.02382 4.4C4.19476 4.4 4.33334 4.22092 4.33334 4C4.33334 3.77909 4.19476 3.6 4.02382 3.6C3.85287 3.6 3.71429 3.77909 3.71429 4C3.71429 4.22092 3.85287 4.4 4.02382 4.4ZM9.28571 4C9.28571 4.22092 9.14713 4.4 8.97619 4.4C8.80524 4.4 8.66667 4.22092 8.66667 4C8.66667 3.77909 8.80524 3.6 8.97619 3.6C9.14713 3.6 9.28571 3.77909 9.28571 4ZM8.04762 3.2C8.21856 3.2 8.35714 3.02092 8.35714 2.8C8.35714 2.57909 8.21856 2.4 8.04762 2.4C7.87667 2.4 7.73809 2.57909 7.73809 2.8C7.73809 3.02092 7.87667 3.2 8.04762 3.2ZM5.26191 2.8C5.26191 3.02092 5.12333 3.2 4.95239 3.2C4.78144 3.2 4.64287 3.02092 4.64287 2.8C4.64287 2.57909 4.78144 2.4 4.95239 2.4C5.12333 2.4 5.26191 2.57909 5.26191 2.8Z" fill="#FCD117"/>
</g>
</svg>
