<svg width="13" height="12" fill="none" xmlns="http://www.w3.org/2000/svg"><rect width="13" height="12" rx="2" fill="#fff"/><mask id="a" maskUnits="userSpaceOnUse" x="0" y="0" width="13" height="12"><rect width="13" height="12" rx="2" fill="#fff"/></mask><g mask="url(#a)"><path fill="#108B4D" d="M0 0h13v12H0z"/><path fill-rule="evenodd" clip-rule="evenodd" d="M9.2 4.64c.022.184.033.374.033.566 0 1.988-1.247 3.6-2.785 3.6-1.539 0-2.786-1.612-2.786-3.6 0-.192.012-.382.034-.566.21 1.72 1.362 3.034 2.752 3.034 1.39 0 2.541-1.315 2.751-3.034zm-2.7.498l-.765.705.282-1.158-.755-.723.94-.01L6.5 2.8l.298 1.152.94.01-.755.723.282 1.158-.765-.705z" fill="#FFC941"/></g></svg>