<svg width="13" height="12" viewBox="0 0 13 12" fill="none" xmlns="http://www.w3.org/2000/svg">
<rect width="13" height="12" rx="2" fill="white"/>
<mask id="mask0" mask-type="alpha" maskUnits="userSpaceOnUse" x="0" y="0" width="13" height="12">
<rect width="13" height="12" rx="2" fill="white"/>
</mask>
<g mask="url(#mask0)">
<rect width="13" height="12" fill="#108B4D"/>
<path fill-rule="evenodd" clip-rule="evenodd" d="M9.19922 4.64001C9.22177 4.82447 9.23348 5.01359 9.23348 5.20625C9.23348 7.19447 7.98627 8.80625 6.44776 8.80625C4.90926 8.80625 3.66205 7.19447 3.66205 5.20625C3.66205 5.01359 3.67376 4.82447 3.69631 4.64001C3.90648 6.35923 5.05833 7.67378 6.44776 7.67378C7.83719 7.67378 8.98904 6.35923 9.19922 4.64001V4.64001ZM6.50004 5.13847L5.73485 5.8434L6.01718 4.68511L5.26194 3.96249L6.20162 3.95155L6.50004 2.80002L6.79846 3.95155L7.73813 3.96249L6.98289 4.68511L7.26522 5.8434L6.50004 5.13847V5.13847Z" fill="#FFC941"/>
</g>
</svg>
