<svg width="13" height="12" fill="none" xmlns="http://www.w3.org/2000/svg"><rect width="13" height="12" rx="2" fill="#fff"/><mask id="a" maskUnits="userSpaceOnUse" x="0" y="0" width="13" height="12"><rect width="13" height="12" rx="2" fill="#fff"/></mask><g mask="url(#a)"><path fill="#F32249" d="M0 0h13v12H0z"/><rect x="1.857" y="2.4" width="9.286" height="7.2" rx=".667" fill="#15A04F"/><path fill-rule="evenodd" clip-rule="evenodd" d="M7.583 8.736c-.15.042-.305.064-.464.064-1.197 0-2.167-1.254-2.167-2.8 0-1.546.97-2.8 2.167-2.8.16 0 .315.022.464.064C6.61 3.54 5.881 4.66 5.881 6c0 1.34.729 2.46 1.702 2.736z" fill="#fff"/></g></svg>