<svg width="13" height="12" viewBox="0 0 13 12" fill="none" xmlns="http://www.w3.org/2000/svg">
<rect x="0.25" y="0.25" width="12.5" height="11.5" rx="1.75" fill="white" stroke="#F5F5F5" stroke-width="0.5"/>
<mask id="mask0" mask-type="alpha" maskUnits="userSpaceOnUse" x="0" y="0" width="13" height="12">
<rect x="0.25" y="0.25" width="12.5" height="11.5" rx="1.75" fill="white" stroke="white" stroke-width="0.5"/>
</mask>
<g mask="url(#mask0)">
<rect x="8.66675" width="4.33333" height="12" fill="#E3283E"/>
<path fill-rule="evenodd" clip-rule="evenodd" d="M0 12H4.33333V0H0V12Z" fill="#128A60"/>
<path d="M5.92851 5.60001C5.92851 5.23182 5.63003 4.93334 5.26184 4.93334C4.89365 4.93334 4.59517 5.23182 4.59517 5.60001H5.92851ZM5.47952 7.51827C5.7741 7.73915 6.19196 7.67941 6.41284 7.38484C6.63373 7.09027 6.57399 6.67241 6.27942 6.45152L5.47952 7.51827ZM6.74137 6.43502C6.45757 6.66958 6.41766 7.0898 6.65223 7.3736C6.88679 7.6574 7.30701 7.69732 7.59081 7.46275L6.74137 6.43502ZM8.40467 5.60001C8.40467 5.23182 8.1062 4.93334 7.73801 4.93334C7.36982 4.93334 7.07134 5.23182 7.07134 5.60001H8.40467ZM4.59517 5.60001C4.59517 6.36393 4.91451 7.09459 5.47952 7.51827L6.27942 6.45152C6.10586 6.32138 5.92851 6.01902 5.92851 5.60001H4.59517ZM7.59081 7.46275C8.11088 7.03291 8.40467 6.33375 8.40467 5.60001H7.07134C7.07134 5.9997 6.90915 6.29635 6.74137 6.43502L7.59081 7.46275Z" fill="#8C9157"/>
<path fill-rule="evenodd" clip-rule="evenodd" d="M6.50003 6.4C6.84192 6.4 7.11908 5.86274 7.11908 5.2C7.11908 4.53726 6.84192 4 6.50003 4C6.15814 4 5.88098 4.53726 5.88098 5.2C5.88098 5.86274 6.15814 6.4 6.50003 6.4Z" fill="#C59262"/>
</g>
</svg>
