<svg width="13" height="12" fill="none" xmlns="http://www.w3.org/2000/svg"><rect width="13" height="12" rx="2" fill="#fff"/><mask id="a" maskUnits="userSpaceOnUse" x="0" y="0" width="13" height="12"><rect width="13" height="12" rx="2" fill="#fff"/></mask><g mask="url(#a)" fill-rule="evenodd" clip-rule="evenodd"><path d="M0 12h13V8.8H0V12z" fill="#FFE547"/><path d="M0 3.2h13V0H0v3.2z" fill="#118C81"/><path d="M0 8.8h13V3.2H0v5.6z" fill="#fff"/><path d="M0 8h13V4H0v4z" fill="#262626"/><path d="M0 0l6.19 6L0 12V0z" fill="#EF2147"/><path d="M2.167 6.764l-.91.854.347-1.382-.91-.854H1.82L2.167 4l.347 1.382H3.64l-.91.854.347 1.382-.91-.854z" fill="#FDE444"/></g></svg>