<svg width="13" height="12" viewBox="0 0 13 12" fill="none" xmlns="http://www.w3.org/2000/svg">
<rect width="13" height="12" rx="2" fill="white"/>
<mask id="mask0" mask-type="alpha" maskUnits="userSpaceOnUse" x="0" y="0" width="13" height="12">
<rect width="13" height="12" rx="2" fill="white"/>
</mask>
<g mask="url(#mask0)">
<rect width="13" height="12" fill="#0A17A7"/>
<path d="M0 -0.333333H-0.75L-0.247423 0.223368L1.83333 2.5282V3.05406L-0.226093 4.95507L-0.333333 5.05406V5.2V5.6V6.29771L0.209446 5.85931L2.59399 3.93333H2.96491L5.00214 5.81385C5.08536 5.89067 5.19447 5.93333 5.30773 5.93333C5.69811 5.93333 5.90374 5.47067 5.64214 5.1809L3.7381 3.07179V2.54594L5.69028 0.743925C5.827 0.617721 5.90476 0.440121 5.90476 0.254056V0V-0.697712L5.36198 -0.259314L2.97744 1.66667H2.60652L0.535617 -0.244934L0.439852 -0.333333H0.309524H0Z" fill="#FF2E3B" stroke="white" stroke-width="0.666667"/>
<path fill-rule="evenodd" clip-rule="evenodd" d="M0 2V3.6H2.16667V5.38095C2.16667 5.72284 2.44382 6 2.78571 6V6C3.1276 6 3.40476 5.72284 3.40476 5.38095V3.6H5.21429C5.58247 3.6 5.88095 3.30152 5.88095 2.93333V2.66667C5.88095 2.29848 5.58248 2 5.21429 2H3.40476V0H2.16667V2H0Z" fill="white"/>
<path fill-rule="evenodd" clip-rule="evenodd" d="M0 2.4H2.47619V2V0H3.09524V2V2.4H5.57143V3.2H3.09524V3.6V5.6H2.47619V3.6V3.2H0V2.4Z" fill="#FF2E3B"/>
<path fill-rule="evenodd" clip-rule="evenodd" d="M9.2858 10.4L8.84806 10.5657L8.97627 9.99998L8.84806 9.4343L9.2858 9.59998L9.72353 9.4343L9.59532 9.99998L9.72353 10.5657L9.2858 10.4Z" fill="#CA1931"/>
<path fill-rule="evenodd" clip-rule="evenodd" d="M9.2858 2.80001L8.84806 2.96569L8.97627 2.40001L8.84806 1.83432L9.2858 2.00001L9.72353 1.83432L9.59532 2.40001L9.72353 2.96569L9.2858 2.80001Z" fill="#CA1931"/>
<path fill-rule="evenodd" clip-rule="evenodd" d="M11.1429 5.2L10.7051 5.36568L10.8333 4.8L10.7051 4.23431L11.1429 4.4L11.5806 4.23431L11.4524 4.8L11.5806 5.36568L11.1429 5.2Z" fill="#CA1931"/>
<path fill-rule="evenodd" clip-rule="evenodd" d="M7.42862 5.99999L6.99089 6.16567L7.11909 5.59999L6.99089 5.0343L7.42862 5.19999L7.86635 5.0343L7.73814 5.59999L7.86635 6.16567L7.42862 5.99999Z" fill="#CA1931"/>
</g>
</svg>
