<svg width="13" height="12" fill="none" xmlns="http://www.w3.org/2000/svg"><rect x=".25" y=".25" width="12.5" height="11.5" rx="1.75" fill="#fff" stroke="#F5F5F5" stroke-width=".5"/><mask id="a" maskUnits="userSpaceOnUse" x="0" y="0" width="13" height="12"><rect x=".25" y=".25" width="12.5" height="11.5" rx="1.75" fill="#fff" stroke="#fff" stroke-width=".5"/></mask><g mask="url(#a)" fill-rule="evenodd" clip-rule="evenodd"><path d="M0 12h13V8H0v4z" fill="#138E16"/><path d="M0 12h4.333V8H13V4H4.333V0H0v12z" fill="#ED2B35"/><path d="M2.167 2.827l-.538 1.015.28-1.176-.95.09.886-.451-.646-.903.824.613L2.167.8l.143 1.215.825-.613-.646.903.885.451-.949-.09.279 1.176-.537-1.015z" fill="#fff"/></g></svg>