<svg width="13" height="12" fill="none" xmlns="http://www.w3.org/2000/svg"><rect x=".25" y=".25" width="12.5" height="11.5" rx="1.75" fill="#fff" stroke="#F5F5F5" stroke-width=".5"/><mask id="a" maskUnits="userSpaceOnUse" x="0" y="0" width="13" height="12"><rect x=".25" y=".25" width="12.5" height="11.5" rx="1.75" fill="#fff" stroke="#fff" stroke-width=".5"/></mask><g mask="url(#a)" fill-rule="evenodd" clip-rule="evenodd"><path d="M13 5.6H6.19V0H13v5.6z" fill="#E52448"/><path d="M6.19 12H0V5.6h6.19V12zM13 12V5.6 12zM3.095 3.456l-.727.638.244-1.091-.694-.697.879-.037.298-1.069.299 1.07.879.036-.695.697.245 1.091-.728-.638z" fill="#1367AE"/><path d="M9.595 9.456l-.727.638.245-1.091-.695-.697.879-.037.298-1.069.299 1.07.879.036-.695.697.245 1.091-.728-.638z" fill="#E52448"/></g></svg>