<svg width="13" height="12" viewBox="0 0 13 12" fill="none" xmlns="http://www.w3.org/2000/svg">
<rect x="0.25" y="0.25" width="12.5" height="11.5" rx="1.75" fill="white" stroke="#F5F5F5" stroke-width="0.5"/>
<mask id="mask0" mask-type="alpha" maskUnits="userSpaceOnUse" x="0" y="0" width="13" height="12">
<rect x="0.25" y="0.25" width="12.5" height="11.5" rx="1.75" fill="white" stroke="white" stroke-width="0.5"/>
</mask>
<g mask="url(#mask0)">
<path fill-rule="evenodd" clip-rule="evenodd" d="M0 3.2H13V0H0V3.2Z" fill="#D82332"/>
<path fill-rule="evenodd" clip-rule="evenodd" d="M0 12H13V8.8H0V12Z" fill="#D82332"/>
<path fill-rule="evenodd" clip-rule="evenodd" d="M6.067 6.45161L5.93494 6.61078C6.05432 6.65407 6.21994 6.60368 6.28588 6.45161H6.067" fill="#064A89"/>
<path fill-rule="evenodd" clip-rule="evenodd" d="M5.00146 6.56004C5.09083 6.67552 5.23886 6.66204 5.32823 6.58894C5.41765 6.51578 5.48334 6.51114 5.53905 6.51881C5.54495 6.58398 5.55812 6.66752 5.58072 6.7501H5.05055C5.03738 6.70778 5.01168 6.60914 5.00146 6.56004" fill="#064A89"/>
<path fill-rule="evenodd" clip-rule="evenodd" d="M5.09973 6.86868C5.20379 6.80513 5.31016 6.85552 5.35619 6.90133C5.44119 6.98604 5.58161 6.96307 5.65049 6.915C5.67677 6.97042 5.70871 7.02494 5.74723 7.06655H5.17996C5.15692 7.01849 5.1071 6.90036 5.09973 6.86868" fill="#064A89"/>
<path fill-rule="evenodd" clip-rule="evenodd" d="M7.567 7.39493C7.59191 7.36222 7.62561 7.30835 7.64762 7.2699C7.61097 7.26409 7.56838 7.22984 7.52308 7.20061C7.43951 7.14667 7.35967 7.14667 7.28858 7.21022C7.18309 7.30448 7.05118 7.32758 6.94859 7.23332C6.83603 7.12983 6.73173 7.15248 6.64378 7.21796C6.55584 7.28332 6.50017 7.28719 6.44741 7.28719C6.39464 7.28719 6.33898 7.28332 6.25103 7.21796C6.16309 7.15248 6.05878 7.12983 5.94622 7.23332C5.84364 7.32758 5.71172 7.30448 5.60624 7.21022C5.53515 7.14667 5.45531 7.14667 5.37174 7.20061C5.32639 7.22984 5.28384 7.26409 5.24719 7.2699C5.2692 7.30835 5.30291 7.36222 5.32782 7.39493H7.567" fill="#064A89"/>
<path fill-rule="evenodd" clip-rule="evenodd" d="M7.29236 7.71671C7.31579 7.69749 7.3803 7.634 7.41253 7.60129C7.37736 7.6109 7.29717 7.57716 7.25576 7.54929C7.13553 7.46845 7.05643 7.47619 6.96706 7.53774C6.87765 7.59936 6.75163 7.63207 6.65931 7.56665C6.56699 7.50123 6.50101 7.48387 6.45267 7.48387C6.40432 7.48387 6.33834 7.50123 6.24602 7.56665C6.1537 7.63207 6.02768 7.59936 5.93827 7.53774C5.8489 7.47619 5.7698 7.46845 5.64957 7.54929C5.60816 7.57716 5.52798 7.6109 5.4928 7.60129C5.52503 7.634 5.58954 7.69749 5.61297 7.71671H7.29236" fill="#064A89"/>
<path fill-rule="evenodd" clip-rule="evenodd" d="M6.7639 7.07704C6.73899 7.05975 6.70985 7.01942 6.68327 6.96768C6.64077 6.88491 6.57337 6.83871 6.47226 6.83871C6.37114 6.83871 6.30374 6.88491 6.26124 6.96768C6.23466 7.01942 6.20552 7.05975 6.18066 7.07704H6.7639" fill="#064A89"/>
<path fill-rule="evenodd" clip-rule="evenodd" d="M6.59763 6.77993C6.58737 6.75683 6.5654 6.68367 6.55808 6.64516C6.5346 6.65483 6.4892 6.65864 6.46282 6.65864C6.43643 6.65864 6.39104 6.65483 6.36755 6.64516C6.36023 6.68367 6.33827 6.75683 6.328 6.77993H6.59763" fill="#064A89"/>
<path fill-rule="evenodd" clip-rule="evenodd" d="M6.84168 6.45161L6.97374 6.61078C6.85436 6.65407 6.68874 6.60368 6.6228 6.45161H6.84168" fill="#064A89"/>
<path fill-rule="evenodd" clip-rule="evenodd" d="M7.93912 6.56004C7.84975 6.67552 7.70172 6.66204 7.61235 6.58894C7.52293 6.51578 7.45724 6.51114 7.40153 6.51881C7.39558 6.58398 7.38246 6.66752 7.35986 6.7501H7.89003C7.9032 6.70778 7.92885 6.60914 7.93912 6.56004" fill="#064A89"/>
<path fill-rule="evenodd" clip-rule="evenodd" d="M7.8599 6.86868C7.75584 6.80513 7.64947 6.85552 7.60343 6.90133C7.51844 6.98604 7.37802 6.96307 7.30914 6.915C7.28286 6.97042 7.25092 7.02494 7.2124 7.06655H7.77967C7.80271 7.01849 7.85258 6.90036 7.8599 6.86868" fill="#064A89"/>
<path fill-rule="evenodd" clip-rule="evenodd" d="M7.03803 7.84295C6.86032 7.93817 6.66586 7.99075 6.46207 7.99075C6.25808 7.99075 6.06372 7.93824 5.88586 7.84282C5.92394 7.83708 5.9744 7.81295 6.01508 7.7832C6.08106 7.73508 6.20119 7.72546 6.25837 7.77359C6.31551 7.82172 6.38439 7.86978 6.46207 7.86978C6.53975 7.86978 6.60863 7.82172 6.66577 7.77359C6.7229 7.72546 6.84308 7.73508 6.90906 7.7832C6.94969 7.81295 6.9999 7.8372 7.03803 7.84295" fill="#064A89"/>
<path fill-rule="evenodd" clip-rule="evenodd" d="M6.79028 4.03615C6.46936 3.94957 6.18066 3.99957 6.18066 4.39602C6.18066 4.78473 6.18066 5.36202 6.18066 5.48138C6.18066 5.60067 6.18248 5.61577 6.29057 5.6488C6.52502 5.72048 6.54698 5.7277 6.80197 5.8046V4.68854C6.6027 4.65964 6.5265 4.5128 6.5265 4.34215C6.5265 4.17667 6.61439 4.06886 6.79028 4.03615" fill="#514537"/>
<path fill-rule="evenodd" clip-rule="evenodd" d="M5.96785 7.0971C5.78907 7.0971 5.60148 6.8931 5.60148 6.50439C5.60148 6.11561 5.60148 5.62684 5.60148 5.53832C5.60148 5.45078 5.609 5.43845 5.59343 5.41807C5.58429 5.40607 5.6037 5.38826 5.61686 5.3709C5.63666 5.3449 5.65022 5.32329 5.6235 5.28813C5.59672 5.25303 5.60812 5.24387 5.62497 5.22181C5.64182 5.19961 5.6484 5.17755 5.63229 5.15632C5.61617 5.13516 5.61249 5.12845 5.63008 5.10536C5.64767 5.08226 5.64035 5.07265 5.62571 5.05336C5.61102 5.03413 5.60409 5.02019 5.62276 4.99568C5.64108 4.97161 5.64251 4.96774 5.66378 4.96774C5.68506 4.96774 5.73119 4.96774 5.75173 4.96774C5.77226 4.96774 5.77261 4.97594 5.75536 4.99858C5.73301 5.02787 5.72642 5.03942 5.75173 5.07265C5.77698 5.10581 5.7759 5.1169 5.75978 5.13807C5.73556 5.16981 5.72495 5.19148 5.74952 5.22374C5.77408 5.25594 5.77624 5.27039 5.75757 5.2949C5.7389 5.31942 5.73704 5.3411 5.75757 5.368C5.77334 5.38871 5.77443 5.40078 5.77443 5.43729C5.77443 5.65768 5.77443 6.25807 5.77443 6.42355C5.77443 6.58903 5.86527 6.6891 6.03821 6.6891C6.21115 6.6891 6.26976 6.59671 6.31958 6.53516C6.28735 6.83148 6.19356 7.0971 5.96785 7.0971" fill="#514537"/>
<path fill-rule="evenodd" clip-rule="evenodd" d="M6.47248 6.15297C6.49665 6.16252 6.52009 6.20871 6.52009 6.25878H6.56774C6.56774 6.21645 6.55379 6.15103 6.52854 6.11058C6.52814 6.1 6.52706 6.0909 6.52524 6.08174C6.54283 6.05284 6.56848 6.00665 6.56774 5.96239C6.56725 5.93445 6.5421 5.93549 6.53915 5.95761C6.53674 5.97581 6.52745 6.00381 6.50987 6.01342C6.50987 5.97781 6.49444 5.93549 6.47248 5.93549C6.45052 5.93549 6.43509 5.97781 6.43509 6.01342C6.4175 6.00381 6.40821 5.97581 6.40581 5.95761C6.40286 5.93549 6.37765 5.93445 6.37721 5.96239C6.37648 6.00665 6.40212 6.05284 6.41971 6.08174C6.41789 6.0909 6.41681 6.1 6.41642 6.11058C6.39117 6.15103 6.37721 6.21645 6.37721 6.25878H6.42487C6.42487 6.20871 6.44831 6.16252 6.47248 6.15297" fill="#514537"/>
<path fill-rule="evenodd" clip-rule="evenodd" d="M6.22687 6.15297C6.25104 6.16252 6.27453 6.20871 6.27453 6.25878H6.32214C6.32214 6.21645 6.30823 6.15103 6.28293 6.11058C6.28259 6.1 6.28146 6.0909 6.27964 6.08174C6.29723 6.05284 6.32287 6.00665 6.32214 5.96239C6.32169 5.93445 6.29649 5.93549 6.29354 5.95761C6.29113 5.97581 6.2818 6.00381 6.26426 6.01342C6.26426 5.97781 6.24888 5.93549 6.22687 5.93549C6.20491 5.93549 6.18953 5.97781 6.18953 6.01342C6.17194 6.00381 6.16261 5.97581 6.1602 5.95761C6.15725 5.93549 6.1321 5.93445 6.13161 5.96239C6.13087 6.00665 6.15652 6.05284 6.17411 6.08174C6.17229 6.0909 6.17121 6.1 6.17081 6.11058C6.14556 6.15103 6.13161 6.21645 6.13161 6.25878H6.17926C6.17926 6.20871 6.2027 6.16252 6.22687 6.15297" fill="#514537"/>
<path fill-rule="evenodd" clip-rule="evenodd" d="M5.98114 6.15297C6.00532 6.16252 6.02875 6.20871 6.02875 6.25878H6.07641C6.07641 6.21645 6.06246 6.15103 6.0372 6.11058C6.03681 6.1 6.03573 6.0909 6.03391 6.08174C6.0515 6.05284 6.07715 6.00665 6.07641 5.96239C6.07592 5.93445 6.05076 5.93549 6.04781 5.95761C6.04541 5.97581 6.03607 6.00381 6.01848 6.01342C6.01848 5.97781 6.00311 5.93549 5.98114 5.93549C5.95913 5.93549 5.94376 5.97781 5.94376 6.01342C5.92617 6.00381 5.91688 5.97581 5.91447 5.95761C5.91153 5.93549 5.88632 5.93445 5.88588 5.96239C5.88514 6.00665 5.91079 6.05284 5.92838 6.08174C5.92656 6.0909 5.92543 6.1 5.92509 6.11058C5.89978 6.15103 5.88588 6.21645 5.88588 6.25878H5.93349C5.93349 6.20871 5.95697 6.16252 5.98114 6.15297" fill="#514537"/>
<path fill-rule="evenodd" clip-rule="evenodd" d="M6.71808 6.15297C6.69391 6.16252 6.67048 6.20871 6.67048 6.25878H6.62282C6.62282 6.21645 6.63672 6.15103 6.66202 6.11058C6.66237 6.1 6.6635 6.0909 6.66537 6.08174C6.64773 6.05284 6.62208 6.00665 6.62282 5.96239C6.62331 5.93445 6.64846 5.93549 6.65141 5.95761C6.65382 5.97581 6.66315 6.00381 6.68069 6.01342C6.68069 5.97781 6.69612 5.93549 6.71808 5.93549C6.74009 5.93549 6.75547 5.97781 6.75547 6.01342C6.77301 6.00381 6.78235 5.97581 6.78475 5.95761C6.7877 5.93549 6.81286 5.93445 6.81335 5.96239C6.81408 6.00665 6.78844 6.05284 6.77085 6.08174C6.77267 6.0909 6.7738 6.1 6.77414 6.11058C6.79944 6.15103 6.81335 6.21645 6.81335 6.25878H6.76569C6.76569 6.20871 6.74226 6.16252 6.71808 6.15297" fill="#514537"/>
<path fill-rule="evenodd" clip-rule="evenodd" d="M6.96381 6.15297C6.93964 6.16252 6.9162 6.20871 6.9162 6.25878H6.86855C6.86855 6.21645 6.8825 6.15103 6.90775 6.11058C6.90815 6.1 6.90923 6.0909 6.91104 6.08174C6.89346 6.05284 6.86781 6.00665 6.86855 5.96239C6.86899 5.93445 6.89419 5.93549 6.89714 5.95761C6.89955 5.97581 6.90883 6.00381 6.92642 6.01342C6.92642 5.97781 6.94185 5.93549 6.96381 5.93549C6.98582 5.93549 7.0012 5.97781 7.0012 6.01342C7.01879 6.00381 7.02807 5.97581 7.03048 5.95761C7.03343 5.93549 7.05858 5.93445 7.05908 5.96239C7.05981 6.00665 7.03417 6.05284 7.01658 6.08174C7.01839 6.0909 7.01948 6.1 7.01987 6.11058C7.04517 6.15103 7.05908 6.21645 7.05908 6.25878H7.01147C7.01147 6.20871 6.98798 6.16252 6.96381 6.15297" fill="#514537"/>
<path fill-rule="evenodd" clip-rule="evenodd" d="M5.83679 6.32259H7.12638V6.40259H5.83679V6.32259Z" fill="#514537"/>
<path fill-rule="evenodd" clip-rule="evenodd" d="M6.97453 7.0971C7.15332 7.0971 7.3409 6.8931 7.3409 6.50439C7.3409 6.11561 7.3409 5.62684 7.3409 5.53832C7.3409 5.45078 7.33338 5.43845 7.34896 5.41807C7.35809 5.40607 7.33869 5.38826 7.32552 5.3709C7.30572 5.3449 7.29216 5.32329 7.31889 5.28813C7.34566 5.25303 7.33427 5.24387 7.31746 5.22181C7.30056 5.19961 7.29398 5.17755 7.31009 5.15632C7.32621 5.13516 7.32989 5.12845 7.3123 5.10536C7.29472 5.08226 7.30204 5.07265 7.31668 5.05336C7.33137 5.03413 7.33829 5.02019 7.31962 4.99568C7.3013 4.97161 7.29987 4.96774 7.2786 4.96774C7.25733 4.96774 7.21119 4.96774 7.19066 4.96774C7.17017 4.96774 7.16978 4.97594 7.18702 4.99858C7.20938 5.02787 7.21596 5.03942 7.19066 5.07265C7.1654 5.10581 7.16648 5.1169 7.1826 5.13807C7.20682 5.16981 7.21738 5.19148 7.19287 5.22374C7.1683 5.25594 7.16609 5.27039 7.18481 5.2949C7.20348 5.31942 7.20535 5.3411 7.18481 5.368C7.16904 5.38871 7.16796 5.40078 7.16796 5.43729C7.16796 5.65768 7.16796 6.25807 7.16796 6.42355C7.16796 6.58903 7.07707 6.6891 6.90417 6.6891C6.73123 6.6891 6.67267 6.59671 6.6228 6.53516C6.65503 6.83148 6.74882 7.0971 6.97453 7.0971" fill="#514537"/>
<path fill-rule="evenodd" clip-rule="evenodd" d="M5.83679 5.80457C5.83679 5.80457 5.83684 5.7478 5.83684 5.67741L6.09463 5.80464L5.83679 5.80457" fill="#EEA339"/>
<path fill-rule="evenodd" clip-rule="evenodd" d="M5.52924 5.86367L4.95239 5.76154C4.96915 5.59922 5.00084 5.44096 5.04643 5.29031L5.52924 5.54199V5.86367" fill="#EEA339"/>
<path fill-rule="evenodd" clip-rule="evenodd" d="M6.72107 4.61755L6.82361 4.06451C6.94358 4.10271 7.06022 4.16026 7.17076 4.23613L6.84006 5.06735L6.84124 4.65C6.80307 4.65026 6.7445 4.64258 6.72107 4.61755" fill="#EEA339"/>
<path fill-rule="evenodd" clip-rule="evenodd" d="M5.54284 5.91781L4.95524 5.87097C4.94767 6.03278 4.95519 6.19607 4.97779 6.35716C4.97779 6.35716 5.54284 6.36181 5.54284 6.35716V5.91781" fill="#EEA339"/>
<path fill-rule="evenodd" clip-rule="evenodd" d="M5.53695 5.39735C5.51793 5.36464 5.52967 5.34722 5.55016 5.32986C5.5707 5.31257 5.56775 5.29909 5.55753 5.27412C5.54726 5.24909 5.53699 5.22212 5.55606 5.19522C5.57512 5.16825 5.56775 5.1567 5.55311 5.13748C5.53847 5.11825 5.53699 5.09709 5.55016 5.08167C5.56338 5.06625 5.56043 5.0547 5.55169 5.03935C5.54284 5.02393 5.5256 4.9927 5.54102 4.97251L5.30131 4.70967C5.22212 4.83406 5.15432 4.97135 5.09973 5.11857L5.53695 5.39735" fill="#EEA339"/>
<path fill-rule="evenodd" clip-rule="evenodd" d="M6.11125 5.54065L5.82556 5.17684C5.86584 5.12394 5.86987 5.1153 5.84133 5.07775C5.81018 5.03684 5.80905 5.03259 5.87243 4.9493C5.89404 4.92097 5.88196 4.90117 5.8512 4.90117C5.82045 4.90117 5.679 4.90117 5.66288 4.90117C5.64677 4.90117 5.63409 4.90226 5.6223 4.91775L5.39453 4.6282C5.48144 4.51072 5.57853 4.4082 5.68337 4.32259L6.11125 5.22613V5.54065" fill="#EEA339"/>
<path fill-rule="evenodd" clip-rule="evenodd" d="M5.81414 5.59599C5.81414 5.5056 5.81419 5.41612 5.81419 5.40341C5.81419 5.37644 5.81271 5.36586 5.7966 5.3447C5.78048 5.32354 5.78854 5.31341 5.80102 5.29031L6.07202 5.58677V5.76083L5.81414 5.59599" fill="#EEA339"/>
<path fill-rule="evenodd" clip-rule="evenodd" d="M6.06805 5.0678C6.06805 4.89419 6.06805 4.73361 6.06805 4.64109C6.06805 4.364 6.07989 4.22542 6.11064 4.19755L6.08603 4.06451C5.96571 4.10703 5.84907 4.16458 5.73853 4.24045L6.06805 5.0678" fill="#EEA339"/>
<path fill-rule="evenodd" clip-rule="evenodd" d="M7.12637 5.80457C7.12637 5.80457 7.12632 5.7478 7.12632 5.67741L6.86853 5.80464L7.12637 5.80457" fill="#EEA339"/>
<path fill-rule="evenodd" clip-rule="evenodd" d="M7.40894 5.86367L7.98578 5.76154C7.96903 5.59922 7.93734 5.44096 7.89174 5.29031L7.40894 5.54199V5.86367" fill="#EEA339"/>
<path fill-rule="evenodd" clip-rule="evenodd" d="M7.40894 5.91781L7.99649 5.87097C8.00406 6.03278 7.99659 6.19607 7.97394 6.35716C7.97394 6.35716 7.40894 6.36181 7.40894 6.35716V5.91781" fill="#EEA339"/>
<path fill-rule="evenodd" clip-rule="evenodd" d="M7.39043 5.39735C7.40949 5.36464 7.3977 5.34722 7.37721 5.32986C7.35668 5.31257 7.35962 5.29909 7.36984 5.27412C7.38011 5.24909 7.39038 5.22212 7.37132 5.19522C7.35225 5.16825 7.35962 5.1567 7.37426 5.13748C7.38891 5.11825 7.39038 5.09709 7.37721 5.08167C7.364 5.06625 7.36694 5.0547 7.37569 5.03935C7.38453 5.02393 7.40173 4.9927 7.38635 4.97251L7.62606 4.70967C7.70526 4.83406 7.77301 4.97135 7.82759 5.11857L7.39043 5.39735" fill="#EEA339"/>
<path fill-rule="evenodd" clip-rule="evenodd" d="M6.86853 5.54065L7.15422 5.17684C7.11389 5.12394 7.10986 5.1153 7.13845 5.07775C7.1696 5.03684 7.17073 5.03259 7.10735 4.9493C7.08569 4.92097 7.09782 4.90117 7.12858 4.90117C7.15933 4.90117 7.30078 4.90117 7.3169 4.90117C7.33301 4.90117 7.34569 4.90226 7.35748 4.91775L7.58525 4.6282C7.49834 4.51072 7.40125 4.4082 7.29641 4.32259L6.86853 5.22613V5.54065" fill="#EEA339"/>
<path fill-rule="evenodd" clip-rule="evenodd" d="M7.12642 5.59599C7.12642 5.5056 7.12637 5.41612 7.12637 5.40341C7.12637 5.37644 7.12784 5.36586 7.14396 5.3447C7.16007 5.32354 7.15201 5.31341 7.13953 5.29031L6.86853 5.58677V5.76083L7.12642 5.59599" fill="#EEA339"/>
<path fill-rule="evenodd" clip-rule="evenodd" d="M5.64026 5.41936C5.65053 5.43284 5.65495 5.44626 5.65495 5.47897C5.65495 5.51168 5.65495 6.22755 5.65495 6.50852C5.65495 6.85103 5.8132 7.04155 5.97587 7.04155C6.12533 7.04155 6.22354 6.86258 6.27483 6.65478C6.2089 6.72213 6.11216 6.74329 6.01979 6.74329C5.91284 6.74329 5.73995 6.64903 5.73995 6.44503C5.73995 6.25645 5.73995 5.55787 5.73995 5.44626C5.73995 5.41936 5.71941 5.41936 5.64026 5.41936" fill="#D82332"/>
<path fill-rule="evenodd" clip-rule="evenodd" d="M6.57478 4.07042C6.37045 4.04326 6.1809 4.09907 6.1809 4.46513C6.1809 4.85003 6.1809 5.31952 6.1809 5.43771C6.1809 5.6001 6.17117 5.58081 6.27597 5.61494C6.46611 5.67687 6.48767 5.68474 6.71829 5.75391V4.76436C6.52138 4.73603 6.43604 4.56668 6.43604 4.37913C6.43604 4.22991 6.48625 4.08945 6.57478 4.07042" fill="#D82332"/>
<path fill-rule="evenodd" clip-rule="evenodd" d="M7.30657 5.41936C7.2963 5.43284 7.29188 5.44626 7.29188 5.47897C7.29188 5.51168 7.29188 6.22755 7.29188 6.50852C7.29188 6.85103 7.13363 7.04155 6.97096 7.04155C6.8215 7.04155 6.72329 6.86258 6.672 6.65478C6.73798 6.72213 6.83467 6.74329 6.92703 6.74329C7.03399 6.74329 7.20688 6.64903 7.20688 6.44503C7.20688 6.25645 7.20688 5.55787 7.20688 5.44626C7.20688 5.41936 7.22742 5.41936 7.30657 5.41936" fill="#D82332"/>
<mask id="mask1" mask-type="alpha" maskUnits="userSpaceOnUse" x="4" y="4" width="5" height="4">
<path fill-rule="evenodd" clip-rule="evenodd" d="M6.50001 8C7.35474 8 8.04763 7.10457 8.04763 6C8.04763 4.89543 7.35474 4 6.50001 4C5.64529 4 4.95239 4.89543 4.95239 6C4.95239 7.10457 5.64529 8 6.50001 8Z" fill="white"/>
</mask>
<g mask="url(#mask1)">
<path fill-rule="evenodd" clip-rule="evenodd" d="M6.50001 11.2C7.35474 11.2 8.04763 10.3046 8.04763 9.2C8.04763 8.09543 7.35474 7.2 6.50001 7.2C5.64529 7.2 4.95239 8.09543 4.95239 9.2C4.95239 10.3046 5.64529 11.2 6.50001 11.2Z" fill="#064A89"/>
</g>
</g>
</svg>
