<svg width="13" height="12" viewBox="0 0 13 12" fill="none" xmlns="http://www.w3.org/2000/svg">
<rect x="0.25" y="0.25" width="12.5" height="11.5" rx="1.75" fill="white" stroke="#F5F5F5" stroke-width="0.5"/>
<mask id="mask0" mask-type="alpha" maskUnits="userSpaceOnUse" x="0" y="0" width="13" height="12">
<rect x="0.25" y="0.25" width="12.5" height="11.5" rx="1.75" fill="white" stroke="white" stroke-width="0.5"/>
</mask>
<g mask="url(#mask0)">
<path fill-rule="evenodd" clip-rule="evenodd" d="M0 12L13 12V5.60001H5.77778L6.19048 6.00001L0 12Z" fill="#DD1C34"/>
<path fill-rule="evenodd" clip-rule="evenodd" d="M13 5.6H5.77778L0 0H13V5.6Z" fill="#0D4BC3"/>
<path fill-rule="evenodd" clip-rule="evenodd" d="M0.928542 2.39999C1.09949 2.39999 1.23807 2.2209 1.23807 1.99999C1.23807 1.77908 1.09949 1.59999 0.928542 1.59999C0.757597 1.59999 0.619019 1.77908 0.619019 1.99999C0.619019 2.2209 0.757597 2.39999 0.928542 2.39999ZM4.64283 6.39999C4.81377 6.39999 4.95235 6.2209 4.95235 5.99999C4.95235 5.77907 4.81377 5.59999 4.64283 5.59999C4.47188 5.59999 4.3333 5.77907 4.3333 5.99999C4.3333 6.2209 4.47188 6.39999 4.64283 6.39999ZM1.23807 9.99999C1.23807 10.2209 1.09949 10.4 0.928542 10.4C0.757597 10.4 0.619019 10.2209 0.619019 9.99999C0.619019 9.77908 0.757597 9.59999 0.928542 9.59999C1.09949 9.59999 1.23807 9.77908 1.23807 9.99999ZM2.10415 6.79596L1.57439 7.84775L1.7753 6.61989C1.74297 6.58577 1.71336 6.5475 1.68695 6.50572L0.736824 6.76536L1.5507 6.08075C1.54864 6.05419 1.54759 6.02725 1.54759 5.99999C1.54759 5.97273 1.54864 5.94579 1.5507 5.91924L0.736824 5.23462L1.68695 5.49426C1.71336 5.45248 1.74297 5.41422 1.7753 5.38009L1.57439 4.15223L2.10415 5.20402C2.1247 5.20135 2.14555 5.19999 2.16664 5.19999C2.18773 5.19999 2.20858 5.20135 2.22913 5.20402L2.75889 4.15223L2.55798 5.38009C2.59031 5.41422 2.61992 5.45248 2.64632 5.49426L3.59645 5.23462L2.78257 5.91924C2.78463 5.94579 2.78568 5.97273 2.78568 5.99999C2.78568 6.02725 2.78463 6.05419 2.78257 6.08074L3.59645 6.76536L2.64632 6.50572C2.61992 6.5475 2.59031 6.58577 2.55798 6.61989L2.75889 7.84775L2.22913 6.79596C2.20858 6.79863 2.18773 6.79999 2.16664 6.79999C2.14554 6.79999 2.1247 6.79863 2.10415 6.79596Z" fill="#FDD64D"/>
</g>
</svg>
