<svg width="13" height="12" fill="none" xmlns="http://www.w3.org/2000/svg"><rect x=".25" y=".25" width="12.5" height="11.5" rx="1.75" fill="#fff" stroke="#F5F5F5" stroke-width=".5"/><mask id="a" maskUnits="userSpaceOnUse" x="0" y="0" width="13" height="12"><rect x=".25" y=".25" width="12.5" height="11.5" rx="1.75" fill="#fff" stroke="#fff" stroke-width=".5"/></mask><g mask="url(#a)" fill-rule="evenodd" clip-rule="evenodd"><path d="M13 0H3.714v12H13V0z" fill="#0A632F"/><path d="M10.99 6.45c-.06.75-.307 1.472-.745 2.037-1.043 1.348-2.77 1.3-3.858-.106C5.3 6.976 5.263 4.743 6.306 3.396c.437-.565.995-.885 1.576-.962-.183.139-.356.31-.515.515-.947 1.225-.994 3.15-.104 4.301.89 1.15 2.38 1.09 3.328-.135a3.37 3.37 0 00.399-.665zM9.793 4.863l-.148 1.139-.413-1.024-.884.17.627-.824-.399-1.034.8.515.638-.809-.132 1.142.792.534-.881.19z" fill="#fff"/></g></svg>