<svg width="13" height="12" fill="none" xmlns="http://www.w3.org/2000/svg"><rect width="13" height="12" rx="2" fill="#fff"/><mask id="a" maskUnits="userSpaceOnUse" x="0" y="0" width="13" height="12"><rect width="13" height="12" rx="2" fill="#fff"/></mask><g mask="url(#a)"><path fill="#FF2936" d="M0 0h13v12H0z"/><path fill-rule="evenodd" clip-rule="evenodd" d="M0 12h4.952V0H0v12z" fill="#128415"/><path d="M4.952 8.267c1.201 0 1.905-1.184 1.905-2.267s-.704-2.267-1.905-2.267c-1.2 0-1.904 1.184-1.904 2.267s.703 2.267 1.904 2.267z" stroke="#FAF94F" stroke-width="1.333"/><path fill-rule="evenodd" clip-rule="evenodd" d="M4.333 5.133c0-.184.15-.333.334-.333h.571c.184 0 .333.15.333.333v1.448a.619.619 0 01-1.238 0V5.133z" fill="#fff"/><path fill-rule="evenodd" clip-rule="evenodd" d="M4.952 6.4c.171 0 .31-.58.31-.8 0-.22-.139-.4-.31-.4-.17 0-.31.18-.31.4 0 .22.14.8.31.8z" fill="#1D50B5"/></g></svg>