<svg width="13" height="12" viewBox="0 0 13 12" fill="none" xmlns="http://www.w3.org/2000/svg">
<rect x="0.25" y="0.25" width="12.5" height="11.5" rx="1.75" fill="white" stroke="#F5F5F5" stroke-width="0.5"/>
<mask id="mask0" mask-type="alpha" maskUnits="userSpaceOnUse" x="0" y="0" width="13" height="12">
<rect x="0.25" y="0.25" width="12.5" height="11.5" rx="1.75" fill="white" stroke="white" stroke-width="0.5"/>
</mask>
<g mask="url(#mask0)">
<path fill-rule="evenodd" clip-rule="evenodd" d="M0 4H13V0H0V4Z" fill="#E33F39"/>
<path fill-rule="evenodd" clip-rule="evenodd" d="M0 12H13V8H0V12Z" fill="#124BBA"/>
<path d="M6.49998 7.53334C7.27137 7.53334 7.76189 6.76229 7.76189 6C7.76189 5.23772 7.27137 4.46667 6.49998 4.46667C5.72859 4.46667 5.23808 5.23772 5.23808 6C5.23808 6.76229 5.72859 7.53334 6.49998 7.53334Z" stroke="#398153" stroke-width="0.666667"/>
<path fill-rule="evenodd" clip-rule="evenodd" d="M6.49995 6.40001C6.6709 6.40001 6.80948 6.22092 6.80948 6.00001C6.80948 5.77909 6.6709 5.60001 6.49995 5.60001C6.32901 5.60001 6.19043 5.77909 6.19043 6.00001C6.19043 6.22092 6.32901 6.40001 6.49995 6.40001Z" fill="#E5CF58"/>
</g>
</svg>
