<svg width="13" height="12" fill="none" xmlns="http://www.w3.org/2000/svg"><rect x=".25" y=".25" width="12.5" height="11.5" rx="1.75" fill="#fff" stroke="#F5F5F5" stroke-width=".5"/><mask id="a" maskUnits="userSpaceOnUse" x="0" y="0" width="13" height="12"><rect x=".25" y=".25" width="12.5" height="11.5" rx="1.75" fill="#fff" stroke="#fff" stroke-width=".5"/></mask><g mask="url(#a)"><path fill-rule="evenodd" clip-rule="evenodd" d="M0 8h13V4H0v4z" fill="#17508F"/><path fill-rule="evenodd" clip-rule="evenodd" d="M0 4h13V0H0v4z" fill="#E1444D"/><path fill-rule="evenodd" clip-rule="evenodd" d="M2.786 6c0-.328.114-.997.204-1.47.059-.31.33-.53.646-.53h.777c.315 0 .586.22.645.528.09.471.204 1.137.204 1.472 0 .433-.218 1.547-.288 1.895a.553.553 0 01-.079.196c-.137.21-.504.709-.871.709s-.734-.5-.872-.71a.552.552 0 01-.078-.194C3.004 7.55 2.786 6.444 2.786 6z" fill="#fff"/><mask id="b" maskUnits="userSpaceOnUse" x="2" y="4" width="4" height="5"><path fill-rule="evenodd" clip-rule="evenodd" d="M2.786 6c0-.328.114-.997.204-1.47.059-.31.33-.53.646-.53h.777c.315 0 .586.22.645.528.09.471.204 1.137.204 1.472 0 .433-.218 1.547-.288 1.895a.553.553 0 01-.079.196c-.137.21-.504.709-.871.709s-.734-.5-.872-.71a.552.552 0 01-.078-.194C3.004 7.55 2.786 6.444 2.786 6z" fill="#fff"/></mask><g mask="url(#b)" stroke="#E1444D" stroke-width="1.333" stroke-linecap="square"><path d="M5.262 4.4l-2.476 4m0-4l2.476 4"/></g></g></svg>