<svg width="13" height="12" fill="none" xmlns="http://www.w3.org/2000/svg"><rect width="13" height="12" rx="2" fill="#fff"/><mask id="a" maskUnits="userSpaceOnUse" x="0" y="0" width="13" height="12"><rect width="13" height="12" rx="2" fill="#fff"/></mask><g mask="url(#a)"><path fill="#128C4B" d="M0 0h13v12H0z"/><path fill-rule="evenodd" clip-rule="evenodd" d="M3.095 7.2h4.953v-.463c0-.318.352-.51.619-.337v.8h.704c.295 0 .534.239.534.533 0 .59-.478 1.067-1.067 1.067h-.171a.619.619 0 01-.62-.619V8H4.042a.667.667 0 01-.527-.259l-.42-.541zm0-2.286c0-.074.025-.146.07-.204l.082-.106a.333.333 0 000-.408l-.082-.106a.333.333 0 01-.07-.204V3.51a.31.31 0 01.31-.31h.183c.07 0 .126.056.126.126 0 .14.193.175.244.045l.03-.08a.142.142 0 01.133-.091h.631a.2.2 0 010 .4h-.219a.2.2 0 100 .4h.11a.31.31 0 01.31.31v.98a.31.31 0 01-.619 0v-.335c0-.086.069-.155.154-.155.086 0 .155-.07.155-.155V4.6a.2.2 0 00-.2-.2h-.11a.31.31 0 00-.31.31v.735a.155.155 0 11-.31 0v-.49a.155.155 0 00-.31 0v.49a.152.152 0 01-.153.155.155.155 0 01-.155-.155v-.531zm4.953 0c0-.074.024-.146.07-.204l.081-.106a.333.333 0 000-.408l-.082-.106a.333.333 0 01-.07-.204V3.51c0-.171.14-.31.31-.31h.184c.07 0 .126.056.126.126 0 .14.193.175.243.045l.031-.08a.142.142 0 01.132-.091h.632a.2.2 0 110 .4h-.22a.2.2 0 000 .4h.11a.31.31 0 01.31.31v.98a.31.31 0 01-.619 0v-.335c0-.086.069-.155.154-.155.086 0 .155-.07.155-.155V4.6a.2.2 0 00-.2-.2h-.11a.31.31 0 00-.309.31v.735a.155.155 0 11-.31 0v-.49a.155.155 0 00-.31 0v.49a.155.155 0 11-.31 0v-.531zm-.619-1.116a.649.649 0 01-.112.346l-.086.112a.246.246 0 000 .288l.086.112c.062.08.112.23.112.346v.396c0 .112-.067.202-.157.202h-.306c-.087 0-.156-.086-.156-.202v-.396c0-.112-.03-.128-.072-.016l-.166.428c-.04.103-.145.186-.225.186h-.622c-.085 0-.154-.093-.154-.2 0-.11.067-.2.157-.2h.306c.087 0 .156-.093.156-.2 0-.11-.066-.2-.156-.2h-.306c-.087 0-.157-.086-.157-.196V3.396c0-.108.067-.196.157-.196h.306c.087 0 .156.086.156.202v.396c0 .112-.071.202-.154.202-.086 0-.155.093-.155.2 0 .11.066.2.156.2h.307c.086 0 .156-.094.156-.198v-.804c0-.11.072-.198.155-.198.085 0 .155.086.155.202v.396c0 .112.071.202.154.202.086 0 .155-.086.155-.202v-.396c0-.112.072-.202.155-.202.085 0 .155.086.155.202v.396z" fill="#fff"/></g></svg>