<svg width="13" height="12" fill="none" xmlns="http://www.w3.org/2000/svg"><rect width="13" height="12" rx="2" fill="#fff"/><mask id="a" maskUnits="userSpaceOnUse" x="0" y="0" width="13" height="12"><rect width="13" height="12" rx="2" fill="#fff"/></mask><g mask="url(#a)"><path fill="url(#paint0_linear)" d="M0 0h13v12H0z"/><g filter="url(#filter0_d)"><path fill-rule="evenodd" clip-rule="evenodd" d="M0 0h13L0 12V0z" fill="url(#paint1_linear)"/></g><path fill-rule="evenodd" clip-rule="evenodd" d="M13 0L0 12h13V0z" fill="#2C7442"/><path fill="#FFD646" d="M-1.288 11.823L11.625.568l6.188 11.855L4.9 23.679z"/><path fill-rule="evenodd" clip-rule="evenodd" d="M.938 2.609l.087-.655-.368-.463.508-.096L1.393.8l.227.595.509.096-.368.463.087.655-.455-.309-.455.309zm3.095 0l.087-.655-.368-.463.509-.096L4.488.8l.228.595.508.096-.368.463.087.655-.455-.309-.455.309zm.087 1.745l-.087.655.455-.309.455.309-.087-.655.368-.463-.508-.096-.228-.595-.227.595-.509.096.368.463zM1.393 4.7l-.455.309.087-.655-.368-.463.508-.096.228-.595.227.595.509.096-.368.463.087.655-.455-.309zm1.093-.891L2.94 3.5l.455.309-.087-.655.368-.463-.508-.096L2.94 2l-.227.595-.508.096.368.464-.087.654z" fill="#fff"/></g><defs><linearGradient id="paint0_linear" x1="0" y1="0" x2="0" y2="12" gradientUnits="userSpaceOnUse"><stop stop-color="#1DBE4F"/><stop offset="1" stop-color="#159B3F"/></linearGradient><linearGradient id="paint1_linear" x1="0" y1="0" x2="0" y2="12" gradientUnits="userSpaceOnUse"><stop stop-color="#0660D4"/><stop offset="1" stop-color="#0051BB"/></linearGradient><filter id="filter0_d" x="0" y="0" width="13" height="12" filterUnits="userSpaceOnUse" color-interpolation-filters="sRGB"><feFlood flood-opacity="0" result="BackgroundImageFix"/><feColorMatrix in="SourceAlpha" values="0 0 0 0 0 0 0 0 0 0 0 0 0 0 0 0 0 0 127 0"/><feOffset/><feColorMatrix values="0 0 0 0 0 0 0 0 0 0 0 0 0 0 0 0 0 0 0.06 0"/><feBlend in2="BackgroundImageFix" result="effect1_dropShadow"/><feBlend in="SourceGraphic" in2="effect1_dropShadow" result="shape"/></filter></defs></svg>