<svg width="13" height="12" fill="none" xmlns="http://www.w3.org/2000/svg"><rect x=".25" y=".25" width="12.5" height="11.5" rx="1.75" fill="#fff" stroke="#F5F5F5" stroke-width=".5"/><mask id="a" maskUnits="userSpaceOnUse" x="0" y="0" width="13" height="12"><rect x=".25" y=".25" width="12.5" height="11.5" rx="1.75" fill="#fff" stroke="#fff" stroke-width=".5"/></mask><g mask="url(#a)" fill-rule="evenodd" clip-rule="evenodd"><path d="M0 4h13V0H0v4zm0 8h13V8H0v4z" fill="#1B57C4"/><path d="M5.757 4.72c-.3.292-.495.757-.495 1.28 0 .884.554 1.6 1.238 1.6.684 0 1.238-.716 1.238-1.6 0-.523-.194-.988-.495-1.28L6.809 6.4H6.19l-.433-1.68z" fill="url(#paint0_linear)"/><path d="M6.5 4.4l.31 2h-.62l.31-2z" fill="#F9C92E"/></g><defs><linearGradient id="paint0_linear" x1="5.262" y1="4.72" x2="5.262" y2="7.6" gradientUnits="userSpaceOnUse"><stop stop-color="#3C7839"/><stop offset="1" stop-color="#31642E"/></linearGradient></defs></svg>