<svg width="13" height="12" viewBox="0 0 13 12" fill="none" xmlns="http://www.w3.org/2000/svg">
<rect x="0.25" y="0.25" width="12.5" height="11.5" rx="1.75" fill="white" stroke="#F5F5F5" stroke-width="0.5"/>
<mask id="mask0" mask-type="alpha" maskUnits="userSpaceOnUse" x="0" y="0" width="13" height="12">
<rect x="0.25" y="0.25" width="12.5" height="11.5" rx="1.75" fill="white" stroke="white" stroke-width="0.5"/>
</mask>
<g mask="url(#mask0)">
<path fill-rule="evenodd" clip-rule="evenodd" d="M0 4H13V0H0V4Z" fill="#1B57C4"/>
<path fill-rule="evenodd" clip-rule="evenodd" d="M0 12H13V8H0V12Z" fill="#1B57C4"/>
<path fill-rule="evenodd" clip-rule="evenodd" d="M5.75708 4.71991C5.45636 5.01182 5.26184 5.47656 5.26184 6.00002C5.26184 6.88368 5.81615 7.60002 6.49994 7.60002C7.18372 7.60002 7.73803 6.88368 7.73803 6.00002C7.73803 5.47658 7.54353 5.01185 7.24283 4.71994L6.80948 6.40001H6.19043L5.75708 4.71991Z" fill="url(#paint0_linear)"/>
<path fill-rule="evenodd" clip-rule="evenodd" d="M6.49995 4.40002L6.80948 6.40002H6.19043L6.49995 4.40002Z" fill="#F9C92E"/>
</g>
<defs>
<linearGradient id="paint0_linear" x1="5.26184" y1="4.71991" x2="5.26184" y2="7.6" gradientUnits="userSpaceOnUse">
<stop stop-color="#3C7839"/>
<stop offset="1" stop-color="#31642E"/>
</linearGradient>
</defs>
</svg>
