<svg width="13" height="12" viewBox="0 0 13 12" fill="none" xmlns="http://www.w3.org/2000/svg">
<rect x="0.25" y="0.25" width="12.5" height="11.5" rx="1.75" fill="white" stroke="#F5F5F5" stroke-width="0.5"/>
<mask id="mask0" mask-type="alpha" maskUnits="userSpaceOnUse" x="0" y="0" width="13" height="12">
<rect x="0.25" y="0.25" width="12.5" height="11.5" rx="1.75" fill="white" stroke="white" stroke-width="0.5"/>
</mask>
<g mask="url(#mask0)">
<path fill-rule="evenodd" clip-rule="evenodd" d="M0 12H13V8H0V12Z" fill="#262626"/>
<path fill-rule="evenodd" clip-rule="evenodd" d="M0 4H13V0H0V4Z" fill="#E32139"/>
<path fill-rule="evenodd" clip-rule="evenodd" d="M4.33331 6.656L3.60558 7.29443L3.85054 6.20272L3.15581 5.50557L4.03494 5.46929L4.33331 4.4L4.63168 5.46929L5.51081 5.50557L4.81608 6.20272L5.06104 7.29443L4.33331 6.656Z" fill="#128A49"/>
<path fill-rule="evenodd" clip-rule="evenodd" d="M8.66668 6.656L7.93895 7.29443L8.18391 6.20272L7.48919 5.50557L8.36831 5.46929L8.66668 4.4L8.96506 5.46929L9.84418 5.50557L9.14946 6.20272L9.39442 7.29443L8.66668 6.656Z" fill="#128A49"/>
</g>
</svg>
