<svg width="13" height="12" fill="none" xmlns="http://www.w3.org/2000/svg"><rect width="13" height="12" rx="2" fill="#fff"/><mask id="a" maskUnits="userSpaceOnUse" x="0" y="0" width="13" height="12"><rect width="13" height="12" rx="2" fill="#fff"/></mask><g mask="url(#a)"><path fill="#07319C" d="M0 0h13v12H0z"/><path d="M8.38 6V4.533a1 1 0 011-1h.43a1 1 0 011 1V6c0 .906-.349 1.531-.694 1.933a2.875 2.875 0 01-.52.474l-.046-.032a2.874 2.874 0 01-.476-.442C8.73 7.53 8.381 6.906 8.381 6zm1.06 2.505h0z" fill="#FFD033" stroke="#fff" stroke-width=".667"/><mask id="b" maskUnits="userSpaceOnUse" x="8" y="3" width="4" height="6"><path d="M8.38 6V4.533a1 1 0 011-1h.43a1 1 0 011 1V6c0 .906-.349 1.531-.694 1.933a2.875 2.875 0 01-.52.474l-.046-.032a2.874 2.874 0 01-.476-.442C8.73 7.53 8.381 6.906 8.381 6zm1.06 2.505h0z" fill="#fff" stroke="#fff" stroke-width=".667"/></mask><g mask="url(#b)" fill-rule="evenodd" clip-rule="evenodd"><path d="M10.214 5.6c.171 0 .31-.358.31-.8 0-.442-.139-.8-.31-.8-.17 0-.31.358-.31.8 0 .442.14.8.31.8z" fill="#BA5B1F"/><path d="M9.071 5.576c.161-.076.196-.473.08-.889-.117-.415-.342-.69-.503-.615-.16.076-.196.474-.08.889.118.415.343.69.503.615z" fill="#FF9F3E"/><path d="M8.845 5.563c.155.093.398-.156.542-.556.145-.4.137-.801-.018-.895-.155-.093-.398.156-.543.556-.144.4-.136.801.02.895z" fill="#FF937F"/><path d="M9.286 6.4l.31-.8.309.8v.8h-.62v-.8z" fill="#01A827"/></g><path d="M0-.333h-.75l.503.556 2.08 2.305v.526l-2.06 1.901-.106.1v1.242l.542-.439 2.385-1.926h.37l2.038 1.88a.45.45 0 00.64-.632L3.738 3.07v-.525L5.69.744a.667.667 0 00.215-.49v-.952l-.543.439-2.385 1.926h-.37L.536-.245.44-.333H0z" fill="#DB1E36" stroke="#fff" stroke-width=".667"/><path fill-rule="evenodd" clip-rule="evenodd" d="M0 2v1.6h2.167v1.781a.62.62 0 001.238 0V3.6h1.81a.667.667 0 00.666-.667v-.266A.667.667 0 005.214 2h-1.81V0H2.168v2H0z" fill="#fff"/><path fill-rule="evenodd" clip-rule="evenodd" d="M0 2.4h2.476V0h.62v2.4H5.57v.8H3.095v2.4h-.619V3.2H0v-.8z" fill="#DB1E36"/></g></svg>