<svg width="13" height="12" viewBox="0 0 13 12" fill="none" xmlns="http://www.w3.org/2000/svg">
<rect width="13" height="12" rx="2" fill="white"/>
<mask id="mask0" mask-type="alpha" maskUnits="userSpaceOnUse" x="0" y="0" width="13" height="12">
<rect width="13" height="12" rx="2" fill="white"/>
</mask>
<g mask="url(#mask0)">
<path fill-rule="evenodd" clip-rule="evenodd" d="M0 12H13V0H0V12Z" fill="#30C375"/>
<rect x="1.85718" width="1.85714" height="12" fill="#DE414F"/>
<path fill-rule="evenodd" clip-rule="evenodd" d="M2.78575 2.4C3.29859 2.4 3.71432 2.04183 3.71432 1.6C3.71432 1.15817 3.29859 0.799999 2.78575 0.799999C2.27291 0.799999 1.85718 1.15817 1.85718 1.6C1.85718 2.04183 2.27291 2.4 2.78575 2.4Z" fill="white"/>
<mask id="mask1" mask-type="alpha" maskUnits="userSpaceOnUse" x="1" y="0" width="3" height="3">
<path fill-rule="evenodd" clip-rule="evenodd" d="M2.78575 2.4C3.29859 2.4 3.71432 2.04183 3.71432 1.6C3.71432 1.15817 3.29859 0.799999 2.78575 0.799999C2.27291 0.799999 1.85718 1.15817 1.85718 1.6C1.85718 2.04183 2.27291 2.4 2.78575 2.4Z" fill="white"/>
</mask>
<g mask="url(#mask1)">
<path fill-rule="evenodd" clip-rule="evenodd" d="M2.78572 2C2.95667 2 3.09524 1.82091 3.09524 1.6C3.09524 1.37908 2.95667 1.2 2.78572 1.2C2.61477 1.2 2.4762 1.37908 2.4762 1.6C2.4762 1.82091 2.61477 2 2.78572 2Z" fill="#DD404F"/>
<rect x="1.85718" y="0.799999" width="0.928571" height="0.8" fill="#FBAF29"/>
<rect x="2.78577" y="1.6" width="0.928571" height="0.8" fill="#FBAF29"/>
</g>
<path fill-rule="evenodd" clip-rule="evenodd" d="M2.78575 11.2C3.29859 11.2 3.71432 10.8418 3.71432 10.4C3.71432 9.95817 3.29859 9.6 2.78575 9.6C2.27291 9.6 1.85718 9.95817 1.85718 10.4C1.85718 10.8418 2.27291 11.2 2.78575 11.2Z" fill="white"/>
<mask id="mask2" mask-type="alpha" maskUnits="userSpaceOnUse" x="1" y="9" width="3" height="3">
<path fill-rule="evenodd" clip-rule="evenodd" d="M2.78575 11.2C3.29859 11.2 3.71432 10.8418 3.71432 10.4C3.71432 9.95817 3.29859 9.6 2.78575 9.6C2.27291 9.6 1.85718 9.95817 1.85718 10.4C1.85718 10.8418 2.27291 11.2 2.78575 11.2Z" fill="white"/>
</mask>
<g mask="url(#mask2)">
<path fill-rule="evenodd" clip-rule="evenodd" d="M2.78572 10.8C2.95667 10.8 3.09524 10.6209 3.09524 10.4C3.09524 10.1791 2.95667 10 2.78572 10C2.61477 10 2.4762 10.1791 2.4762 10.4C2.4762 10.6209 2.61477 10.8 2.78572 10.8Z" fill="#DD404F"/>
<rect x="1.85718" y="9.6" width="0.928571" height="0.799999" fill="#FBAF29"/>
<rect x="2.78577" y="10.4" width="0.928571" height="0.799999" fill="#FBAF29"/>
</g>
<path fill-rule="evenodd" clip-rule="evenodd" d="M2.78575 7.2C3.29859 7.2 3.71432 6.84183 3.71432 6.4C3.71432 5.95817 3.29859 5.6 2.78575 5.6C2.27291 5.6 1.85718 5.95817 1.85718 6.4C1.85718 6.84183 2.27291 7.2 2.78575 7.2Z" fill="#28AE67"/>
<mask id="mask3" mask-type="alpha" maskUnits="userSpaceOnUse" x="1" y="5" width="3" height="3">
<path fill-rule="evenodd" clip-rule="evenodd" d="M2.78575 7.2C3.29859 7.2 3.71432 6.84183 3.71432 6.4C3.71432 5.95817 3.29859 5.6 2.78575 5.6C2.27291 5.6 1.85718 5.95817 1.85718 6.4C1.85718 6.84183 2.27291 7.2 2.78575 7.2Z" fill="white"/>
</mask>
<g mask="url(#mask3)">
<path fill-rule="evenodd" clip-rule="evenodd" d="M2.7858 6.8C3.12769 6.8 3.40484 6.62091 3.40484 6.4C3.40484 6.17909 3.12769 6 2.7858 6C2.44391 6 2.16675 6.17909 2.16675 6.4C2.16675 6.62091 2.44391 6.8 2.7858 6.8Z" fill="#DD404F"/>
</g>
<path fill-rule="evenodd" clip-rule="evenodd" d="M2.78575 8.8C3.29859 8.8 3.71432 8.62091 3.71432 8.4C3.71432 8.17909 3.29859 8 2.78575 8C2.27291 8 1.85718 8.17909 1.85718 8.4C1.85718 8.62091 2.27291 8.8 2.78575 8.8Z" fill="#28AE67"/>
<mask id="mask4" mask-type="alpha" maskUnits="userSpaceOnUse" x="1" y="8" width="3" height="1">
<path fill-rule="evenodd" clip-rule="evenodd" d="M2.78575 8.8C3.29859 8.8 3.71432 8.62091 3.71432 8.4C3.71432 8.17909 3.29859 8 2.78575 8C2.27291 8 1.85718 8.17909 1.85718 8.4C1.85718 8.62091 2.27291 8.8 2.78575 8.8Z" fill="white"/>
</mask>
<g mask="url(#mask4)">
</g>
<path fill-rule="evenodd" clip-rule="evenodd" d="M2.78575 4.8C3.29859 4.8 3.71432 4.44183 3.71432 4C3.71432 3.55817 3.29859 3.2 2.78575 3.2C2.27291 3.2 1.85718 3.55817 1.85718 4C1.85718 4.44183 2.27291 4.8 2.78575 4.8Z" fill="#FBAF29"/>
<mask id="mask5" mask-type="alpha" maskUnits="userSpaceOnUse" x="1" y="3" width="3" height="2">
<path fill-rule="evenodd" clip-rule="evenodd" d="M2.78575 4.8C3.29859 4.8 3.71432 4.44183 3.71432 4C3.71432 3.55817 3.29859 3.2 2.78575 3.2C2.27291 3.2 1.85718 3.55817 1.85718 4C1.85718 4.44183 2.27291 4.8 2.78575 4.8Z" fill="white"/>
</mask>
<g mask="url(#mask5)">
<path fill-rule="evenodd" clip-rule="evenodd" d="M2.78572 4.4C2.95667 4.4 3.09524 4.22091 3.09524 4C3.09524 3.77908 2.95667 3.6 2.78572 3.6C2.61477 3.6 2.4762 3.77908 2.4762 4C2.4762 4.22091 2.61477 4.4 2.78572 4.4Z" fill="#DD404F"/>
<rect x="1.85718" y="3.2" width="0.619048" height="1.6" fill="#28AE67"/>
<rect x="3.09521" y="3.2" width="0.619048" height="1.6" fill="#28AE67"/>
</g>
<path fill-rule="evenodd" clip-rule="evenodd" d="M6.88196 2.54289C6.77208 2.71212 6.78916 2.96443 6.92011 3.10643C7.05106 3.24843 7.24629 3.22635 7.35618 3.05712C7.46606 2.88789 7.44898 2.63559 7.31802 2.49359C7.18707 2.35159 6.99184 2.37366 6.88196 2.54289ZM6.07994 4.09359C5.94899 3.95159 5.75376 3.97366 5.64387 4.14289C5.53399 4.31212 5.55107 4.56442 5.68202 4.70643C5.81298 4.84843 6.00821 4.82635 6.11809 4.65712C6.22797 4.48789 6.21089 4.23559 6.07994 4.09359V4.09359ZM5.46088 3.29359C5.32993 3.15159 5.1347 3.17366 5.02481 3.34289C4.91493 3.51212 4.93201 3.76442 5.06297 3.90643C5.19392 4.04843 5.38915 4.02635 5.49903 3.85712C5.60891 3.68789 5.59183 3.43559 5.46088 3.29359V3.29359ZM6.69897 1.69359C6.56801 1.55159 6.37278 1.57366 6.2629 1.74289C6.15302 1.91212 6.1701 2.16442 6.30105 2.30643C6.432 2.44843 6.62724 2.42635 6.73712 2.25712C6.847 2.08789 6.82992 1.83559 6.69897 1.69359V1.69359ZM6.38945 2.89359C6.2585 2.75159 6.06327 2.77366 5.95339 2.94289C5.8435 3.11212 5.86059 3.36442 5.99154 3.50643C6.12249 3.64843 6.31772 3.62635 6.4276 3.45712C6.53749 3.28789 6.5204 3.03559 6.38945 2.89359V2.89359Z" fill="white"/>
<path fill-rule="evenodd" clip-rule="evenodd" d="M8.11396 5.67031C7.37665 6.62314 6.18124 6.62314 5.44393 5.67031C5.37248 5.57799 5.30796 5.4801 5.25037 5.37774C5.98864 6.07148 7.02813 5.9881 7.694 5.12759C8.35986 4.26709 8.42439 2.92374 7.88756 1.96967C7.96677 2.0441 8.04252 2.12748 8.11396 2.21981C8.85127 3.17264 8.85127 4.71748 8.11396 5.67031Z" fill="white"/>
</g>
</svg>
