<svg width="13" height="12" fill="none" xmlns="http://www.w3.org/2000/svg"><rect width="13" height="12" rx="2" fill="#fff"/><mask id="a" maskUnits="userSpaceOnUse" x="0" y="0" width="13" height="12"><rect width="13" height="12" rx="2" fill="#fff"/></mask><g mask="url(#a)"><path fill-rule="evenodd" clip-rule="evenodd" d="M0 12h13V0H0v12z" fill="#30C375"/><path fill="#DE414F" d="M1.857 0h1.857v12H1.857z"/><path fill-rule="evenodd" clip-rule="evenodd" d="M2.786 2.4c.513 0 .928-.358.928-.8 0-.442-.415-.8-.928-.8-.513 0-.929.358-.929.8 0 .442.416.8.929.8z" fill="#fff"/><mask id="b" maskUnits="userSpaceOnUse" x="1" y="0" width="3" height="3"><path fill-rule="evenodd" clip-rule="evenodd" d="M2.786 2.4c.513 0 .928-.358.928-.8 0-.442-.415-.8-.928-.8-.513 0-.929.358-.929.8 0 .442.416.8.929.8z" fill="#fff"/></mask><g mask="url(#b)"><path fill-rule="evenodd" clip-rule="evenodd" d="M2.786 2c.17 0 .31-.18.31-.4 0-.22-.14-.4-.31-.4-.171 0-.31.18-.31.4 0 .22.139.4.31.4z" fill="#DD404F"/><path fill="#FBAF29" d="M1.857.8h.929v.8h-.929zm.929.8h.929v.8h-.929z"/></g><path fill-rule="evenodd" clip-rule="evenodd" d="M2.786 11.2c.513 0 .928-.358.928-.8 0-.442-.415-.8-.928-.8-.513 0-.929.358-.929.8 0 .442.416.8.929.8z" fill="#fff"/><mask id="c" maskUnits="userSpaceOnUse" x="1" y="9" width="3" height="3"><path fill-rule="evenodd" clip-rule="evenodd" d="M2.786 11.2c.513 0 .928-.358.928-.8 0-.442-.415-.8-.928-.8-.513 0-.929.358-.929.8 0 .442.416.8.929.8z" fill="#fff"/></mask><g mask="url(#c)"><path fill-rule="evenodd" clip-rule="evenodd" d="M2.786 10.8c.17 0 .31-.18.31-.4 0-.22-.14-.4-.31-.4-.171 0-.31.18-.31.4 0 .22.139.4.31.4z" fill="#DD404F"/><path fill="#FBAF29" d="M1.857 9.6h.929v.8h-.929zm.929.8h.929v.8h-.929z"/></g><path fill-rule="evenodd" clip-rule="evenodd" d="M2.786 7.2c.513 0 .928-.358.928-.8 0-.442-.415-.8-.928-.8-.513 0-.929.358-.929.8 0 .442.416.8.929.8z" fill="#28AE67"/><mask id="d" maskUnits="userSpaceOnUse" x="1" y="5" width="3" height="3"><path fill-rule="evenodd" clip-rule="evenodd" d="M2.786 7.2c.513 0 .928-.358.928-.8 0-.442-.415-.8-.928-.8-.513 0-.929.358-.929.8 0 .442.416.8.929.8z" fill="#fff"/></mask><g mask="url(#d)"><path fill-rule="evenodd" clip-rule="evenodd" d="M2.786 6.8c.342 0 .619-.18.619-.4 0-.22-.277-.4-.62-.4-.341 0-.618.18-.618.4 0 .22.277.4.619.4z" fill="#DD404F"/></g><path fill-rule="evenodd" clip-rule="evenodd" d="M2.786 8.8c.513 0 .928-.18.928-.4 0-.22-.415-.4-.928-.4-.513 0-.929.18-.929.4 0 .22.416.4.929.4z" fill="#28AE67"/><path fill-rule="evenodd" clip-rule="evenodd" d="M2.786 4.8c.513 0 .928-.358.928-.8 0-.442-.415-.8-.928-.8-.513 0-.929.358-.929.8 0 .442.416.8.929.8z" fill="#FBAF29"/><mask id="e" maskUnits="userSpaceOnUse" x="1" y="3" width="3" height="2"><path fill-rule="evenodd" clip-rule="evenodd" d="M2.786 4.8c.513 0 .928-.358.928-.8 0-.442-.415-.8-.928-.8-.513 0-.929.358-.929.8 0 .442.416.8.929.8z" fill="#fff"/></mask><g mask="url(#e)"><path fill-rule="evenodd" clip-rule="evenodd" d="M2.786 4.4c.17 0 .31-.18.31-.4 0-.22-.14-.4-.31-.4-.171 0-.31.18-.31.4 0 .22.139.4.31.4z" fill="#DD404F"/><path fill="#28AE67" d="M1.857 3.2h.619v1.6h-.619zm1.238 0h.619v1.6h-.619z"/></g><path fill-rule="evenodd" clip-rule="evenodd" d="M6.882 2.543a.485.485 0 00.038.563c.131.142.326.12.436-.049a.485.485 0 00-.038-.563c-.13-.142-.326-.12-.436.049zm-.802 1.55c-.131-.141-.326-.12-.436.05a.485.485 0 00.038.563c.131.142.326.12.436-.049a.485.485 0 00-.038-.563zm-.62-.8c-.13-.141-.325-.12-.435.05a.485.485 0 00.038.563c.13.142.326.12.436-.049a.485.485 0 00-.038-.563zm1.239-1.6c-.131-.141-.326-.12-.436.05a.485.485 0 00.038.563c.131.142.326.12.436-.049a.485.485 0 00-.038-.563zm-.31 1.2c-.13-.141-.326-.12-.436.05a.485.485 0 00.039.563c.13.142.326.12.436-.049a.485.485 0 00-.039-.563z" fill="#fff"/><path fill-rule="evenodd" clip-rule="evenodd" d="M8.114 5.67c-.737.953-1.933.953-2.67 0a2.402 2.402 0 01-.194-.292c.739.693 1.778.61 2.444-.25.666-.86.73-2.204.194-3.158.079.074.155.157.226.25.737.953.737 2.497 0 3.45z" fill="#fff"/></g></svg>