<svg width="13" height="12" fill="none" xmlns="http://www.w3.org/2000/svg"><rect width="13" height="12" rx="2" fill="#fff"/><mask id="a" maskUnits="userSpaceOnUse" x="0" y="0" width="13" height="12"><rect width="13" height="12" rx="2" fill="#fff"/></mask><g mask="url(#a)"><path fill="#E92434" d="M0 0h13v12H0z"/><path fill-rule="evenodd" clip-rule="evenodd" d="M9.286 6c0 1.988-1.248 3.6-2.786 3.6-1.539 0-2.786-1.612-2.786-3.6S4.961 2.4 6.5 2.4c1.538 0 2.786 1.612 2.786 3.6zM5.57 6c0-1.33.773-2.427 1.77-2.581A1.748 1.748 0 006.5 3.2C5.303 3.2 4.333 4.454 4.333 6c0 1.546.97 2.8 2.167 2.8.298 0 .582-.078.84-.219C6.345 8.427 5.572 7.33 5.572 6zm1.453 1.593l.569-.89.837.403-.48-.974.556-.904-.865.289-.493-.963-.055 1.153-.861.309.831.423-.039 1.154z" fill="#fff"/></g></svg>