<svg width="13" height="12" viewBox="0 0 13 12" fill="none" xmlns="http://www.w3.org/2000/svg">
<rect x="0.25" y="0.25" width="12.5" height="11.5" rx="1.75" fill="white" stroke="#F5F5F5" stroke-width="0.5"/>
<mask id="mask0" mask-type="alpha" maskUnits="userSpaceOnUse" x="0" y="0" width="13" height="12">
<rect x="0.25" y="0.25" width="12.5" height="11.5" rx="1.75" fill="white" stroke="white" stroke-width="0.5"/>
</mask>
<g mask="url(#mask0)">
<path fill-rule="evenodd" clip-rule="evenodd" d="M13 0H7.42857V6.4H0V12H13V0Z" fill="#E20F1B"/>
<path fill-rule="evenodd" clip-rule="evenodd" d="M3.42863 0.799999C3.24453 0.799999 3.09529 0.949237 3.09529 1.13333V2.4H2.19051C2.00642 2.4 1.85718 2.54924 1.85718 2.73333V3.66667C1.85718 3.85076 2.00642 4 2.19051 4H3.09529V5.26666C3.09529 5.45076 3.24453 5.6 3.42863 5.6H4.00006C4.18415 5.6 4.33339 5.45076 4.33339 5.26667V4H5.23813C5.42223 4 5.57146 3.85076 5.57146 3.66667V2.73333C5.57146 2.54924 5.42223 2.4 5.23813 2.4H4.33339V1.13333C4.33339 0.949238 4.18415 0.799999 4.00006 0.799999H3.42863Z" fill="url(#paint0_linear)"/>
</g>
<defs>
<linearGradient id="paint0_linear" x1="1.85718" y1="0.799999" x2="1.85718" y2="5.6" gradientUnits="userSpaceOnUse">
<stop stop-color="#DF101B"/>
<stop offset="1" stop-color="#C00711"/>
</linearGradient>
</defs>
</svg>
