<svg width="13" height="12" fill="none" xmlns="http://www.w3.org/2000/svg"><rect x=".25" y=".25" width="12.5" height="11.5" rx="1.75" fill="#fff" stroke="#F5F5F5" stroke-width=".5"/><mask id="a" maskUnits="userSpaceOnUse" x="0" y="0" width="13" height="12"><rect x=".25" y=".25" width="12.5" height="11.5" rx="1.75" fill="#fff" stroke="#fff" stroke-width=".5"/></mask><g mask="url(#a)" fill-rule="evenodd" clip-rule="evenodd"><path d="M13 0H7.429v6.4H0V12h13V0z" fill="#E20F1B"/><path d="M3.429.8a.333.333 0 00-.334.333V2.4h-.904a.333.333 0 00-.334.333v.934c0 .184.15.333.334.333h.904v1.267c0 .184.15.333.334.333H4c.184 0 .333-.15.333-.333V4h.905c.184 0 .333-.15.333-.333v-.934a.333.333 0 00-.333-.333h-.905V1.133A.333.333 0 004 .8h-.57z" fill="url(#paint0_linear)"/></g><defs><linearGradient id="paint0_linear" x1="1.857" y1=".8" x2="1.857" y2="5.6" gradientUnits="userSpaceOnUse"><stop stop-color="#DF101B"/><stop offset="1" stop-color="#C00711"/></linearGradient></defs></svg>