<svg width="13" height="12" viewBox="0 0 13 12" fill="none" xmlns="http://www.w3.org/2000/svg">
<rect width="13" height="12" rx="2" fill="white"/>
<mask id="mask0" mask-type="alpha" maskUnits="userSpaceOnUse" x="0" y="0" width="13" height="12">
<rect width="13" height="12" rx="2" fill="white"/>
</mask>
<g mask="url(#mask0)">
<path fill-rule="evenodd" clip-rule="evenodd" d="M0 1.6H13V0H0V1.6Z" fill="#262626"/>
<path fill-rule="evenodd" clip-rule="evenodd" d="M0 8H13V6.4H0V8Z" fill="#262626"/>
<path fill-rule="evenodd" clip-rule="evenodd" d="M0 6.4H13V4H0V6.4Z" fill="#ED1623"/>
<path fill-rule="evenodd" clip-rule="evenodd" d="M0 4H13V1.6H0V4Z" fill="#FEE044"/>
<path fill-rule="evenodd" clip-rule="evenodd" d="M0 12H13V10.4H0V12Z" fill="#ED1623"/>
<path fill-rule="evenodd" clip-rule="evenodd" d="M0 10.4H13V8H0V10.4Z" fill="#FEE044"/>
<path fill-rule="evenodd" clip-rule="evenodd" d="M6.49992 8.8C7.69653 8.8 8.66658 7.5464 8.66658 6C8.66658 4.4536 7.69653 3.2 6.49992 3.2C5.3033 3.2 4.33325 4.4536 4.33325 6C4.33325 7.5464 5.3033 8.8 6.49992 8.8Z" fill="white"/>
<path fill-rule="evenodd" clip-rule="evenodd" d="M6.0357 4.6C5.94457 4.48224 5.94457 4.31776 6.0357 4.2L6.18007 4.01342C6.18699 4.00449 6.1931 3.99521 6.19885 3.98548C6.20609 3.9732 6.2177 3.95408 6.23233 3.93184C6.31852 3.80087 6.71813 3.82857 6.79239 3.96666V3.96666C6.81744 4.01323 6.7987 4.02794 6.77961 4.07726L6.52244 4.74196C6.5076 4.78032 6.49998 4.8211 6.49998 4.86224V5.01852C6.49998 5.13167 6.55738 5.23709 6.65241 5.29849L7.07118 5.56908C7.10285 5.58954 7.13082 5.61524 7.1539 5.64506L7.62293 6.2512C7.6944 6.34355 7.71232 6.46657 7.67019 6.57547L7.53408 6.92725C7.48771 7.0471 7.32822 7.07034 7.24958 6.96871V6.96871C7.1835 6.88331 7.05456 6.88331 6.98848 6.96871L6.87424 7.11635C6.83227 7.17058 6.80951 7.2372 6.80951 7.30577V7.52738C6.80951 7.57446 6.82514 7.6202 6.85395 7.65743V7.65743C6.96202 7.7971 6.86248 8 6.68588 8H6.62361C6.44701 8 6.34747 7.7971 6.45554 7.65743V7.65743C6.48435 7.6202 6.49998 7.57446 6.49998 7.52738V7.40765C6.49998 7.29297 6.40702 7.2 6.29233 7.2V7.2C6.22808 7.2 6.16744 7.22975 6.12811 7.28057L6.07453 7.34981C5.97654 7.47645 5.78533 7.47645 5.68734 7.34981V7.34981C5.61908 7.2616 5.61908 7.1384 5.68734 7.05019L5.80744 6.89498C5.8538 6.83507 5.92528 6.8 6.00104 6.8V6.8C6.20446 6.8 6.31913 6.56628 6.19464 6.4054L5.72926 5.80399C5.63632 5.68388 5.63632 5.51612 5.72926 5.39601L6.0357 5C6.12682 4.88224 6.12682 4.71776 6.0357 4.6V4.6Z" fill="#262626"/>
</g>
</svg>
