<svg width="13" height="12" fill="none" xmlns="http://www.w3.org/2000/svg"><rect x=".25" y=".25" width="12.5" height="11.5" rx="1.75" fill="#fff" stroke="#F5F5F5" stroke-width=".5"/><mask id="a" maskUnits="userSpaceOnUse" x="0" y="0" width="13" height="12"><rect x=".25" y=".25" width="12.5" height="11.5" rx="1.75" fill="#fff" stroke="#fff" stroke-width=".5"/></mask><g mask="url(#a)" fill-rule="evenodd" clip-rule="evenodd"><path d="M0 8v1.6h13V0v1.6H6.19v1.6H13v1.6H6.19v1.6H13V8H0zm0 4v-.8h13v.8H0z" fill="#0E4DC5"/><path d="M3.095 5.593l-.413.797-.105-.95-.64.487.225-.915-.74.08.51-.699-.694-.343.694-.343-.51-.698.74.08-.225-.915.64.486.105-.95.413.798.414-.798.104.95.64-.486-.224.914.74-.08-.51.699.693.343-.693.343.51.698-.74-.079.224.915-.64-.487-.104.95-.414-.797zm0-.016c.653 0 1.182-.683 1.182-1.527 0-.843-.529-1.527-1.182-1.527-.652 0-1.182.684-1.182 1.527 0 .844.53 1.527 1.182 1.527zM4.024 4c0 .663-.416 1.2-.929 1.2-.513 0-.928-.537-.928-1.2 0-.663.415-1.2.928-1.2.513 0 .929.537.929 1.2z" fill="#FED443"/></g></svg>