<svg width="13" height="12" viewBox="0 0 13 12" fill="none" xmlns="http://www.w3.org/2000/svg">
<rect width="13" height="12" rx="2" fill="white"/>
<mask id="mask0" mask-type="alpha" maskUnits="userSpaceOnUse" x="0" y="0" width="13" height="12">
<rect width="13" height="12" rx="2" fill="white"/>
</mask>
<g mask="url(#mask0)">
<path fill-rule="evenodd" clip-rule="evenodd" d="M0 8H13V4H0V8Z" fill="#063191"/>
<path fill-rule="evenodd" clip-rule="evenodd" d="M0 12H13V8H0V12Z" fill="#E2213B"/>
<path fill-rule="evenodd" clip-rule="evenodd" d="M6.49992 5.6C6.67086 5.6 6.80944 5.42091 6.80944 5.2C6.80944 4.97909 6.67086 4.8 6.49992 4.8C6.32897 4.8 6.19039 4.97909 6.19039 5.2C6.19039 5.42091 6.32897 5.6 6.49992 5.6ZM5.2618 6C5.43275 6 5.57133 5.82091 5.57133 5.6C5.57133 5.37909 5.43275 5.2 5.2618 5.2C5.09086 5.2 4.95228 5.37909 4.95228 5.6C4.95228 5.82091 5.09086 6 5.2618 6ZM8.04756 5.6C8.04756 5.82091 7.90898 6 7.73804 6C7.56709 6 7.42851 5.82091 7.42851 5.6C7.42851 5.37909 7.56709 5.2 7.73804 5.2C7.90898 5.2 8.04756 5.37909 8.04756 5.6ZM4.64278 7.2C4.81372 7.2 4.9523 7.02091 4.9523 6.8C4.9523 6.57909 4.81372 6.4 4.64278 6.4C4.47183 6.4 4.33325 6.57909 4.33325 6.8C4.33325 7.02091 4.47183 7.2 4.64278 7.2ZM8.66658 6.8C8.66658 7.02091 8.52801 7.2 8.35706 7.2C8.18612 7.2 8.04754 7.02091 8.04754 6.8C8.04754 6.57909 8.18612 6.4 8.35706 6.4C8.52801 6.4 8.66658 6.57909 8.66658 6.8Z" fill="white"/>
<path fill-rule="evenodd" clip-rule="evenodd" d="M0 4H13V0H0V4Z" fill="#FFD044"/>
</g>
</svg>
