<svg width="13" height="12" fill="none" xmlns="http://www.w3.org/2000/svg"><rect width="13" height="12" rx="2" fill="#fff"/><mask id="a" maskUnits="userSpaceOnUse" x="0" y="0" width="13" height="12"><rect width="13" height="12" rx="2" fill="#fff"/></mask><g mask="url(#a)"><path fill="#07319C" d="M0 0h13v12H0z"/><path fill-rule="evenodd" clip-rule="evenodd" d="M8.048 6V4.533c0-.736.597-1.333 1.333-1.333h.429c.736 0 1.333.597 1.333 1.333V6c0 2-1.548 2.8-1.548 2.8S8.048 8 8.048 6z" fill="#008339"/><mask id="b" maskUnits="userSpaceOnUse" x="8" y="3" width="4" height="6"><path fill-rule="evenodd" clip-rule="evenodd" d="M8.048 6V4.533c0-.736.597-1.333 1.333-1.333h.429c.736 0 1.333.597 1.333 1.333V6c0 2-1.548 2.8-1.548 2.8S8.048 8 8.048 6z" fill="#fff"/></mask><g mask="url(#b)" fill-rule="evenodd" clip-rule="evenodd"><path d="M8.976 4.8c.171 0 .31-.18.31-.4 0-.22-.139-.4-.31-.4-.17 0-.31.18-.31.4 0 .22.14.4.31.4zm0 .8c.171 0 .31-.18.31-.4 0-.22-.139-.4-.31-.4-.17 0-.31.18-.31.4 0 .22.14.4.31.4zm.31.4c0 .22-.139.4-.31.4.171 0 .31.18.31.4 0 .22-.139.4-.31.4-.17 0-.31-.18-.31-.4 0-.22.14-.4.31-.4-.17 0-.31-.18-.31-.4 0-.22.14-.4.31-.4.171 0 .31.18.31.4zm1.238.8c0 .22-.139.4-.31.4-.17 0-.31-.18-.31-.4 0-.22.14-.4.31-.4-.17 0-.31-.18-.31-.4 0-.22.14-.4.31-.4.171 0 .31.18.31.4 0 .22-.139.4-.31.4.171 0 .31.18.31.4zm0-1.6c0 .22-.139.4-.31.4-.17 0-.31-.18-.31-.4 0-.22.14-.4.31-.4" fill="#FFD033"/><path d="M9.595 6.8c.171 0 .31-.537.31-1.2 0-.663-.139-1.2-.31-1.2-.17 0-.31.537-.31 1.2 0 .663.14 1.2.31 1.2z" fill="#fff"/></g><path d="M7.738 8c0 .763.846 1.2 1.857 1.2 1.012 0 1.857-.437 1.857-1.2 0-.22-.138-.4-.31-.4-.17 0-.309.18-.309.4 0 .008-.075.1-.258.194-.25.13-.601.206-.98.206-.378 0-.73-.077-.98-.206-.183-.095-.258-.186-.258-.194 0-.22-.138-.4-.31-.4-.17 0-.309.18-.309.4z" fill="#FFD033"/><path d="M0-.333h-.75l.503.556 2.08 2.305v.526l-2.06 1.901-.106.1v1.242l.542-.439 2.385-1.926h.37l2.038 1.88a.45.45 0 00.64-.632L3.738 3.07v-.525L5.69.744a.667.667 0 00.215-.49v-.952l-.543.439-2.385 1.926h-.37L.536-.245.44-.333H0z" fill="#DB1E36" stroke="#fff" stroke-width=".667"/><path fill-rule="evenodd" clip-rule="evenodd" d="M0 2v1.6h2.167v1.781a.62.62 0 001.238 0V3.6h1.81a.667.667 0 00.666-.667v-.266A.667.667 0 005.214 2h-1.81V0H2.168v2H0z" fill="#fff"/><path fill-rule="evenodd" clip-rule="evenodd" d="M0 2.4h2.476V0h.62v2.4H5.57v.8H3.095v2.4h-.619V3.2H0v-.8z" fill="#DB1E36"/></g></svg>