<svg width="13" height="12" viewBox="0 0 13 12" fill="none" xmlns="http://www.w3.org/2000/svg">
<rect width="13" height="12" rx="2" fill="white"/>
<mask id="mask0" mask-type="alpha" maskUnits="userSpaceOnUse" x="0" y="0" width="13" height="12">
<rect width="13" height="12" rx="2" fill="white"/>
</mask>
<g mask="url(#mask0)">
<rect width="13" height="12" fill="#19BFBF"/>
<path fill-rule="evenodd" clip-rule="evenodd" d="M6.49998 10.4C8.38037 10.4 9.90474 8.43004 9.90474 5.99999C9.90474 3.56994 8.38037 1.59999 6.49998 1.59999C4.61958 1.59999 3.09521 3.56994 3.09521 5.99999C3.09521 8.43004 4.61958 10.4 6.49998 10.4ZM9.26867 6.39999C9.15375 7.74347 8.46676 8.86413 7.52947 9.34616C7.83129 8.55174 8.00761 7.5168 8.04157 6.39999H9.26867ZM6.49996 9.59999C6.56009 9.59999 6.61979 9.59753 6.67898 9.59268C7.10406 8.94205 7.3767 7.74942 7.4219 6.39999H5.57807C5.62327 7.74942 5.89591 8.94205 6.321 9.59268C6.38017 9.59753 6.43984 9.59999 6.49996 9.59999ZM5.47052 9.3462C4.53319 8.8642 3.84617 7.74351 3.73124 6.39999H4.95841C4.99237 7.51682 5.16869 8.55178 5.47052 9.3462ZM5.57807 5.59999H7.4219C7.3767 4.25057 7.10407 3.05794 6.67898 2.40731C6.61979 2.40246 6.5601 2.39999 6.49996 2.39999C6.43984 2.39999 6.38017 2.40245 6.321 2.4073C5.89591 3.05793 5.62327 4.25056 5.57807 5.59999ZM5.47051 2.65379C5.16869 3.44821 4.99237 4.48316 4.95841 5.59999H3.73124C3.84617 4.25648 4.53319 3.13579 5.47051 2.65379ZM9.26867 5.59999H8.04157C8.00761 4.48318 7.83129 3.44824 7.52948 2.65383C8.46676 3.13585 9.15374 4.25651 9.26867 5.59999Z" fill="white"/>
</g>
</svg>
