<svg width="13" height="12" viewBox="0 0 13 12" fill="none" xmlns="http://www.w3.org/2000/svg">
<rect width="13" height="12" rx="2" fill="#009F60"/>
<mask id="mask0" mask-type="alpha" maskUnits="userSpaceOnUse" x="0" y="0" width="13" height="12">
<rect width="13" height="12" rx="2" fill="white"/>
</mask>
<g mask="url(#mask0)">
<rect x="11.1428" y="6.39999" width="1.85714" height="5.6" fill="#EA8B42"/>
<path fill-rule="evenodd" clip-rule="evenodd" d="M9.28577 12H11.1429V6.39999H9.28577V12Z" fill="#1A1919"/>
<path fill-rule="evenodd" clip-rule="evenodd" d="M7.42859 12H9.28573V6.39999H7.42859V12Z" fill="#DB3C36"/>
<path fill-rule="evenodd" clip-rule="evenodd" d="M9.75653 2.09043C9.71387 2.09198 9.68251 2.07288 9.67129 2.04078C9.74085 1.98803 9.78789 1.9998 9.84623 2.067C9.85745 2.01446 9.84623 1.95593 9.82156 1.92083C9.79688 1.88574 9.77667 1.88574 9.74308 1.88274C9.70941 1.87985 9.67574 1.86819 9.6533 1.86819C9.62043 1.77456 9.53805 1.8142 9.45893 1.8526C9.33031 1.91495 9.21475 2.02819 9.16285 2.14122C9.13913 2.19294 9.13627 2.21327 9.1217 2.24259C9.13372 2.24063 9.13293 2.24063 9.14041 2.23474C9.13141 2.36347 9.11948 2.48238 9.13738 2.55846C9.11502 2.66963 9.13293 2.73983 9.15983 2.77492C9.18681 2.81002 9.19795 2.82468 9.20249 2.86566C9.20695 2.90654 9.2204 2.94452 9.24284 2.96796C9.26529 2.99139 9.27874 3.02648 9.28097 3.04703C9.2832 3.06747 9.3526 3.15562 9.38189 3.17864C9.39311 3.18731 9.39534 3.20496 9.40887 3.22829C9.37966 3.45064 9.49634 3.67299 9.46936 3.89234C9.48958 3.89523 9.51648 3.89234 9.54346 3.88357C9.56583 4.07072 9.57928 4.16145 9.45368 4.21699C9.32809 4.27263 9.2594 4.32734 9.29442 4.38958C9.31909 4.43345 9.37019 4.39526 9.40211 4.35738C9.42678 4.32816 9.45591 4.30184 9.47836 4.29307C9.5008 4.28429 9.50534 4.29307 9.49403 4.33105C9.48281 4.36914 9.42232 4.451 9.42001 4.49198C9.41779 4.53296 9.44469 4.56218 9.48735 4.52997C9.52993 4.49776 9.56742 4.41353 9.57705 4.36326C9.58373 4.32816 9.59504 4.30473 9.59273 4.36326C9.5905 4.42179 9.5636 4.52708 9.62417 4.54463C9.68474 4.56218 9.70272 4.46855 9.68251 4.3837C9.66229 4.29895 9.65561 4.25208 9.66452 4.22287C9.67351 4.19356 9.68251 4.17611 9.70487 4.18478C9.72732 4.19356 9.77221 4.18189 9.76998 4.13513C9.76767 4.08837 9.73631 4.05028 9.70042 4.0766C9.66452 4.10292 9.63762 4.099 9.6533 4.0415C9.66452 4.00052 9.68474 3.95077 9.68697 3.91867C9.71164 3.96543 9.85069 3.97131 9.9068 3.92744C9.92025 4.01518 9.95615 4.09415 9.87767 4.17611C9.79911 4.25797 9.73631 4.33694 9.73854 4.39547C9.74085 4.45399 9.75876 4.48899 9.79911 4.45978C9.83946 4.43056 9.86414 4.38958 9.87313 4.35159C9.88212 4.3135 9.90011 4.3135 9.89112 4.36037C9.88212 4.40713 9.86645 4.47443 9.87313 4.51541C9.8799 4.55629 9.92924 4.55928 9.94938 4.52119C9.9696 4.48321 9.96506 4.43345 9.9606 4.3837C9.95615 4.33394 9.96291 4.2814 9.97182 4.26086C9.98082 4.24042 9.99873 4.2111 10.0167 4.26674C10.0347 4.32228 10.0436 4.36615 10.0795 4.38081C10.1154 4.39547 10.1423 4.37492 10.1356 4.31939C10.1289 4.26385 10.0817 4.20233 10.0347 4.15557C9.98758 4.10881 10.0033 4.08538 10.0055 4.0415C10.0077 3.99763 10.001 3.91867 9.99873 3.88357C10.0414 3.92455 10.0885 3.91867 10.1109 3.91867C10.1333 3.91867 10.1702 3.90968 10.1333 3.86602C10.0593 3.77828 10.084 3.72553 10.0324 3.66122C9.98082 3.59691 9.9337 3.4974 9.91802 3.41265C9.90226 3.3278 9.86772 3.17276 9.79911 3.09379C9.76099 3.04992 9.74976 2.92997 9.75876 2.79247C9.76767 2.65498 9.76998 2.50292 9.67351 2.43273C9.57705 2.36254 9.57928 2.30401 9.61072 2.24259C9.64208 2.18117 9.68243 2.12109 9.73408 2.11676C9.7457 2.11583 9.77253 2.11294 9.78343 2.10261C9.77858 2.09776 9.7707 2.09002 9.75653 2.09043" fill="#EA8B42"/>
<path fill-rule="evenodd" clip-rule="evenodd" d="M9.1292 2.4064C9.12681 2.46586 9.12793 2.5182 9.1374 2.55845C9.11503 2.66963 9.13294 2.73982 9.15984 2.77492C9.18683 2.81002 9.19797 2.82467 9.20251 2.86565C9.20696 2.90653 9.22041 2.94452 9.24286 2.96795C9.2653 2.99138 9.27875 3.02648 9.28098 3.04702C9.28321 3.06746 9.35262 3.15562 9.38191 3.17864C9.39313 3.18731 9.39536 3.20496 9.40889 3.22829C9.39671 3.32067 9.40952 3.41306 9.42703 3.50524C9.26849 3.6768 9.11201 3.59587 9.17783 3.42039C9.04619 3.55685 8.81895 3.55304 8.86981 3.42039C8.66343 3.51402 8.60063 3.43598 8.62753 3.3502C8.4541 3.4399 8.36432 3.35412 8.38828 3.29167C8.2447 3.34235 8.15197 3.31118 8.13701 3.28C8.12213 3.24883 8.15794 3.17864 8.19089 3.14354C8.12507 3.17471 8.06227 3.17471 8.00242 3.16305C7.94265 3.15128 7.95761 3.12785 7.96955 3.09275C7.98157 3.05765 7.99725 3.00212 8.04508 2.94751C7.93071 2.97673 7.78712 2.99727 7.6862 2.95329C7.66718 2.94504 7.63463 2.93574 7.65476 2.90953C7.67498 2.8832 7.73555 2.81879 7.80957 2.77781C7.64131 2.81002 7.32278 2.83345 7.23308 2.70184C7.32056 2.72516 7.4327 2.6784 7.50449 2.64042C7.22186 2.59944 6.83608 2.34787 6.83154 2.1022C6.91233 2.2718 7.05146 2.33033 7.1905 2.38297C7.00203 2.23959 6.92355 2.067 6.91687 1.95293C7.02447 2.08754 7.18819 2.23959 7.34977 2.27479C7.23531 2.19582 7.08727 1.9647 7.04692 1.80377C7.12993 1.90029 7.343 2.05533 7.48881 2.10509C7.38789 2.00269 7.22417 1.7599 7.23308 1.6254C7.27121 1.67515 7.36545 1.76867 7.5583 1.91495C7.75123 2.06122 7.85589 2.05048 8.01515 2.09435C7.98602 2.04367 7.95984 1.97636 7.95761 1.95882C8.00473 1.96759 8.04954 1.99102 8.18413 2.0992C8.31872 2.20749 8.61281 2.24062 8.78083 2.33621C8.90412 2.4064 9.07985 2.36253 9.1292 2.4064" fill="#EA8B42"/>
<path fill-rule="evenodd" clip-rule="evenodd" d="M10.1444 3.90865C10.1518 3.90101 10.1518 3.8878 10.1333 3.86602C10.0593 3.77828 10.084 3.72553 10.0324 3.66122C9.98084 3.59691 9.93372 3.4974 9.91804 3.41265C9.90228 3.3278 9.86774 3.17276 9.79913 3.09379C9.76101 3.04992 9.74978 2.92997 9.75878 2.79247C9.76642 2.67479 9.7692 2.54648 9.70935 2.46793C9.8215 2.42695 9.92481 2.41807 9.96062 2.46483C10.1468 2.40341 10.3084 2.38483 10.4668 2.37131C10.6493 2.35562 10.9932 2.25425 11.2385 2.03975C11.2235 2.11779 11.1398 2.23474 11.065 2.29327C11.3132 2.21523 11.6123 2.07092 11.8665 1.82525C11.8635 1.99691 11.7559 2.12553 11.693 2.19583C11.8665 2.07092 12.1207 1.91495 12.2074 1.71996C12.2455 1.9198 11.9862 2.18117 11.8455 2.32548C11.9891 2.23577 12.1745 2.15288 12.2463 2.02024C12.2448 2.1821 12.0818 2.38297 11.9263 2.49993C12.0848 2.42199 12.2613 2.34003 12.3629 2.21916C12.3749 2.38205 11.8889 2.75645 11.6481 2.85874C11.8575 2.79247 12.1297 2.70277 12.2493 2.60914C12.2433 2.64228 12.1945 2.68873 12.159 2.72259C12.0127 2.86236 11.7884 2.9374 11.6512 2.97188C11.6691 3.06943 11.6452 3.12403 11.5615 3.13178C11.4777 3.13962 11.2751 3.09771 11.1734 3.03134C11.1585 3.043 11.1405 3.04703 11.1203 3.04992C11.219 3.14643 11.2526 3.21663 11.2324 3.25761C11.2123 3.29859 11.1416 3.29116 11.0878 3.2766C11.1304 3.43165 10.9879 3.42143 10.8691 3.33358C10.9162 3.41265 10.923 3.47985 10.8579 3.4974C10.7928 3.51495 10.7412 3.50917 10.6784 3.45642C10.6739 3.51495 10.6305 3.55397 10.573 3.53446C10.7704 3.6895 10.7592 3.74607 10.7255 3.8045C10.6919 3.86303 10.5741 3.85136 10.5113 3.79872C10.4844 3.91867 10.3771 3.91908 10.2971 3.82359C10.2963 3.87139 10.2199 3.96625 10.1444 3.90865" fill="#EA8B42"/>
<path fill-rule="evenodd" clip-rule="evenodd" d="M9.22867 4.49682C9.23194 4.45987 9.23464 4.41693 9.25852 4.38957C9.28248 4.36222 9.29744 4.33889 9.31837 4.36614C9.3393 4.39349 9.32585 4.41889 9.29744 4.43055C9.26903 4.44222 9.2496 4.47535 9.24507 4.49682C9.24061 4.51829 9.22565 4.52996 9.22867 4.49682" fill="black"/>
<path fill-rule="evenodd" clip-rule="evenodd" d="M9.39165 4.67624C9.37685 4.61492 9.38425 4.53585 9.40064 4.51242C9.41712 4.48899 9.43805 4.4734 9.45747 4.49683C9.47689 4.52026 9.48438 4.5534 9.44848 4.57291C9.41672 4.59015 9.4141 4.6333 9.41266 4.66457C9.41115 4.69575 9.40064 4.7133 9.39165 4.67624" fill="black"/>
<path fill-rule="evenodd" clip-rule="evenodd" d="M9.60102 4.5183C9.58948 4.54338 9.60397 4.64506 9.64289 4.67035C9.67043 4.68831 9.68324 4.68408 9.66677 4.65084C9.65037 4.6177 9.65634 4.58653 9.66533 4.56898C9.67425 4.55143 9.67281 4.52026 9.65331 4.50467C9.63389 4.48898 9.60994 4.49879 9.60102 4.5183" fill="black"/>
<path fill-rule="evenodd" clip-rule="evenodd" d="M9.76992 4.42663C9.74525 4.40248 9.72209 4.43149 9.71309 4.45192C9.69511 4.49291 9.70864 4.55143 9.73705 4.58457C9.76546 4.61771 9.76093 4.57291 9.75193 4.5534C9.74302 4.53389 9.74151 4.49487 9.76093 4.49094C9.78035 4.48712 9.79388 4.44996 9.76992 4.42663" fill="black"/>
<path fill-rule="evenodd" clip-rule="evenodd" d="M9.91049 4.4929C9.88646 4.48371 9.86266 4.51633 9.8656 4.55535C9.86783 4.58446 9.87014 4.62162 9.89251 4.64113C9.90755 4.65414 9.91798 4.6626 9.91049 4.6275C9.90301 4.59241 9.91503 4.56309 9.9284 4.55339C9.94185 4.54368 9.93588 4.5027 9.91049 4.4929" fill="black"/>
<path fill-rule="evenodd" clip-rule="evenodd" d="M10.1094 4.32712C10.092 4.34302 10.0929 4.37987 10.1094 4.3935C10.1258 4.40712 10.1498 4.42663 10.1453 4.45977C10.1408 4.4929 10.1542 4.50467 10.1662 4.46761C10.1782 4.43055 10.1797 4.37595 10.1662 4.35055C10.1527 4.32516 10.1243 4.3135 10.1094 4.32712" fill="black"/>
<path fill-rule="evenodd" clip-rule="evenodd" d="M9.67573 2.03811C9.68613 2.06787 9.71593 2.08544 9.7563 2.08398L9.75633 2.08398C9.76916 2.0836 9.77692 2.08805 9.78627 2.10782C9.77641 2.11715 9.75784 2.12131 9.73431 2.12319C9.69145 2.12678 9.654 2.16931 9.61477 2.24615C9.57944 2.31517 9.59181 2.36594 9.67586 2.4271C9.75939 2.48788 9.77654 2.59375 9.76362 2.79301C9.75415 2.9378 9.76779 3.04922 9.80232 3.08896C9.85945 3.15471 9.89625 3.26834 9.92277 3.41114C9.9379 3.49294 9.98371 3.59167 10.0358 3.65656C10.048 3.67181 10.0567 3.68719 10.0637 3.70473C10.0677 3.71483 10.0707 3.72394 10.0754 3.74029C10.0918 3.79673 10.1029 3.82134 10.1366 3.86125C10.1552 3.88337 10.1589 3.90177 10.1474 3.91374C10.1397 3.92164 10.126 3.92511 10.1108 3.92511L10.1025 3.92525C10.0663 3.92612 10.043 3.92228 10.0162 3.90501C10.0122 3.90247 10.0083 3.89966 10.0045 3.89659L10.0068 3.92913C10.0078 3.94361 10.0086 3.95648 10.0092 3.96871C10.0108 3.9994 10.0113 4.02391 10.0104 4.04192C10.01 4.04874 10.0094 4.05468 10.0083 4.06405C10.0062 4.08134 10.0058 4.08607 10.0062 4.0936C10.0072 4.11204 10.0156 4.12859 10.0376 4.15044C10.0953 4.20775 10.1342 4.26696 10.1404 4.31839C10.1474 4.37617 10.1194 4.40387 10.0779 4.38695C10.0526 4.3766 10.0395 4.35515 10.0245 4.30866L10.012 4.26923C10.0047 4.24655 9.99805 4.23927 9.99218 4.24146C9.98714 4.24335 9.98152 4.25163 9.97607 4.26402C9.96684 4.28529 9.96143 4.33802 9.96545 4.38295L9.9655 4.38342C9.9723 4.45942 9.97113 4.4915 9.95339 4.52484C9.93089 4.5674 9.87592 4.56356 9.86817 4.51674C9.86464 4.49506 9.86661 4.46641 9.87293 4.42838C9.87467 4.41792 9.87668 4.40708 9.87929 4.39375L9.8862 4.3588C9.88966 4.34077 9.88871 4.33066 9.88786 4.33046C9.88646 4.33012 9.88131 4.33859 9.8778 4.35348C9.86773 4.396 9.84053 4.4371 9.80144 4.4654C9.76021 4.49525 9.73621 4.46488 9.73348 4.39578C9.73139 4.34072 9.7786 4.27097 9.87446 4.17108C9.89307 4.15164 9.90559 4.13189 9.91301 4.11122C9.92644 4.07378 9.9245 4.04503 9.90972 3.97159C9.90668 3.95647 9.90478 3.94662 9.90322 3.93731C9.84655 3.97483 9.72797 3.97161 9.69026 3.9325C9.6877 3.9479 9.68215 3.96669 9.67101 4.00107L9.67096 4.00124C9.66397 4.02283 9.66096 4.03245 9.6579 4.04365C9.65123 4.06809 9.65264 4.08099 9.6593 4.0845C9.66651 4.0883 9.68067 4.0836 9.69788 4.07098C9.73494 4.0438 9.77212 4.07939 9.77485 4.13472C9.77704 4.18053 9.73568 4.20359 9.70336 4.19096C9.68657 4.18445 9.67893 4.19305 9.66906 4.22524C9.66113 4.25121 9.6662 4.29386 9.68717 4.38179C9.71055 4.47992 9.68397 4.56858 9.62299 4.55092C9.58568 4.5401 9.57591 4.50186 9.58113 4.43495C9.58178 4.42666 9.58254 4.41874 9.58385 4.40637C9.5867 4.37932 9.58728 4.37316 9.58767 4.36292C9.58804 4.3535 9.58806 4.34607 9.58777 4.3407C9.58587 4.34647 9.58363 4.35514 9.58179 4.36481C9.57027 4.42491 9.52939 4.50556 9.48976 4.53554C9.44719 4.56767 9.41218 4.54271 9.41496 4.4915C9.41602 4.47267 9.42642 4.44865 9.44783 4.40979L9.45376 4.3991C9.48089 4.35061 9.48537 4.34208 9.4893 4.32872C9.49917 4.29557 9.49771 4.29219 9.4797 4.29923C9.45946 4.30715 9.4315 4.33119 9.40537 4.36213C9.36104 4.41475 9.31405 4.43558 9.29031 4.39338C9.27151 4.35997 9.27928 4.32701 9.3107 4.29569C9.33834 4.26812 9.3849 4.24059 9.45199 4.21087C9.55829 4.16387 9.56643 4.11864 9.54458 3.88982C9.51757 3.8986 9.48999 3.90179 9.46436 3.89132C9.47536 3.80184 9.46673 3.72993 9.43389 3.56561C9.40028 3.39752 9.39145 3.3218 9.40481 3.23216C9.40132 3.22615 9.39838 3.22025 9.39535 3.2134L9.3889 3.19843C9.38554 3.19102 9.38287 3.18697 9.37922 3.18415C9.34735 3.1591 9.27837 3.0701 9.27595 3.04792C9.27352 3.02553 9.25884 2.99302 9.23963 2.97297C9.21705 2.9494 9.20232 2.91099 9.19747 2.86657C9.19364 2.83189 9.18795 2.82075 9.15621 2.77946C9.12303 2.73617 9.11206 2.65831 9.13254 2.56034C9.11871 2.5016 9.12 2.44503 9.13289 2.26855L9.1345 2.24613C9.13305 2.2468 9.13146 2.24727 9.12936 2.24772L9.12223 2.24898L9.11743 2.23909C9.1204 2.23312 9.12298 2.2273 9.12554 2.22092L9.12976 2.20993L9.12981 2.20979C9.12975 2.20995 9.12973 2.20999 9.12976 2.20993C9.13006 2.20904 9.13802 2.18713 9.14087 2.1797C9.146 2.16629 9.15156 2.15301 9.15849 2.13791C9.21119 2.02313 9.32792 1.90917 9.4571 1.84655C9.57952 1.78713 9.62872 1.78286 9.65321 1.86173C9.66402 1.86173 9.66949 1.86271 9.70131 1.86941C9.71952 1.87325 9.73117 1.87526 9.74333 1.8763L9.751 1.87697C9.77968 1.87947 9.79169 1.88278 9.80623 1.89508C9.81262 1.90049 9.81882 1.90749 9.82514 1.91648C9.85162 1.95414 9.86234 2.01529 9.85093 2.06872L9.84283 2.07182C9.78416 2.00423 9.73935 1.99657 9.67573 2.03811ZM9.78029 2.10772C9.77247 2.0999 9.76667 2.09658 9.75654 2.09688L9.75657 2.09688C9.71258 2.09847 9.67896 2.07865 9.66867 2.03521C9.7358 1.9843 9.78426 1.99048 9.84319 2.05515C9.84267 2.05856 9.84205 2.06193 9.84133 2.06527L9.84943 2.06217C9.84734 2.05976 9.84526 2.05742 9.84319 2.05515C9.85043 2.0085 9.84028 1.95719 9.81778 1.92517C9.812 1.91696 9.80643 1.91067 9.80079 1.90589C9.7881 1.89516 9.77739 1.89221 9.75032 1.88984L9.74265 1.88917C9.73011 1.8881 9.7182 1.88604 9.69971 1.88215C9.69393 1.88093 9.68905 1.87991 9.68482 1.87902C9.66631 1.87515 9.66051 1.87393 9.64867 1.87086C9.62301 1.79777 9.5779 1.80169 9.46057 1.85864C9.33337 1.9203 9.21846 2.03247 9.16703 2.14451C9.16023 2.15933 9.15479 2.17232 9.14976 2.18545C9.14696 2.19276 9.13902 2.21464 9.13872 2.21549M9.13146 2.23383C9.13165 2.23374 9.13183 2.23364 9.132 2.23354C9.13303 2.23294 9.13393 2.23225 9.13773 2.22922L9.14526 2.23532L9.14279 2.26976C9.13005 2.44403 9.12877 2.50021 9.14209 2.56008C9.1225 2.65747 9.1328 2.73064 9.16325 2.77036C9.19637 2.81345 9.20309 2.82661 9.20731 2.86475C9.21183 2.90615 9.22542 2.94158 9.24586 2.96292C9.267 2.98499 9.283 3.02042 9.28579 3.04612C9.28765 3.06319 9.35489 3.14995 9.38433 3.17309C9.38966 3.17721 9.39333 3.18278 9.39746 3.1919L9.40397 3.20698C9.40472 3.20867 9.40546 3.21029 9.40622 3.21196C9.40834 3.21662 9.41062 3.22163 9.41367 3.22937C9.40156 3.32155 9.41026 3.39606 9.4435 3.56237C9.4767 3.72843 9.48547 3.8015 9.4698 3.88592C9.48823 3.88856 9.51209 3.88618 9.54078 3.88332C9.54324 3.88307 9.54574 3.88282 9.54827 3.88257C9.57691 4.12222 9.56772 4.17333 9.45519 4.22309C9.38906 4.25238 9.34331 4.27943 9.31675 4.30592C9.28918 4.3334 9.28318 4.35885 9.29833 4.38577C9.31695 4.41887 9.35825 4.40056 9.39865 4.3526C9.42578 4.32048 9.45487 4.29546 9.47682 4.28688C9.50433 4.27613 9.51101 4.29157 9.49858 4.33335C9.49417 4.34833 9.48989 4.35648 9.46181 4.40668L9.45591 4.41729C9.43571 4.45396 9.42574 4.47699 9.42487 4.49243C9.42268 4.53286 9.44882 4.5515 9.48474 4.52439C9.52183 4.49633 9.56121 4.41865 9.57212 4.36171C9.57589 4.34191 9.58062 4.32693 9.58539 4.32278C9.59125 4.3177 9.59559 4.32334 9.59697 4.33237C9.59795 4.33879 9.59817 4.3491 9.59759 4.36357C9.59718 4.37434 9.5966 4.38059 9.59369 4.40812C9.5924 4.42035 9.59165 4.42815 9.59102 4.43625C9.58625 4.49742 9.59442 4.52942 9.62515 4.53832C9.67603 4.55307 9.69917 4.47591 9.67765 4.3856C9.65597 4.29469 9.65069 4.2503 9.6598 4.22048C9.67134 4.18286 9.68309 4.16964 9.70621 4.1786C9.73285 4.18901 9.76657 4.17022 9.76491 4.13554C9.76261 4.08887 9.73271 4.06025 9.70276 4.08221C9.68313 4.09661 9.66639 4.10217 9.65554 4.09646C9.6425 4.08958 9.6403 4.06945 9.64851 4.03934C9.65166 4.02783 9.65471 4.01806 9.66177 3.99624L9.66183 3.99607C9.67582 3.95289 9.68074 3.93496 9.68191 3.91808L9.69097 3.91502C9.71394 3.95855 9.85014 3.96412 9.90413 3.92191L9.91157 3.92618C9.91341 3.93818 9.9154 3.94877 9.91934 3.96833C9.93469 4.04467 9.93678 4.07552 9.92201 4.11666C9.91391 4.13924 9.90043 4.16051 9.88068 4.18113C9.78771 4.27801 9.74154 4.34622 9.74341 4.39513C9.74581 4.45607 9.76331 4.47822 9.79658 4.45414C9.83352 4.4274 9.85899 4.3889 9.86827 4.3497C9.87314 4.32907 9.88126 4.31572 9.88969 4.31778C9.899 4.32005 9.9006 4.33711 9.89584 4.36192L9.88892 4.39693C9.88633 4.41012 9.88436 4.42082 9.88264 4.43111C9.8766 4.46747 9.87473 4.49465 9.87789 4.51405C9.8836 4.54855 9.92717 4.5516 9.94518 4.51752C9.96102 4.48776 9.96212 4.4577 9.9556 4.38491L9.95556 4.38444C9.95131 4.33702 9.95699 4.28165 9.9674 4.25765C9.97409 4.24245 9.98105 4.23219 9.98942 4.22907C10.0015 4.22457 10.0122 4.23629 10.0212 4.26424L10.0336 4.30367C10.0476 4.34699 10.0591 4.36573 10.0809 4.37465C10.1156 4.38881 10.1364 4.36828 10.1306 4.32039C10.1249 4.27325 10.0873 4.2161 10.0316 4.16069C10.0075 4.13678 9.99748 4.11712 9.99627 4.09449C9.99579 4.08561 9.99623 4.08042 9.99846 4.06205C9.99955 4.05304 10.0001 4.04742 10.0004 4.04107C10.0013 4.02377 10.0008 3.99974 9.99928 3.96957C9.99866 3.95744 9.99787 3.94466 9.9969 3.93026L9.99367 3.88411L10.0016 3.87838C10.0077 3.88421 10.014 3.88922 10.0206 3.89346C10.0456 3.90956 10.0676 3.91318 10.1023 3.91235L10.1108 3.91221C10.1239 3.91221 10.1358 3.9092 10.1411 3.90368C10.1466 3.89801 10.1447 3.88831 10.1299 3.87078C10.0948 3.82925 10.083 3.80301 10.0661 3.74484C10.0615 3.72893 10.0587 3.72019 10.0549 3.71066C10.0484 3.69435 10.0403 3.68012 10.0288 3.66586C9.97548 3.59932 9.92868 3.49845 9.91308 3.41416C9.88702 3.27383 9.85082 3.16205 9.79571 3.09861C9.75801 3.05523 9.74397 2.94056 9.7537 2.79192C9.76631 2.59742 9.74983 2.49573 9.67098 2.43835C9.58213 2.3737 9.56775 2.31465 9.60647 2.23902C9.64727 2.15909 9.68677 2.11425 9.73367 2.11031C9.74042 2.10977 9.7468 2.10901 9.75261 2.10831C9.7652 2.1068 9.77513 2.10561 9.78029 2.10772M9.13146 2.23383C9.13055 2.23429 9.12949 2.23462 9.12774 2.23499L9.12098 2.23618L9.12578 2.24608C9.12781 2.242 9.12967 2.23798 9.13146 2.23383Z" fill="black"/>
<path fill-rule="evenodd" clip-rule="evenodd" d="M9.008 2.37591C9.08469 2.3794 9.11259 2.38385 9.13198 2.40108L9.13414 2.40674C9.13148 2.47292 9.13365 2.52055 9.14218 2.56008C9.12259 2.65748 9.13289 2.73064 9.16333 2.77036C9.19646 2.81345 9.20318 2.82661 9.2074 2.86475C9.21191 2.90615 9.2255 2.94158 9.24595 2.96293C9.26708 2.98499 9.28309 3.02043 9.28588 3.04612C9.28774 3.0632 9.35498 3.14996 9.38442 3.17309C9.38975 3.17721 9.39342 3.18278 9.39755 3.1919L9.40406 3.20698C9.4048 3.20867 9.40554 3.21029 9.4063 3.21196C9.40842 3.21662 9.4107 3.22163 9.41376 3.22937C9.40327 3.30894 9.40993 3.38842 9.43019 3.5102C9.35515 3.5914 9.27406 3.62253 9.21677 3.59911C9.16484 3.57789 9.14441 3.51647 9.16596 3.43996C9.10488 3.49571 9.02375 3.52825 8.95532 3.52776C8.88486 3.52726 8.84507 3.49085 8.86089 3.43116C8.69062 3.50504 8.5959 3.46319 8.61923 3.36124C8.47831 3.42916 8.36155 3.38205 8.38 3.30116C8.25903 3.34127 8.15373 3.32711 8.13275 3.2834C8.11968 3.25603 8.14001 3.20074 8.17089 3.15884C8.11741 3.17913 8.06292 3.18137 8.00164 3.16943C7.97278 3.16375 7.95848 3.15498 7.95464 3.14004C7.95172 3.12864 7.95263 3.1252 7.96359 3.09411L7.96497 3.09013C7.96493 3.09024 7.97215 3.06871 7.97463 3.06168C7.97898 3.04936 7.98324 3.0384 7.98808 3.02749C7.99908 3.00264 8.01234 2.97975 8.02911 2.95805C7.88917 2.99189 7.7698 2.99654 7.68459 2.95941L7.67182 2.95409C7.65993 2.94899 7.65261 2.94454 7.64796 2.93825C7.64095 2.92879 7.64201 2.91695 7.65121 2.90497C7.67842 2.86954 7.72653 2.824 7.7777 2.79008C7.53486 2.83144 7.30245 2.8134 7.22932 2.70611L7.23405 2.69552C7.30219 2.71369 7.38984 2.69119 7.48452 2.64375C7.17444 2.59024 6.83073 2.32926 6.82654 2.10235L6.83574 2.09881C6.83626 2.09989 6.83678 2.10098 6.8373 2.10206L6.82813 2.10559C6.8318 2.11329 6.83554 2.12076 6.83935 2.12801C6.86868 2.34505 7.20727 2.59071 7.50587 2.63401L7.50719 2.64639C7.41104 2.69727 7.32109 2.72427 7.24867 2.71162C7.24464 2.70712 7.24096 2.70244 7.23763 2.69756L7.23291 2.70816C7.23806 2.70953 7.24332 2.71068 7.24867 2.71162C7.33332 2.80602 7.57044 2.81722 7.80966 2.77143L7.81234 2.78374C7.7519 2.81721 7.69072 2.87292 7.65911 2.91408C7.65344 2.92146 7.65309 2.9254 7.65599 2.92931C7.65913 2.93356 7.66544 2.9374 7.6758 2.94184L7.68861 2.94718C7.77515 2.98489 7.89929 2.97839 8.04494 2.94118L8.04919 2.95236L8.04324 2.95935C8.00972 2.99998 8.0003 3.02124 7.97492 3.09536L7.97349 3.09948C7.96421 3.1258 7.96325 3.12941 7.96494 3.13596C7.96717 3.14468 7.97858 3.15167 8.00398 3.15667C8.07112 3.16975 8.12964 3.16545 8.18769 3.13856C8.1877 3.13856 8.1877 3.13856 8.18771 3.13856C8.18847 3.1382 8.18924 3.13784 8.19001 3.13748L8.19487 3.14853C8.1587 3.18705 8.13042 3.25222 8.14206 3.27659C8.16048 3.31497 8.26668 3.3282 8.3878 3.28544L8.39356 3.29454C8.36503 3.3689 8.48069 3.41963 8.62651 3.34421L8.63296 3.35263C8.60192 3.45163 8.69114 3.49498 8.86899 3.4143L8.87509 3.42326C8.85344 3.47973 8.88669 3.51436 8.95623 3.51486C9.02729 3.51536 9.11291 3.47897 9.17329 3.41767C9.17331 3.41765 9.17333 3.41762 9.17336 3.4176C9.17409 3.41685 9.17482 3.41611 9.17555 3.41535L9.18313 3.42321C9.1531 3.50326 9.16985 3.56606 9.22061 3.58681C9.2743 3.60874 9.35202 3.5789 9.42303 3.50679C9.40083 3.38993 9.39404 3.3089 9.40574 3.23217C9.40225 3.22615 9.39931 3.22025 9.39628 3.2134L9.38983 3.19843C9.38647 3.19102 9.3838 3.18698 9.38015 3.18415C9.34828 3.1591 9.2793 3.0701 9.27688 3.04792C9.27445 3.02553 9.25977 2.99303 9.24056 2.97298C9.21798 2.9494 9.20325 2.91099 9.1984 2.86657C9.19457 2.83189 9.18888 2.82075 9.15714 2.77947C9.12396 2.73618 9.11299 2.65831 9.13346 2.56034C9.12474 2.52324 9.12243 2.47543 9.12491 2.4098C9.1257 2.41042 9.12647 2.41106 9.12721 2.41173L9.12506 2.40607C9.12501 2.40732 9.12496 2.40856 9.12491 2.4098C9.10767 2.39619 9.07931 2.39203 9.00851 2.3888C8.95201 2.38622 8.92965 2.38466 8.89858 2.38004C8.85227 2.37314 8.81327 2.36126 8.77965 2.34212C8.71797 2.30703 8.65366 2.28412 8.50886 2.24057L8.50054 2.23807C8.31908 2.18351 8.24441 2.15463 8.18233 2.10469C8.0636 2.00925 8.01341 1.97776 7.96532 1.96678C7.96431 1.96313 7.96363 1.96008 7.96334 1.95777L7.95773 1.9652C7.96026 1.96567 7.96278 1.9662 7.96532 1.96678C7.97261 1.99316 7.99724 2.05096 8.01997 2.0905L8.01494 2.10066C7.98169 2.0915 7.96427 2.08757 7.90033 2.07403C7.87771 2.06924 7.86332 2.06607 7.84843 2.06251C7.74261 2.03725 7.66201 2.00043 7.55661 1.92052C7.39658 1.79914 7.29027 1.70338 7.23863 1.64035C7.23848 1.63537 7.23856 1.63056 7.23886 1.62595L7.23038 1.62995C7.23295 1.63331 7.23571 1.63677 7.23863 1.64035C7.24214 1.75845 7.37048 1.976 7.4927 2.10001L7.48837 2.11133C7.35784 2.06679 7.15623 1.9286 7.05875 1.8245C7.05643 1.81679 7.05434 1.80921 7.05247 1.80178L7.04442 1.80858C7.0489 1.81378 7.05368 1.8191 7.05875 1.8245C7.10618 1.98263 7.24521 2.19477 7.35293 2.2691L7.34976 2.28115C7.20969 2.25064 7.05452 2.12939 6.92415 1.96985C6.92349 1.96399 6.92299 1.95819 6.92265 1.95244L6.91424 1.95758C6.91752 1.96169 6.92083 1.96578 6.92415 1.96985C6.9389 2.0996 7.03401 2.25581 7.19384 2.37741L7.18993 2.38917C7.18928 2.38892 7.18864 2.38867 7.18799 2.38843C7.18787 2.38838 7.18775 2.38834 7.18764 2.38829C6.99978 2.31696 6.90692 2.2564 6.83935 2.12801C6.83818 2.11933 6.8375 2.11071 6.83734 2.10214C6.90007 2.23192 6.98405 2.29428 7.15551 2.36267C7.00581 2.23754 6.91942 2.08209 6.91187 1.95342L6.92029 1.94829C7.04258 2.10126 7.18825 2.2207 7.32201 2.261C7.21121 2.16786 7.08008 1.95701 7.04216 1.80577L7.05021 1.79897C7.13472 1.89723 7.33077 2.03602 7.46669 2.09018C7.34295 1.95587 7.22054 1.73883 7.2281 1.62484L7.23658 1.62085C7.28385 1.68254 7.39236 1.78164 7.56077 1.90938C7.66513 1.98849 7.74464 2.02482 7.84937 2.04982C7.86419 2.05336 7.87852 2.05652 7.90108 2.06129C7.95674 2.07308 7.97727 2.07762 8.00362 2.08464C7.97922 2.03902 7.95516 1.97946 7.95267 1.95987L7.95828 1.95243C8.01061 1.96217 8.06063 1.99238 8.18672 2.09372C8.24747 2.1426 8.32174 2.17132 8.50194 2.2255L8.51025 2.228C8.6557 2.27174 8.72033 2.29477 8.7828 2.3303C8.81538 2.34886 8.85346 2.36046 8.89886 2.36722C8.92958 2.37179 8.95178 2.37334 9.008 2.37591ZM6.83734 2.10214C6.83733 2.10211 6.83732 2.10208 6.8373 2.10206L6.83734 2.10204C6.83734 2.10207 6.83734 2.10211 6.83734 2.10214Z" fill="black"/>
<path fill-rule="evenodd" clip-rule="evenodd" d="M10.1419 3.91422L10.1413 3.90361C10.1467 3.89801 10.1448 3.88827 10.13 3.87079C10.095 3.82926 10.0832 3.80302 10.0662 3.74486C10.0616 3.72894 10.0588 3.7202 10.055 3.71067C10.0485 3.69436 10.0404 3.68013 10.029 3.66588C9.97561 3.59934 9.92881 3.49846 9.91322 3.41417C9.88715 3.27384 9.85096 3.16206 9.79584 3.09862C9.75815 3.05525 9.74411 2.94057 9.75383 2.79193C9.75502 2.77365 9.75595 2.75627 9.75661 2.73973L9.75984 2.74192L9.75978 2.74247L9.76041 2.7423L9.76632 2.74631C9.76568 2.76122 9.76482 2.77678 9.76376 2.79302C9.75429 2.93781 9.76793 3.04924 9.80246 3.08897C9.85959 3.15473 9.89638 3.26835 9.9229 3.41115C9.93804 3.49295 9.98385 3.59169 10.0359 3.65658C10.0481 3.67183 10.0569 3.6872 10.0639 3.70475C10.0679 3.71484 10.0708 3.72395 10.0756 3.7403C10.092 3.79674 10.103 3.82135 10.1367 3.86125C10.1521 3.87942 10.1573 3.89516 10.1522 3.90681L10.1469 3.9031L10.1475 3.91371C10.1496 3.91161 10.1511 3.9093 10.1522 3.90681C10.2126 3.94582 10.2912 3.88236 10.2921 3.82348L10.3005 3.81885C10.3813 3.91526 10.4818 3.90736 10.5066 3.79692L10.514 3.79331C10.5784 3.84725 10.6914 3.85319 10.7215 3.80064C10.7631 3.72857 10.7386 3.6721 10.5705 3.53998L10.5743 3.52822C10.6268 3.54604 10.6691 3.51277 10.6735 3.45579L10.6811 3.45101C10.7391 3.49972 10.7881 3.50964 10.8569 3.49109C10.9132 3.4759 10.9143 3.42 10.8652 3.33753L10.8716 3.32798C10.9306 3.37162 10.9948 3.39541 11.0385 3.38976C11.0846 3.3838 11.1019 3.34716 11.0831 3.27877L11.0888 3.27029C11.1578 3.28896 11.2126 3.28602 11.2283 3.25414C11.2471 3.21584 11.2107 3.14644 11.1173 3.05508L11.1198 3.04351C11.1441 3.04002 11.1585 3.03545 11.1757 3.02558C11.2681 3.08593 11.4679 3.13408 11.5611 3.12535C11.6391 3.11814 11.6643 3.07063 11.6502 2.96555C11.8503 2.91529 12.0343 2.83378 12.1561 2.7174C12.1693 2.7048 12.1752 2.69911 12.1827 2.69164C12.1935 2.681 12.2026 2.67147 12.2105 2.66242C12.2228 2.64845 12.232 2.63601 12.2378 2.62528C12.2426 2.62176 12.2473 2.61822 12.2519 2.61467L12.2445 2.60768C12.2435 2.61289 12.2413 2.61877 12.2378 2.62528C12.1352 2.69934 11.956 2.76797 11.6493 2.86502L11.6466 2.85262C11.9189 2.73692 12.3405 2.3846 12.3577 2.23398L12.3663 2.22392L12.358 2.21977C12.3583 2.22428 12.3582 2.22902 12.3577 2.23398C12.287 2.31374 12.1875 2.37721 12.0213 2.4601L11.9744 2.48325L11.9281 2.50597L11.9238 2.49436C12.0913 2.36839 12.2264 2.1835 12.2402 2.04154C12.2438 2.03578 12.2472 2.02993 12.2504 2.02395L12.2414 2.02017C12.2413 2.02717 12.2409 2.0343 12.2402 2.04154C12.1939 2.11604 12.1172 2.17342 11.9696 2.25931L11.901 2.29915C11.8806 2.31115 11.8635 2.32141 11.8477 2.3313L11.8425 2.32043C11.9162 2.24477 11.9419 2.21786 11.982 2.17268C12.0575 2.0876 12.1151 2.01037 12.1538 1.93745C12.1934 1.86303 12.2113 1.79618 12.205 1.73764L12.2118 1.72319L12.2026 1.72151C12.2036 1.72681 12.2044 1.73219 12.205 1.73764C12.1514 1.8475 12.0477 1.94821 11.8818 2.06951C11.8555 2.08872 11.7896 2.13506 11.7433 2.1677L11.7432 2.1678L11.7431 2.16783L11.6955 2.20147L11.6898 2.19095C11.7956 2.07268 11.8552 1.96911 11.8612 1.83846L11.8695 1.83043L11.8616 1.82511L11.8612 1.83846C11.6348 2.05445 11.3571 2.2081 11.0662 2.29955L11.0635 2.29124L11.0635 2.29106L11.0635 2.29106L11.0624 2.28775C11.1333 2.23232 11.2076 2.12877 11.2294 2.0553L11.2413 2.04511L11.2337 2.0382C11.2326 2.04368 11.2312 2.04939 11.2294 2.0553C11.0163 2.23603 10.6992 2.3578 10.4672 2.37776C10.2572 2.39567 10.1213 2.41849 9.95712 2.46939C9.92582 2.42853 9.83354 2.4307 9.71866 2.4713L9.71292 2.4634L9.71073 2.47415L9.71866 2.4713C9.75859 2.52879 9.77077 2.60488 9.7671 2.72525L9.75786 2.72761L9.75671 2.73729C9.76169 2.60736 9.74926 2.52948 9.70582 2.47247L9.70801 2.46172C9.83 2.41715 9.92857 2.41382 9.95941 2.45859C10.1196 2.40575 10.256 2.38284 10.4665 2.36488C10.7012 2.34469 11.0242 2.21936 11.2357 2.0344L11.2433 2.04131C11.23 2.11072 11.1625 2.21313 11.0921 2.27791C11.375 2.18473 11.6442 2.03211 11.8636 1.82008L11.8715 1.8254C11.8693 1.95292 11.8194 2.05389 11.7284 2.16346L11.7385 2.1564L11.7385 2.15637C11.7849 2.12373 11.8506 2.07743 11.8769 2.05827C12.0486 1.93278 12.1529 1.82963 12.2031 1.71674L12.2123 1.71841C12.225 1.78498 12.2067 1.86068 12.162 1.94477C12.1227 2.01875 12.0646 2.09669 11.9885 2.18242C11.955 2.22015 11.9315 2.24517 11.8821 2.29615L11.8969 2.28739L11.9655 2.24753C12.1227 2.15604 12.1986 2.09728 12.2423 2.01654L12.2513 2.02032C12.25 2.15779 12.1308 2.33734 11.9735 2.46988L12.0177 2.44806C12.1897 2.36229 12.2897 2.29752 12.3596 2.21441L12.3679 2.21855C12.3779 2.35513 12.0139 2.67594 11.7327 2.82498C11.9999 2.73806 12.1572 2.67365 12.2467 2.60362L12.2541 2.61062C12.251 2.62791 12.2383 2.64797 12.2171 2.67212C12.2089 2.68138 12.1997 2.69109 12.1888 2.70188C12.1812 2.70942 12.1752 2.71515 12.162 2.72779C12.0387 2.84558 11.8535 2.92762 11.656 2.97038C11.6753 3.0752 11.6461 3.13042 11.5618 3.13821C11.4669 3.14711 11.2653 3.09853 11.176 3.03687C11.1644 3.04589 11.1517 3.05083 11.133 3.05436C11.2233 3.14506 11.2589 3.2159 11.2366 3.26108C11.2184 3.29815 11.1644 3.30244 11.0952 3.28511C11.1113 3.35486 11.0895 3.39612 11.0395 3.4026C10.9983 3.40793 10.9408 3.38881 10.8857 3.35251C10.9252 3.4299 10.9189 3.48756 10.8589 3.50372C10.7903 3.52224 10.7397 3.51319 10.6822 3.46718C10.6746 3.51703 10.6404 3.54846 10.5967 3.54576C10.7503 3.66988 10.7737 3.7316 10.7295 3.80835C10.6964 3.86599 10.5831 3.86161 10.5141 3.80857C10.4848 3.91893 10.3834 3.9277 10.3009 3.83657C10.2899 3.90227 10.2054 3.96265 10.1419 3.91422ZM9.98719 2.70377C9.98961 2.69536 9.99142 2.68628 9.99256 2.67649L9.98668 2.66919L9.7671 2.72525L9.76678 2.73405L9.7612 2.73008L9.75984 2.74192L9.76041 2.7423L9.76653 2.74069L9.76632 2.74631C9.85166 2.80167 9.94597 2.79847 9.98045 2.72225C10.0552 2.77472 10.1733 2.74899 10.2114 2.67544C10.3185 2.72559 10.4187 2.69548 10.4366 2.56839L10.4301 2.56113L10.2196 2.6544C10.2226 2.64355 10.224 2.63192 10.2236 2.61956L9.98719 2.70377ZM9.985 2.71074L9.98719 2.70377L9.97718 2.70733L9.9761 2.71908L9.98045 2.72225L9.98187 2.71899L9.99169 2.71516C10.0621 2.75868 10.168 2.73397 10.2059 2.67283L10.2114 2.67544C10.2122 2.67386 10.213 2.67227 10.2137 2.67065L10.2224 2.66678C10.3183 2.70825 10.4049 2.68195 10.4249 2.57703L10.4333 2.57334L10.4268 2.56608C10.4262 2.56982 10.4256 2.57347 10.4249 2.57703L10.2224 2.66678C10.2204 2.66592 10.2184 2.66503 10.2164 2.66411C10.2176 2.66094 10.2187 2.65771 10.2196 2.6544L10.2139 2.65694C10.2176 2.64731 10.2198 2.63699 10.2201 2.62606L9.99169 2.71516L9.985 2.71074ZM10.2118 2.66191C10.2133 2.66266 10.2149 2.66339 10.2164 2.66411C10.2156 2.66633 10.2147 2.66851 10.2137 2.67065L10.209 2.67275L10.209 2.66746C10.21 2.66564 10.2109 2.66379 10.2118 2.66191ZM10.2118 2.66191C10.2109 2.66149 10.21 2.66105 10.2091 2.66062L10.209 2.66746C10.2081 2.66928 10.207 2.67107 10.2059 2.67283L10.2056 2.67267L10.2058 2.66054L10.2139 2.65694C10.2132 2.65862 10.2125 2.66028 10.2118 2.66191ZM9.985 2.71074L9.98187 2.71899L9.98009 2.71968L9.98118 2.70794L9.985 2.71074ZM9.77379 2.73877L9.76653 2.74069L9.76678 2.73405L9.77379 2.73877ZM9.9814 2.684C9.96426 2.78516 9.86504 2.79822 9.77379 2.73877L9.9814 2.684ZM9.9814 2.684L9.98273 2.67455L9.98861 2.6821L9.9814 2.684ZM11.0633 2.29113L11.0635 2.29106L11.0635 2.29124L11.0667 2.30328C11.0715 2.30104 10.9307 2.3669 10.8813 2.38924L10.8388 2.40823C10.7395 2.45198 10.6647 2.48042 10.6172 2.49071L10.6149 2.47821L11.0631 2.29121C11.0559 2.29463 10.9252 2.35573 10.878 2.37705L10.8355 2.39601C10.7367 2.43954 10.6624 2.46784 10.6156 2.47798L10.6179 2.49049L11.0665 2.30334L11.0633 2.29113ZM11.0633 2.29113L11.0631 2.29121L11.0633 2.29112L11.0633 2.29113ZM9.75671 2.73729L9.75661 2.73973L9.75643 2.73961L9.75671 2.73729ZM8.00884 2.09606C8.01188 2.10177 8.01538 2.10775 8.01929 2.11389L8.00884 2.09606ZM8.10275 2.2124C8.07089 2.18267 8.03966 2.14593 8.01929 2.11389L8.17196 2.37453L7.98456 2.29684L7.97824 2.30465C7.98377 2.33141 7.99312 2.35497 8.00523 2.37509L7.84205 2.28958C7.85553 2.28991 7.87034 2.28872 7.88647 2.28594L7.88915 2.27476L7.77201 2.13747C7.79267 2.14352 7.81347 2.14821 7.83438 2.15145L7.83724 2.13931L7.38413 1.83706L7.37843 1.84748C7.48681 1.98056 7.61268 2.08224 7.74518 2.12882C7.73675 2.15353 7.73456 2.18494 7.74083 2.21244L7.4883 2.09612L7.48348 2.10718C7.53895 2.16641 7.62561 2.20146 7.7456 2.22832L7.74766 2.23334C7.75843 2.25767 7.77676 2.27476 7.8029 2.28333C7.7983 2.29788 7.79609 2.31188 7.79614 2.32501C7.6755 2.29536 7.59917 2.28586 7.56752 2.30389C7.55112 2.31329 7.54022 2.32663 7.53542 2.342C7.51414 2.33128 7.49401 2.32231 7.47188 2.3135C7.4631 2.31 7.45395 2.30651 7.44342 2.3026C7.44962 2.3049 7.37593 2.27812 7.35116 2.2686L7.34837 2.28139L7.34841 2.28141L7.34841 2.28141L7.34854 2.28146L7.53284 2.35534C7.53101 2.37778 7.54097 2.40303 7.56426 2.42619C7.57248 2.43434 7.58227 2.44215 7.59345 2.4496C7.56988 2.46422 7.56099 2.48812 7.56598 2.5137L7.19188 2.37677L7.18787 2.38843C7.28425 2.46772 7.40486 2.51004 7.57075 2.52946C7.57524 2.54045 7.58219 2.55146 7.59154 2.56192C7.58028 2.57886 7.5759 2.59791 7.57759 2.61731C7.5553 2.6164 7.52349 2.62373 7.50267 2.63501L7.5053 2.64778L7.58004 2.63216C7.58454 2.65075 7.59439 2.66924 7.60886 2.6861C7.72934 2.82699 8.02678 2.82426 8.30806 2.6977C8.31442 2.71607 8.33083 2.72871 8.35707 2.7382C8.3677 2.74207 8.37847 2.74536 8.38937 2.74809L8.04312 2.9416L8.04581 2.9539C8.14786 2.93452 8.28995 2.85045 8.39797 2.76037L8.46417 2.87339L8.12421 3.02918L8.12727 3.04145L8.12756 3.04134L8.12756 3.04135L8.12762 3.04132C8.23846 2.99909 8.38044 2.93555 8.47168 2.88621L8.51182 2.95474L8.18893 3.13763L8.19217 3.14979C8.26594 3.12507 8.402 3.0506 8.52151 2.97127L8.56845 3.05141L8.33457 3.19324L8.33791 3.20534C8.41671 3.17922 8.48984 3.13835 8.58132 3.07338L8.61661 3.13363L8.38604 3.28395L8.3893 3.29603C8.42418 3.28657 8.4658 3.26616 8.51305 3.23652C8.53894 3.22028 8.56612 3.20152 8.59445 3.18055C8.60646 3.17166 8.61771 3.16315 8.62885 3.15452L8.65758 3.20356L8.5298 3.28098L8.53294 3.29314C8.57984 3.28026 8.62506 3.25866 8.67217 3.22849L8.70671 3.28745L8.62162 3.34247L8.62547 3.35434C8.6443 3.34583 8.67734 3.32638 8.71542 3.30231L8.75535 3.37048L8.75578 3.37178L8.75603 3.37165L8.75604 3.37164C8.81928 3.33862 8.90536 3.28699 8.9782 3.23863C8.99784 3.22936 9.022 3.2141 9.05229 3.193C9.07614 3.17643 9.1042 3.15293 9.13637 3.12312C9.14484 3.11527 9.15356 3.10702 9.16257 3.09834C9.15571 3.13055 9.15538 3.15833 9.16078 3.18149L8.86576 3.41292L8.87011 3.42446C8.94915 3.38521 9.09549 3.26678 9.16469 3.1948C9.17225 3.21585 9.18524 3.23236 9.20289 3.24416L8.99791 3.41299L9.00251 3.42438C9.08058 3.38159 9.17091 3.30613 9.21452 3.25091L9.21651 3.2519C9.26206 3.27387 9.30794 3.27454 9.35091 3.24527L9.17491 3.41627L9.18042 3.42698C9.26623 3.36112 9.36808 3.26376 9.40153 3.212L9.39474 3.2027L9.39432 3.2031L9.39293 3.19317L9.18544 3.076C9.19689 3.06467 9.20878 3.05271 9.22178 3.03949L9.26385 2.99646L9.25987 2.98505L9.12398 3.0176L9.21901 2.92343L9.21322 2.91295C9.18283 2.93938 9.13684 2.98258 9.09382 3.02482L8.97104 3.05423C9.0439 3.00216 9.12105 2.92199 9.19055 2.82019L9.18613 2.80952L9.00675 2.84262L9.03068 2.82212L9.08503 2.77504C9.1053 2.75757 9.12157 2.74385 9.13698 2.73132L9.13775 2.73073L9.13774 2.7307L9.13781 2.73064L9.13265 2.71962L8.96066 2.85112L8.80204 2.88039C8.89972 2.83478 8.99291 2.76438 9.04997 2.6895C9.07423 2.68516 9.09928 2.67907 9.12477 2.6711L9.12609 2.67143L9.12607 2.67069L9.12818 2.67002L9.12793 2.65742L8.83015 2.58347C8.84914 2.58164 8.86866 2.57869 8.88857 2.57454L8.88917 2.56198L8.54749 2.43243L8.54112 2.43831C8.54096 2.44275 8.54109 2.44714 8.54152 2.45148L8.1826 2.22502L8.17546 2.23049C8.17526 2.23546 8.17519 2.24044 8.17526 2.24541L8.01596 2.08727L8.00884 2.09606L8.00997 2.09745L8.00991 2.09752L8.01047 2.09808L8.10275 2.2124ZM8.17614 2.26469C8.15492 2.25606 8.12863 2.23654 8.10275 2.2124L8.18434 2.31348C8.19204 2.34308 8.20453 2.37096 8.22149 2.39506L8.17196 2.37453L8.18244 2.39242L7.99055 2.31286C7.98956 2.30909 7.98866 2.30523 7.98785 2.30131L7.98153 2.30913L7.99055 2.31286C8.00077 2.35211 8.02012 2.38337 8.04429 2.40559L8.02147 2.39812L8.02125 2.39785L8.02342 2.39699L8.02383 2.38484L8.00523 2.37509C8.00779 2.37935 8.01047 2.38345 8.01327 2.3874L8.00682 2.38985L7.81221 2.28787L7.8128 2.28608C7.82175 2.28815 7.83149 2.28933 7.84205 2.28958L7.81148 2.27356L7.80511 2.27681L7.8029 2.28333L7.80868 2.28505L7.80774 2.28553L7.81221 2.28787C7.80779 2.30184 7.80586 2.31525 7.80634 2.32773L7.80402 2.32697L7.80374 2.32689L7.79614 2.32501C7.79616 2.32957 7.79645 2.33402 7.79701 2.33836C7.6776 2.30889 7.60063 2.29912 7.57153 2.31569C7.53497 2.33666 7.53127 2.37713 7.57031 2.41595C7.58038 2.42594 7.59293 2.4354 7.60759 2.44432L7.60668 2.44402L7.60389 2.44417C7.60014 2.44579 7.59666 2.44761 7.59345 2.4496C7.59698 2.45195 7.60064 2.45426 7.60443 2.45654L7.60425 2.45654L7.60466 2.45668L7.60542 2.45713C7.56627 2.47523 7.56465 2.51824 7.60039 2.55526L7.59934 2.55507L7.59513 2.55691L7.59154 2.56192C7.59398 2.56465 7.59657 2.56733 7.59933 2.56997C7.57822 2.60144 7.58557 2.64162 7.61551 2.67651C7.73027 2.8107 8.01515 2.81073 8.28843 2.69272L8.30756 2.69619L8.30806 2.6977L8.31145 2.69617L8.31049 2.68369L8.3104 2.68367L8.31106 2.67215L8.30547 2.67034C8.30676 2.65754 8.31097 2.64275 8.31814 2.62558L8.31851 2.62471L8.32512 2.63601C8.30444 2.6879 8.3149 2.70955 8.35974 2.72577C8.36705 2.72843 8.37444 2.73081 8.38189 2.73292L8.39043 2.7475L8.38937 2.74809L8.39102 2.7485L8.39193 2.75006C8.37719 2.76233 8.36181 2.7745 8.34598 2.78639L8.09159 2.92856C8.07512 2.93404 8.0593 2.9383 8.04437 2.94114L8.04706 2.95345L8.09159 2.92856C8.17042 2.9023 8.26416 2.84788 8.34598 2.78639L8.39663 2.75808L8.39797 2.76037L8.40772 2.75214C8.43666 2.75769 8.46634 2.75945 8.49623 2.75764C8.48346 2.78844 8.48122 2.82789 8.49047 2.86134L8.46417 2.87339L8.46547 2.87561C8.37446 2.92459 8.2341 2.98734 8.1245 3.02908L8.12756 3.04134L8.12762 3.04132L8.4705 2.88419L8.47168 2.88621L8.49448 2.87357C8.50543 2.90216 8.52582 2.92438 8.55636 2.92951L8.51182 2.95474L8.5154 2.96084C8.48533 2.98076 8.45423 3.00037 8.42337 3.01893L8.31578 3.07988C8.26613 3.1061 8.22185 3.12653 8.18969 3.1373L8.19293 3.14946L8.31578 3.07988C8.34984 3.06188 8.38643 3.04115 8.42337 3.01893L8.51802 2.96532L8.52151 2.97127C8.54108 2.95827 8.56021 2.94515 8.57855 2.93209C8.60917 2.93424 8.64244 2.93112 8.67686 2.92368L8.69194 2.94235C8.68853 2.95535 8.68636 2.96813 8.68538 2.98051L8.56845 3.05141L8.5746 3.06191L8.40175 3.16672C8.3797 3.17679 8.35777 3.18542 8.33541 3.19283L8.33875 3.20493L8.40175 3.16672C8.45605 3.14193 8.51108 3.10844 8.57522 3.06297L8.58132 3.07338C8.61324 3.05072 8.64738 3.02512 8.68478 2.99619C8.6849 3.02629 8.69248 3.05338 8.70704 3.07468L8.61661 3.13363L8.62274 3.1441L8.44004 3.26321C8.42099 3.27225 8.40336 3.27904 8.38729 3.2834L8.39054 3.29548L8.44004 3.26321C8.46124 3.25314 8.48421 3.24029 8.50874 3.2249C8.53442 3.2088 8.5614 3.19017 8.58954 3.16934C8.60114 3.16076 8.61203 3.15253 8.6228 3.1442L8.62885 3.15452C8.65523 3.13409 8.68099 3.113 8.71479 3.08471C8.73105 3.10336 8.75375 3.11617 8.78246 3.12064C8.78576 3.12115 8.78913 3.12154 8.79254 3.12179L8.65758 3.20356L8.66373 3.21408L8.58674 3.26073C8.56822 3.26875 8.54967 3.27535 8.53088 3.28052L8.53401 3.29267L8.58674 3.26073C8.61298 3.24935 8.63919 3.23511 8.66604 3.21802L8.67217 3.22849C8.68367 3.22113 8.69528 3.21326 8.70705 3.20488C8.7206 3.19524 8.74822 3.17398 8.77284 3.15502L8.77285 3.15501C8.79201 3.14027 8.80935 3.12691 8.81686 3.12151C8.82263 3.12099 8.82852 3.12015 8.83453 3.11901L8.88003 3.17539L8.70671 3.28745L8.70927 3.29182C8.67229 3.31516 8.64035 3.33393 8.62215 3.34215L8.62601 3.35402L8.71283 3.29789L8.71542 3.30231C8.7719 3.26662 8.83945 3.22076 8.88811 3.18539L8.89074 3.18866C8.89263 3.20181 8.89731 3.21414 8.90474 3.22648C8.91307 3.24029 8.92293 3.24778 8.93593 3.24911L8.75183 3.35994L8.75535 3.37048L8.75603 3.37165L8.75208 3.35981C8.80547 3.33195 8.87538 3.29066 8.93971 3.24932L8.75604 3.37164L8.97328 3.24087L8.9782 3.23863L8.98917 3.2313L8.98924 3.23126L8.98923 3.23126L8.98942 3.23113L8.98558 3.22099C9.00246 3.21199 9.02283 3.19889 9.04761 3.18163C9.07102 3.16536 9.09875 3.14214 9.13061 3.11262C9.14174 3.10231 9.15331 3.09129 9.1654 3.0795L9.16786 3.0771C9.1658 3.08438 9.16403 3.09146 9.16257 3.09834L9.17136 3.08982L9.17618 3.08509C9.15401 3.16634 9.17267 3.21715 9.21993 3.23979C9.27593 3.26681 9.33179 3.25988 9.38199 3.20108L9.38893 3.205L9.38745 3.19445L9.38199 3.20108L9.17633 3.08494L9.18544 3.076L9.17541 3.07033L9.17397 3.07112C9.18706 3.05824 9.20061 3.04464 9.21566 3.02934L9.24193 3.00247L9.2617 2.99774L9.25772 2.98632L9.24193 3.00247L9.10651 3.03491L9.12398 3.0176L9.11574 3.01957C9.15373 2.98268 9.19228 2.9467 9.21875 2.92367L9.21296 2.91318L9.10236 3.02277L9.09382 3.02482L9.07629 3.04215L8.94022 3.07474C8.95038 3.06849 8.96067 3.06164 8.97104 3.05423L8.93733 3.06231C9.014 3.01474 9.09817 2.93282 9.17404 2.82479L9.18758 2.8223L9.18315 2.81163L9.17404 2.82479L8.9869 2.85932L9.00675 2.84262L8.98655 2.84635L9.13698 2.73132L9.13774 2.7307L9.13258 2.71971C9.11684 2.73249 9.10028 2.74645 9.07958 2.76429L9.02522 2.81138C9.01048 2.82411 8.9966 2.83592 8.98342 2.84692L8.96066 2.85112L8.93819 2.86831L8.745 2.90395C8.76403 2.89713 8.78312 2.88922 8.80204 2.88039L8.74308 2.89127C8.8532 2.85159 8.9656 2.77529 9.03364 2.69218L9.04997 2.6895L9.05128 2.68778L9.04779 2.67831C9.06572 2.67508 9.08414 2.67086 9.10289 2.66558L9.12477 2.6711L9.12607 2.67069L9.12583 2.65864C9.11814 2.66113 9.11049 2.66344 9.10289 2.66558L8.78621 2.58578C8.80048 2.58567 8.81515 2.58492 8.83015 2.58347L8.78749 2.57287C8.81199 2.57261 8.83772 2.57041 8.86434 2.56602L8.88634 2.57436L8.88694 2.5618C8.87934 2.56338 8.87181 2.56479 8.86434 2.56602L8.55113 2.44727C8.55095 2.44451 8.55091 2.44173 8.55101 2.43893L8.54465 2.44481L8.55113 2.44727C8.55138 2.45106 8.5519 2.45481 8.55268 2.45851L8.54152 2.45148C8.54182 2.45444 8.54225 2.45737 8.54281 2.46027L8.53607 2.46238L8.1852 2.241L8.18541 2.23116L8.17827 2.23663L8.1852 2.241C8.1851 2.27347 8.19086 2.30584 8.20208 2.33546L8.18434 2.31348C8.18021 2.29761 8.17746 2.28124 8.17614 2.26469ZM8.17597 2.26237L8.17614 2.26469L8.18064 2.26638L8.18494 2.25502L8.17526 2.24541L8.17537 2.25077C8.16685 2.24689 8.15752 2.24128 8.14775 2.23435L8.04761 2.13494C8.03515 2.11876 8.02455 2.10289 8.01703 2.08874L8.00997 2.09745L8.01047 2.09808L8.04761 2.13494C8.07617 2.17204 8.1145 2.21079 8.14775 2.23435L8.17597 2.26237ZM8.17597 2.26237L8.17537 2.25077C8.17806 2.25199 8.18067 2.25304 8.18318 2.2539L8.17889 2.26526L8.17597 2.26237ZM8.28711 2.44081C8.24756 2.41754 8.21877 2.37953 8.20208 2.33546L8.28711 2.44081ZM8.51615 2.46955C8.52279 2.46697 8.52945 2.46458 8.53607 2.46238L8.53746 2.46326C8.53053 2.46562 8.52342 2.46772 8.51615 2.46955ZM8.47048 2.49011C8.48546 2.48243 8.50079 2.4755 8.51615 2.46955C8.45593 2.48468 8.38466 2.48117 8.31201 2.45288C8.30329 2.44949 8.29498 2.44544 8.28711 2.44081L8.30572 2.46387C8.27939 2.45299 8.25674 2.43638 8.23806 2.41579L8.24039 2.41339L8.23878 2.40223L8.22149 2.39506C8.22437 2.39916 8.22739 2.40315 8.23053 2.40701L8.22659 2.41072L8.18244 2.39242L8.2032 2.42786C8.18932 2.43587 8.17456 2.44097 8.15951 2.44329L8.04429 2.40559C8.0559 2.41626 8.06861 2.42484 8.08195 2.43122L8.04 2.41749C8.03348 2.41164 8.02728 2.40518 8.02147 2.39812L8.02097 2.39796L8.02125 2.39785L8.02011 2.39644L8.0205 2.38466L8.01327 2.3874C8.01548 2.39051 8.01776 2.39353 8.02011 2.39644L8.02009 2.39681L8.00682 2.38985L8.0017 2.39165L7.80634 2.32773C7.80652 2.33248 7.80705 2.3371 7.80793 2.34156L7.80172 2.33953L7.80186 2.33956L7.80158 2.33948L7.80172 2.33953L7.79701 2.33836C7.8058 2.40653 7.88072 2.44571 8.00173 2.40497L8.04 2.41749C8.07435 2.44832 8.11749 2.46215 8.15882 2.45637L8.23438 2.4811L8.27306 2.54712C8.14741 2.55638 7.98779 2.54783 7.84978 2.52276L7.60759 2.44432C7.66387 2.47857 7.75133 2.50487 7.84978 2.52276L7.92714 2.54781C7.90012 2.54425 7.87349 2.54009 7.8476 2.53536L7.60568 2.45701L7.60704 2.4564L7.60443 2.45654L7.60466 2.45668L7.60568 2.45701L7.60542 2.45713C7.66276 2.49126 7.74989 2.51747 7.8476 2.53536L8.27886 2.67503L8.2671 2.67584L7.60039 2.55526C7.60586 2.56093 7.61221 2.56645 7.61943 2.57173L7.60048 2.5683L7.60218 2.56601L7.59797 2.56785L7.60048 2.5683L7.59933 2.56997C7.61074 2.58089 7.62492 2.59099 7.64178 2.59957C7.75787 2.6586 8.07919 2.70018 8.26665 2.68878L8.28843 2.69272L8.30482 2.6855L8.3054 2.68543C8.30579 2.68922 8.30651 2.6928 8.30756 2.69619L8.30912 2.69647L8.30825 2.68509L8.31034 2.68483L8.3104 2.68367L8.30872 2.68337L8.30937 2.67199L8.30528 2.67249L8.30547 2.67034L7.92714 2.54781C8.04777 2.56372 8.17609 2.56784 8.28032 2.55952L8.31851 2.62471C8.32863 2.60112 8.34967 2.57599 8.37709 2.55228L8.38444 2.56139C8.35709 2.58467 8.3363 2.60919 8.32687 2.63173L8.32512 2.63601L8.38189 2.73292C8.42933 2.74634 8.47943 2.74872 8.52956 2.74118L8.5301 2.74185L8.50443 2.74508L8.50079 2.74787C8.49915 2.75101 8.49762 2.75428 8.49623 2.75764L8.50679 2.75686L8.50542 2.75792L8.50779 2.75762C8.48089 2.81258 8.49519 2.90647 8.55793 2.91676C8.56355 2.91768 8.56928 2.91838 8.57511 2.91889L8.55636 2.92951L8.55665 2.92956L8.56049 2.93015C8.54584 2.9404 8.53075 2.95066 8.5154 2.96084L8.51802 2.96532L8.5769 2.93197L8.57855 2.93209L8.58588 2.92684L8.58307 2.91945C8.60966 2.92092 8.63825 2.91839 8.66784 2.9125L8.67686 2.92368C8.68439 2.92205 8.69198 2.92021 8.69961 2.91818C8.69658 2.92629 8.69403 2.93436 8.69194 2.94235L8.69995 2.95227C8.68166 3.03042 8.71203 3.09668 8.7837 3.10782C8.79324 3.10931 8.80333 3.10964 8.8139 3.10885L8.79254 3.12179L8.79631 3.12201L8.76723 3.14433L8.72324 3.17802L8.66373 3.21408L8.66604 3.21802C8.67797 3.21043 8.69003 3.20228 8.70227 3.19357C8.70746 3.18987 8.71478 3.18442 8.72324 3.17802L8.81645 3.12155L8.81686 3.12151L8.81907 3.11995L8.81481 3.10878C8.81826 3.1085 8.82176 3.1081 8.82531 3.10759L8.83453 3.11901C8.85974 3.11423 8.88698 3.10406 8.91545 3.08895C8.89972 3.12091 8.89128 3.14647 8.88997 3.16896L8.88003 3.17539L8.88056 3.17604C8.8318 3.21137 8.76485 3.25675 8.70927 3.29182L8.71283 3.29789L8.88766 3.18484L8.88811 3.18539L8.89019 3.18388L8.89074 3.18866L8.90798 3.21001C8.90935 3.21286 8.91089 3.2157 8.9126 3.21854C8.91641 3.22485 8.92079 3.22946 8.92601 3.23234L8.93836 3.24765L8.93593 3.24911L8.93971 3.24932C8.94914 3.24944 8.96015 3.2466 8.97328 3.24087L8.98917 3.2313L8.98923 3.23126L8.98539 3.22109L8.98558 3.22099L8.98504 3.21955L8.97029 3.22843C8.95059 3.23694 8.93658 3.23818 8.92601 3.23234L8.90798 3.21001C8.89214 3.17699 8.8991 3.14178 8.93225 3.07954L8.94022 3.07474L8.93403 3.07622L8.93519 3.07407L8.93203 3.0767L8.93403 3.07622L8.93225 3.07954C8.92661 3.08286 8.92101 3.086 8.91545 3.08895C8.91854 3.08268 8.92191 3.07616 8.92556 3.06937L8.93733 3.06231L8.9302 3.06401L8.92704 3.06664L8.92556 3.06937C8.88974 3.09015 8.85577 3.10318 8.82531 3.10759L8.69995 2.95227C8.70282 2.93997 8.70691 2.92737 8.71223 2.91464C8.7231 2.91146 8.73404 2.90788 8.745 2.90395L8.7144 2.9096L8.7156 2.90693L8.71202 2.91004L8.7144 2.9096L8.71223 2.91464L8.69961 2.91818C8.70145 2.91324 8.70346 2.9083 8.70565 2.90334C8.71805 2.89982 8.73055 2.89578 8.74308 2.89127L8.71056 2.89727L8.70698 2.90037L8.70565 2.90334C8.69292 2.90696 8.68029 2.91003 8.66784 2.9125L8.5396 2.75362L8.78933 2.72223L8.61954 2.82169L8.62308 2.83373C8.69118 2.80595 8.7662 2.76281 8.83244 2.71681L8.99245 2.6967C9.00583 2.69577 9.01958 2.69427 9.03364 2.69218L9.03424 2.69144L9.04824 2.68968L9.04427 2.67894L9.04779 2.67831L9.04724 2.67684L8.97131 2.68639C8.85588 2.68949 8.77609 2.64748 8.78521 2.58578L8.78621 2.58578L8.78525 2.58554L8.78635 2.57988L8.78066 2.58438L8.78525 2.58554L8.78521 2.58578L8.77505 2.58573C8.77545 2.58256 8.77603 2.57934 8.77681 2.57607L8.78088 2.5729L8.78749 2.57287L8.7825 2.57164L8.78088 2.5729C8.75882 2.57283 8.7378 2.57118 8.71807 2.56816L8.55343 2.46023L8.5535 2.45903L8.55268 2.45851L8.55299 2.45995L8.55167 2.45908L8.54987 2.4588L8.54988 2.45867L8.54966 2.45876L8.54833 2.45855L8.54281 2.46027L8.54302 2.4613L8.53746 2.46326L8.54457 2.46775L8.54602 2.47248C8.53693 2.47528 8.52776 2.4785 8.5186 2.48206C8.5032 2.48597 8.48711 2.48868 8.47048 2.49011ZM8.41134 2.52569C8.42978 2.51278 8.44979 2.50072 8.47048 2.49011C8.42024 2.49442 8.36506 2.48701 8.30913 2.46523L8.30572 2.46387L8.33563 2.50092L8.22474 2.46463L8.20937 2.43839C8.21944 2.43234 8.22907 2.42482 8.23806 2.41579L8.23552 2.41294L8.23414 2.40336L8.23053 2.40701L8.23552 2.41294L8.23575 2.41452L8.22659 2.41072C8.21917 2.41746 8.21134 2.42316 8.2032 2.42786L8.20937 2.43839C8.2007 2.4436 8.1917 2.44773 8.18249 2.45081L8.15951 2.44329C8.14532 2.44548 8.13087 2.4452 8.11666 2.44258L8.08195 2.43122C8.09317 2.43658 8.10483 2.44039 8.11666 2.44258L8.15882 2.45637C8.1668 2.45525 8.17472 2.45341 8.18249 2.45081L8.22474 2.46463L8.23438 2.4811L8.35022 2.519L8.36404 2.53612C8.33673 2.54103 8.30607 2.54469 8.27306 2.54712L8.28032 2.55952C8.31418 2.55682 8.3455 2.5528 8.37319 2.54745L8.37709 2.55228L8.38597 2.54483C8.39503 2.54286 8.40365 2.54073 8.41178 2.53845L8.41194 2.52589L8.41134 2.52569ZM8.40965 2.52688L8.41134 2.52569L8.33563 2.50092L8.35022 2.519L8.38787 2.53132C8.38026 2.53303 8.3723 2.53463 8.36404 2.53612L8.37319 2.54745L8.38597 2.54483C8.3901 2.54147 8.39435 2.53815 8.39871 2.53486L8.40951 2.5384L8.40965 2.52688ZM8.40965 2.52688L8.39871 2.53486L8.38787 2.53132C8.39548 2.52961 8.40276 2.52778 8.40967 2.52584L8.40965 2.52688ZM8.54636 2.47347L8.54602 2.47248L8.54877 2.47164L8.54966 2.47222L8.54636 2.47347ZM8.67124 2.57083C8.60687 2.55198 8.5613 2.51674 8.54636 2.47347C8.53739 2.47677 8.52813 2.47964 8.5186 2.48206C8.46982 2.50105 8.42121 2.5301 8.38444 2.56139L8.47094 2.66856L8.47114 2.66975L8.47182 2.66964L8.52956 2.74118C8.6158 2.7282 8.70209 2.68586 8.77493 2.61988L8.77987 2.62313L8.78251 2.62876C8.73287 2.67414 8.67701 2.7087 8.61906 2.73067L8.5301 2.74185L8.53885 2.75269C8.52864 2.75444 8.51843 2.75579 8.50823 2.75673L8.50905 2.75512L8.50679 2.75686L8.50823 2.75673L8.50779 2.75762L8.5396 2.75362L8.53885 2.75269C8.56576 2.74808 8.59263 2.74068 8.61906 2.73067L8.81751 2.70572L8.78933 2.72223L8.80614 2.72012C8.74599 2.76016 8.68025 2.79688 8.62008 2.82142L8.62362 2.83346L8.82008 2.71836L8.83244 2.71681L8.85463 2.70105L8.90718 2.69445C8.93305 2.69797 8.96177 2.69883 8.99245 2.6967L9.03424 2.69144L9.04403 2.67898L9.04427 2.67894L9.0442 2.67875L9.04403 2.67898C9.01866 2.68337 8.99428 2.68577 8.97131 2.68639L8.90718 2.69445C8.895 2.69279 8.88345 2.69055 8.87262 2.68775L8.87377 2.68688L8.86922 2.67542L8.85636 2.68296C8.82083 2.67107 8.79487 2.6525 8.78251 2.62876L8.78746 2.62419L8.78679 2.6132L8.77509 2.60553C8.77423 2.59919 8.7742 2.59258 8.77505 2.58573C8.76384 2.58554 8.75288 2.58496 8.74223 2.58399L8.71807 2.56816C8.70711 2.56648 8.69655 2.56437 8.68644 2.56188L8.55975 2.47884C8.55698 2.47319 8.55483 2.46739 8.55336 2.46146L8.55343 2.46023L8.55299 2.45995L8.55336 2.46146L8.55279 2.471L8.54966 2.47222L8.55975 2.47884C8.57804 2.51602 8.62373 2.54644 8.68644 2.56188L8.71499 2.5806C8.7068 2.57929 8.69882 2.57775 8.69107 2.57598L8.68735 2.56398L8.67124 2.57083ZM8.67549 2.57204L8.67124 2.57083L8.46903 2.65678L8.47094 2.66856L8.47182 2.66964C8.56283 2.65464 8.61495 2.62942 8.69115 2.57625L8.69107 2.57598L8.69007 2.57575L8.68655 2.56441L8.67549 2.57204ZM8.6208 2.60624L8.69035 2.57667L8.69007 2.57575C8.68511 2.5746 8.68025 2.57337 8.67549 2.57204C8.65617 2.58521 8.63833 2.5965 8.6208 2.60624ZM8.53896 2.64103C8.56824 2.63224 8.59416 2.62103 8.6208 2.60624L8.53896 2.64103ZM8.53896 2.64103C8.51814 2.64727 8.49561 2.65229 8.46992 2.6565L8.47203 2.66947L8.53896 2.64103ZM8.71499 2.5806L8.77493 2.61988L8.77774 2.61729L8.77987 2.62313L8.78229 2.62471L8.78162 2.61372L8.77774 2.61729C8.77653 2.61348 8.77564 2.60956 8.77509 2.60553L8.74223 2.58399C8.73291 2.58314 8.72383 2.58201 8.71499 2.5806ZM8.85825 2.68358L8.85636 2.68296L8.81751 2.70572L8.82948 2.70422C8.82181 2.70956 8.81402 2.71487 8.80614 2.72012L8.82008 2.71836L8.84826 2.70186L8.85463 2.70105L8.87262 2.68775L8.87242 2.6877L8.8733 2.68718L8.86875 2.67573L8.85825 2.68358ZM8.85825 2.68358C8.84889 2.69049 8.83929 2.69738 8.82948 2.70422L8.84826 2.70186L8.87242 2.6877C8.86755 2.68644 8.86282 2.68506 8.85825 2.68358ZM8.54877 2.47164L8.55052 2.47113L8.54717 2.47059L8.54877 2.47164ZM8.54457 2.46775L8.54302 2.4613L8.54966 2.45876L8.54987 2.4588L8.54917 2.47064L8.54457 2.46775ZM8.9748 3.2264C8.96339 3.23399 8.95165 3.24166 8.93971 3.24932L8.93836 3.24765L8.97029 3.22843L8.9748 3.2264ZM8.9748 3.2264L8.98485 3.21968L8.98539 3.22109C8.98169 3.22306 8.97817 3.22483 8.9748 3.2264ZM8.89013 3.18325L8.88766 3.18484L8.88056 3.17604L8.88996 3.1692C8.88969 3.17401 8.88975 3.17868 8.89013 3.18325ZM8.89275 3.16717L8.89303 3.16699L8.8977 3.17837L8.89019 3.18388L8.89013 3.18325L8.89742 3.17853L8.89275 3.16717ZM8.89251 3.16732L8.89274 3.16715L8.89275 3.16717L8.89251 3.16732ZM8.89251 3.16732L8.88997 3.16896L8.88996 3.1692L8.89251 3.16732ZM8.81456 3.1088L8.81887 3.12008L8.81645 3.12155C8.80955 3.12215 8.80283 3.12231 8.79631 3.12201C8.80447 3.1158 8.8108 3.11105 8.81399 3.10884L8.81456 3.1088ZM8.81456 3.1088L8.81481 3.10878L8.81466 3.10839L8.8139 3.10885L8.81399 3.10884L8.81446 3.10852L8.81456 3.1088ZM8.58254 2.91942L8.58547 2.92711L8.5769 2.93197C8.57134 2.93154 8.56587 2.93094 8.56049 2.93015L8.5763 2.91898L8.58254 2.91942ZM8.58254 2.91942L8.58307 2.91945L8.58148 2.91528L8.57511 2.91889L8.5763 2.91898L8.58107 2.91556L8.58254 2.91942ZM8.30517 2.68273L8.30872 2.68337L8.30864 2.68467L8.3082 2.68453L8.30816 2.68399L8.30748 2.6843L8.30523 2.68357L8.30517 2.68273ZM8.29941 2.68168L8.27886 2.67503C8.28805 2.67432 8.29688 2.67348 8.30528 2.67249C8.30501 2.67605 8.30498 2.67946 8.30517 2.68273L8.29941 2.68168ZM8.30538 2.68525L8.30482 2.6855C8.29287 2.68688 8.2801 2.68797 8.26665 2.68878L8.20565 2.67775C8.22732 2.67765 8.24793 2.67703 8.2671 2.67584L8.29941 2.68168L8.30523 2.68357L8.30538 2.68525ZM8.30538 2.68525L8.30748 2.6843L8.3082 2.68453L8.30825 2.68509L8.3054 2.68543L8.30538 2.68525ZM8.20565 2.67775C8.01715 2.67863 7.74837 2.63991 7.6454 2.58756C7.63576 2.58265 7.6271 2.57733 7.61943 2.57173L8.20565 2.67775ZM7.981 2.39819C7.98773 2.39628 7.99463 2.3941 8.0017 2.39165L8.02097 2.39796C8.01443 2.40052 8.00802 2.40285 8.00173 2.40497L7.981 2.39819ZM7.981 2.39819L7.80793 2.34156C7.81853 2.39575 7.87967 2.42697 7.981 2.39819ZM8.96307 2.86372L8.93819 2.86831L8.80743 2.96829L8.8117 2.97989C8.86567 2.95369 8.91623 2.91821 8.9869 2.85932L8.96407 2.86353L8.98655 2.84635L8.98342 2.84692L8.96307 2.86372ZM8.94927 2.87485L8.96307 2.86372L8.96407 2.86353L8.94927 2.87485ZM8.94927 2.87485C8.93363 2.88733 8.91896 2.89857 8.90492 2.90876L8.94927 2.87485ZM8.90492 2.90876C8.87054 2.93372 8.83995 2.95242 8.80827 2.9678L8.81254 2.9794L8.90492 2.90876ZM9.08489 3.04009L9.07629 3.04215C9.03681 3.08142 9.00225 3.11767 8.98817 3.136L8.99472 3.14568L9.10651 3.03491L9.09794 3.03696L9.11574 3.01957L9.10236 3.02277L9.08489 3.04009ZM9.08489 3.04009L8.98867 3.13543L8.99522 3.1451C9.01079 3.12482 9.05251 3.08162 9.09794 3.03696L9.08489 3.04009ZM9.17623 3.08489L9.17618 3.08509L9.17633 3.08494L9.17623 3.08489ZM9.17623 3.08489L9.17804 3.07854L9.1714 3.08216L9.17623 3.08489ZM9.17397 3.07112L9.16786 3.0771L9.16877 3.07395L9.17397 3.07112ZM8.71444 3.08431L8.71479 3.08471L8.71842 3.08166L8.71349 3.07048L8.70704 3.07468L8.70755 3.07543C8.67484 3.1028 8.64967 3.12338 8.62395 3.14331L8.62274 3.1441L8.6228 3.1442L8.62395 3.14331L8.71444 3.08431ZM8.71444 3.08431C8.712 3.08148 8.7097 3.07852 8.70755 3.07543L8.71305 3.07082L8.71798 3.08201L8.71444 3.08431ZM8.68478 2.99509L8.68478 2.99619L8.69143 2.99105L8.68676 2.97967L8.68538 2.98051L8.68537 2.98068C8.65051 3.00772 8.61849 3.03187 8.58851 3.05347L8.5746 3.06191L8.57522 3.06297L8.58851 3.05347L8.68478 2.99509ZM8.68478 2.99509L8.69094 2.99135L8.68628 2.97997L8.68537 2.98068C8.68499 2.98555 8.68479 2.99036 8.68478 2.99509ZM8.49437 2.87326L8.4705 2.88419L8.46547 2.87561C8.47433 2.87084 8.48273 2.8662 8.49058 2.86172C8.49168 2.86566 8.49294 2.86951 8.49437 2.87326ZM8.49437 2.87326L8.49766 2.87175L8.49448 2.87357L8.49437 2.87326ZM8.49058 2.86172L8.49399 2.85977L8.49766 2.87175L8.49799 2.87156L8.49431 2.85958L8.49047 2.86134L8.49058 2.86172ZM8.40738 2.75208L8.39663 2.75808L8.39193 2.75006L8.39318 2.74902C8.39789 2.75014 8.40263 2.75116 8.40738 2.75208ZM8.40738 2.75208L8.40817 2.75164L8.40346 2.74033L8.39318 2.74902L8.39102 2.7485L8.39043 2.7475L8.40423 2.73979L8.40894 2.7511L8.40772 2.75214L8.40738 2.75208ZM7.80868 2.28505L7.8128 2.28608L7.81411 2.28228L7.80868 2.28505ZM9.39415 3.20405L9.39441 3.20372L9.39432 3.2031L9.35091 3.24527C9.36481 3.23581 9.3784 3.22322 9.39158 3.20722C9.35678 3.25843 9.25833 3.35219 9.17535 3.41588L9.18086 3.4266L9.4007 3.21302L9.39415 3.20405ZM9.39415 3.20405L9.39158 3.20722L9.3939 3.20372L9.39415 3.20405ZM9.21377 3.25054L9.21452 3.25091L9.21717 3.2475L9.21098 3.23751L9.20289 3.24416L9.20469 3.24534C9.18742 3.26655 9.16339 3.29065 9.13599 3.3146L9.09591 3.34761C9.06416 3.37227 9.03039 3.39513 8.9987 3.41249L9.0033 3.42388L9.09591 3.34761C9.10977 3.33685 9.12325 3.32574 9.13599 3.3146L9.21377 3.25054ZM9.21377 3.25054L9.21637 3.2484L9.21017 3.23841L9.20469 3.24534C9.2076 3.2472 9.21062 3.24893 9.21377 3.25054ZM9.16433 3.19378L9.16469 3.1948L9.16981 3.18941L9.16407 3.1789L9.16078 3.18149L9.16093 3.18215C9.13306 3.21149 9.09135 3.24927 9.04644 3.28626L8.97682 3.34087C8.9356 3.37154 8.8962 3.39769 8.86656 3.41241L8.87091 3.42396L8.97682 3.34087C8.99992 3.32368 9.0236 3.30507 9.04644 3.28626L9.16433 3.19378ZM9.16433 3.19378C9.16302 3.19005 9.16189 3.18617 9.16093 3.18215L9.16349 3.17944L9.16922 3.18994L9.16433 3.19378ZM7.57971 2.63076L7.58004 2.63216L7.58489 2.63114L7.58465 2.61792C7.58243 2.61761 7.58007 2.61741 7.57759 2.61731L7.57776 2.61911L7.50373 2.63459L7.50636 2.64736C7.52672 2.63632 7.55893 2.62919 7.57971 2.63076ZM7.57971 2.63076C7.57882 2.62687 7.57817 2.62299 7.57776 2.61911L7.58332 2.61795L7.58357 2.63117L7.57971 2.63076ZM7.57046 2.52874L7.57075 2.52946L7.57364 2.5298L7.57544 2.51716L7.56598 2.5137L7.56647 2.51599C7.54938 2.51393 7.53278 2.51162 7.51665 2.50905L7.22683 2.40297C7.21528 2.39495 7.20408 2.38648 7.19321 2.37753L7.18919 2.38919L7.22683 2.40297C7.30438 2.4568 7.3978 2.49008 7.51665 2.50905L7.57046 2.52874ZM7.57046 2.52874C7.56875 2.52448 7.56742 2.52021 7.56647 2.51599L7.57453 2.51694L7.57274 2.52958L7.57046 2.52874ZM7.53287 2.35496L7.53284 2.35534L7.53676 2.35691L7.53996 2.3443L7.53542 2.342L7.5353 2.34241L7.35121 2.26862L7.34841 2.28141L7.34854 2.28146C7.37352 2.29107 7.44701 2.31777 7.44077 2.31546C7.45124 2.31934 7.46033 2.32281 7.46905 2.32628C7.49128 2.33513 7.51146 2.34414 7.53287 2.35496ZM7.53287 2.35496L7.53641 2.35676L7.53961 2.34414L7.5353 2.34241C7.53406 2.34647 7.53325 2.35066 7.53287 2.35496ZM7.74526 2.22743L7.7456 2.22832L7.74598 2.22841L7.74849 2.21597L7.74083 2.21244L7.74125 2.21425C7.72066 2.20955 7.70108 2.20459 7.68251 2.19929L7.51938 2.12415C7.50861 2.11576 7.49874 2.10681 7.48976 2.09722L7.48493 2.10828L7.51938 2.12415C7.56057 2.15623 7.61486 2.17999 7.68251 2.19929L7.74512 2.22813L7.74526 2.22743ZM7.74526 2.22743C7.74369 2.22318 7.74235 2.21877 7.74125 2.21425L7.74763 2.21569L7.74526 2.22743ZM7.75533 2.11894C7.63282 2.07791 7.51557 1.98872 7.41261 1.87056L7.80621 2.13311C7.78958 2.12942 7.77302 2.12483 7.75656 2.11936L7.75607 2.11878L7.75533 2.11894ZM7.75533 2.11894L7.74839 2.12044C7.74724 2.12313 7.74616 2.12593 7.74518 2.12882L7.75178 2.13109L7.75432 2.13406C7.74487 2.1618 7.74422 2.19955 7.75634 2.22692C7.773 2.26458 7.81133 2.28313 7.8744 2.2748L7.88253 2.28433L7.88521 2.27315L7.8744 2.2748L7.75432 2.13406L7.75499 2.13216C7.76065 2.13403 7.76633 2.1358 7.77201 2.13747L7.75656 2.11936L7.75533 2.11894ZM7.75499 2.13216L7.75178 2.13109L7.74945 2.12836L7.75713 2.12671L7.75499 2.13216ZM7.80621 2.13311L7.8327 2.15078L7.83557 2.13864C7.82576 2.13712 7.81597 2.13527 7.80621 2.13311ZM7.41261 1.87056C7.40339 1.85998 7.39428 1.84915 7.38528 1.83811L7.37959 1.84853L7.41261 1.87056ZM9.29321 3.46064L9.29302 3.4609L9.29303 3.46091L9.29289 3.46112L9.30032 3.4697C9.33345 3.42359 9.38537 3.34427 9.40612 3.30823L9.39835 3.30019L9.39814 3.30052L9.39813 3.30051L9.39806 3.30063L9.29321 3.46064ZM9.29321 3.46064C9.32608 3.41485 9.37753 3.33625 9.39806 3.30063L9.39814 3.30052L9.40591 3.30855L9.30045 3.46948L9.29303 3.46091L9.29321 3.46064Z" fill="black"/>
<path fill-rule="evenodd" clip-rule="evenodd" d="M9.14198 2.2409C9.157 2.2306 9.16445 2.22769 9.18129 2.22354C9.18548 2.2225 9.18804 2.22177 9.19077 2.22074C9.20141 2.21675 9.21059 2.20907 9.2228 2.19296C9.30168 2.08869 9.42829 1.97244 9.50292 1.93082L9.50353 1.93266C9.50628 1.93101 9.50819 1.93184 9.51148 1.93618C9.51289 1.93804 9.51773 1.94566 9.51975 1.94884L9.52063 1.95022C9.53542 1.9725 9.55165 1.97977 9.578 1.96702C9.59458 1.95895 9.60292 1.94335 9.60619 1.92089C9.60712 1.91449 9.60744 1.91039 9.60813 1.89857C9.60898 1.88383 9.60994 1.8801 9.61185 1.87987L9.61182 1.87949L9.61224 1.87938C9.62591 1.87565 9.63928 1.87409 9.65433 1.87458L9.65458 1.86168C9.63885 1.86117 9.62479 1.8628 9.61043 1.86669L9.61019 1.86675L9.60715 1.86761C9.59468 1.87127 9.58165 1.87667 9.56482 1.88492C9.55383 1.8903 9.50632 1.91502 9.50681 1.91477C9.43207 1.9531 9.29823 2.07482 9.2157 2.18392C9.20462 2.19854 9.19687 2.20502 9.18801 2.20835C9.18564 2.20924 9.18333 2.2099 9.17943 2.21086C9.1617 2.21523 9.15338 2.21848 9.13733 2.22949L9.14198 2.2409ZM9.59955 1.88257C9.6008 1.87405 9.60291 1.86953 9.60715 1.86761L9.61043 1.86669L9.61098 1.86661L9.61182 1.87949L9.60455 1.8813L9.60087 1.8822L9.59955 1.88257ZM9.51611 1.92388L9.53194 1.91574C9.58298 1.88952 9.59228 1.88474 9.59955 1.88257C9.59896 1.88661 9.59855 1.89155 9.59821 1.89754C9.59755 1.90882 9.59726 1.91263 9.59642 1.91835C9.59377 1.93657 9.58755 1.94821 9.57461 1.95451C9.5524 1.96525 9.54033 1.95984 9.52807 1.94138L9.52784 1.94102L9.52784 1.94101L9.52784 1.94101C9.52656 1.93899 9.52039 1.92923 9.51847 1.9267L9.51611 1.92388ZM9.51611 1.92388C9.51093 1.91831 9.5056 1.91683 9.49946 1.92051L9.50292 1.93082L9.51047 1.92677L9.51611 1.92388ZM11.2926 2.54668L11.288 2.54892L11.2845 2.53682L11.2925 2.53297C11.2928 2.53738 11.2928 2.54196 11.2926 2.54668ZM11.2547 2.66122C11.2698 2.63735 11.2838 2.60323 11.2896 2.57217C11.2913 2.56328 11.2923 2.55476 11.2926 2.54668C11.5097 2.44277 11.6308 2.37594 11.7764 2.26709C11.8517 2.21083 11.9216 2.15006 11.9861 2.08383L11.98 2.07371C11.9159 2.13954 11.8463 2.19995 11.7715 2.25591C11.6272 2.36373 11.507 2.43022 11.2925 2.53297C11.291 2.50679 11.2812 2.48639 11.2625 2.47451C11.4524 2.39455 11.63 2.28693 11.698 2.20043L11.691 2.19122C11.6228 2.27792 11.4403 2.38744 11.2471 2.46735L11.2471 2.46735L11.2471 2.46735C11.1904 2.49082 11.1328 2.51173 11.0768 2.52876C11.0638 2.52066 11.048 2.51379 11.0294 2.50829C10.9105 2.47322 10.7316 2.51034 10.6222 2.59201C10.6075 2.58721 10.5929 2.58279 10.5786 2.57884C10.6118 2.5405 10.6293 2.4913 10.6157 2.4451L10.6064 2.44968C10.6339 2.54335 10.5123 2.65661 10.4079 2.63109L10.4061 2.64377C10.4637 2.65785 10.5263 2.6321 10.5688 2.58936C10.6215 2.60342 10.6791 2.62415 10.7307 2.64752L10.7308 2.64838L10.732 2.64811C10.7926 2.67568 10.8447 2.70685 10.8703 2.73504C10.8999 2.76752 10.9155 2.7964 10.9145 2.81847C10.9135 2.84267 10.8919 2.86131 10.8457 2.8719C10.7883 2.88514 10.7514 2.88848 10.7002 2.88127L10.6703 2.87387L10.67 2.87616C10.651 2.87248 10.6297 2.86765 10.6049 2.86163C10.5344 2.79718 10.4262 2.7338 10.3144 2.68397L10.3112 2.69617C10.4213 2.74525 10.5282 2.80783 10.5977 2.87082L10.5974 2.87293L10.601 2.87379C10.6208 2.89209 10.6375 2.91041 10.6501 2.92842C10.6806 2.97215 10.6768 3.00117 10.6433 3.01791C10.6102 3.03441 10.5514 3.03628 10.484 3.0231C10.3573 2.99822 10.147 2.85871 10.0401 2.73501L10.0335 2.74464C10.0981 2.81937 10.1996 2.89958 10.2983 2.9575L10.298 2.95784C10.3224 2.98964 10.345 3.03598 10.3552 3.07815C10.3646 3.11768 10.3524 3.13699 10.3244 3.13412C10.2868 3.1304 10.2591 3.12196 10.2229 3.09962L10.2215 3.10359C10.2041 3.0779 10.1808 3.05341 10.1514 3.03258C10.071 2.97564 9.9663 2.85601 9.9176 2.76826L9.90952 2.7758C9.9591 2.86512 10.0649 2.98605 10.1466 3.04391C10.239 3.10929 10.2673 3.20966 10.2391 3.26272C10.2143 3.30965 10.1312 3.31581 10.0484 3.25206C9.94942 3.17577 9.83506 2.93331 9.81973 2.76251L9.80984 2.764C9.82553 2.93868 9.94158 3.18474 10.0433 3.26315C10.0598 3.27588 10.0764 3.28594 10.0927 3.29353C10.1002 3.32044 10.1033 3.354 10.1014 3.40646C10.099 3.4722 10.0617 3.51662 10.0162 3.49435C9.97126 3.47241 9.93662 3.4236 9.91343 3.36292L9.90452 3.36865C9.92872 3.43199 9.96503 3.48315 10.0127 3.50643C10.0252 3.51255 10.0372 3.51431 10.0482 3.51245C10.0751 3.58642 10.0899 3.64069 10.088 3.66043C10.0852 3.69018 10.0792 3.69926 10.0582 3.69292L10.0559 3.70549C10.0841 3.71398 10.0944 3.69834 10.0979 3.66201C10.1001 3.63905 10.0855 3.58489 10.0582 3.5097C10.0638 3.50754 10.069 3.50441 10.0739 3.50043C10.1118 3.5653 10.1395 3.61151 10.1737 3.66495C10.184 3.68097 10.1939 3.69623 10.2036 3.71065C10.2395 3.76417 10.27 3.80453 10.2939 3.82869L10.3 3.81851C10.2768 3.79499 10.2466 3.75512 10.2111 3.70218C10.2015 3.68784 10.1916 3.67266 10.1814 3.65671C10.1473 3.60349 10.1197 3.55743 10.0819 3.49277C10.099 3.47379 10.11 3.44307 10.1113 3.40707C10.1125 3.37536 10.1118 3.35013 10.1095 3.3289C10.2081 3.47657 10.4398 3.75375 10.5088 3.80433L10.5137 3.7931C10.4431 3.74135 10.1959 3.44421 10.1057 3.30324L10.1055 3.30348L10.1045 3.29862C10.1623 3.32167 10.2141 3.31313 10.2397 3.2816C10.2975 3.37947 10.4776 3.51685 10.5705 3.53987L10.5724 3.52719C10.4811 3.50459 10.3011 3.36689 10.2464 3.27174L10.2473 3.27003C10.2642 3.23824 10.2635 3.19278 10.2447 3.14684C10.3104 3.21803 10.4208 3.32297 10.523 3.41496L10.5287 3.40436C10.4194 3.306 10.3005 3.19258 10.2377 3.12219C10.2665 3.1373 10.2918 3.14383 10.3236 3.14698C10.3384 3.14849 10.3501 3.14439 10.3578 3.13551C10.4273 3.22921 10.6059 3.41783 10.6769 3.46324L10.6813 3.45167C10.6112 3.40683 10.432 3.21753 10.364 3.1253C10.3692 3.11289 10.3698 3.09558 10.3647 3.07432C10.3561 3.03867 10.3392 3.00053 10.3196 2.9697C10.3789 3.00265 10.4361 3.02675 10.4825 3.03585C10.4965 3.03858 10.5101 3.04068 10.5232 3.04215L10.5225 3.04308C10.6099 3.14341 10.7718 3.28071 10.8669 3.33941L10.8712 3.32776C10.7801 3.27153 10.6265 3.14201 10.5381 3.04356C10.5645 3.0456 10.5886 3.0449 10.6091 3.04145C10.6362 3.06982 10.6864 3.10957 10.7585 3.16128L10.7876 3.18197C10.8122 3.19934 10.8714 3.24025 10.9081 3.2656L10.9082 3.26563L10.9385 3.28661L10.9432 3.27526L10.9127 3.25418C10.876 3.22882 10.8169 3.18797 10.7923 3.17064L10.7633 3.14999C10.6977 3.10296 10.6504 3.06587 10.6225 3.03867C10.6316 3.0364 10.6397 3.03349 10.6468 3.02995C10.6542 3.02627 10.6604 3.02194 10.6654 3.017C10.8495 3.16742 10.9667 3.24682 11.0866 3.28288L11.0888 3.27031C10.9709 3.23483 10.8548 3.15634 10.6729 3.00785C10.6818 2.99388 10.6832 2.97639 10.6766 2.95628C10.6975 2.96711 10.7221 2.98042 10.7534 2.9977L10.8559 3.05475L10.876 3.06585C10.9908 3.12926 11.0629 3.16543 11.1123 3.18189L11.1148 3.16939C11.066 3.15316 10.9942 3.11712 10.8799 3.05398L10.8598 3.04289L10.7573 2.98583C10.7201 2.96532 10.6924 2.95038 10.669 2.93851L10.669 2.93859C10.6658 2.93249 10.662 2.92621 10.6574 2.91975C10.648 2.90627 10.6364 2.89268 10.6231 2.87908C10.6525 2.88596 10.6769 2.89094 10.6987 2.89403C10.8887 2.94198 11.0722 3.00499 11.117 3.05482L11.1235 3.04502C11.0817 2.99863 10.9314 2.94346 10.7627 2.89762C10.7886 2.89651 10.8148 2.89214 10.8475 2.8846C10.8748 2.87833 10.8948 2.86894 10.9076 2.85652L10.9077 2.85742C10.9153 2.85641 10.9227 2.85529 10.9301 2.85406C11.0161 2.90216 11.1542 2.91533 11.2209 2.87389C11.2419 2.92806 11.2093 3.00966 11.1719 3.02519L11.1749 3.03748C11.1956 3.02892 11.2146 3.00369 11.2261 2.97294C11.324 3.00252 11.544 3.00822 11.6506 2.97788L11.6485 2.96483C11.544 2.99457 11.3277 2.98917 11.2302 2.96052C11.2345 2.94606 11.2371 2.93077 11.2374 2.91569C11.3836 2.93283 11.5597 2.91856 11.6495 2.86303L11.6453 2.85092C11.5573 2.90535 11.3819 2.91943 11.2371 2.90227C11.2363 2.89027 11.2339 2.8786 11.2296 2.8678L11.2329 2.86516C11.2442 2.85549 11.2535 2.84471 11.2608 2.83326C11.4407 2.79982 11.5735 2.74575 11.6946 2.66727C11.7208 2.65028 11.7757 2.61029 11.82 2.57796C11.8495 2.55646 11.8743 2.53835 11.883 2.53266C11.8988 2.52229 11.9136 2.5135 11.9281 2.50591L11.9244 2.49394C11.9096 2.50167 11.8945 2.51062 11.8785 2.52115C11.8697 2.52696 11.8445 2.54533 11.8147 2.56705L11.8147 2.56705C11.7704 2.59931 11.716 2.63895 11.6902 2.65572C11.5721 2.73221 11.4429 2.78533 11.2688 2.8187C11.2769 2.80163 11.281 2.78355 11.2811 2.76574C11.5838 2.66744 11.8459 2.52081 12.0221 2.33335L12.0158 2.32338C11.8413 2.50905 11.5811 2.65476 11.2805 2.75263C11.2777 2.7244 11.265 2.69767 11.243 2.67774C11.4029 2.63352 11.5079 2.57284 11.7103 2.42677L11.7235 2.41722C11.7809 2.37575 11.8119 2.3539 11.8477 2.33019L11.8432 2.3187C11.8073 2.3425 11.7762 2.36441 11.7187 2.40595L11.7054 2.41549C11.5098 2.55672 11.4058 2.61763 11.2547 2.66122ZM11.2428 2.67755C11.2467 2.67296 11.2508 2.66744 11.2547 2.66122L11.2403 2.66528L11.2423 2.67713L11.2373 2.6729L11.2321 2.68391L11.2347 2.68609C11.1487 2.77486 11.0638 2.82735 10.9499 2.85039C10.9443 2.84776 10.939 2.84499 10.9338 2.84208L10.9298 2.85393L10.9301 2.85406C10.9368 2.85293 10.9434 2.85171 10.9499 2.85039C11.0395 2.89299 11.1735 2.90044 11.2274 2.85439C11.2846 2.80548 11.2844 2.72817 11.2347 2.68609L11.2401 2.68053L11.2425 2.67788L11.243 2.67774L11.2428 2.67755ZM11.2428 2.67755L11.2423 2.67713L11.2424 2.6779L11.2425 2.67788L11.2428 2.67755ZM11.2805 2.75263L11.2731 2.75503L11.2755 2.76756L11.2811 2.76574C11.2812 2.76135 11.281 2.75697 11.2805 2.75263ZM11.2688 2.8187L11.2556 2.82118L11.257 2.83395L11.2608 2.83326C11.2638 2.82851 11.2665 2.82365 11.2688 2.8187ZM11.2371 2.90227C11.2374 2.9067 11.2375 2.91119 11.2374 2.91569L11.2319 2.91503L11.2328 2.90175L11.2371 2.90227ZM11.2302 2.96052L11.2246 2.95879L11.2223 2.97176L11.2261 2.97294C11.2276 2.96889 11.229 2.96474 11.2302 2.96052ZM11.2296 2.8678C11.2269 2.86995 11.2239 2.87198 11.2209 2.87389L11.2192 2.86984L11.2278 2.86333L11.2296 2.8678ZM10.918 2.84298L10.9067 2.84458L10.9076 2.85652C10.9119 2.85235 10.9154 2.84783 10.918 2.84298ZM10.8955 2.7477C10.9151 2.7738 10.9254 2.79781 10.9245 2.81917C10.9241 2.82785 10.922 2.83578 10.918 2.84298C11.0482 2.8234 11.1398 2.76911 11.2338 2.6705C11.2521 2.65128 11.2728 2.60743 11.28 2.56913C11.2884 2.52407 11.2787 2.49252 11.2474 2.4808L11.2625 2.47451C11.2579 2.4716 11.2528 2.4692 11.2471 2.46735L11.2471 2.46735L11.2447 2.47986L11.2474 2.4808C11.1949 2.5024 11.1418 2.52181 11.0899 2.538C11.0859 2.53477 11.0815 2.53168 11.0768 2.52876L11.0765 2.52885L11.0788 2.54141L11.0899 2.538C11.1082 2.55288 11.119 2.57102 11.1226 2.5918C11.1278 2.62269 11.1161 2.65672 11.0945 2.6831C11.0575 2.72825 10.9779 2.75474 10.8955 2.7477ZM10.8841 2.73355L10.883 2.7334L10.882 2.74624C10.8865 2.74683 10.891 2.74731 10.8955 2.7477C10.892 2.74305 10.8882 2.73833 10.8841 2.73355ZM10.7522 2.64384C10.8066 2.66989 10.8526 2.69863 10.8767 2.7252L10.8841 2.73355C10.9682 2.74416 11.0512 2.71821 11.0877 2.67371C11.1069 2.65014 11.1173 2.62035 11.1128 2.59461C11.1073 2.56253 11.08 2.53647 11.0272 2.52088C10.914 2.48747 10.7441 2.52116 10.6362 2.59667L10.6222 2.59201L10.6198 2.59387L10.6248 2.605L10.6362 2.59667C10.6688 2.60779 10.7015 2.62068 10.7322 2.63454L10.7291 2.63523L10.7307 2.64752L10.732 2.64811L10.7522 2.64384ZM10.7522 2.64384C10.8324 2.62782 10.957 2.6122 11.0215 2.6122V2.59887C10.9512 2.59887 10.8109 2.61715 10.7322 2.63454L10.7522 2.64384ZM10.7627 2.89762C10.7422 2.8985 10.7219 2.89732 10.6987 2.89403L10.6685 2.88655L10.67 2.87616C10.6807 2.87823 10.6907 2.87993 10.7002 2.88127C10.7212 2.88656 10.7421 2.89202 10.7627 2.89762ZM10.669 2.93859L10.6654 2.95053L10.6766 2.95628C10.6747 2.95059 10.6722 2.94468 10.669 2.93859ZM10.6729 3.00785C10.6708 3.01109 10.6683 3.01415 10.6654 3.017L10.6622 3.01439L10.6675 3.00348L10.6729 3.00785ZM10.6225 3.03867L10.6143 3.03027L10.608 3.04025L10.6091 3.04145C10.6138 3.04067 10.6182 3.03974 10.6225 3.03867ZM10.5381 3.04356L10.5232 3.04215L10.5291 3.03342L10.5381 3.04356ZM10.364 3.1253L10.3613 3.12157L10.354 3.13042L10.3578 3.13551C10.3603 3.13261 10.3624 3.1292 10.364 3.1253ZM10.2307 3.1184L10.2377 3.12219L10.2241 3.10657L10.2238 3.10705L10.2215 3.10359L10.2186 3.11128L10.2202 3.11217L10.2174 3.11611C10.2253 3.12541 10.2345 3.13571 10.2447 3.14684C10.2408 3.13734 10.2362 3.12782 10.2307 3.1184ZM10.2307 3.1184L10.2202 3.11217L10.2238 3.10705C10.2262 3.11082 10.2285 3.1146 10.2307 3.1184ZM10.2464 3.27174C10.2444 3.27524 10.2422 3.27853 10.2397 3.2816L10.2354 3.27398L10.2436 3.26662L10.2464 3.27174ZM10.1055 3.30348C10.1072 3.31134 10.1085 3.31975 10.1095 3.3289L10.0981 3.31148L10.1055 3.30348ZM10.0819 3.49277L10.079 3.48773L10.071 3.49551L10.0739 3.50043C10.0767 3.49815 10.0794 3.49559 10.0819 3.49277ZM10.0582 3.5097L10.0549 3.50051L10.0459 3.50606L10.0482 3.51245C10.0516 3.51188 10.055 3.51095 10.0582 3.5097ZM10.1045 3.29862C10.1006 3.29707 10.0966 3.29537 10.0927 3.29353L10.0922 3.29167L10.1015 3.28713C10.1025 3.29084 10.1035 3.29466 10.1045 3.29862ZM10.3196 2.9697L10.2983 2.9575L10.3051 2.94875C10.31 2.95521 10.3149 2.96224 10.3196 2.9697ZM10.6231 2.87908C10.6174 2.87326 10.6113 2.86744 10.6049 2.86163L10.5993 2.86025L10.5977 2.87082L10.601 2.87379L10.6231 2.87908ZM10.5688 2.58936C10.5722 2.58596 10.5755 2.58245 10.5786 2.57884L10.5665 2.57557L10.5645 2.58821L10.5688 2.58936ZM9.96155 2.45861C9.91984 2.47394 9.89646 2.48944 9.85255 2.52594L9.8578 2.53727C9.90096 2.50139 9.92358 2.48639 9.96418 2.47147L9.96155 2.45861ZM10.1555 2.725C10.27 2.809 10.424 2.9034 10.5309 2.95358L10.5343 2.94145C10.428 2.89153 10.2745 2.79743 10.1604 2.71377L10.1555 2.725ZM10.5719 2.73228C10.4893 2.71024 10.4179 2.69581 10.346 2.68772L10.3469 2.67487C10.4192 2.683 10.491 2.69751 10.574 2.71965C10.6072 2.72852 10.6416 2.73839 10.6857 2.75157L10.8006 2.78618L10.7984 2.79876L10.6834 2.76414C10.6395 2.75099 10.6052 2.74114 10.5719 2.73228ZM9.85938 2.77696C9.8796 2.85583 10.0228 3.08808 10.0903 3.14312L10.0956 3.13219C10.03 3.07872 9.8883 2.84888 9.86883 2.77289L9.85938 2.77696ZM9.98511 3.33603C9.96279 3.26551 9.82436 2.99836 9.75024 2.87246L9.75815 2.86463C9.83282 2.99147 9.97154 3.25918 9.99431 3.33113L9.98511 3.33603ZM9.95013 2.75875C9.99634 2.82667 10.1477 2.97603 10.2166 3.01203L10.2204 3.00006C10.153 2.96487 10.0028 2.81673 9.95759 2.75022L9.95013 2.75875ZM9.66906 2.03501C9.64121 2.05373 9.62089 2.08109 9.60413 2.11919L9.6127 2.12596C9.62854 2.08995 9.64751 2.06441 9.67352 2.04693L9.66906 2.03501ZM9.20649 2.45653C9.20375 2.40796 9.20763 2.34473 9.21782 2.29931L9.22738 2.30292C9.21754 2.34674 9.21376 2.40846 9.21642 2.45559L9.20649 2.45653ZM9.21327 2.53654C9.20512 2.58157 9.21114 2.68634 9.22228 2.74428L9.23194 2.74115C9.22114 2.68503 9.21523 2.58216 9.22296 2.53949L9.21327 2.53654ZM9.24852 2.88308C9.2439 2.87357 9.24041 2.86462 9.23815 2.85622L9.24752 2.85171C9.24948 2.85904 9.25263 2.8671 9.25685 2.8758C9.26215 2.88669 9.26898 2.89829 9.27721 2.91068C9.28401 2.92093 9.28956 2.92863 9.30017 2.94292L9.29311 2.95232C9.28238 2.93787 9.27674 2.93003 9.26978 2.91954C9.26124 2.90669 9.25412 2.8946 9.24852 2.88308ZM9.28723 2.61359C9.28266 2.68844 9.31446 2.8305 9.34677 2.87867C9.35386 2.95835 9.3966 3.07239 9.45692 3.15098L9.46397 3.14188C9.40521 3.06531 9.36345 2.95389 9.35546 2.87361C9.32381 2.82478 9.29278 2.68615 9.29715 2.61461L9.28723 2.61359ZM9.2738 2.53014C9.26866 2.48284 9.26743 2.43541 9.2716 2.40527L9.2814 2.40754C9.27745 2.43606 9.27865 2.48228 9.28365 2.52834L9.2738 2.53014ZM9.35932 2.11148C9.33949 2.17613 9.32844 2.31294 9.33435 2.36634C9.33546 2.37657 9.33531 2.37916 9.33182 2.42211C9.32546 2.50045 9.32798 2.55986 9.34801 2.6366L9.35743 2.63246C9.33793 2.55777 9.33549 2.50011 9.34171 2.42346C9.34536 2.37856 9.34549 2.37639 9.3442 2.36452C9.33852 2.31328 9.3494 2.17875 9.36857 2.11625L9.35932 2.11148ZM9.42872 2.60717C9.40749 2.51504 9.40673 2.29381 9.42865 2.17676L9.43832 2.1798C9.4168 2.29472 9.41755 2.51364 9.43825 2.60348L9.42872 2.60717ZM9.40168 2.64188C9.38969 2.71061 9.39096 2.79017 9.40635 2.85005L9.41579 2.84597C9.40101 2.78846 9.39977 2.71127 9.41138 2.64473L9.40168 2.64188ZM9.58233 2.53645C9.52269 2.45038 9.48659 2.32204 9.48905 2.22184L9.49899 2.22225C9.49661 2.31913 9.53181 2.44423 9.58973 2.52782L9.58233 2.53645ZM9.4734 2.54339C9.46653 2.65457 9.47145 2.75668 9.48711 2.81503C9.49114 2.83009 9.49398 2.84839 9.49797 2.88191L9.50184 2.91456C9.50341 2.92742 9.50484 2.93825 9.50638 2.94863C9.51389 2.99925 9.52376 3.0365 9.5394 3.0653L9.54753 3.05787C9.53288 3.03088 9.52342 2.99517 9.51615 2.94619C9.51464 2.93597 9.51322 2.92527 9.51167 2.91254L9.5078 2.87994C9.50372 2.84565 9.50081 2.82684 9.49651 2.81079C9.48139 2.75447 9.47655 2.65397 9.48332 2.54442L9.4734 2.54339ZM9.55349 2.72466L9.54976 2.70639L9.55938 2.70307L9.56312 2.72143C9.56829 2.74729 9.57135 2.76679 9.57276 2.78626C9.5748 2.81436 9.57285 2.83861 9.5659 2.85935L9.55677 2.85421C9.56297 2.83573 9.56475 2.81357 9.56286 2.78747C9.5615 2.76883 9.55854 2.74992 9.55349 2.72466ZM9.60817 2.62176C9.62471 2.69203 9.63502 2.77801 9.63264 2.81538L9.64256 2.81643C9.64505 2.77719 9.63456 2.68969 9.61769 2.618L9.60817 2.62176ZM9.67819 3.19051C9.65769 3.14394 9.63913 3.06956 9.63489 3.00953L9.6448 3.00835C9.6489 3.06651 9.66703 3.13912 9.68683 3.18411L9.67819 3.19051ZM9.56111 3.18645C9.57989 3.25963 9.61214 3.33519 9.64131 3.36497L9.64746 3.35483C9.6202 3.32699 9.58876 3.25337 9.57055 3.18238L9.56111 3.18645ZM9.83703 3.39125C9.81711 3.31328 9.80405 3.27539 9.77258 3.21745L9.78071 3.21002C9.81285 3.2692 9.82627 3.30812 9.84647 3.38719L9.83703 3.39125Z" fill="black"/>
<path fill-rule="evenodd" clip-rule="evenodd" d="M9.40833 3.23471C9.41453 3.23557 9.41839 3.23588 9.42906 3.23657C9.45385 3.23818 9.46255 3.24144 9.47371 3.25672C9.48107 3.26679 9.48838 3.28202 9.49626 3.30418C9.5238 3.38156 9.59907 3.49987 9.64305 3.53671L9.64302 3.53673C9.70129 3.66926 9.72716 3.84424 9.70902 3.93804C9.70386 3.89668 9.68576 3.86486 9.65781 3.8388C9.64696 3.82869 9.64004 3.82354 9.62121 3.81057C9.59629 3.83874 9.55993 3.87116 9.54159 3.87623L9.54366 3.88885C9.56437 3.88313 9.60236 3.84925 9.62255 3.82062C9.63172 3.83099 9.63776 3.83641 9.64446 3.84242L9.652 3.84928C9.67799 3.87351 9.69453 3.90258 9.69921 3.94014L9.70902 3.93808L9.70836 3.94134L9.71797 3.94471C9.73729 3.85213 9.71392 3.68193 9.6589 3.54742C9.7267 3.58778 9.77002 3.63326 9.77851 3.69741L9.78795 3.69896L9.79283 3.68483C9.81544 3.61899 9.82403 3.57375 9.81541 3.52702L9.81627 3.52835L9.82423 3.54074C9.84918 3.57957 9.86754 3.60815 9.88114 3.62975L9.8802 3.62992C9.88155 3.64221 9.8828 3.66093 9.88429 3.68947L9.88909 3.7864C9.89266 3.85419 9.89624 3.89935 9.90112 3.9288L9.91085 3.92609C9.90611 3.89745 9.90256 3.85268 9.89902 3.78552L9.89422 3.6886C9.89331 3.67133 9.8925 3.65762 9.89169 3.64667C9.91259 3.68055 9.91827 3.69273 9.92118 3.70554C9.92211 3.70962 9.92275 3.71377 9.92352 3.7187L9.92436 3.72397C9.93265 3.77527 9.96455 3.84562 9.99656 3.89083L10.0039 3.8821C9.97299 3.83847 9.94197 3.77006 9.93409 3.72132L9.93303 3.71456L9.93303 3.71456C9.93221 3.70921 9.93152 3.70475 9.93052 3.70036C9.92547 3.67816 9.91238 3.65779 9.83313 3.53445L9.82391 3.52009L9.8052 3.49047L9.7968 3.49721C9.81658 3.55298 9.81102 3.59932 9.78483 3.67639C9.77006 3.61493 9.72474 3.57147 9.65762 3.5325C9.61885 3.51003 9.53426 3.38017 9.5053 3.29878C9.49699 3.27544 9.48915 3.25909 9.48093 3.24784C9.46754 3.22951 9.45669 3.22544 9.42956 3.22369C9.41908 3.22301 9.41533 3.2227 9.40938 3.22188L9.40833 3.23471ZM9.89169 3.64667C9.89115 3.63932 9.89061 3.63321 9.89005 3.62811L9.88114 3.62975C9.88503 3.63594 9.88853 3.64155 9.89169 3.64667ZM9.70902 3.93808L9.70903 3.93808L9.70902 3.93804L9.70902 3.93808ZM9.6589 3.54742L9.65356 3.54427C9.65031 3.54239 9.64679 3.53985 9.64305 3.53671L9.65166 3.53034L9.6589 3.54742ZM9.47805 3.43028C9.49549 3.49836 9.50934 3.5801 9.51075 3.62741L9.52069 3.62691C9.51924 3.5782 9.5052 3.49535 9.48749 3.42621L9.47805 3.43028ZM9.62892 3.76593C9.62736 3.72774 9.60883 3.62773 9.59037 3.56111L9.59973 3.55675C9.61849 3.62446 9.63724 3.72561 9.63886 3.76524L9.62892 3.76593ZM9.80272 3.74267C9.81716 3.78779 9.82629 3.85903 9.82337 3.90148L9.83328 3.90262C9.83635 3.85804 9.82695 3.78472 9.81191 3.73772L9.80272 3.74267Z" fill="black"/>
</g>
</svg>
