<svg width="13" height="12" fill="none" xmlns="http://www.w3.org/2000/svg"><rect width="13" height="12" rx="2" fill="#fff"/><mask id="a" maskUnits="userSpaceOnUse" x="0" y="0" width="13" height="12"><rect width="13" height="12" rx="2" fill="#fff"/></mask><g mask="url(#a)"><path fill="#0A17A7" d="M0 0h13v12H0z"/><path d="M0-.333h-.75l.503.556 2.08 2.305v.526l-2.06 1.901-.106.1v1.242l.542-.439 2.385-1.926h.37l2.038 1.88a.45.45 0 00.64-.632L3.738 3.07v-.525L5.69.744a.667.667 0 00.215-.49v-.952l-.543.439-2.385 1.926h-.37L.536-.245.44-.333H0z" fill="#FF2E3B" stroke="#fff" stroke-width=".667"/><path fill-rule="evenodd" clip-rule="evenodd" d="M0 2v1.6h2.167v1.781a.62.62 0 001.238 0V3.6h1.81a.667.667 0 00.666-.667v-.266A.667.667 0 005.214 2h-1.81V0H2.168v2H0z" fill="url(#paint0_linear)"/><path fill-rule="evenodd" clip-rule="evenodd" d="M0 2.4h2.476V0h.62v2.4H5.57v.8H3.095v2.4h-.619V3.2H0v-.8z" fill="url(#paint1_linear)"/><path fill-rule="evenodd" clip-rule="evenodd" d="M2.786 9.8l-.546.37.104-.785-.441-.556.61-.114L2.786 8l.273.715.61.114-.442.556.105.786-.546-.371zm6.5.6l-.438.166.128-.566-.128-.566.438.166.438-.166-.129.566.129.566-.438-.166zm0-7.6l-.438.166.128-.566-.128-.566.438.166.438-.166-.129.566.129.566-.438-.166zm1.857 2.4l-.438.166.128-.566-.128-.566.438.166.438-.166-.129.566.129.566-.438-.166zM7.429 6l-.438.166.128-.566-.128-.566.438.166.437-.166-.128.566.128.566L7.43 6zm2.785 1l-.219.083.065-.283-.065-.283.22.083.218-.083-.064.283.064.283L10.214 7z" fill="#fff"/></g><defs><linearGradient id="paint0_linear" x1="0" y1="0" x2="0" y2="6" gradientUnits="userSpaceOnUse"><stop stop-color="#fff"/><stop offset="1" stop-color="#F0F0F0"/></linearGradient><linearGradient id="paint1_linear" x1="0" y1="0" x2="0" y2="5.6" gradientUnits="userSpaceOnUse"><stop stop-color="#FF2E3B"/><stop offset="1" stop-color="#FC0D1B"/></linearGradient></defs></svg>