<svg width="13" height="12" fill="none" xmlns="http://www.w3.org/2000/svg"><rect width="13" height="12" rx="2" fill="#fff"/><mask id="a" maskUnits="userSpaceOnUse" x="0" y="0" width="13" height="12"><rect width="13" height="12" rx="2" fill="#fff"/></mask><g mask="url(#a)" clip-rule="evenodd"><path fill-rule="evenodd" d="M0 10.4h13V1.6H0v8.8z" fill="#094995"/><path fill-rule="evenodd" d="M0 1.6h13V0H0v1.6zM0 12h13v-1.6H0V12z" fill="#D5182F"/><path fill-rule="evenodd" d="M6.5 9.6c1.538 0 2.786-1.612 2.786-3.6S8.038 2.4 6.5 2.4C4.961 2.4 3.714 4.012 3.714 6S4.961 9.6 6.5 9.6z" fill="#fff"/><path d="M6.5 8.4c1.026 0 1.857-1.075 1.857-2.4 0-1.326-.831-2.4-1.857-2.4S4.643 4.674 4.643 6c0 1.325.831 2.4 1.857 2.4z" stroke="#118014" stroke-width="1.333" stroke-linecap="round" stroke-dasharray="0.67 2"/></g></svg>