<svg width="13" height="12" fill="none" xmlns="http://www.w3.org/2000/svg"><rect width="13" height="12" rx="2" fill="#fff"/><mask id="a" maskUnits="userSpaceOnUse" x="0" y="0" width="13" height="12"><rect width="13" height="12" rx="2" fill="#fff"/></mask><g mask="url(#a)"><path fill="#19BFBF" d="M0 0h13v12H0z"/><path fill-rule="evenodd" clip-rule="evenodd" d="M6.19 8.8l-.244-.632A.263.263 0 005.701 8a.263.263 0 01-.209-.102L4.403 6.49a.333.333 0 01-.07-.204v-.572a.333.333 0 00-.07-.204l-.5-.647a.333.333 0 01-.064-.14l-.26-1.35a.333.333 0 00-.196-.243l-.741-.319a.333.333 0 01-.05-.026l-.442-.287a.333.333 0 01-.153-.28v-.285c0-.184.15-.333.334-.333h.122c.103 0 .2.048.263.13l.11.14c.063.082.16.13.263.13h.292c.103 0 .2-.048.264-.13l.11-.14a.333.333 0 01.263-.13h.976c.064 0 .127.019.181.053l.454.294a.333.333 0 00.18.053h.423a.333.333 0 00.181-.053l.454-.294a.333.333 0 01.18-.053h.807c.184 0 .334.15.334.333v.157a.31.31 0 01-.31.31.31.31 0 00-.31.31v.721a.31.31 0 10.619 0v-.298c0-.184.15-.333.334-.333h.395c.11 0 .2.09.2.2 0 .11.09.2.2.2h.395c.185 0 .334.15.334.333v.425a.333.333 0 01-.01.083l-.283 1.093a.333.333 0 01-.059.12l-.857 1.108a.333.333 0 00-.047.083l-.27.697a.333.333 0 00-.022.12v.554a.184.184 0 01-.355.066l-.181-.469A.333.333 0 007.51 7.2h-.472a.333.333 0 00-.31.213l-.181.467a.333.333 0 000 .24l.18.467c.05.128.173.213.311.213h.227c.103 0 .2.048.264.13l.449.58c.045.058.07.13.07.204v.353c0 .184-.15.333-.334.333h-.057a.333.333 0 01-.31-.213l-.145-.374A.333.333 0 006.89 9.6h-.163a.333.333 0 01-.31-.213L6.19 8.8z" fill="#fff"/></g></svg>