<svg width="13" height="12" fill="none" xmlns="http://www.w3.org/2000/svg"><rect x=".25" y=".25" width="12.5" height="11.5" rx="1.75" fill="#fff" stroke="#F5F5F5" stroke-width=".5"/><mask id="a" maskUnits="userSpaceOnUse" x="0" y="0" width="13" height="12"><rect x=".25" y=".25" width="12.5" height="11.5" rx="1.75" fill="#fff" stroke="#fff" stroke-width=".5"/></mask><g mask="url(#a)" fill-rule="evenodd" clip-rule="evenodd"><path d="M0 2.4h13V0H0v2.4zm0 4.8h13V4.8H0v2.4zM0 12h13V9.6H0V12z" fill="#0B389F"/><path d="M0 0l6.19 6L0 12V0z" fill="#E12A43"/><path d="M2.167 6.614l-.728.68.276-1.104-.726-.684.899-.002.279-1.104.279 1.104.898.002-.726.684.276 1.104-.727-.68z" fill="#fff"/></g></svg>