<svg width="13" height="12" fill="none" xmlns="http://www.w3.org/2000/svg"><rect x=".25" y=".25" width="12.5" height="11.5" rx="1.75" fill="#fff" stroke="#F5F5F5" stroke-width=".5"/><mask id="a" maskUnits="userSpaceOnUse" x="0" y="0" width="13" height="12"><rect x=".25" y=".25" width="12.5" height="11.5" rx="1.75" fill="#fff" stroke="#fff" stroke-width=".5"/></mask><g mask="url(#a)" fill-rule="evenodd" clip-rule="evenodd"><path d="M0 12h13V8H0v4z" fill="#EC3938"/><path d="M0 4h13V0H0v4z" fill="#51B422"/><path d="M6.318 7.028a.107.107 0 00.021-.063l.006-1.212a.153.153 0 00-.153-.153.153.153 0 01-.12-.246l.188-.244a.304.304 0 01.48 0l.188.244c.078.1.007.246-.12.246a.153.153 0 00-.153.153v1.21c0 .024.008.047.022.066a.106.106 0 01-.084.171h-.189a.108.108 0 01-.086-.172z" fill="#159940"/><path d="M0 0l4.333 6L0 12V0z" fill="#258DE7"/></g></svg>