<svg width="13" height="12" fill="none" xmlns="http://www.w3.org/2000/svg"><rect x=".25" y=".25" width="12.5" height="11.5" rx="1.75" fill="#fff" stroke="#F5F5F5" stroke-width=".5"/><mask id="a" maskUnits="userSpaceOnUse" x="0" y="0" width="13" height="12"><rect x=".25" y=".25" width="12.5" height="11.5" rx="1.75" fill="#fff" stroke="#fff" stroke-width=".5"/></mask><g mask="url(#a)"><path fill-rule="evenodd" clip-rule="evenodd" d="M6.5 8.8c1.197 0 2.167-1.254 2.167-2.8 0-1.546-.97-2.8-2.167-2.8-1.197 0-2.167 1.254-2.167 2.8 0 1.546.97 2.8 2.167 2.8z" fill="#E01B41"/><mask id="b" maskUnits="userSpaceOnUse" x="4" y="3" width="5" height="6"><path fill-rule="evenodd" clip-rule="evenodd" d="M6.5 8.8c1.197 0 2.167-1.254 2.167-2.8 0-1.546-.97-2.8-2.167-2.8-1.197 0-2.167 1.254-2.167 2.8 0 1.546.97 2.8 2.167 2.8z" fill="#fff"/></mask><g mask="url(#b)"><path fill-rule="evenodd" clip-rule="evenodd" d="M4.333 6.4c.62.75 1.548 1.2 2.167 0 .619-1.2 1.857-1.2 2.167 0 .31 1.2 0 2.4 0 2.4H4.333s-.619-3.15 0-2.4z" fill="#0E4B9C"/></g><path opacity=".75" fill-rule="evenodd" clip-rule="evenodd" d="M2.808 2.265c.075-.168.256-.214.404-.104.147.11.207.336.132.504l-.657 1.47c-.075.168-.256.214-.404.104a.437.437 0 01-.132-.504l.657-1.47zm6.98-.104a.437.437 0 00-.132.504l.657 1.47c.075.168.257.214.404.104a.437.437 0 00.132-.504l-.656-1.47c-.075-.168-.257-.214-.404-.104zm-.804.6a.437.437 0 00-.132.504l.657 1.47c.075.168.256.214.404.104a.437.437 0 00.132-.504l-.657-1.47c-.075-.168-.256-.214-.404-.104zM2.151 8.265a.437.437 0 01.132-.504c.148-.11.329-.064.404.104l.657 1.47a.437.437 0 01-.132.504c-.148.11-.33.064-.404-.104l-.657-1.47zm.936-1.104a.437.437 0 00-.132.504l.657 1.47c.075.168.256.214.404.104a.437.437 0 00.132-.504l-.657-1.47c-.075-.168-.256-.214-.404-.104zm6.422.104c.075-.168.256-.214.404-.104.147.11.207.336.132.504l-.657 1.47c-.075.168-.256.214-.404.104a.437.437 0 01-.132-.504l.657-1.47zm1.208.496c-.147-.11-.329-.064-.404.104l-.657 1.47a.437.437 0 00.133.504c.147.11.329.064.404-.104l.656-1.47a.437.437 0 00-.132-.504zm-6.701-5c-.148-.11-.33-.064-.404.104l-.657 1.47a.437.437 0 00.132.504c.148.11.33.064.404-.104l.657-1.47a.437.437 0 00-.132-.504z" fill="#262626"/></g></svg>