<svg width="13" height="12" fill="none" xmlns="http://www.w3.org/2000/svg"><rect width="13" height="12" rx="2" fill="#fff"/><mask id="a" maskUnits="userSpaceOnUse" x="0" y="0" width="13" height="12"><rect width="13" height="12" rx="2" fill="#fff"/></mask><g mask="url(#a)"><path fill="#FFBF19" d="M0 0h13v12H0z"/><path fill-rule="evenodd" clip-rule="evenodd" d="M4.952.8h6.096c.736 0 1.333.597 1.333 1.333v7.734c0 .736-.597 1.333-1.333 1.333H4.952V.8z" fill="#A52531"/><path d="M.619 2.133C.619 1.397 1.216.8 1.952.8h.524v10.4h-.524A1.333 1.333 0 01.62 9.867V2.133z" fill="#03664F"/><rect x="2.476" y=".8" width="1.857" height="10.4" rx=".667" fill="#FF6816"/><path fill-rule="evenodd" clip-rule="evenodd" d="M6.19 2c0 .22-.138.4-.31.4-.17 0-.309-.18-.309-.4v-.4h.31c.17 0 .31.18.31.4zm4.953 0c0 .22.138.4.31.4.17 0 .309-.18.309-.4v-.4h-.31c-.17 0-.31.18-.31.4zm.31 7.6c-.172 0-.31.18-.31.4 0 .22.138.4.31.4h.309V10c0-.22-.139-.4-.31-.4zM6.19 10c0-.22-.138-.4-.31-.4-.17 0-.309.18-.309.4v.4h.31c.17 0 .31-.18.31-.4zm1.239-2.543a.257.257 0 00-.257-.257.237.237 0 01-.1-.022c-.19-.088-.881-.433-.881-.778 0-.177.06-.353.127-.496.095-.2.14-.43.08-.643C6.291 4.89 6.15 4.31 6.19 4c.059-.46.619-.22.619.243v1.083c0 .17.086.33.23.423l.194.125a.252.252 0 10.274-.423L7.119 5.2v-.4c.182 0 .252-.237.1-.336l-.1-.064V4h.366c.16 0 .31-.074.408-.2a.52.52 0 01.41-.2.53.53 0 01.494.336l.102.264c.05.13.059.272.024.407l-.041.16a.667.667 0 00.645.833h.53a.32.32 0 00.174-.59l-.208-.133a.478.478 0 00-.26-.077.478.478 0 01-.477-.478v-.118c0-.132.044-.26.124-.365l.185-.239v.49c0 .171.139.31.31.31h.162a.67.67 0 01.622.426l.11.285c.023.059.037.12.041.184.015.22.045.772-.007 1.105a2.186 2.186 0 01-.213.628.822.822 0 00-.096.37v1.15a.252.252 0 11-.487-.09l.156-.404a.15.15 0 000-.108l-.01-.025c-.057-.15-.278-.108-.278.052a.144.144 0 01-.01.052l-.228.59a.289.289 0 01-.538-.208l.122-.316a.521.521 0 00.035-.188v-.084a.62.62 0 00-1.238 0v.057a.667.667 0 01-.045.24l-.193.5a.289.289 0 11-.538-.208l.122-.317a.521.521 0 00.035-.188v-.446z" fill="#FFBF18"/></g></svg>