<svg width="13" height="12" fill="none" xmlns="http://www.w3.org/2000/svg"><rect width="13" height="12" rx="2" fill="#fff"/><mask id="a" maskUnits="userSpaceOnUse" x="0" y="0" width="13" height="12"><rect width="13" height="12" rx="2" fill="#fff"/></mask><g mask="url(#a)"><path fill="#E6BE53" d="M0 0h13v12H0z"/><path fill-rule="evenodd" clip-rule="evenodd" d="M.619 10.2a1 1 0 001 1h9.762a1 1 0 001-1V1.8a1 1 0 00-1-1H1.619a1 1 0 00-1 1v8.4z" fill="#E01826"/><path fill-rule="evenodd" clip-rule="evenodd" d="M6.244 2.11A.568.568 0 006.47 3.2h.062a.568.568 0 00.225-1.09l-.024-.01a.588.588 0 00-.464 0l-.024.01zM6.81 4a.391.391 0 01-.62 0l-.412-.533a.367.367 0 00-.58.45L5.261 4l.389.502a.668.668 0 01.094.649l-.16.415a.198.198 0 00-.014.07.198.198 0 01-.305.167l-.083-.054a.252.252 0 01-.063-.366l.013-.017a.272.272 0 000-.332L5 4.864a.55.55 0 01-.078-.139l-.261-.676a.591.591 0 01-.03-.1.59.59 0 00-1.09-.185l-.052.09a.63.63 0 00-.085.315v1.307a.66.66 0 00.045.24l.23.593c.022.06.054.117.094.168l.49.633c.046.06.102.11.165.152l.482.311a.168.168 0 00.091.027c.167 0 .232.218.091.31l-.11.07a.207.207 0 00-.052.048l-.133.172a.196.196 0 01-.31 0 .196.196 0 00-.31 0l-.06.078a.272.272 0 00-.039.265l.098.253a.632.632 0 00.932.303l.35-.227a.41.41 0 00.16-.196l.128-.33a.21.21 0 11.382.173l-.316.614a.667.667 0 00.157.81l.095.082c.25.216.62.216.87 0l.095-.082a.667.667 0 00.157-.81l-.316-.614a.21.21 0 11.382-.172l.128.33a.41.41 0 00.16.195l.35.227a.631.631 0 00.932-.303l.098-.253a.272.272 0 00-.039-.265l-.06-.078a.196.196 0 00-.31 0 .196.196 0 01-.31 0l-.133-.172a.207.207 0 00-.051-.047l-.111-.072c-.14-.09-.076-.309.091-.309.032 0 .064-.01.091-.027l.482-.311a.666.666 0 00.165-.152l.49-.633a.667.667 0 00.095-.168l.23-.593a.667.667 0 00.044-.24V4.169a.63.63 0 00-.085-.316l-.052-.09a.59.59 0 00-1.09.185.59.59 0 01-.03.101l-.261.676a.55.55 0 01-.078.138l-.132.17a.272.272 0 000 .333l.013.017a.252.252 0 01-.063.366l-.083.054a.198.198 0 01-.305-.166.198.198 0 00-.014-.071l-.16-.415a.667.667 0 01.094-.649L7.74 4l.064-.084a.367.367 0 10-.58-.45L6.81 4z" fill="#E6BE53"/><path fill-rule="evenodd" clip-rule="evenodd" d="M5.881 6.8c0 .12.21.153.258.043.106-.24.233-.443.361-.443.128 0 .255.204.361.443.048.11.258.076.258-.043 0-.663-.277-1.2-.619-1.2-.342 0-.619.537-.619 1.2z" fill="#215F90"/></g></svg>