<svg width="13" height="12" fill="none" xmlns="http://www.w3.org/2000/svg"><rect width="13" height="12" rx="2" fill="#fff"/><mask id="a" maskUnits="userSpaceOnUse" x="0" y="0" width="13" height="12"><rect width="13" height="12" rx="2" fill="#fff"/></mask><g mask="url(#a)" fill-rule="evenodd" clip-rule="evenodd"><path d="M0 12h13V0H0v12z" fill="#079D7B"/><path d="M7.375 5.2a4.6 4.6 0 01-.028.507c.047-.019.096-.037.145-.054.825-.286 1.562-.192 1.646.21.075.364-.41.855-1.112 1.157-.125-.476-.76-.62-1.526-.62s-1.403.144-1.526.621c-.694-.302-1.17-.788-1.095-1.148.084-.402.82-.497 1.646-.21.044.014.086.03.128.046a4.474 4.474 0 01-.028-.509c0-1.105.392-2 .875-2s.875.895.875 2zM5.232 7.122c.089.03.176.056.262.078h-1.47c.073.285.172.553.293.8h4.366c.121-.247.22-.515.293-.8h-1.49a3.28 3.28 0 00.27-.078c-.097.004-.216.015-.351.027A9.871 9.871 0 016.5 7.2c-.338 0-.65-.028-.905-.05a7.735 7.735 0 00-.363-.028zM6.5 9.6c.625 0 1.2-.3 1.65-.8h-3.3c.45.5 1.025.8 1.65.8z" fill="#fff"/><path d="M6.5 2.4c.171 0 .31-.18.31-.4 0-.22-.139-.4-.31-.4-.17 0-.31.18-.31.4 0 .22.14.4.31.4zm-2.476 2c.17 0 .31-.18.31-.4 0-.22-.14-.4-.31-.4-.171 0-.31.18-.31.4 0 .22.139.4.31.4zM9.286 4c0 .22-.139.4-.31.4-.17 0-.31-.18-.31-.4 0-.22.14-.4.31-.4.171 0 .31.18.31.4zm-1.238-.8c.17 0 .31-.18.31-.4 0-.22-.14-.4-.31-.4-.171 0-.31.18-.31.4 0 .22.139.4.31.4zm-2.786-.4c0 .22-.139.4-.31.4-.17 0-.31-.18-.31-.4 0-.22.14-.4.31-.4.171 0 .31.18.31.4z" fill="#FCD117"/></g></svg>