<svg width="13" height="12" fill="none" xmlns="http://www.w3.org/2000/svg"><rect x=".25" y=".25" width="12.5" height="11.5" rx="1.75" fill="#fff" stroke="#F5F5F5" stroke-width=".5"/><mask id="a" maskUnits="userSpaceOnUse" x="0" y="0" width="13" height="12"><rect x=".25" y=".25" width="12.5" height="11.5" rx="1.75" fill="#fff" stroke="#fff" stroke-width=".5"/></mask><g mask="url(#a)"><path fill-rule="evenodd" clip-rule="evenodd" d="M0 3.2h13V0H0v3.2zM0 12h13V8.8H0V12z" fill="#D82332"/><path fill-rule="evenodd" clip-rule="evenodd" d="M6.067 6.452l-.132.159a.284.284 0 00.35-.16h-.218m-1.066.109c.09.116.238.102.327.029.09-.073.155-.078.211-.07.006.065.02.149.042.231h-.53A2.821 2.821 0 015 6.56m.1.309c.104-.064.21-.013.256.032.085.085.226.062.294.014a.61.61 0 00.097.152H5.18a1.808 1.808 0 01-.08-.198m2.467.526a1.33 1.33 0 00.08-.125c-.036-.006-.079-.04-.124-.07-.083-.053-.163-.053-.234.01-.106.094-.238.118-.34.023-.113-.103-.217-.08-.305-.015a.288.288 0 01-.197.07.288.288 0 01-.196-.07c-.088-.066-.192-.088-.305.015-.102.095-.234.071-.34-.023-.07-.063-.15-.063-.234-.01-.046.03-.088.064-.125.07.022.038.056.092.08.125h2.24m-.275.322c.024-.02.088-.083.12-.116-.035.01-.115-.024-.156-.052-.12-.08-.2-.073-.289-.011-.09.061-.215.094-.308.029-.092-.066-.158-.083-.206-.083-.049 0-.115.017-.207.083-.092.065-.218.032-.308-.03-.09-.06-.168-.069-.288.012-.042.028-.122.062-.157.052.032.033.097.096.12.116h1.68m-.529-.64a.318.318 0 01-.08-.11.22.22 0 00-.212-.128.22.22 0 00-.21.129.318.318 0 01-.081.109h.583m-.166-.297a.915.915 0 01-.04-.135.311.311 0 01-.095.014.311.311 0 01-.095-.014.913.913 0 01-.04.135h.27m.244-.328l.132.159a.284.284 0 01-.351-.16h.219m1.098.109c-.09.116-.238.102-.328.029-.09-.073-.155-.078-.21-.07-.006.065-.02.149-.042.231h.53a3.24 3.24 0 00.05-.19m-.08.309c-.104-.064-.21-.013-.257.032-.085.085-.225.062-.294.014a.61.61 0 01-.097.152h.568c.023-.049.073-.167.08-.198m-.822.974a1.212 1.212 0 01-.576.148c-.204 0-.398-.053-.576-.148a.328.328 0 00.13-.06c.065-.048.185-.058.242-.01.058.049.126.097.204.097.078 0 .147-.048.204-.096.057-.049.177-.039.243.01a.33.33 0 00.129.059" fill="#064A89"/><path fill-rule="evenodd" clip-rule="evenodd" d="M6.79 4.036c-.32-.086-.61-.036-.61.36v1.085c0 .12.002.135.11.168l.512.156V4.689c-.2-.03-.275-.176-.275-.347 0-.165.087-.273.263-.306m-.822 3.061c-.179 0-.367-.204-.367-.593v-.966c0-.087.008-.1-.008-.12-.009-.012.01-.03.024-.047.02-.026.033-.048.006-.083-.026-.035-.015-.044.002-.066.017-.022.023-.044.007-.066-.016-.02-.02-.028-.002-.05.018-.024.01-.033-.004-.053-.015-.019-.022-.033-.003-.057.018-.024.02-.028.04-.028h.089c.02 0 .02.008.003.03-.022.03-.029.041-.003.075.025.033.024.044.008.065-.024.032-.035.053-.01.086.024.032.026.046.008.07-.02.025-.021.047 0 .074.015.02.016.033.016.07v.986c0 .165.091.265.264.265.173 0 .232-.092.282-.154-.033.296-.126.562-.352.562m.504-.944c.025.01.048.056.048.106h.048a.32.32 0 00-.04-.148c0-.011 0-.02-.003-.03a.242.242 0 00.043-.119c0-.028-.026-.027-.029-.004-.002.018-.012.046-.03.055 0-.035-.015-.078-.037-.078-.021 0-.037.043-.037.078-.017-.01-.027-.037-.03-.055-.002-.023-.027-.024-.028.004 0 .045.025.09.043.12a.178.178 0 00-.004.029.32.32 0 00-.039.148h.048c0-.05.023-.096.047-.106" fill="#514537"/><path fill-rule="evenodd" clip-rule="evenodd" d="M6.227 6.153c.024.01.048.056.048.106h.047a.319.319 0 00-.04-.148c0-.011 0-.02-.002-.03a.242.242 0 00.042-.119c0-.028-.026-.027-.028-.004-.003.018-.012.046-.03.055 0-.035-.015-.078-.037-.078s-.037.043-.037.078c-.018-.01-.027-.037-.03-.055-.003-.023-.028-.024-.028.004-.001.045.025.09.042.12a.179.179 0 00-.003.029.32.32 0 00-.04.148h.048c0-.05.024-.096.048-.106m-.246 0c.024.01.048.056.048.106h.047a.32.32 0 00-.039-.148.145.145 0 00-.003-.03.242.242 0 00.042-.119c0-.028-.025-.027-.028-.004-.003.018-.012.046-.03.055 0-.035-.015-.078-.037-.078s-.037.043-.037.078c-.018-.01-.027-.037-.03-.055-.002-.023-.028-.024-.028.004 0 .045.025.09.042.12a.172.172 0 00-.003.029.319.319 0 00-.04.148h.048c0-.05.024-.096.048-.106m.737 0c-.024.01-.048.056-.048.106h-.047c0-.043.014-.108.039-.148 0-.011.002-.02.003-.03a.242.242 0 01-.042-.119c0-.028.025-.027.028-.004.003.018.012.046.03.055 0-.035.015-.078.037-.078s.037.043.037.078c.018-.01.027-.037.03-.055.003-.023.028-.024.028.004.001.045-.025.09-.042.12a.13.13 0 01.003.029c.025.04.04.105.04.148h-.048c0-.05-.024-.096-.048-.106m.246 0c-.024.01-.048.056-.048.106H6.87a.32.32 0 01.039-.148c0-.011.001-.02.003-.03a.242.242 0 01-.042-.119c0-.028.025-.027.028-.004.003.018.012.046.03.055 0-.035.015-.078.037-.078S7 5.978 7 6.013c.018-.01.027-.037.03-.055.002-.023.028-.024.028.004a.26.26 0 01-.042.12l.003.029c.025.04.04.105.04.148H7.01c0-.05-.023-.096-.047-.106m-1.126.17h1.29v.08h-1.29v-.08z" fill="#514537"/><path fill-rule="evenodd" clip-rule="evenodd" d="M6.975 7.097c.178 0 .366-.204.366-.593v-.966c0-.087-.008-.1.008-.12.01-.012-.01-.03-.023-.047-.02-.026-.034-.048-.007-.083.027-.035.015-.044-.002-.066-.016-.022-.023-.044-.007-.066.016-.02.02-.028.002-.05-.017-.024-.01-.033.005-.053.014-.019.021-.033.003-.057-.019-.024-.02-.028-.041-.028H7.19c-.02 0-.021.008-.004.03.022.03.029.041.004.075-.026.033-.025.044-.008.065.024.032.034.053.01.086-.025.032-.027.046-.008.07.018.025.02.047 0 .074-.016.02-.017.033-.017.07v.986c0 .165-.09.265-.264.265-.173 0-.231-.092-.281-.154.032.296.126.562.352.562" fill="#514537"/><path fill-rule="evenodd" clip-rule="evenodd" d="M5.837 5.805v-.128l.258.128h-.258m-.307.059l-.578-.102c.017-.163.049-.321.094-.472l.483.252v.322m1.192-1.246l.103-.553c.12.038.236.095.347.171l-.33.831V4.65c-.038 0-.096-.007-.12-.032m-1.178 1.3l-.588-.047c-.007.162 0 .325.023.486 0 0 .565.005.565 0v-.44m-.006-.52c-.02-.032-.007-.05.013-.067s.018-.03.008-.056c-.01-.025-.021-.052-.002-.079.02-.027.012-.038-.003-.058-.015-.019-.016-.04-.003-.055.013-.016.01-.027.002-.043-.01-.015-.026-.046-.011-.066l-.24-.263a2.16 2.16 0 00-.201.409l.437.278m.574.143l-.285-.363c.04-.053.044-.062.015-.1-.03-.04-.032-.044.031-.128.022-.028.01-.048-.02-.048h-.19c-.015 0-.028.001-.04.017l-.227-.29a1.68 1.68 0 01.288-.305l.428.903v.315m-.297.055v-.193c0-.027-.001-.037-.017-.058-.017-.021-.008-.032.004-.055l.271.297v.174l-.258-.165m.254-.528V4.64c0-.277.012-.416.043-.443l-.025-.133c-.12.042-.237.1-.347.175l.33.828m1.057.738v-.128l-.257.128h.257m.283.059l.577-.102a2.523 2.523 0 00-.094-.472l-.483.252v.322m0 .054l.587-.047c.008.162 0 .325-.022.486 0 0-.565.005-.565 0v-.44m-.019-.52c.02-.032.008-.05-.013-.067-.02-.017-.017-.03-.007-.056.01-.025.02-.052.001-.079-.019-.027-.011-.038.003-.058.015-.019.016-.04.003-.055-.013-.016-.01-.027-.001-.043.009-.015.026-.046.01-.066l.24-.263c.08.124.147.261.202.409l-.438.278m-.521.143l.285-.363c-.04-.053-.044-.062-.016-.1.032-.04.033-.044-.03-.128-.022-.028-.01-.048.02-.048h.189c.016 0 .029.001.04.017l.228-.29a1.694 1.694 0 00-.289-.305l-.427.903v.315m.257.055v-.193c0-.027.002-.037.018-.058.016-.021.008-.032-.004-.055l-.271.297v.174l.257-.165" fill="#EEA339"/><path fill-rule="evenodd" clip-rule="evenodd" d="M5.64 5.42c.01.013.015.026.015.059v1.03c0 .342.158.533.32.533.15 0 .249-.18.3-.387-.066.067-.163.088-.255.088a.294.294 0 01-.28-.298v-.999c0-.027-.02-.027-.1-.027m.935-1.349c-.205-.027-.394.03-.394.395v.973c0 .162-.01.143.095.177.19.062.212.07.442.139v-.99c-.197-.028-.282-.197-.282-.385 0-.15.05-.29.139-.309m.732 1.35c-.01.013-.015.026-.015.059v1.03c0 .342-.158.533-.321.533-.15 0-.248-.18-.299-.387.066.067.163.088.255.088.107 0 .28-.094.28-.298v-.999c0-.027.02-.027.1-.027" fill="#D82332"/><mask id="b" maskUnits="userSpaceOnUse" x="4" y="4" width="5" height="4"><path fill-rule="evenodd" clip-rule="evenodd" d="M6.5 8c.855 0 1.548-.895 1.548-2S7.355 4 6.5 4c-.855 0-1.548.895-1.548 2S5.645 8 6.5 8z" fill="#fff"/></mask><g mask="url(#b)"><path fill-rule="evenodd" clip-rule="evenodd" d="M6.5 11.2c.855 0 1.548-.895 1.548-2s-.693-2-1.548-2c-.855 0-1.548.895-1.548 2s.693 2 1.548 2z" fill="#064A89"/></g></g></svg>