<svg width="13" height="12" fill="none" xmlns="http://www.w3.org/2000/svg"><rect width="13" height="12" rx="2" fill="#fff"/><mask id="a" maskUnits="userSpaceOnUse" x="0" y="0" width="13" height="12"><rect width="13" height="12" rx="2" fill="#fff"/></mask><g mask="url(#a)"><path fill="#262626" d="M0 0h13v12H0z"/><path fill-rule="evenodd" clip-rule="evenodd" d="M0 0h13v12L0 0z" fill="#E8283F"/><path fill-rule="evenodd" clip-rule="evenodd" d="M3.095 10l-.437.166.128-.566-.128-.566.437.166.438-.166-.128.566.128.566L3.095 10zm0-4.8l-.437.166.128-.566-.128-.566.437.166.438-.166-.128.566.128.566-.438-.166zm-1.547 2l-.438.166.128-.566-.128-.566.438.166.437-.166-.128.566.128.566-.437-.166zm2.785-.4l-.437.166.128-.566-.128-.566.437.166.438-.166-.128.566.128.566-.438-.166z" fill="#fff"/><path fill-rule="evenodd" clip-rule="evenodd" d="M8.757 5.56a.426.426 0 01-.134-.302v-.737c0-.109-.06-.171-.153-.131l-.352.151a.422.422 0 01-.304 0l-.352-.151c-.084-.037-.094-.112-.018-.17l.826-.64c.074-.058.114-.183.083-.301l-.117-.455c-.028-.109.01-.171.101-.132l.352.152c.084.036.188-.01.233-.108l.496-1.067c.044-.096.1-.095.131.023l.117.455a.892.892 0 010 .394l-.117.455c-.028.108.018.197.102.197h.57c.084 0 .188.076.233.173l.496 1.067c.044.096.009.192-.072.213l-.79.204c-.084.022-.166.132-.182.236l-.158 1.021c-.017.109-.09.151-.165.093l-.826-.64z" fill="#FFD84E"/></g></svg>