<svg width="13" height="12" fill="none" xmlns="http://www.w3.org/2000/svg"><rect x=".25" y=".25" width="12.5" height="11.5" rx="1.75" fill="#fff" stroke="#F5F5F5" stroke-width=".5"/><mask id="a" maskUnits="userSpaceOnUse" x="0" y="0" width="13" height="12"><rect x=".25" y=".25" width="12.5" height="11.5" rx="1.75" fill="#fff" stroke="#fff" stroke-width=".5"/></mask><g mask="url(#a)"><path fill-rule="evenodd" clip-rule="evenodd" d="M0 4h13V0H0v4z" fill="#E33F39"/><path fill-rule="evenodd" clip-rule="evenodd" d="M0 12h13V8H0v4z" fill="#124BBA"/><path d="M6.5 7.533c.771 0 1.262-.77 1.262-1.533 0-.762-.49-1.533-1.262-1.533-.771 0-1.262.77-1.262 1.533 0 .762.49 1.533 1.262 1.533z" stroke="#398153" stroke-width=".667"/><path fill-rule="evenodd" clip-rule="evenodd" d="M6.5 6.4c.17 0 .31-.18.31-.4 0-.22-.14-.4-.31-.4-.171 0-.31.18-.31.4 0 .22.139.4.31.4z" fill="#E5CF58"/></g></svg>