<svg width="13" height="12" fill="none" xmlns="http://www.w3.org/2000/svg"><rect width="13" height="12" rx="2" fill="#fff"/><mask id="a" maskUnits="userSpaceOnUse" x="0" y="0" width="13" height="12"><rect width="13" height="12" rx="2" fill="#fff"/></mask><g mask="url(#a)"><g filter="url(#filter0_d)"><path fill-rule="evenodd" clip-rule="evenodd" d="M0 12h13V8.8H0V12z" fill="#2D754D"/></g><path fill-rule="evenodd" clip-rule="evenodd" d="M0 5.6h13V0H0v5.6z" fill="#25B1EB"/><path fill-rule="evenodd" clip-rule="evenodd" d="M0 8.8h13V5.6H0v3.2zm9.905-5.2l-.474.678.036-.912-.706.046.525-.612-.525-.612.706.046-.036-.912.474.678.474-.678-.036.912.706-.046-.525.612.525.612-.706-.046.036.912-.474-.678z" fill="#FECB2F"/></g><defs><filter id="filter0_d" x="0" y="8.8" width="13" height="3.2" filterUnits="userSpaceOnUse" color-interpolation-filters="sRGB"><feFlood flood-opacity="0" result="BackgroundImageFix"/><feColorMatrix in="SourceAlpha" values="0 0 0 0 0 0 0 0 0 0 0 0 0 0 0 0 0 0 127 0"/><feOffset/><feColorMatrix values="0 0 0 0 0 0 0 0 0 0 0 0 0 0 0 0 0 0 0.06 0"/><feBlend in2="BackgroundImageFix" result="effect1_dropShadow"/><feBlend in="SourceGraphic" in2="effect1_dropShadow" result="shape"/></filter></defs></svg>