<svg width="13" height="12" fill="none" xmlns="http://www.w3.org/2000/svg"><rect width="13" height="12" rx="2" fill="#fff"/><mask id="a" maskUnits="userSpaceOnUse" x="0" y="0" width="13" height="12"><rect width="13" height="12" rx="2" fill="#fff"/></mask><g mask="url(#a)"><path fill-rule="evenodd" clip-rule="evenodd" d="M0 2.4h13V0H0v2.4zM0 12h13V9.6H0V12z" fill="#486BCA"/><path fill-rule="evenodd" clip-rule="evenodd" d="M0 9.6h13V2.4H0v7.2z" fill="#FFDF20"/><path fill-rule="evenodd" clip-rule="evenodd" d="M0 8.8h13V3.2H0v5.6z" fill="#CF1615"/><path fill-rule="evenodd" clip-rule="evenodd" d="M6.5 8c1.539 0 2.786-2 2.786-2S8.039 4 6.5 4C4.962 4 3.714 6 3.714 6S4.962 8 6.5 8z" fill="#fff"/><mask id="b" maskUnits="userSpaceOnUse" x="3" y="4" width="7" height="4"><path fill-rule="evenodd" clip-rule="evenodd" d="M6.5 8c1.539 0 2.786-2 2.786-2S8.039 4 6.5 4C4.962 4 3.714 6 3.714 6S4.962 8 6.5 8z" fill="#fff"/></mask><g mask="url(#b)" fill-rule="evenodd" clip-rule="evenodd"><path d="M6.81 4H3.714v4H6.19l.62-4z" fill="#262626"/><path d="M7.119 6.4c.171 0 .31-.18.31-.4 0-.22-.139-.4-.31-.4-.17 0-.31.18-.31.4 0 .22.14.4.31.4z" fill="#1A1A1A"/><path d="M5.88 6.4c.172 0 .31-.18.31-.4 0-.22-.138-.4-.31-.4-.17 0-.309.18-.309.4 0 .22.139.4.31.4z" fill="#F6F6F6"/></g></g></svg>