<svg width="13" height="12" fill="none" xmlns="http://www.w3.org/2000/svg"><rect width="13" height="12" rx="2" fill="#fff"/><mask id="a" maskUnits="userSpaceOnUse" x="0" y="0" width="13" height="12"><rect width="13" height="12" rx="2" fill="#fff"/></mask><g mask="url(#a)"><path fill="#FFD44D" d="M0 0h13v12H0z"/><path fill-rule="evenodd" clip-rule="evenodd" d="M5.571 0H13v2.4H5.571V0zm0 4.8H13v2.4H5.571V4.8zM13 9.6H0V12h13V9.6z" fill="#159A74"/><path fill="#ED1F45" d="M0 0h5.571v7.2H0z"/><path fill-rule="evenodd" clip-rule="evenodd" d="M2.786 4.536L1.694 5.542l.403-1.653-1.078-1.03 1.341-.016.426-1.643.425 1.643 1.341.015L3.475 3.89l.402 1.653-1.091-1.006z" fill="#fff"/></g></svg>