<svg width="13" height="12" fill="none" xmlns="http://www.w3.org/2000/svg"><rect width="13" height="12" rx="2" fill="#fff"/><mask id="a" maskUnits="userSpaceOnUse" x="0" y="0" width="13" height="12"><rect width="13" height="12" rx="2" fill="#fff"/></mask><g mask="url(#a)"><path fill="#E31F37" d="M0 0h13v12H0z"/><path fill-rule="evenodd" clip-rule="evenodd" d="M-.619 6.4H6.81V-.8H-.62v7.2z" fill="#083B9A"/><path fill-rule="evenodd" clip-rule="evenodd" d="M3.095 1.6l-.437.166.128-.566-.128-.566.437.166.438-.166-.128.566.128.566-.438-.166zm0 4l-.437.166.128-.566-.128-.566.437.166.438-.166-.128.566.128.566-.438-.166zM1.42 3.766l.438-.166.438.166-.128-.566.128-.566-.438.166-.438-.166.129.566-.129.566zM4.643 3.2l-.438.166.128-.566-.128-.566.438.166.438-.166-.129.566.129.566-.438-.166zm-.62 1c0 .11-.068.2-.154.2-.085 0-.155-.09-.155-.2 0-.11.07-.2.155-.2.086 0 .155.09.155.2z" fill="#fff"/></g></svg>