<svg width="13" height="12" fill="none" xmlns="http://www.w3.org/2000/svg"><rect width="13" height="12" rx="2" fill="#fff"/><mask id="a" maskUnits="userSpaceOnUse" x="0" y="0" width="13" height="12"><rect width="13" height="12" rx="2" fill="#fff"/></mask><g mask="url(#a)"><path fill="#19BFBF" d="M0 0h13v12H0z"/><path fill-rule="evenodd" clip-rule="evenodd" d="M6.5 10.4c1.88 0 3.405-1.97 3.405-4.4 0-2.43-1.525-4.4-3.405-4.4S3.095 3.57 3.095 6c0 2.43 1.525 4.4 3.405 4.4zm2.769-4c-.115 1.343-.802 2.464-1.74 2.946.302-.794.479-1.83.513-2.946h1.227zM6.5 9.6c.06 0 .12-.002.179-.007.425-.65.698-1.844.743-3.193H5.578c.045 1.35.318 2.542.743 3.193.06.005.119.007.179.007zm-1.03-.254C4.534 8.864 3.847 7.744 3.732 6.4h1.227c.034 1.117.21 2.152.513 2.946zM5.579 5.6h1.844c-.045-1.35-.318-2.542-.743-3.193a2.191 2.191 0 00-.358 0c-.425.65-.698 1.844-.743 3.193zm-.107-2.946c-.302.794-.479 1.83-.513 2.946H3.731c.115-1.344.802-2.464 1.74-2.946zM9.269 5.6H8.042c-.034-1.117-.21-2.152-.513-2.946.938.482 1.625 1.603 1.74 2.946z" fill="#fff"/></g></svg>