<svg width="60" height="60" fill="none" xmlns="http://www.w3.org/2000/svg"><path d="M12.188 27.656H6.563c-.775 0-1.406.631-1.406 1.406v3.75c0 .775.631 1.406 1.406 1.406h5.625c.775 0 1.406-.63 1.406-1.406v-3.75c0-.775-.63-1.406-1.406-1.406zm-3.282 5.625H6.563a.47.47 0 01-.469-.469v-3.75a.47.47 0 01.47-.469h2.343v4.688zm3.75-.468a.47.47 0 01-.469.47H9.843v-4.689h2.344a.47.47 0 01.47.47v3.75zm-.468 4.687H6.563c-.775 0-1.406.631-1.406 1.406v3.75c0 .775.631 1.406 1.406 1.406h5.625c.775 0 1.406-.631 1.406-1.406v-3.75c0-.775-.63-1.406-1.406-1.406zm-3.282 5.625H6.563a.47.47 0 01-.469-.469v-3.75a.47.47 0 01.47-.469h2.343v4.688zm3.75-.469a.47.47 0 01-.469.469H9.843v-4.688h2.344a.47.47 0 01.47.469v3.75zm-.468 4.219H6.563c-.775 0-1.406.631-1.406 1.406v3.75c0 .775.631 1.406 1.406 1.406h5.625c.775 0 1.406-.631 1.406-1.406v-3.75c0-.775-.63-1.406-1.406-1.406zM8.906 52.5H6.563a.47.47 0 01-.469-.469v-3.75a.47.47 0 01.47-.469h2.343V52.5zm3.75-.469a.47.47 0 01-.469.469H9.843v-4.688h2.344a.47.47 0 01.47.469v3.75zm33.75-22.968v3.75c0 .775.631 1.406 1.406 1.406h5.625c.775 0 1.406-.63 1.406-1.406v-3.75c0-.775-.63-1.406-1.406-1.406h-5.625a1.407 1.407 0 00-1.406 1.406zm4.688-.469h2.344a.47.47 0 01.47.47v3.75a.47.47 0 01-.47.468h-2.344v-4.688zm-.938 4.687h-2.344a.47.47 0 01-.469-.469v-3.75a.47.47 0 01.47-.469h2.343v4.688zm3.282 4.219h-5.625c-.775 0-1.406.631-1.406 1.406v3.75c0 .775.631 1.406 1.406 1.406h5.625c.775 0 1.406-.631 1.406-1.406v-3.75c0-.775-.63-1.406-1.406-1.406zm-3.282 5.625h-2.344a.47.47 0 01-.469-.469v-3.75a.47.47 0 01.47-.469h2.343v4.688zm3.75-.469a.47.47 0 01-.469.469h-2.344v-4.688h2.344a.47.47 0 01.47.469v3.75zm-.468 4.219h-5.625c-.775 0-1.406.631-1.406 1.406v3.75c0 .775.631 1.406 1.406 1.406h5.625c.775 0 1.406-.631 1.406-1.406v-3.75c0-.775-.63-1.406-1.406-1.406zM50.156 52.5h-2.344a.47.47 0 01-.469-.469v-3.75a.47.47 0 01.47-.469h2.343V52.5zm3.75-.469a.47.47 0 01-.469.469h-2.344v-4.688h2.344a.47.47 0 01.47.469v3.75zM20.499 34.348c-.527-.178-.76-.28-.76-.512 0-.188.194-.35.597-.35.399 0 .691.102.854.172l.207-.663a2.778 2.778 0 00-1.044-.183c-.967 0-1.549.475-1.549 1.094 0 .527.443.862 1.124 1.072.491.155.686.286.686.512 0 .237-.225.393-.65.393-.394 0-.776-.112-1.025-.226l-.188.679c.23.113.692.221 1.16.221 1.123 0 1.651-.517 1.651-1.126 0-.512-.34-.846-1.063-1.083zm3.777-.856c.327 0 .59.063.776.134l.188-.651c-.163-.077-.527-.163-1.007-.163-1.239 0-2.236.69-2.236 1.93 0 1.035.73 1.815 2.145 1.815.498 0 .881-.08 1.051-.157l-.14-.64c-.25.078-.51.118-.772.119-.825 0-1.31-.46-1.31-1.186 0-.808.571-1.201 1.305-1.201zm3.978.776h-1.525v-1.396H25.8v3.631h.928v-1.52h1.525v1.52h.923v-3.63h-.923v1.395zm3.534-1.455c-1.208 0-1.991.813-1.991 1.9 0 1.035.71 1.85 1.924 1.85 1.197 0 2.01-.724 2.01-1.913-.001-1.003-.686-1.837-1.943-1.837zm-.017 3.097c-.62 0-.996-.502-.996-1.212 0-.706.364-1.234.989-1.234.638 0 .99.56.99 1.212 0 .706-.36 1.234-.983 1.234zm4.373-3.097c-1.209 0-1.992.813-1.992 1.9 0 1.035.71 1.85 1.924 1.85 1.198 0 2.011-.724 2.011-1.913 0-1.003-.688-1.837-1.943-1.837zm-.019 3.097c-.62 0-.996-.502-.996-1.212 0-.706.364-1.234.99-1.234.638 0 .99.56.99 1.212 0 .706-.359 1.234-.984 1.234zm3.497-3.038h-.929v3.631h2.557v-.69h-1.628v-2.94zm-3.059-8.497a6.564 6.564 0 10-13.127 0 6.564 6.564 0 0013.127 0zm-11.25 0a4.687 4.687 0 016.485-4.33 4.689 4.689 0 11-6.484 4.33z" fill="#0357ED"/><path d="M30.938 25.313v-3.75a.94.94 0 00-.938-.938.94.94 0 00-.939.938v2.813h-.938a.94.94 0 00-.938.938.94.94 0 00.939.938H30a.943.943 0 00.938-.939z" fill="#0357ED"/><path d="M59.063 56.25h-.938v-30h.634c1.055 0 1.53-.755 1.059-1.677l-3.077-6.021c-.472-.922-1.721-1.677-2.775-1.677H38.107l-7.17-5.804v-2.29c3.75 2.992 7.5-6.446 11.25-3.453-3.75-5.294-7.5 1.841-11.25-3.453V.938A.94.94 0 0030 0a.94.94 0 00-.938.938v10.134l-7.17 5.804H6.035c-1.055 0-2.304.755-2.775 1.677L.183 24.574c-.472.922.004 1.677 1.059 1.677h.634v30H.938a.94.94 0 00-.938.937v1.875A.94.94 0 00.938 60h58.125a.94.94 0 00.937-.937v-1.875a.94.94 0 00-.937-.938zM15 56.25H3.75v-30h8.937c.018.163.05.318.1.459.245.685.957 1.416 2.214 1.416L15 56.25zm25 2.594H20v-1.5h20v1.5zM24.375 56.25V45h5.156v11.25h-5.156zm6.094 0V45h5.156v11.25h-5.156zm12.656 0H37.5V45h1.875v-1.881s-6.443-3.893-8.487-5.348a1.586 1.586 0 00-1.775 0c-2.044 1.455-8.487 5.348-8.487 5.348V45H22.5v11.25h-5.625v-30H15c-.516 0-.611-.269-.214-.596l14.49-11.934c.199-.163.462-.245.724-.245.262 0 .524.082.724.245l14.49 11.934c.397.327.302.596-.214.596h-1.875v30zm13.125 0H45V28.125c1.257 0 1.969-.731 2.214-1.416.05-.141.082-.296.1-.459h8.937l-.001 30z" fill="#0357ED"/><path d="M12.188 27.656H6.563c-.775 0-1.406.631-1.406 1.406v3.75c0 .775.631 1.406 1.406 1.406h5.625c.775 0 1.406-.63 1.406-1.406v-3.75c0-.775-.63-1.406-1.406-1.406zm-3.282 5.625H6.563a.47.47 0 01-.469-.469v-3.75a.47.47 0 01.47-.469h2.343v4.688zm3.75-.468a.47.47 0 01-.469.47H9.843v-4.689h2.344a.47.47 0 01.47.47v3.75zm-.468 4.687H6.563c-.775 0-1.406.631-1.406 1.406v3.75c0 .775.631 1.406 1.406 1.406h5.625c.775 0 1.406-.631 1.406-1.406v-3.75c0-.775-.63-1.406-1.406-1.406zm-3.282 5.625H6.563a.47.47 0 01-.469-.469v-3.75a.47.47 0 01.47-.469h2.343v4.688zm3.75-.469a.47.47 0 01-.469.469H9.843v-4.688h2.344a.47.47 0 01.47.469v3.75zm-.468 4.219H6.563c-.775 0-1.406.631-1.406 1.406v3.75c0 .775.631 1.406 1.406 1.406h5.625c.775 0 1.406-.631 1.406-1.406v-3.75c0-.775-.63-1.406-1.406-1.406zM8.906 52.5H6.563a.47.47 0 01-.469-.469v-3.75a.47.47 0 01.47-.469h2.343V52.5zm3.75-.469a.47.47 0 01-.469.469H9.843v-4.688h2.344a.47.47 0 01.47.469v3.75zm33.75-22.968v3.75c0 .775.631 1.406 1.406 1.406h5.625c.775 0 1.406-.63 1.406-1.406v-3.75c0-.775-.63-1.406-1.406-1.406h-5.625a1.407 1.407 0 00-1.406 1.406zm4.688-.469h2.344a.47.47 0 01.47.47v3.75a.47.47 0 01-.47.468h-2.344v-4.688zm-.938 4.687h-2.344a.47.47 0 01-.469-.469v-3.75a.47.47 0 01.47-.469h2.343v4.688zm3.282 4.219h-5.625c-.775 0-1.406.631-1.406 1.406v3.75c0 .775.631 1.406 1.406 1.406h5.625c.775 0 1.406-.631 1.406-1.406v-3.75c0-.775-.63-1.406-1.406-1.406zm-3.282 5.625h-2.344a.47.47 0 01-.469-.469v-3.75a.47.47 0 01.47-.469h2.343v4.688zm3.75-.469a.47.47 0 01-.469.469h-2.344v-4.688h2.344a.47.47 0 01.47.469v3.75zm-.468 4.219h-5.625c-.775 0-1.406.631-1.406 1.406v3.75c0 .775.631 1.406 1.406 1.406h5.625c.775 0 1.406-.631 1.406-1.406v-3.75c0-.775-.63-1.406-1.406-1.406zM50.156 52.5h-2.344a.47.47 0 01-.469-.469v-3.75a.47.47 0 01.47-.469h2.343V52.5zm3.75-.469a.47.47 0 01-.469.469h-2.344v-4.688h2.344a.47.47 0 01.47.469v3.75zM20.499 34.348c-.527-.178-.76-.28-.76-.512 0-.188.194-.35.597-.35.399 0 .691.102.854.172l.207-.663a2.778 2.778 0 00-1.044-.183c-.967 0-1.549.475-1.549 1.094 0 .527.443.862 1.124 1.072.491.155.686.286.686.512 0 .237-.225.393-.65.393-.394 0-.776-.112-1.025-.226l-.188.679c.23.113.692.221 1.16.221 1.123 0 1.651-.517 1.651-1.126 0-.512-.34-.846-1.063-1.083zm3.777-.856c.327 0 .59.063.776.134l.188-.651c-.163-.077-.527-.163-1.007-.163-1.239 0-2.236.69-2.236 1.93 0 1.035.73 1.815 2.145 1.815.498 0 .881-.08 1.051-.157l-.14-.64c-.25.078-.51.118-.772.119-.825 0-1.31-.46-1.31-1.186 0-.808.571-1.201 1.305-1.201zm3.978.776h-1.525v-1.396H25.8v3.631h.928v-1.52h1.525v1.52h.923v-3.63h-.923v1.395zm3.534-1.455c-1.208 0-1.991.813-1.991 1.9 0 1.035.71 1.85 1.924 1.85 1.197 0 2.01-.724 2.01-1.913-.001-1.003-.686-1.837-1.943-1.837zm-.017 3.097c-.62 0-.996-.502-.996-1.212 0-.706.364-1.234.989-1.234.638 0 .99.56.99 1.212 0 .706-.36 1.234-.983 1.234zm4.373-3.097c-1.209 0-1.992.813-1.992 1.9 0 1.035.71 1.85 1.924 1.85 1.198 0 2.011-.724 2.011-1.913 0-1.003-.688-1.837-1.943-1.837zm-.019 3.097c-.62 0-.996-.502-.996-1.212 0-.706.364-1.234.99-1.234.638 0 .99.56.99 1.212 0 .706-.359 1.234-.984 1.234zm3.497-3.038h-.929v3.631h2.557v-.69h-1.628v-2.94zm-3.059-8.497a6.564 6.564 0 10-13.127 0 6.564 6.564 0 0013.127 0zm-11.25 0a4.687 4.687 0 016.485-4.33 4.689 4.689 0 11-6.484 4.33z" fill="#0357ED"/><path d="M30.938 25.313v-3.75a.94.94 0 00-.938-.938.94.94 0 00-.939.938v2.813h-.938a.94.94 0 00-.938.938.94.94 0 00.939.938H30a.943.943 0 00.938-.939z" fill="#0357ED"/><path d="M59.063 56.25h-.938v-30h.634c1.055 0 1.53-.755 1.059-1.677l-3.077-6.021c-.472-.922-1.721-1.677-2.775-1.677H38.107l-7.17-5.804v-2.29c3.75 2.992 7.5-6.446 11.25-3.453-3.75-5.294-7.5 1.841-11.25-3.453V.938A.94.94 0 0030 0a.94.94 0 00-.938.938v10.134l-7.17 5.804H6.035c-1.055 0-2.304.755-2.775 1.677L.183 24.574c-.472.922.004 1.677 1.059 1.677h.634v30H.938a.94.94 0 00-.938.937v1.875A.94.94 0 00.938 60h58.125a.94.94 0 00.937-.937v-1.875a.94.94 0 00-.937-.938zM15 56.25H3.75v-30h8.937c.018.163.05.318.1.459.245.685.957 1.416 2.214 1.416L15 56.25zm25 2.594H20v-1.5h20v1.5zM24.375 56.25V45h5.156v11.25h-5.156zm6.094 0V45h5.156v11.25h-5.156zm12.656 0H37.5V45h1.875v-1.881s-6.443-3.893-8.487-5.348a1.586 1.586 0 00-1.775 0c-2.044 1.455-8.487 5.348-8.487 5.348V45H22.5v11.25h-5.625v-30H15c-.516 0-.611-.269-.214-.596l14.49-11.934c.199-.163.462-.245.724-.245.262 0 .524.082.724.245l14.49 11.934c.397.327.302.596-.214.596h-1.875v30zm13.125 0H45V28.125c1.257 0 1.969-.731 2.214-1.416.05-.141.082-.296.1-.459h8.937l-.001 30z" fill="#0357ED"/></svg>