<svg width="60" height="60" fill="none" xmlns="http://www.w3.org/2000/svg"><path d="M31.768.061c-.611.114-.867.274-.942.59-.03.128-.018.175.069.227.112.061.112.061 0 .127-.106.057-.112.08-.044.189.119.198.088.198-.1 0-.567-.59-1.203-.779-2.145-.628-.343.057-.923.264-.923.335 0 .02-.088.038-.188.038-.236 0-.53.108-.586.222-.075.146.225.66.63 1.076.212.221.393.41.393.424 0 .01-.118-.033-.262-.099-.374-.16-1.004-.302-1.353-.302-.593.005-1.31.213-1.922.566-.293.166-.33.175-.586.142a2.423 2.423 0 00-1.104.137c-.524.203-1.06.566-1.073.731 0 .043.393.01.605-.052.1-.028.1-.023.025.048-.068.066-.08.184-.05.528.019.245.019.448 0 .448-.018 0-.137-.07-.268-.16-.549-.378-1.272-.576-1.896-.529-.643.048-1.66.496-1.66.732 0 .07.063.108.269.15.462.095.736.166 1.896.51 1.665.486 2.37.807 2.707 1.218.119.141.119.165.031.368-.206.453-.043.925.393 1.142.612.311 1.273-.085 1.279-.765.006-.519-.418-.906-.954-.863l-.244.014-.324-.448c-.4-.557-.611-1.071-.686-1.652-.025-.245-.069-.481-.094-.524-.018-.047-.012-.094.025-.113.05-.019.05-.056.007-.118-.075-.108.024-.141.43-.141.505 0 1.478.302 2.002.618.368.226.668.59.942 1.142.206.424.218.481.131.547-.18.137-.324.448-.324.713 0 .764 1.066 1.142 1.553.552.218-.27.287-.614.168-.883a1.22 1.22 0 01-.1-.306c0-.166-.405-.85-.692-1.18-.293-.33-1.39-1.175-1.877-1.444-.225-.118-.231-.127-.094-.156.075-.019.374-.042.668-.056.923-.052 2.09.25 2.488.637.237.226.287.311.543.84.193.4.206.471.143.613-.037.09-.056.297-.043.462.018.232.062.33.193.468.63.623 1.61.198 1.522-.661-.025-.297-.374-.99-.736-1.477-.112-.15-.156-.236-.093-.198.056.038.118.052.143.033.025-.014-.025-.066-.112-.109a3.645 3.645 0 01-.368-.25c-.693-.542-.705-.557-.662-.68.02-.065.081-.122.131-.122.15 0 .075-.222-.268-.774a9.778 9.778 0 01-.324-.528c0-.005.156-.038.343-.066.418-.066.817-.048.792.037-.012.066.006.071.412.151.518.1 1.185.718 1.484 1.369.144.311.169.467.219 1.274.025.505.05.925.056.93a621.651 621.651 0 00.592.297c.106.052.294.094.418.094.686 0 1.104-.868.674-1.392-.15-.18-.48-.354-.674-.354-.112 0-.162-.07-.33-.486a5.118 5.118 0 00-.318-.67c-.07-.104-.188-.302-.269-.434l-.15-.25.157.08c.137.066.168.066.25.01.074-.062.068-.133-.076-.571-.206-.623-.187-.713.194-.793.268-.057.299-.052.68.09.73.268 1.328.872 1.815 1.835l.174.345-.143.188c-.212.293-.237.713-.05.987.362.533 1.135.561 1.478.056.256-.382.219-.816-.093-1.128a1.29 1.29 0 01-.237-.335C35.18 2.104 34.1.83 33.59.491c-.412-.274-.992-.496-1.285-.491-.125 0-.362.028-.537.061zm9.35.171c.025.066.069.236.1.377.031.142.224.854.437 1.581.798 2.78 1.428 5.11 1.472 5.474.018.208.093.51.156.67.068.16.118.35.112.425-.006.07.156.462.368.863.755 1.468 5.994 11.67 7.572 14.746.892 1.737 2.32 4.52 3.175 6.177.849 1.661 1.597 3.058 1.66 3.105.15.113.804.123 1.26.019.187-.043.592-.109.898-.151.935-.123 1.29-.307 1.29-.665 0-.175.038-.25.163-.35.093-.07.168-.188.175-.264a.475.475 0 01.043-.18c.019-.027-.611-1.311-1.41-2.854-.792-1.543-2.22-4.318-3.162-6.158-.948-1.845-2.975-5.795-4.51-8.777a26110.35 26110.35 0 01-3.162-6.158c-.262-.528-.424-.778-.574-.896-.3-.236-3.424-3.889-3.456-4.035-.025-.127-.68-.882-1.004-1.16a6.425 6.425 0 01-.655-.685C41.4.491 41.081.119 41.118.232zm4.529 7.786c-.05.023-.106.033-.119.019-.019-.014.006-.043.056-.066.05-.024.106-.033.119-.02.018.015-.006.043-.056.067zm-1.279.424a.176.176 0 01-.112.048c-.044 0-.038-.02.018-.048.119-.056.144-.056.094 0zm-7.703-6.404c0 .052.306.505.343.505.019 0 .031-.047.031-.109 0-.094-.368-.486-.374-.396zm.33.869c.019.18.1.49.168.698.169.481.874 1.656 1.366 2.28.55.698.674.896 1.366 2.212.587 1.114.817 1.506.824 1.416 0-.019-.35-.708-.774-1.534-.424-.82-1.041-2.029-1.372-2.675a38.087 38.087 0 00-1.44-2.605c-.12-.198-.175-.113-.138.208zM17.004 5.375c-.449.042-.767.217-.942.51-.13.235-.143.15.125 1.037.037.114.031.114-.3-.028-.867-.368-1.684-.439-2.332-.203-.4.142-.73.364-.88.58-.087.123-.112.133-.499.133-.611 0-1.771.288-1.859.457-.074.142.032.17.55.133a8.82 8.82 0 01.635-.029c.156.005 1.572.44 1.953.6.368.155.96.537 1.385.906l.349.297-.15.217c-.293.439-.137.981.35 1.227.598.306 1.272-.109 1.278-.784 0-.363-.156-.599-.53-.773-.162-.076-.33-.199-.368-.27a1.686 1.686 0 00-.206-.268c-.206-.208-1.709-1.232-1.983-1.35-.131-.057-.244-.118-.244-.137 0-.019.119-.056.269-.09.343-.07 1.26.01 1.809.161.673.184 1.578.675 2.083 1.128.18.165.193.193.162.458-.019.15-.019.353.006.448.056.226.437.524.749.59.28.056.536.023.536-.066 0-.034.044-.09.106-.123.337-.212.443-.873.187-1.19-.15-.183-.442-.363-.605-.363-.05 0-.162-.075-.243-.165-.23-.26-.873-.717-1.291-.925-.362-.174-.387-.203-.45-.429-.074-.302-.037-.387.3-.642.3-.226.468-.245.948-.113.649.175 1.048.562 1.697 1.628.18.302.424.628.53.722.112.09.243.25.293.354.069.118.144.184.212.184.063 0 .125.023.137.052.013.028.213.061.443.075.425.02.425.02.662-.16.492-.373.505-1 .037-1.36-.362-.268-.898-.263-1.135.01-.119.137-.162.109-.3-.217-.118-.273-.673-.934-1.085-1.288-.387-.33-1.31-.868-1.597-.93-.268-.056-.268-.056-.792-.004zm20.129 3.01a3995.914 3995.914 0 01-7.641 2.808c-4.416 1.618-5.608 2.043-8.234 2.958-2.264.784-2.944 1.034-2.85 1.038.024 0 .162-.042.299-.099.143-.052.268-.09.28-.075.013.01-.798.316-1.796.684-1.004.363-2.445.892-3.2 1.17l-2.838 1.034c-3.037 1.104-4.179 1.529-4.179 1.552 0 .043.599-.17 4.897-1.717 1.827-.656 9.331-3.35 15.157-5.436 1.303-.468 2.863-1.02 3.462-1.227a41.888 41.888 0 001.403-.505c.175-.076 1.846-.68 3.724-1.355 3.119-1.113 3.418-1.231 3.48-1.359.032-.075.063-.146.063-.15 0-.057-.35.06-2.027.679zM19.48 14.859c-.018.024-.074.047-.112.047-.043 0-.037-.019.019-.047.118-.056.143-.056.093 0zM8.646 8.202c-.324.08-1.298.495-1.485.632-.106.08-.18.174-.174.217.037.146.517.278 1.515.43 1.597.235 1.965.31 2.495.528.63.26 1.31.75 1.248.901-.18.453-.18.66.012.967.125.199.487.387.743.387.15 0 .237.038.361.166.094.09.194.165.219.165.025 0 .025-.109 0-.246-.044-.188-.031-.264.037-.32.156-.133.28-.416.28-.652 0-.42-.436-.854-.866-.859-.125-.004-.225-.07-.43-.273-.487-.486-1.635-1.416-2.028-1.642a4.028 4.028 0 00-.667-.312c-.312-.104-.998-.15-1.26-.09zm-3.5 1.348c-.898.265-1.166.368-1.166.453 0 .034-.063.043-.169.02-.561-.104-1.49.046-1.82.297-.144.108-.207.118-.7.122-.623.005-.804.08-.804.33 0 .08-.044.307-.1.5-.125.435-.094 1.256.056 1.525.056.099.212.302.35.448.13.147.261.345.286.434.125.449.6.991.874.991.074 0 .18-.047.23-.104.088-.099.069-.127-.274-.48a5.8 5.8 0 01-.493-.558c-.156-.23-.642-2.434-.555-2.515.031-.028.18-.099.33-.155.362-.137.6-.1.874.127.3.255.88 1.151 1.01 1.562.144.467.425.93.687 1.132l.212.165-.094.213c-.368.793.717 1.552 1.385.972.48-.415.43-1.076-.1-1.416-.175-.108-.256-.127-.524-.118-.3.014-.318.005-.337-.099-.031-.198-.33-.906-.48-1.156a27.589 27.589 0 01-.437-.764c-.218-.406-.349-.567-.536-.694l-.243-.17h.237c.636 0 2.027.439 2.607.821.175.118.4.33.505.486.268.378.58 1.166.58 1.449 0 .59.674 1.033 1.235.812.4-.156.655-.708.512-1.105-.169-.486-.855-.755-1.254-.495-.094.061-.137.019-.437-.406-.349-.495-1.16-1.316-1.603-1.623-.143-.095-.237-.175-.2-.175.032 0 .319.062.637.137.318.076.86.198 1.204.264.68.142.817.18 1.565.453.343.128.612.274.867.467l.362.279-.012.354c-.013.297.012.391.13.552.175.24.462.373.787.373.212 0 .3-.029.474-.16.274-.213.368-.435.336-.808-.018-.23-.062-.33-.193-.467-.318-.311-.755-.396-1.066-.212-.094.056-.181.094-.188.085a9.878 9.878 0 01-.343-.43c-.243-.316-.524-.566-1.179-1.066C6.831 9.168 6.6 9.12 5.146 9.55z" fill="#4580EA"/><path d="M38.068 12.108c-1.372.505-5.033 1.85-8.14 2.987l-8.764 3.21c-1.715.631-3.511 1.287-3.992 1.462-5.065 1.845-8.558 3.128-8.607 3.166-.106.085.517-.137 4.865-1.703 1.098-.397 4.915-1.765 8.483-3.044 3.568-1.279 8.957-3.213 11.976-4.294 3.019-1.08 5.545-1.986 5.62-2.005.119-.038.137-.015.2.193.037.123.243.562.455.972.405.793.873 1.774.848 1.789a7036.743 7036.743 0 01-17.01 6.247c-2.214.812-5.707 2.09-7.765 2.84-2.059.756-4.086 1.497-4.51 1.652-.424.156-.76.293-.742.302.012.014 1.753-.594 3.855-1.354 2.108-.755 6.48-2.326 9.724-3.487a17929.3 17929.3 0 0010.728-3.846 4245.19 4245.19 0 015.346-1.916l.518-.179.443 1.048c.243.575.574 1.297.723 1.609.156.306.256.575.225.594-.025.02-2.9 1.076-6.381 2.35-3.48 1.274-8.228 3.006-10.542 3.855-4.39 1.61-10.76 3.94-12.4 4.535a14.68 14.68 0 00-.948.368c0 .043.18-.019 3.462-1.198 11.54-4.148 26.965-9.674 27.002-9.674.013 0 .275.387.587.859.311.477.76 1.1.998 1.387l.43.529-3.874 1.415-10.08 3.69c-5.289 1.94-12.331 4.516-16.323 5.974-.593.217-1.08.406-1.08.416 0 .042.313-.066 3.525-1.223 2.146-.773 11.851-4.251 21.588-7.743a881.132 881.132 0 016.412-2.284c.125 0 .792 1.246 1.16 2.185.144.359.3.727.35.816l.093.165-1.297.477-3.294 1.203c-2.495.916-9.212 3.36-12.07 4.389a617.7 617.7 0 00-4.958 1.83 564.83 564.83 0 01-5.208 1.926c-4.136 1.5-4.74 1.727-4.74 1.75 0 .043.174-.018 4.116-1.434 3.53-1.27 8.233-2.959 22.25-7.98 2.887-1.038 5.276-1.882 5.314-1.882.037 0 .068.019.068.047 0 .024.362.637.799 1.354.867 1.416 1.104 1.845 1.06 1.883-.031.019-8.028 2.959-9.999 3.676-.374.137-3.368 1.227-6.643 2.43l-9.668 3.54c-4.99 1.82-5.314 1.943-5.283 1.967.025.019 1.428-.477 5.689-2.015 1.097-.396 2.251-.807 2.557-.92.312-.109 4.84-1.732 10.073-3.61l11.471-4.115c1.379-.49 1.978-.684 2.009-.646.187.226 1.503 3.119 1.44 3.161-.024.015-2.413.892-5.314 1.954-2.9 1.062-6.674 2.44-8.39 3.067-1.715.628-4.87 1.789-7.016 2.572-2.146.783-5.134 1.878-6.643 2.43-4.186 1.529-4.473 1.637-4.442 1.656.025.02 1.235-.41 5.159-1.821l21.613-7.748c2.607-.935 4.84-1.737 4.965-1.784l.225-.09.468 1.142c.255.628.48 1.17.492 1.204.025.06-1.34.57-8.551 3.194-1.597.58-3.6 1.312-4.46 1.628-.855.316-2.146.798-2.87 1.062-1.166.43-7.584 2.784-13.367 4.893-1.135.42-2.064.77-2.052.779.031.023.468-.132 4.628-1.623 2.059-.741 6.662-2.393 10.23-3.672 3.568-1.278 8.745-3.133 11.502-4.124a425.228 425.228 0 015.059-1.798c.025 0 .068.057.087.123.025.066.212.42.418.783.206.364.499.935.649 1.265.15.33.324.684.386.788l.125.189-4.56 1.665c-2.507.92-6.287 2.303-8.395 3.072-2.108.77-4.971 1.817-6.363 2.331a527.565 527.565 0 01-3.15 1.156c-2.657.958-9.05 3.313-9.1 3.355-.081.057 1.141-.372 4.578-1.609l23.31-8.361 3.817-1.369.425.345c.23.193.555.458.723.59.162.132.293.264.293.292 0 .029-.08.213-.187.41-.112.218-.243.624-.337 1.058-.18.816-.349 1.123-.885 1.633-.194.179-.48.495-.63.693-.156.203-.319.387-.356.41a9.892 9.892 0 01-.786.28c-.393.131-1.896.622-3.337 1.094l-4.46 1.463c-1.01.33-3.337 1.094-5.165 1.694-2.856.939-8.308 2.746-12.861 4.265-1.036.345-1.547.482-2.683.722-.773.166-1.422.284-1.44.265-.069-.052-5.477-10.806-5.67-11.26-.044-.103-.53-1.07-1.073-2.146a1710.817 1710.817 0 01-4.76-9.443c-3.655-7.3-4.802-9.598-5.301-10.593-.287-.571-.942-1.878-1.46-2.902-.511-1.024-.954-1.902-.973-1.949-.031-.057-.081-.075-.18-.052a4.289 4.289 0 00-.15.043.992.992 0 00.105.245l.119.231-.175.076-.18.075-.231-.524a13.022 13.022 0 00-.244-.542 26.29 26.29 0 00-1.39.344c-.026.019 1.004 2.378 5.545 12.717a6963.31 6963.31 0 0111.595 26.496c.55 1.265 1.74 4.025 2.383 5.535.069.16.15.293.18.293.032 0 .319-.062.637-.142.324-.075.618-.142.655-.142.038 0 .1.076.137.166.063.141.094.165.206.136a.797.797 0 00.2-.066c.13-.075 4.06-1.642 4.21-1.675.318-.075 1.298-.467 1.871-.755.48-.236 10.093-4.12 29.08-11.745.848-.34 1.54-.627 1.54-.641a.372.372 0 00-.08-.109c-.082-.08-.113-.075-.587.104a314.8 314.8 0 00-4.566 1.845c-.76.325-19.28 7.767-19.667 7.904-.18.061-.649.24-1.042.4-.393.161-.686.275-.655.251.181-.127 2.121-1.123 2.202-1.133.056-.004.113-.033.125-.06.013-.024.056-.034.087-.02.038.02.05.01.032-.014-.056-.07 3.511-1.972 3.917-2.09.087-.024.493-.095.904-.16.68-.105.786-.138 1.248-.364.48-.24.68-.397.33-.26-.224.085-1.403.364-1.44.34-.044-.038 1.44-.58 1.802-.656.194-.042.418-.127.505-.188.194-.137.568-.317.662-.317.106 0 1.135-.542 1.628-.85.25-.16.642-.353.867-.433.23-.076 1.035-.368 1.79-.651 1.846-.69 5.957-2.19 6.044-2.209.037-.01.025.005-.025.033-.2.104.013.104.356.005.698-.212 2.488-.854 2.981-1.066.586-.26 1.404-.69 1.404-.741 0-.024-.025-.024-.063-.01-.031.014-.062.02-.062.005 0-.014.087-.057.187-.1.218-.084.237-.14.062-.211-.1-.043-.324.033-1.316.429-.661.264-1.634.637-2.17.83-.537.199-1.635.6-2.44.897-1.578.585-7.123 2.624-8.451 3.105-.443.16-2.09.755-3.65 1.321-1.559.562-3.23 1.175-3.71 1.355-2.234.844-12.145 4.378-12.207 4.35-.063-.028-.262-.354-.225-.368.193-.09.387-.118.462-.07.074.042.08.042.056-.015-.044-.08 1.041-.627 1.229-.618.062.005.1-.01.087-.028-.056-.066.23-.137.617-.16.518-.034 1.023-.175 1.647-.477a18.35 18.35 0 011.16-.5c.699-.279 1.391-.605 1.585-.75.074-.057.15-.1.174-.105.231-.014.992-.264.942-.306-.019-.014-.218.042-.43.122l-.4.147.213-.128c.18-.113.2-.137.1-.16-.088-.024-.02-.057.255-.142a9.096 9.096 0 001.965-.835c.35-.198.611-.368.58-.378-.031-.009-.424.09-.867.222-.443.128-.81.227-.823.222-.007-.01.667-.255 1.497-.547 1.104-.392 1.759-.59 2.445-.746 1.235-.278 1.26-.283.748-.08a55.94 55.94 0 00-1.56.68c-.617.278-1.583.698-2.151.934-1.073.448-1.49.646-1.03.49 1.148-.386 4.423-1.684 5.49-2.175.368-.17.38-.174.648-.113.157.033.344.108.425.165.162.118.15.123.312-.123.118-.174.168-.193 1.272-.528.948-.293 3.911-1.36 4.734-1.708.237-.104 1.005-.302 1.048-.274.013.01-.037.033-.106.052-.075.014-.13.047-.13.066 0 .061.873-.09 1.153-.198.137-.052.45-.217.699-.368.25-.147.505-.283.58-.302.069-.014.125-.052.125-.076 0-.023.037-.042.08-.042.05 0 .2-.062.344-.137.43-.24 1.247-.524 2.158-.755.855-.217 1.154-.321 1.584-.538.793-.396 1.08-.524 1.366-.604.612-.175 2.233-.826 3.02-1.208.891-.434 1.646-.713 2.039-.755.324-.033.412-.109.125-.109-.181 0-.206-.014-.212-.132-.013-.179-.418-.953-.668-1.274a16.858 16.858 0 01-1.447-2.236c-.2-.383-.374-.69-.387-.68-.012.01.007.07.044.142.044.094.044.118-.012.094-.05-.024-.057-.01-.032.047.094.175-.062.02-.206-.207-.15-.241-.155-.246-.38-.222l-.224.023-.175-.434a27.588 27.588 0 01-.318-.854c-.212-.594-.318-.793-.661-1.26-.412-.557-.468-.675-.618-1.231-.224-.85-.43-1.246-1.01-1.954-.562-.684-.88-1.175-1.304-1.996-.144-.274-.418-.76-.611-1.085a9.591 9.591 0 01-.487-.897 27.799 27.799 0 01-.667-1.746 15.743 15.743 0 00-.437-1.132c-.256-.6-.78-1.987-.78-2.062 0-.024.138.193.3.481.312.543.567.925.574.859.006-.1-.35-.949-.68-1.647a34.72 34.72 0 00-1.223-2.369 74.98 74.98 0 01-1.185-2.265c-1.091-2.175-1.397-2.741-1.46-2.732-.124.024-1.278-1.958-1.216-2.086.019-.033.006-.075-.025-.09-.037-.014-.05-.07-.031-.117.025-.071.006-.09-.087-.071-.094.019-.15-.043-.312-.368a10.913 10.913 0 01-.393-.887 35.268 35.268 0 00-.443-1.072c-.287-.65-.2-.604-.855-.457l-.268.056.038-.136c.025-.076.018-.137-.013-.133a208.2 208.2 0 00-2.545.925zM3.73 18.516c0 .024-.03.015-.062-.023a.286.286 0 01-.062-.118c0-.029.03-.014.062.023.031.038.062.09.062.118zm.15.307c.031.08.025.095-.012.047a.628.628 0 01-.1-.188c-.031-.08-.025-.095.012-.048a.628.628 0 01.1.19zm.187.378c.032.08.025.094-.012.047a.628.628 0 01-.1-.189c-.031-.08-.025-.094.013-.047a.628.628 0 01.1.189zm.562 1.108c.455.906.53 1.072.418.92-.063-.075-.942-1.835-.942-1.877 0-.076.1.108.524.957zm.599 1.18c0 .024-.032.014-.063-.023a.286.286 0 01-.062-.118c0-.029.03-.014.062.023.031.038.063.09.063.118zm.392.788c.057.113.325.647.593 1.194 3.43 6.861 3.711 7.432 3.668 7.465-.044.033-4.404-8.692-4.404-8.82 0-.084.05-.027.143.161zm.755 2.388a115.761 115.761 0 011.273 2.619c.03.08.287.609.561 1.165.275.557.518 1.057.543 1.11.075.188-.724-1.025-.942-1.426-.343-.623-.936-1.906-1.84-3.968-.443-1.015-.824-1.888-.849-1.935-.018-.042-.018-.066 0-.052.025.014.587 1.133 1.254 2.487zm2.838 6.672c.15.25.418.642.612.869a8.353 8.353 0 011.054 1.59c.237.462.237.476.15.434-.032-.014-.063-.01-.063.019 0 .023.025.056.056.075.131.057.318.666.468 1.51.112.633.674 1.619 1.403 2.463.206.241.362.44.343.44-.018 0-.087-.024-.155-.048-.138-.057-.15-.019-.05.175.461.882 1.066 2.406 1.335 3.35.23.807.411 1.241.748 1.784.112.179.368.67.561 1.085.194.415.555 1.128.811 1.58.412.751.842 1.615.842 1.69 0 .019-.118-.099-.262-.264-.162-.189-.442-.675-.78-1.345a312.576 312.576 0 01-2.869-5.955 22.339 22.339 0 00-.549-1.133c-.38-.703-1.54-3.156-2.008-4.246a988.465 988.465 0 00-1.94-4.507c-.093-.198.063.028.293.434zm1.16.51c.225.448.4.826.387.835-.018.01-.2-.34-.418-.774-.474-.953-.468-.939-.418-.906.025.014.225.392.45.845zm.718 1.44c.143.282.324.636.412.792.087.15.143.302.13.33-.03.066-.062.014-.48-.863-.418-.878-.399-.83-.355-.798.025.014.156.255.293.538zm1.902 3.798c.711 1.415 1.304 2.59 1.323 2.619.025.033.012.033-.032 0-.056-.043-2.632-5.13-2.632-5.205 0-.08.175.25 1.341 2.586zm-.973-1.02c.106.208.181.387.169.397-.025.014-.412-.713-.412-.774 0-.07.056.019.243.377zm4.123 7.272c0 .024-.031.014-.062-.024-.031-.037-.063-.094-.063-.117 0-.029.032-.015.063.023s.062.09.062.118zm39.702.061c-.262.165-.592.316-1.066.477-.655.222-.612.198.349-.208.686-.292.842-.354.717-.269zm-4.117.699a2.987 2.987 0 01-1.041.434c-.518.118-.998.203-1.023.184-.025-.019 2.096-.732 2.19-.736.037 0-.02.052-.126.118zm-34.181 1.982c.53 1.057.954 1.93.948 1.939-.038.028-2.04-3.893-2.04-3.983.006-.094.194.25 1.092 2.044zm-2.003-.118c.294.613.537 1.132.537 1.156 0 .038.2.453.992 2.048.1.193.255.523.349.731.1.208.212.453.256.543l.61 1.274c.824 1.736 1.454 3.01 1.66 3.397.106.194.337.67.512 1.062.174.387.368.783.424.873.056.09.168.311.25.495.249.59.267.61.498.496.081-.038.081-.066.013-.198-.125-.232-.661-1.345-1.422-2.94-.368-.779-.892-1.864-1.167-2.407-.268-.547-.574-1.16-.68-1.368l-.486-1.015a42.86 42.86 0 00-.437-.91c-.125-.236-.13-.283-.056-.321.168-.08.25-.038.505.264.175.208.275.288.312.25.038-.047.05-.042.056.01.013.193.044.316.088.4.03.057-.057.02-.225-.108-.505-.363-.561-.207-.1.297.137.156.374.42.524.59.15.166.268.279.268.255 0-.028-.068-.203-.156-.392-.212-.48-.137-.561.219-.217.143.142.28.255.293.241.031-.019-1.285-1.963-1.329-1.963-.012 0 .063.175.163.387.105.212.187.396.187.41 0 .015-.082-.07-.188-.188-.1-.114-.236-.26-.305-.326-.081-.08-.131-.217-.15-.448-.025-.311-.019-.321.056-.18.163.288.206.203.056-.103-.218-.434-.748-2.138-.686-2.185.019-.014.032 0 .032.033 0 .028.56 1.128 1.247 2.44a187.77 187.77 0 011.248 2.41c0 .015-.057-.023-.131-.084-.113-.1-.125-.104-.088-.019.044.104.044.109-.343-.255-.15-.137-.287-.23-.293-.207-.012.028.062.221.168.434.1.212.156.373.125.358-.093-.042-.075.038.087.383l.15.311-.18-.156-.182-.16.1.189c.056.103.212.358.35.566.13.208.2.335.143.288-.243-.236-.019.188.705 1.302.368.576.511.746.511.609 0-.019-.168-.316-.368-.66-.206-.34-.361-.619-.35-.619.013 0 .338.354.724.788.393.439.811.878.936.982.206.17.742.9.742 1.01 0 .07.387.674.524.82.15.151.125.17-.355.317a2.737 2.737 0 00-.387.136c-.044.057.037.241.106.241.038 0 .43-.137.886-.302.449-.17 1.129-.415 1.503-.552.38-.132 1.865-.67 3.306-1.19 1.44-.518 2.8-1 3.025-1.07.48-.156 5.078-1.812 7.448-2.685 1.397-.515 1.69-.609 1.734-.548a.24.24 0 00.162.071c.056 0-.019.047-.175.1-.155.051-.53.221-.842.372-.449.222-.767.33-1.59.547-2.115.548-2.72.765-4.516 1.619-1.634.779-2.165 1.005-3.768 1.61-2.046.768-2.8 1.103-3.642 1.637a2.833 2.833 0 01-.699.283l-.405.099-.131-.166c-.07-.09-.113-.184-.094-.207.025-.024-.006-.028-.056-.014-.131.037-.125.141.025.302l.125.127-.375.104c-.474.132-.561.217-.18.18l.274-.024-.25.056-.25.062v.264c.007.311.063.373.419.406l.262.028-1.491.6-1.49.599-.487-1.072a368.95 368.95 0 01-1.86-4.256c-1.44-3.331-1.521-3.525-1.895-4.365-.125-.288-.4-.91-.605-1.392-.2-.481-.443-1.033-.53-1.227a111.251 111.251 0 01-1.086-2.486c0-.085.094.103.586 1.123zm35.717-.854c-.119.051-.244.09-.281.09-.031 0 .037-.039.156-.09a1.2 1.2 0 01.28-.09c.038 0-.037.038-.155.09zm-.811.283c-.119.052-.244.09-.28.09-.032 0 .036-.038.155-.09a1.2 1.2 0 01.28-.09c.038 0-.037.038-.155.09zm-2.888.118c-.125.094-.25.226-.268.297-.07.208-.256.5-.38.58-.063.043-.313.147-.562.232-.356.122-.456.179-.468.269-.019.099-.225.184-1.553.646a70.44 70.44 0 01-1.672.571 15.07 15.07 0 00-.867.292c-.4.142-.798.279-.886.302l-.156.043.15-.08c.081-.047.318-.184.53-.312.212-.127.468-.264.568-.302.106-.042.274-.122.38-.184.106-.061.693-.283 1.31-.49 1.06-.364 2.102-.779 2.358-.94.112-.075.38-.429.318-.429-.019 0-.374.156-.798.35-.973.443-1.316.57-2.352.877-1.073.316-1.328.415-1.821.698-.55.321-.805.41-1.547.553a11.42 11.42 0 00-1.148.278c-.274.09-.63.18-.786.193-.53.062-1.846.552-3.268 1.218l-.799.373-.417-.029c-.606-.047-.961.052-1.579.43-.28.17-.58.325-.667.349-.4.099-3.767.797-3.786.783-.031-.019-.025-.023 3.28-1.114a450.15 450.15 0 003.774-1.255c2.021-.689 13.2-4.36 13.28-4.364.031 0-.043.075-.168.165zm-.948 1.722c.087.024.156.066.156.09 0 .094-.43.24-1.117.382-1.484.302-2.395.613-3.655 1.24-.655.327-1.235.553-1.715.671-.188.047-.45.123-.58.175-.138.052-.25.085-.263.075a3.223 3.223 0 00-.087-.118c-.044-.07-.106-.094-.206-.08-.23.033.306-.16 3.755-1.373 2.115-.741 3.325-1.142 3.412-1.128.075.01.212.042.3.066zm.867.137c.112.033.112.038.012.066a1.17 1.17 0 01-.368 0c-.206-.024-.23-.038-.137-.066a.877.877 0 01.493 0zm-8.352 1.972c-.387.151-.768.279-2.09.703-.405.133-.599.147-.405.038.368-.212 1.135-.514 1.303-.514.138 0 .212-.029.256-.104.05-.085.143-.109.561-.156.281-.028.55-.075.6-.099a.347.347 0 01.149-.038c.037 0-.131.076-.374.17zm.068.642c-.062.033-.324.18-.586.33-.362.213-.487.26-.549.217-.131-.08-.112-.108.162-.226.312-.132.325-.17.019-.07-.35.112-.437.127-.48.075-.02-.024.1-.071.262-.104.162-.029.505-.104.76-.165.55-.128.568-.128.412-.057zm-18.906 2.227c.325.59.593 1.086.593 1.095 0 .014-.287-.255-.63-.594-.58-.567-.805-.741-.618-.477.038.056.063.108.05.123-.012.009-.087-.08-.168-.203-.1-.16-.113-.203-.044-.16.125.08.125.037 0-.142-.05-.08-.081-.156-.069-.166.013-.014.15.137.294.336.25.325.393.415.517.325.044-.033-.193-.542-.461-1-.106-.175-.156-.293-.119-.264.038.028.33.533.655 1.127zm10.916-.122c-.069.052-1.404.542-2.963 1.094-3.93 1.397-5.44 1.973-5.502 2.105-.024.057-.024.113 0 .127.032.014.244-.056.48-.146.961-.377 6.588-2.383 6.613-2.364.012.01-.144.099-.35.203-.399.203-.442.255-.224.264.125.01.125.01-.019.028-.206.029-.86.246-1.079.359-.23.118-2.85 1.16-3.256 1.293-.168.057-.474.156-.674.222a3.445 3.445 0 00-.667.311c-.337.212-.412.227-.468.095-.025-.062-.093-.095-.187-.095-.225 0-.237.076-.038.203.175.109.181.123.082.189-.119.08-.144.047-.718-.958a16.74 16.74 0 00-.443-.764l-.162-.274.175-.029c.094-.018.312-.094.486-.17.393-.165.437-.165.43-.004 0 .113.026.132.175.123.163-.01.53-.19.537-.26.006-.019-.143-.023-.318-.01l-.33.02.261-.067c.144-.033.337-.08.43-.094.15-.028.163-.023.094.038-.13.118.025.094.3-.047.137-.066.623-.199 1.11-.302.474-.1 1.254-.265 1.734-.368 1.154-.246 1.34-.284 2.37-.411.48-.061 1.154-.175 1.497-.25.767-.17.774-.175.624-.061zm-11.384.5c0 .023-.03.014-.062-.024-.031-.038-.062-.094-.062-.118 0-.028.03-.014.062.024.031.038.062.09.062.118zm1.784 1.142c-.062.047-.118-.024-.062-.085.037-.052.05-.052.075 0 .012.033.006.07-.013.085zm7.448.203a.467.467 0 01-.156.047c-.031 0-.019-.024.031-.047a.513.513 0 01.156-.048c.038 0 .019.024-.031.048zm-.5.165a.775.775 0 01-.217.066c-.032 0 .006-.029.093-.066a.835.835 0 01.218-.066c.038 0-.006.028-.093.066z" fill="#0357ED"/><path d="M22.019 55.922c-.112.085-.094.17.044.226a.94.94 0 00.156.047c.05 0 .05-.16 0-.255-.044-.09-.1-.094-.2-.018zm.156.745c-.119.151-.081.18.1.076.106-.061.15-.217.056-.217-.025 0-.1.061-.156.141zm1.89.138c0 .028.025.06.062.075.038.014.044-.005.025-.042-.043-.085-.087-.1-.087-.033zm-1.759.679c-.187.057-.218.156-.094.288.082.08.094.076.219-.085.212-.269.193-.297-.125-.203zm.218.326c-.08.028-.143.07-.143.094 0 .023.087.01.187-.033.28-.109.237-.166-.044-.062zM54.38 36.382a.57.57 0 00.087.26c.05.075.287.49.536.929.25.434.48.802.518.821.037.019.05 0 .031-.038-.019-.038-.243-.457-.493-.939-.25-.481-.505-.939-.567-1.014l-.113-.142v.123zm1.808 2.26c.037.052.081.094.1.094.012 0 0-.042-.037-.094-.038-.052-.082-.094-.1-.094-.013 0 0 .042.037.094zm.194.235c.068.104.068.114-.019.057-.094-.056-.486-.118-.486-.075 0 .01.411.641.91 1.401.5.755 1.017 1.6 1.154 1.873l.237.496v-.26c.006-.641-.287-1.477-.804-2.288-.369-.576-.737-1.024-.818-.991-.03.019-.043 0-.025-.033.02-.033-.03-.113-.1-.18l-.124-.117.075.117zm1.721 3.407c-.018.038-.037.024-.037-.028-.006-.052.012-.08.031-.061.019.014.025.056.006.09zm-2.438-3.156c.019.047.056.07.075.056.018-.014 0-.051-.044-.084-.062-.043-.069-.038-.031.028zM41.673 50.802c-.15.061-.268.137-.268.16 0 .029.125-.018.281-.099.156-.08.28-.155.28-.165 0-.028.02-.033-.293.104z" fill="#4580EA"/></svg>