<svg width="60" height="60" fill="none" xmlns="http://www.w3.org/2000/svg"><path d="M8.926.03c-.739.097-1.885.471-2.558.83-1.307.694-2.448 1.806-2.97 2.885l-.106.214.347.332.346.336-.276.246c-.15.14-.473.465-.714.727C1.286 7.444.271 9.764.035 12.34c-.065.727-.035 2.17.06 2.833.055.406.06.417.302.604.226.176.331.288.186.203-.035-.021.105.15.311.374.206.22.734.69 1.176 1.032 3.93 3.089 5.288 4.19 6.514 5.275 2.76 2.453 4.86 4.5 7.384 7.21.688.738 1.105 1.155 1.15 1.133.056-.021.056.006-.01.107l-.085.14.75.838c.416.46.813.92.889 1.016l.136.176-.166.492c-.473 1.405-1.403 2.95-2.508 4.174-1.076 1.197-2.302 2.175-4.85 3.88-.72.482-1.569 1.053-1.885 1.273-.629.432-1.865 1.357-1.845 1.379.005.01.1-.006.211-.032.422-.102 4.84-.963 4.906-.957.04.005.015.026-.056.048-.125.043-.125.043-.01.048.226.01.638.235.83.444.1.123.185.187.185.15 0-.044.01-.06.026-.044.03.027-.247.936-1.101 3.614a99.248 99.248 0 00-.583 1.865c0 .01.12-.048.266-.134.588-.352 1.76-.972 1.649-.876l-.126.107.126.021c.231.038.658-.07.965-.235 1.16-.62 3.588-2.373 4.935-3.57.252-.22 1.594-1.668 1.81-1.951.206-.268.266-.353.85-1.24.587-.893.944-1.166 1.537-1.166.503 0 .805.188 1.483.91 1.191 1.26 2.94 3.756 5.83 8.31.438.69.915 1.438 1.056 1.657.14.22.437.679.653 1.016a84.248 84.248 0 003.323 4.783c.683.909 1.256 1.583 1.156 1.363-.02-.042.025-.005.105.091.086.107.272.22.493.31.196.075.296.128.236.112-.15-.032-.126-.005.15.16.86.525 1.755.717 3.283.717 3.171 0 6.594-1.25 10.052-3.677.654-.46 2.026-1.513 2.267-1.748.035-.027.156-.139.271-.235.116-.102.241-.214.272-.246l.23-.209c1.016-.881 2.584-2.517 3.695-3.848.277-.326.548-.866.593-1.16.035-.24-.03-.56-.105-.545-.08.022-.08.027.085-.363.382-.898.749-2.282.865-3.271.09-.818.035-2.315-.126-3.111-.226-1.138-.06-.951-1.619-1.833-5.508-3.116-10.745-6.355-14.998-9.274-.91-.625-2.84-1.988-3-2.122-.11-.09-.106-.096.578-.507 1.89-1.15 3.121-2.117 4.448-3.501.412-.428.764-.77.78-.76.014.006.034-.026.04-.074.014-.107.17-.294.22-.262.02.01.08-.027.131-.096.08-.096.08-.102.01-.043-.16.129-.09-.016.12-.262.182-.213.192-.219.071-.042-.075.112-.115.203-.095.203a.859.859 0 00.18-.22c.081-.122.116-.203.081-.181-.035.027-.05.016-.035-.032.015-.043.05-.07.08-.064.025.005.08-.027.12-.08.061-.08.056-.086-.02-.017-.05.038-.09.048-.09.016 0-.08.131-.176.176-.128.025.021.025.01.01-.027-.02-.032.106-.294.277-.582.382-.647.925-1.85 1.16-2.566.202-.614.443-1.518.403-1.518-.015 0-.865.465-1.89 1.037-1.76.973-2.88 1.582-2.915 1.582-.005 0 .005-.224.025-.497.02-.267.08-1.288.14-2.255.056-.973.151-2.438.202-3.26.055-.824.1-1.556.095-1.63v-.134l-.055.133c-1 2.39-1.553 3.48-2.473 4.848-1.558 2.325-3.357 4.035-6.087 5.778l-.497.32-.282-.213c-.15-.118-1.05-.765-1.995-1.433-1.699-1.202-2.337-1.689-3.207-2.442-.286-.252-.477-.38-.527-.364-.04.022-.181.059-.312.091l-.231.059-.75-.69C22.22 13.11 17.245 7.38 13.219 1.42l-.557-.828-.367-.155C11.53.122 11.042.025 10.117.004c-.467-.01-1.005 0-1.19.027zm3.966 43.433c-.015.016-.06.021-.096.005-.04-.016-.025-.032.03-.032.056-.005.086.011.066.027zm43.943 8.215c0 .01-.075.086-.16.177l-.166.155.145-.177c.141-.16.181-.198.181-.155zm-.502.588a5.6 5.6 0 01-.262.278l-.266.267.251-.283c.232-.257.277-.305.277-.262zm-.804.802c0 .01-.096.112-.212.224l-.216.214.201-.23c.181-.208.227-.251.227-.208zm-.453.427c0 .011-.085.102-.186.203l-.19.182.17-.203c.166-.182.206-.224.206-.182zm-.402.375a.64.64 0 01-.11.122l-.116.102.095-.123c.09-.112.131-.144.131-.101zm-.251.213a.64.64 0 01-.11.123l-.116.102.095-.123c.09-.112.13-.145.13-.102zm-.252.214c0 .01-.05.064-.11.123l-.116.102.096-.123c.09-.113.13-.145.13-.102zm-.25.22a.34.34 0 01-.086.09c-.08.07-.086.064-.02-.021.065-.086.105-.113.105-.07zm-15.346 4.66c-.015.016-.06.021-.095.005-.04-.016-.025-.032.03-.032.055-.005.086.01.065.027z" fill="#0357ED"/></svg>