<svg width="54" height="56" fill="none" xmlns="http://www.w3.org/2000/svg"><path d="M4.542.022C4.495.03 4.348.06 4.22.086c-.56.107-1.293.417-1.802.765-.479.327-1.09 1.045-1.384 1.625C.77 3 .675 3.366.653 3.95c-.021.456-.008.598.065.894.237.933.832 1.66 1.712 2.098.37.18.953.36 1.172.36.09 0 .052.057-.276.422C1.766 9.456.77 11.2.313 12.984c-.737 2.902-.177 6.328 1.729 10.609a48.566 48.566 0 001.595 3.245c4.389 8.33 5.893 14.145 5.583 21.59a77.67 77.67 0 01-.285 3.94c-.095.93-.09 1.101.043 1.325.06.103.225.296.371.43 1.479 1.366 4.346 1.147 8.622-.658.453-.19 1.104-.482 1.457-.65.35-.167.742-.356.871-.416.13-.06.625-.314 1.1-.559 8.018-4.173 19.02-12.31 26.315-19.458 3.518-3.447 5.6-6.146 6.152-7.96.16-.52.172-1.25.026-1.594a1.249 1.249 0 01-.095-.331c0-.447-.57-.899-1.246-.985a6.748 6.748 0 01-.798-.219 190.04 190.04 0 00-2.59-.83c-4.532-1.418-6.023-1.92-7.795-2.626-2.919-1.164-5.187-2.462-7.446-4.263-.862-.688-1.664-1.406-2.828-2.536-3.306-3.215-6.303-5.493-9.105-6.907-1.866-.946-3.457-1.475-5.216-1.733-.767-.111-2.199-.154-2.983-.086-1.708.15-3.553.658-5.282 1.449-.025.013-.043-.16-.047-.464 0-.59-.078-.903-.336-1.432C7.538.688 6.345-.017 4.973 0a5.13 5.13 0 00-.43.022z" fill="#0357ED"/></svg>