<svg width="60" height="60" fill="none" xmlns="http://www.w3.org/2000/svg"><path d="M59.184 51.874L47.5 40.19a2.81 2.81 0 00-1.993-.82h-1.91a24.25 24.25 0 005.157-14.998C48.754 10.909 37.843 0 24.377 0S0 10.91 0 24.373c0 13.463 10.911 24.372 24.377 24.372a24.26 24.26 0 0015-5.155v1.91c0 .75.294 1.464.821 1.992l11.685 11.682a2.801 2.801 0 003.973 0l3.316-3.316a2.825 2.825 0 00.012-3.984zM24.377 39.37c-8.286 0-15.001-6.702-15.001-14.998 0-8.285 6.703-14.999 15-14.999 8.287 0 15.002 6.703 15.002 14.999 0 8.284-6.704 14.998-15.001 14.998z" fill="#0357ED"/></svg>