<svg width="13" height="12" viewBox="0 0 13 12" fill="none" xmlns="http://www.w3.org/2000/svg">
<rect width="13" height="12" rx="2" fill="#D01129"/>
<mask id="mask0" mask-type="alpha" maskUnits="userSpaceOnUse" x="0" y="0" width="13" height="12">
<rect width="13" height="12" rx="2" fill="white"/>
</mask>
<g mask="url(#mask0)">
<path fill-rule="evenodd" clip-rule="evenodd" d="M6.44791 6.02447C6.75477 6.02447 7.00354 5.68693 7.00354 5.27063C7.00354 4.85426 6.75477 4.51672 6.44791 4.51672C6.14105 4.51672 5.89233 4.85426 5.89233 5.27063C5.89233 5.68693 6.14105 6.02447 6.44791 6.02447" fill="#FFF101"/>
<path fill-rule="evenodd" clip-rule="evenodd" d="M5.94148 4.96751C6.09883 4.8994 6.30297 4.97867 6.43728 5.15357C6.57986 5.11834 6.72283 4.8754 6.76713 4.65911C6.71845 3.94036 6.37194 3.39584 6.26657 3.02219C6.23325 2.9041 6.07876 2.71841 5.91811 2.80487C5.78602 2.87599 5.71921 2.82065 5.27556 3.12091C5.03566 3.28326 4.83374 3.45001 4.72734 3.47907C4.62089 3.50814 4.50859 3.53405 4.42345 3.44355C4.30634 3.31907 4.17501 3.28465 4.09766 3.19085C4.00289 3.07592 3.94209 2.98916 3.87799 2.95401C3.81389 2.91878 3.70539 2.99702 3.7512 3.18322C3.85457 3.60377 4.09825 3.67188 4.20287 4.06498C4.25225 4.25082 4.32246 4.39049 4.47938 4.24964C4.6363 4.1088 4.85808 3.92172 5.23618 3.90205C5.49008 3.88876 5.75248 3.76208 5.87305 3.55423C5.87186 3.73405 5.9186 3.88142 5.90626 4.11533C5.89398 4.34931 5.89593 4.64032 5.94148 4.96751" fill="white"/>
<path fill-rule="evenodd" clip-rule="evenodd" d="M6.23895 4.98731C6.19232 4.63348 6.27686 4.58247 6.17593 4.16772C6.11524 3.91832 6.07645 3.60573 6.07548 3.46027L6.03491 3.47627C6.03589 3.62173 6.07472 3.93439 6.13536 4.18379C6.23299 4.58482 6.1571 4.64573 6.19421 4.96933C6.20568 4.97249 6.22975 4.98291 6.23895 4.98731" fill="#FFF101"/>
<path fill-rule="evenodd" clip-rule="evenodd" d="M6.00008 4.94846C6.0004 4.90347 5.99829 4.8565 5.99315 4.81613C6.0645 4.79287 6.18669 4.88233 6.18329 4.81584C6.18226 4.79477 6.18383 4.72666 6.1848 4.69055C6.18323 4.74699 6.01333 4.65173 5.98407 4.67632C5.95264 4.47044 5.99158 4.25863 5.96665 4.12938C6.02339 4.10832 6.12768 4.15426 6.11491 4.09393C6.10766 4.06303 6.09382 3.98619 6.08468 3.93811C6.0936 3.98846 6.01079 3.94677 5.98277 3.97554C5.96822 3.86391 5.94696 3.6521 5.94739 3.55529L5.87307 3.55426C5.87188 3.73408 5.91861 3.88145 5.90628 4.11536C5.894 4.34934 5.89595 4.64035 5.9415 4.96755C5.95778 4.96109 5.98461 4.95279 6.00008 4.94846" fill="#FFF101"/>
<path fill-rule="evenodd" clip-rule="evenodd" d="M5.81236 3.30478C5.70158 3.5218 5.43696 3.6716 5.19231 3.7047C4.90595 3.74346 4.71371 3.87278 4.57215 3.99938C4.55998 3.96966 4.53802 3.95366 4.5186 3.93406C4.31148 3.72592 4.39662 3.44386 4.47505 3.48415C4.44547 3.46859 4.42827 3.4476 4.41209 3.43182C4.38472 3.4043 4.30575 3.50977 4.31565 3.67725C4.31987 3.74859 4.36487 3.85384 4.40149 3.90962C4.33463 3.89311 4.30261 3.86992 4.26334 3.80555C4.28541 3.78691 4.31397 3.77634 4.33701 3.77391C4.32917 3.74837 4.31824 3.72004 4.31565 3.67725C4.28292 3.67689 4.243 3.69237 4.20876 3.72393C4.1266 3.61289 4.042 3.5243 3.99294 3.39322C3.91445 3.18324 3.99429 3.05069 4.09766 3.19087C4.00289 3.07593 3.94209 2.98918 3.87799 2.95402C3.81389 2.9188 3.70539 2.99703 3.7512 3.18324C3.85457 3.60379 4.09825 3.6719 4.20287 4.065C4.25225 4.25083 4.32506 4.39564 4.47938 4.24966C4.49972 4.23043 4.50513 4.22588 4.52282 4.20885C4.57177 4.17047 4.64934 4.23491 4.64106 4.37502C4.68071 4.24636 4.6554 4.20694 4.62175 4.1298C4.59687 4.14779 4.59887 4.04247 4.58351 4.02859C4.67157 3.95432 4.77867 3.87982 4.91379 3.82676C4.91877 3.88966 4.93153 3.95645 4.97421 3.94676C4.99709 3.93986 5.0203 3.93362 5.04469 3.92812C5.00201 3.9378 4.99001 3.8647 4.98508 3.80188C5.04913 3.78191 5.11912 3.7668 5.19582 3.75828C5.28421 3.74845 5.37557 3.72408 5.46136 3.68628C5.47413 3.74661 5.50052 3.84826 5.5445 3.8283C5.5835 3.81135 5.62142 3.79219 5.65701 3.76995C5.59583 3.80951 5.57176 3.69656 5.55705 3.63681C5.66886 3.57083 5.76411 3.48085 5.82107 3.37347L5.81236 3.30478" fill="#FFF101"/>
<path fill-rule="evenodd" clip-rule="evenodd" d="M6.30163 3.41254C6.35561 3.35574 6.40197 3.32887 6.35539 3.20858C6.27923 3.01188 6.32655 3.01121 6.15979 2.88607C5.98994 2.7588 6.01142 2.74882 5.78666 2.85634C5.73138 2.88277 5.74372 2.90978 5.7534 3.01855C5.77422 3.25297 5.81381 3.44175 5.85 3.63463C5.99129 3.6096 6.20864 3.51052 6.30163 3.41254Z" fill="#FFF101"/>
<path fill-rule="evenodd" clip-rule="evenodd" d="M5.77444 3.35926C5.7448 3.24418 5.75275 3.25981 5.86017 3.29489C5.89533 3.14319 5.94389 3.01514 5.9711 2.89236C6.0015 2.75489 6.01102 2.73015 6.05575 2.76384C6.11298 2.80685 6.17584 2.85228 6.21678 2.87958C6.28829 2.92714 6.27775 2.94381 6.24361 3.0194C6.20948 3.095 6.09785 3.24822 6.02899 3.40807C6.11981 3.49482 6.14897 3.50267 6.08444 3.54003C6.01222 3.58179 5.89225 3.63354 5.84173 3.64579C5.83248 3.57027 5.80262 3.4684 5.77444 3.35926Z" fill="#FFF101"/>
<path fill-rule="evenodd" clip-rule="evenodd" d="M4.70815 4.44144L4.701 4.55983L4.63669 4.48056L4.56475 4.54684L4.56951 4.42867L4.48669 4.39469L4.55745 4.32585L4.52624 4.21605L4.60927 4.24893L4.65313 4.14728L4.68645 4.25583L4.77214 4.23829L4.73016 4.34185L4.79334 4.42185L4.70815 4.44144" fill="#FFF101"/>
<path fill-rule="evenodd" clip-rule="evenodd" d="M6.50779 6.01737C6.38559 5.86647 6.3341 5.58699 6.37862 5.3417C6.28482 5.19183 6.05829 5.14523 5.89807 5.2013C5.46366 5.61796 5.28937 6.29737 5.10357 6.60805C5.04483 6.70625 5.00355 6.98053 5.13911 7.12614C5.25054 7.24578 5.24864 7.35191 5.66207 7.72313C5.88563 7.92387 6.09301 8.07778 6.16479 8.18831C6.23663 8.29884 6.30927 8.41789 6.29407 8.56313C6.27319 8.76299 6.31684 8.93458 6.29569 9.07227C6.26968 9.24108 6.24474 9.35594 6.25431 9.44886C6.26394 9.54178 6.36807 9.63014 6.46403 9.48321C6.68072 9.15146 6.60239 8.8311 6.80102 8.51161C6.89487 8.36064 6.94896 8.20827 6.78062 8.09429C6.61224 7.98038 6.38197 7.81326 6.18032 7.37891C6.04493 7.08717 5.83289 6.84211 5.63989 6.80438C5.75527 6.71594 5.82602 6.58728 5.98148 6.48475C6.13694 6.38222 6.32171 6.23455 6.50779 6.01737" fill="white"/>
<path fill-rule="evenodd" clip-rule="evenodd" d="M6.37165 5.65796C6.16918 5.88967 6.09432 5.81576 5.88006 6.14178C5.75127 6.33781 5.57115 6.53972 5.47876 6.61356L5.50927 6.65319C5.60166 6.57935 5.78178 6.37745 5.91063 6.18141C6.1178 5.86618 6.19461 5.92489 6.38263 5.71946C6.3789 5.70449 6.37343 5.67095 6.37165 5.65796" fill="#FFF101"/>
<path fill-rule="evenodd" clip-rule="evenodd" d="M6.46626 5.95809C6.43743 5.98018 6.40849 6.00616 6.38529 6.03237C6.33476 5.96015 6.33076 5.77182 6.29009 5.80917C6.2771 5.82077 6.23286 5.85306 6.20927 5.86994C6.24616 5.8436 6.27023 6.09086 6.30058 6.11295C6.18488 6.25284 6.03023 6.31295 5.96024 6.4069C5.91842 6.35068 5.8956 6.20528 5.86347 6.25042C5.8474 6.27435 5.80526 6.32903 5.77914 6.36382C5.80683 6.32815 5.8216 6.44631 5.85395 6.46481C5.79001 6.53776 5.66544 6.66862 5.60339 6.71655L5.63991 6.8044C5.75528 6.71596 5.82603 6.5873 5.98149 6.48477C6.13695 6.38224 6.32173 6.23457 6.5078 6.01739C6.49552 6.00147 6.47675 5.97409 6.46626 5.95809" fill="#FFF101"/>
<path fill-rule="evenodd" clip-rule="evenodd" d="M5.51099 7.00042C5.7049 7.02207 5.93279 7.25811 6.07624 7.52908C6.24414 7.84622 6.42286 8.00739 6.57443 8.11044C6.56155 8.13965 6.56231 8.17341 6.55955 8.20607C6.53023 8.55352 6.30765 8.59448 6.29412 8.48218C6.29899 8.52475 6.29418 8.55543 6.29223 8.58237C6.28834 8.62831 6.39517 8.66831 6.49707 8.57297C6.54051 8.53231 6.58514 8.42684 6.6025 8.35594C6.62533 8.4427 6.62652 8.49194 6.60515 8.57026C6.58216 8.55367 6.56117 8.52534 6.54808 8.49958C6.5357 8.52152 6.52309 8.54853 6.49707 8.57297C6.51319 8.61165 6.54305 8.65077 6.58032 8.67521C6.55052 8.82728 6.53629 8.97099 6.47711 9.09414C6.3824 9.29136 6.25783 9.26383 6.29564 9.07227C6.26962 9.24108 6.24468 9.35594 6.25426 9.44886C6.26389 9.54178 6.36801 9.63014 6.46397 9.48321C6.68066 9.15147 6.60234 8.8311 6.80096 8.51161C6.89481 8.36064 6.9509 8.2027 6.78057 8.09429C6.75807 8.08005 6.75249 8.07602 6.73281 8.06369C6.6838 8.02537 6.68618 7.902 6.7797 7.84167C6.67779 7.85943 6.6653 7.9089 6.6329 7.98699C6.65675 8.00717 6.58854 8.05752 6.58735 8.08255C6.49594 8.0162 6.3949 7.92761 6.29342 7.79528C6.33112 7.75807 6.36736 7.70963 6.33978 7.66435C6.32393 7.64093 6.30835 7.61671 6.29261 7.59081C6.3202 7.63616 6.27957 7.68673 6.24187 7.72402C6.19714 7.65877 6.15251 7.58405 6.1087 7.49818C6.05823 7.39917 5.997 7.30405 5.92998 7.22215C5.96211 7.17693 6.01377 7.09517 5.97904 7.05341C5.94875 7.01605 5.91754 6.98104 5.88557 6.95044C5.94139 7.00255 5.8813 7.08732 5.85057 7.13444C5.7525 7.03609 5.64746 6.96908 5.55047 6.95594L5.51099 7.00042" fill="#FFF101"/>
<path fill-rule="evenodd" clip-rule="evenodd" d="M5.25637 6.41861C5.19308 6.3836 5.22431 6.33628 5.17082 6.45114C5.08335 6.63896 5.06645 6.59571 5.07002 6.85428C5.07364 7.1174 5.1113 7.07542 5.29234 7.28577C5.43152 7.14419 5.59764 6.93017 5.70263 6.79116C5.61603 6.63769 5.36537 6.47901 5.25637 6.41861Z" fill="#FFF101"/>
<path fill-rule="evenodd" clip-rule="evenodd" d="M5.56467 7.01774C5.50604 7.11015 5.51204 7.09305 5.48072 6.94919C5.36632 6.98369 5.27807 7.02354 5.18617 7.05297C5.08318 7.08593 5.06268 7.0871 5.06176 7.01774C5.06063 6.92894 5.05825 6.83242 5.05516 6.77062C5.04981 6.66288 5.06566 6.66684 5.131 6.66919C5.19634 6.67147 5.33208 6.69327 5.46855 6.69422C5.47851 6.54413 5.46893 6.50596 5.52508 6.56314C5.58777 6.62706 5.68081 6.74222 5.71391 6.79543C5.67031 6.84402 5.62028 6.93011 5.56467 7.01774Z" fill="#FFF101"/>
<path fill-rule="evenodd" clip-rule="evenodd" d="M6.78863 7.72975L6.86777 7.67889L6.84932 7.79405L6.92765 7.8455L6.84981 7.89893L6.8695 8.01328L6.79015 7.96454L6.73568 8.05614L6.71518 7.94208L6.62836 7.94135L6.68104 7.84799L6.62695 7.7561L6.71409 7.75361L6.73357 7.6394L6.78863 7.72975" fill="#FFF101"/>
<path fill-rule="evenodd" clip-rule="evenodd" d="M6.89462 4.82708C6.85946 5.04602 6.70676 5.24631 6.52799 5.3167C6.4792 5.5018 6.56272 5.79119 6.67864 5.95156C7.16173 6.25365 7.68257 6.11875 7.97375 6.18173C8.06581 6.20162 8.26152 6.11296 8.28667 5.88096C8.30733 5.6902 8.37597 5.63941 8.40621 4.96793C8.42255 4.60485 8.41708 4.28418 8.45176 4.14459C8.48643 4.00499 8.52608 3.86004 8.62636 3.80529C8.76435 3.72991 8.85203 3.59274 8.95059 3.54877C9.07127 3.4949 9.15706 3.46679 9.21153 3.4091C9.26605 3.35141 9.27038 3.18481 9.12866 3.14554C8.80854 3.05674 8.64324 3.30899 8.34 3.2353C8.19671 3.20051 8.07241 3.21307 8.08388 3.46796C8.09535 3.72279 8.10384 4.07692 7.92739 4.53101C7.80888 4.83604 7.75852 5.20771 7.83089 5.45336C7.71676 5.36198 7.59927 5.34319 7.45615 5.21182C7.31297 5.08037 7.1263 4.93718 6.89462 4.82708" fill="white"/>
<path fill-rule="evenodd" clip-rule="evenodd" d="M6.73328 5.16672C6.98242 5.28877 6.97269 5.41369 7.28788 5.5025C7.47741 5.55585 7.69632 5.66653 7.78969 5.73817L7.79969 5.68246C7.70638 5.61083 7.48742 5.50022 7.29794 5.44679C6.99313 5.36092 6.99221 5.24129 6.76708 5.12305C6.7594 5.13501 6.74069 5.15813 6.73328 5.16672" fill="#FFF101"/>
<path fill-rule="evenodd" clip-rule="evenodd" d="M6.87757 4.90541C6.90613 4.92824 6.93718 4.94923 6.96547 4.96347C6.9447 5.05888 6.82646 5.15782 6.87065 5.18695C6.88455 5.19642 6.92723 5.23224 6.94979 5.25147C6.91457 5.2213 7.06029 5.06937 7.05927 5.02262C7.20645 5.08868 7.3221 5.24038 7.41708 5.27569C7.40215 5.3529 7.32069 5.45242 7.36559 5.46761C7.3889 5.47451 7.44489 5.49668 7.48015 5.50996C7.44353 5.49528 7.51158 5.41881 7.5072 5.37161C7.58574 5.41022 7.73152 5.49117 7.79313 5.54013L7.83094 5.4533C7.7168 5.36193 7.59932 5.34314 7.45619 5.21176C7.31301 5.08031 7.12634 4.93712 6.89467 4.82703C6.89066 4.84934 6.88255 4.88508 6.87757 4.90541" fill="#FFF101"/>
<path fill-rule="evenodd" clip-rule="evenodd" d="M8.02045 5.50672C7.93731 5.26804 7.97404 4.8822 8.0753 4.57813C8.19376 4.22224 8.20728 3.93167 8.19722 3.70209C8.22232 3.70268 8.24347 3.68485 8.26575 3.67178C8.50213 3.53255 8.63958 3.77358 8.57462 3.84558C8.59939 3.81857 8.62141 3.80896 8.63953 3.7978C8.67079 3.7793 8.64293 3.63384 8.53113 3.56176C8.48347 3.53101 8.39384 3.5313 8.33986 3.54635C8.38389 3.47611 8.41467 3.45013 8.47536 3.43611C8.47628 3.47141 8.46871 3.51024 8.45875 3.5385C8.47898 3.54202 8.50251 3.54334 8.53113 3.56176C8.54773 3.52345 8.55779 3.46885 8.55476 3.41277C8.66673 3.37182 8.76556 3.3167 8.87374 3.32462C9.047 3.33732 9.09173 3.49747 8.95061 3.54877C9.07129 3.4949 9.15707 3.46679 9.21154 3.4091C9.26607 3.35141 9.2704 3.18481 9.12868 3.14554C8.80856 3.05674 8.64326 3.30899 8.34002 3.2353C8.19673 3.20051 8.06789 3.21358 8.0839 3.46796C8.08601 3.50151 8.08622 3.51009 8.08823 3.53938C8.08823 3.61615 8.00833 3.67501 7.92308 3.59523C7.98534 3.7062 8.02315 3.69615 8.0892 3.69519C8.09017 3.65696 8.15638 3.71193 8.17293 3.70085C8.17634 3.84147 8.17028 4.00455 8.13658 4.18987C8.09396 4.16426 8.04501 4.14584 8.02981 4.20088C8.02277 4.23119 8.01515 4.26158 8.00649 4.29299C8.02164 4.23795 8.07427 4.26048 8.11684 4.28609C8.09758 4.3713 8.07221 4.46114 8.03933 4.55552C8.00135 4.66429 7.97128 4.78378 7.95251 4.90356C7.90761 4.88837 7.82956 4.86855 7.82026 4.93028C7.8116 4.98451 7.80484 5.03868 7.80127 5.0916C7.80662 4.99993 7.89074 5.02811 7.93623 5.04066C7.92249 5.20507 7.93223 5.36198 7.97231 5.48264L8.02045 5.50672" fill="#FFF101"/>
<path fill-rule="evenodd" clip-rule="evenodd" d="M7.68778 6.00566C7.69709 6.09755 7.69103 6.16544 7.7911 6.17079C7.95473 6.17967 7.94142 6.20705 8.10467 6.07362C8.27078 5.93777 8.27521 5.96459 8.31897 5.64672C8.32974 5.56856 8.30632 5.56951 8.23205 5.5265C8.0721 5.43373 7.93228 5.44007 7.7911 5.38612C7.73641 5.56469 7.67177 5.84742 7.68778 6.00566Z" fill="#FFF101"/>
<path fill-rule="evenodd" clip-rule="evenodd" d="M8.00456 5.43495C8.09289 5.45755 8.07893 5.45909 8.00283 5.56787C8.08207 5.685 8.14273 5.76742 8.20753 5.86078C8.28007 5.96529 8.29105 5.98878 8.24724 6.02452C8.19114 6.07024 8.13078 6.12133 8.09286 6.1559C8.0267 6.21608 8.02135 6.19538 7.99014 6.11744C7.95893 6.03957 7.91374 5.8704 7.84618 5.70966C7.74535 5.77293 7.72577 5.80331 7.73421 5.70878C7.74367 5.60309 7.77066 5.4362 7.78808 5.37073C7.84088 5.39759 7.92082 5.41337 8.00456 5.43495Z" fill="#FFF101"/>
<path fill-rule="evenodd" clip-rule="evenodd" d="M7.84714 3.64084L7.77515 3.57324L7.85791 3.53728L7.85152 3.41955L7.92455 3.48429L7.98773 3.40399L7.99627 3.52157L8.08195 3.53977L8.01942 3.62095L8.06237 3.72326L7.97642 3.70807L7.94478 3.81757L7.89966 3.71643L7.81701 3.75071L7.84714 3.64084" fill="#FFF101"/>
<path fill-rule="evenodd" clip-rule="evenodd" d="M6.43503 5.15692C6.30055 4.9818 6.09754 4.90485 5.94259 4.97192L5.93824 4.9684C5.89754 4.676 5.88836 4.3936 5.90298 4.11504C5.90866 4.00728 5.90376 3.92842 5.88743 3.78778C5.88066 3.72945 5.87973 3.72129 5.87733 3.69715C5.87252 3.64871 5.86998 3.60771 5.86975 3.56726C5.75075 3.76223 5.49905 3.89292 5.23639 3.90667C4.92567 3.92283 4.73162 4.02886 4.48133 4.2535C4.34228 4.37831 4.26288 4.30404 4.19977 4.06658C4.15799 3.90956 4.10703 3.81893 3.98482 3.65209L3.97542 3.63925C3.84742 3.46445 3.79178 3.36248 3.74808 3.18471C3.70728 3.01887 3.79544 2.90367 3.87935 2.94979C3.88506 2.95293 3.89079 2.95649 3.89659 2.96049C3.92361 2.97917 3.95134 3.00678 3.98803 3.05006C4.0006 3.06489 4.03742 3.11034 4.06594 3.14555L4.06594 3.14555L4.06595 3.14555L4.06595 3.14556L4.1 3.18747C4.10417 3.19253 4.10848 3.19743 4.11299 3.20221C4.1066 3.19677 4.09994 3.19321 4.09313 3.19141L4.0613 3.15223L4.0613 3.15223C4.0328 3.11705 3.9961 3.07174 3.9836 3.05699C3.94728 3.01416 3.91995 2.98695 3.89352 2.96867C3.8879 2.96479 3.88234 2.96134 3.87681 2.9583C3.79829 2.91515 3.7155 3.02333 3.75449 3.18181C3.79778 3.35792 3.85289 3.45891 3.98021 3.63279L3.98962 3.64563C4.11248 3.81335 4.16392 3.90486 4.20613 4.06347C4.26797 4.29615 4.34318 4.36651 4.4776 4.24586C4.72883 4.02037 4.92397 3.91374 5.23613 3.8975C5.50152 3.88362 5.75553 3.74959 5.87048 3.55143L5.87652 3.55431C5.87622 3.59857 5.87874 3.64269 5.88403 3.69593C5.88642 3.71997 5.88735 3.72812 5.89411 3.78636C5.91051 3.92763 5.91545 4.00709 5.90972 4.1157C5.89523 4.39189 5.90419 4.67186 5.94418 4.96164L5.94054 4.96319L5.94488 4.9667L5.94418 4.96164C6.10113 4.89625 6.30455 4.97432 6.43676 5.1491C6.57029 5.11611 6.71697 4.88735 6.76385 4.65957C6.74069 4.31772 6.65526 4.0086 6.50166 3.62888C6.47796 3.57029 6.41324 3.41656 6.38183 3.34196L6.36459 3.30093C6.31562 3.18258 6.28473 3.09917 6.2635 3.02388C6.21951 2.86798 6.05505 2.7362 5.91944 2.80918C5.901 2.81911 5.88306 2.82702 5.8634 2.83413C5.85081 2.83869 5.83798 2.84278 5.82046 2.84796C5.6399 2.90138 5.53996 2.94719 5.27715 3.12506L5.25497 3.14015C5.20445 3.17471 5.08276 3.26152 5.00702 3.31555L4.94434 3.36015C4.84029 3.4326 4.77512 3.47077 4.72809 3.48361C4.57257 3.52607 4.49395 3.52426 4.42145 3.4472C4.39862 3.42294 4.37422 3.40099 4.34734 3.38008C4.3404 3.37468 4.33336 3.3694 4.3261 3.36412L4.32825 3.36069L4.32731 3.3546C4.33533 3.36039 4.34308 3.36618 4.35071 3.37212C4.37786 3.39324 4.40252 3.41542 4.42562 3.43998C4.496 3.51478 4.57312 3.51656 4.72676 3.47461C4.77297 3.46199 4.83776 3.42404 4.94126 3.35198L5.00378 3.30749L5.00378 3.30749C5.07951 3.25347 5.20133 3.16657 5.25193 3.13195L5.27413 3.11684C5.53747 2.93862 5.63794 2.89256 5.81902 2.83899C5.83645 2.83383 5.84918 2.82977 5.86166 2.82526C5.88107 2.81824 5.89876 2.81044 5.91695 2.80064C6.05644 2.72558 6.22459 2.86032 6.26981 3.02059C6.2909 3.09537 6.32167 3.17844 6.37049 3.29644L6.38764 3.33723L6.38765 3.33727L6.38769 3.33735L6.38781 3.33764L6.38783 3.33769L6.38789 3.33783L6.3879 3.33786C6.41937 3.41261 6.48391 3.56591 6.50759 3.62446C6.66159 4.00519 6.74733 4.31538 6.77047 4.66038C6.72285 4.89288 6.5744 5.12441 6.43503 5.15692ZM4.32012 3.34947L4.32731 3.3546L4.32715 3.35359C4.32481 3.35205 4.32246 3.35067 4.32012 3.34947ZM4.2956 3.34291C4.30374 3.34308 4.31193 3.34525 4.32012 3.34947C4.30772 3.3407 4.29455 3.33186 4.28002 3.32246L4.2428 3.29886L4.24263 3.29695C4.2369 3.29343 4.2313 3.29047 4.22581 3.2881L4.21269 3.2798C4.17018 3.25255 4.14114 3.2309 4.11769 3.20709L4.1177 3.20661L4.11299 3.20221L4.11769 3.20709L4.11754 3.21409L4.1153 3.21612C4.11335 3.21417 4.11144 3.21221 4.10956 3.21022L4.1096 3.21019C4.11095 3.21134 4.11228 3.21258 4.11359 3.21392L4.11375 3.20644L4.1096 3.21019C4.10947 3.21007 4.10934 3.20996 4.1092 3.20985C4.10445 3.20481 4.0999 3.19966 4.09549 3.19432L4.09313 3.19141C4.04969 3.17988 4 3.23962 3.97178 3.33577L3.97679 3.34129L4.1153 3.21612C4.13686 3.23769 4.16297 3.25754 4.19932 3.28132C4.14643 3.27799 4.102 3.34178 4.04524 3.50505L4.05038 3.51061L4.24063 3.30762L4.27711 3.33074L4.2956 3.34291ZM4.31734 3.35785C4.31037 3.35293 4.30316 3.34797 4.2956 3.34291C4.2353 3.34161 4.17791 3.44968 4.14351 3.64207L4.14937 3.64612L4.3261 3.36412L4.32 3.35974L4.32022 3.35939L4.32423 3.36185L4.32313 3.35475L4.32022 3.35939L4.31734 3.35785ZM4.15364 3.62519C4.19219 3.42485 4.25563 3.32695 4.31734 3.35785L4.32 3.35974L4.15364 3.62519ZM4.15364 3.62519L4.15011 3.64423L4.14425 3.64018L4.15364 3.62519ZM4.23377 3.30327L4.24063 3.30762L4.24333 3.30474L4.2428 3.29886L4.2338 3.29315L4.22581 3.2881C4.2167 3.28417 4.2079 3.28186 4.19932 3.28132L4.2098 3.28811L4.22338 3.2967C4.16412 3.27155 4.11888 3.3201 4.05761 3.49123L4.04621 3.50339L4.05136 3.50895L4.05761 3.49123L4.23377 3.30327ZM4.23469 3.30228C4.23086 3.30014 4.22709 3.29827 4.22338 3.2967L4.231 3.30152L4.23377 3.30327L4.23469 3.30228ZM4.23469 3.30228L4.23985 3.30531L4.23915 3.29752L4.23469 3.30228ZM3.98235 3.32518L4.10956 3.21022C4.10944 3.2101 4.10932 3.20998 4.1092 3.20985C4.06851 3.17571 4.01437 3.22761 3.98235 3.32518ZM3.98235 3.32518L3.973 3.33363L3.97802 3.33915C3.97941 3.33439 3.98086 3.32974 3.98235 3.32518Z" fill="black"/>
<path fill-rule="evenodd" clip-rule="evenodd" d="M6.22952 4.6563C6.2247 4.79193 6.22637 4.8649 6.24239 4.98649L6.23794 4.99162C6.23283 4.98917 6.22623 4.98625 6.21937 4.9832C6.20912 4.97866 6.19829 4.97385 6.19099 4.97002C6.17877 4.8634 6.17776 4.79701 6.1822 4.67183L6.18311 4.64583C6.18846 4.48498 6.17902 4.37725 6.13227 4.18521C6.07592 3.95344 6.03273 3.63709 6.03409 3.47184L6.07898 3.46021C6.08005 3.62012 6.12309 3.93546 6.17926 4.16626C6.22628 4.35947 6.23581 4.46833 6.23042 4.63026L6.22952 4.6563ZM6.24018 4.98298L6.23573 4.98811C6.23539 4.98553 6.23505 4.98297 6.23473 4.98044C6.23667 4.98132 6.2385 4.98217 6.24018 4.98298ZM6.19499 4.96483C6.20361 4.9672 6.22163 4.97448 6.23473 4.98044C6.21953 4.86259 6.21802 4.78925 6.22275 4.65587L6.22366 4.62985C6.22902 4.46899 6.21958 4.36123 6.17283 4.16914C6.11646 3.93749 6.07329 3.62123 6.07653 3.46466L6.0384 3.47622C6.03947 3.636 6.08254 3.95143 6.13868 4.18234C6.18571 4.3755 6.19525 4.48433 6.18985 4.64625L6.18895 4.67228C6.18452 4.7969 6.18552 4.86273 6.19499 4.96483Z" fill="black"/>
<path fill-rule="evenodd" clip-rule="evenodd" d="M5.44076 3.00635C5.40288 3.02839 5.40318 3.10653 5.4338 3.22824C5.45829 3.32557 5.50167 3.44785 5.55383 3.57275L5.56003 3.56926L5.44535 3.00934L5.44076 3.00635ZM5.99654 4.81535C6.0015 4.85434 6.00386 4.90103 6.00351 4.94851L6.00082 4.95296L5.98925 4.95627C5.97232 4.96117 5.95314 4.96672 5.93823 4.9684C5.89753 4.676 5.88835 4.39359 5.90297 4.11504C5.90865 4.00728 5.90375 3.92841 5.88742 3.78778C5.88065 3.72945 5.87972 3.72129 5.87732 3.69714C5.87199 3.6435 5.86945 3.59897 5.87316 3.54967L5.95083 3.55532C5.95046 3.63831 5.96743 3.82916 5.98528 3.96801C5.9949 3.9611 6.0084 3.95922 6.02964 3.95974L6.03833 3.96003C6.05815 3.96076 6.06576 3.9605 6.0727 3.958C6.08068 3.95513 6.08335 3.94993 6.08145 3.93919L6.08801 3.93697L6.08802 3.93706L6.0815 3.93927L6.08519 3.95887C6.08276 3.96253 6.07915 3.9652 6.07448 3.96688C6.06663 3.9697 6.05879 3.96997 6.03818 3.96921L6.02956 3.96893C6.00633 3.96835 5.99307 3.97083 5.9849 3.97921L5.97954 3.97635C5.96131 3.8365 5.94373 3.64031 5.94745 3.55989L5.87655 3.55431C5.87625 3.59857 5.87877 3.64269 5.88406 3.69593C5.88645 3.71997 5.88738 3.72812 5.89414 3.78636C5.91054 3.92763 5.91548 4.00709 5.90975 4.1157C5.89517 4.3935 5.90433 4.67513 5.94064 4.96315C5.95437 4.95771 5.9779 4.95012 5.99681 4.94474L5.99679 4.94843L5.99949 4.94398L5.99681 4.94474C5.99701 4.89905 5.99475 4.85418 5.99246 4.81168L5.99621 4.81057L5.99654 4.81535ZM5.98723 4.67927L5.98594 4.68023L5.98085 4.67726C5.97877 4.66359 5.97695 4.64967 5.9754 4.63546C5.96677 4.55664 5.96626 4.49014 5.97004 4.36026C5.97388 4.22818 5.97326 4.18129 5.96585 4.12497C5.98073 4.11944 5.99879 4.11801 6.02396 4.11915L6.04456 4.12041C6.07607 4.12263 6.08711 4.12277 6.09784 4.11995C6.11057 4.11661 6.11481 4.10961 6.11179 4.09533C6.10807 4.07948 6.10273 4.05244 6.09454 4.00886L6.09359 4.0038C6.09402 4.00604 6.08901 3.97924 6.08519 3.95887C6.08847 3.95392 6.0896 3.94715 6.0883 3.93851C6.09112 3.9534 6.1007 4.00466 6.10011 4.00152L6.10106 4.00658C6.10921 4.04997 6.11453 4.07693 6.11822 4.09267C6.1225 4.11288 6.11536 4.12467 6.09908 4.12895C6.08757 4.13198 6.07638 4.13183 6.04417 4.12957L6.0237 4.12831C6.0085 4.12762 5.996 4.12789 5.98592 4.12811H5.98591H5.98591H5.9859H5.9859H5.98589H5.98589H5.98588C5.9797 4.12824 5.97442 4.12836 5.96998 4.12822C5.98001 4.1802 5.98062 4.22747 5.97675 4.36061C5.97299 4.48994 5.9735 4.55603 5.98205 4.63411C5.98337 4.64616 5.98487 4.658 5.98658 4.66965L5.98723 4.67927ZM6.18107 4.70762C6.1798 4.75832 6.17924 4.80034 6.18001 4.81615C6.18077 4.83097 6.1745 4.83671 6.15899 4.83632C6.14647 4.836 6.14016 4.8344 6.09758 4.82206C6.0837 4.81804 6.07382 4.81539 6.06393 4.81316C6.03635 4.80694 6.01446 4.80565 5.99621 4.81057L5.98723 4.67927C5.99738 4.67263 6.01975 4.67731 6.07779 4.69494L6.08166 4.69611C6.11714 4.70686 6.13568 4.71156 6.15217 4.71298C6.1652 4.71411 6.17499 4.71254 6.18107 4.70762ZM6.18107 4.70762L6.18152 4.6904L6.18823 4.69072L6.18827 4.69074C6.18806 4.69841 6.1856 4.70395 6.18107 4.70762ZM6.0883 3.93851L6.08802 3.93706L6.08806 3.93705L6.0883 3.93851ZM5.43995 3.01711L5.43886 3.01178L5.44345 3.01477L5.43995 3.01711ZM5.54599 3.53487C5.50018 3.42216 5.46237 3.3133 5.44022 3.22527C5.4118 3.11229 5.41049 3.03947 5.43995 3.01711L5.54599 3.53487ZM5.54599 3.53487L5.55974 3.56822L5.55354 3.57171L5.54599 3.53487ZM5.55583 3.63263C5.52402 3.65412 5.49222 3.673 5.46045 3.68906L5.4627 3.69895L5.46249 3.69905L5.46024 3.68915L5.55593 3.63254L5.55848 3.64226L5.55838 3.64233L5.55583 3.63263ZM5.55814 3.64249L5.55838 3.64233L5.55839 3.64235L5.55814 3.64249ZM5.55814 3.64249L5.46284 3.69888C5.49459 3.6828 5.52636 3.66395 5.55814 3.64249ZM5.46284 3.69888L5.4627 3.69895L5.4627 3.69896L5.46284 3.69888ZM4.98444 3.79743C4.96001 3.8061 4.93625 3.81559 4.91296 3.82597L4.91474 3.8361L4.91493 3.83603L4.91493 3.83606C4.91516 3.83596 4.91538 3.83586 4.91561 3.83576L4.98534 3.8079C4.98558 3.80782 4.98581 3.80774 4.98605 3.80765L4.98445 3.79745L4.98444 3.79746L4.98444 3.79743ZM4.98444 3.79746L4.91316 3.82593L4.91493 3.83603L4.91561 3.83576C4.93833 3.82565 4.96152 3.81638 4.98534 3.8079L4.98603 3.80763L4.98444 3.79746Z" fill="black"/>
<path fill-rule="evenodd" clip-rule="evenodd" d="M5.19206 3.70018C5.45087 3.66516 5.70501 3.50725 5.80967 3.30221L5.81578 3.30404L5.8239 3.3762C5.76859 3.48046 5.6755 3.572 5.56034 3.6354C5.56007 3.6343 5.56503 3.65464 5.56657 3.66078C5.56919 3.6712 5.57157 3.68013 5.57405 3.68865C5.59473 3.75964 5.61919 3.78925 5.65543 3.76599C5.64622 3.77174 5.63676 3.77734 5.62702 3.78282C5.60236 3.77887 5.5836 3.74638 5.56776 3.69202C5.56524 3.68336 5.56282 3.67429 5.56017 3.66374C5.55862 3.65756 5.55365 3.63718 5.55579 3.63265C5.67177 3.5642 5.7639 3.47361 5.81782 3.3743L5.81049 3.31649C5.8121 3.31348 5.81368 3.31046 5.81523 3.30744L5.80911 3.3056L5.81049 3.31649C5.7018 3.51963 5.44953 3.67457 5.19273 3.70931C4.94444 3.74291 4.75413 3.84224 4.56928 4.00166C4.56158 3.98284 4.55233 3.97175 4.52907 3.94977L4.52898 3.94968C4.52282 3.94386 4.52004 3.9412 4.51667 3.93779C4.42306 3.84372 4.38023 3.72527 4.38646 3.61564C4.39081 3.53903 4.42021 3.48187 4.45407 3.47614C4.46037 3.48071 4.46689 3.48478 4.47392 3.48848L4.47392 3.48847L4.47634 3.47991C4.46884 3.47606 4.46135 3.47491 4.45407 3.47614C4.44795 3.47171 4.44205 3.46681 4.43611 3.46134C4.43052 3.45619 4.4157 3.44116 4.41136 3.43677C4.41065 3.43605 4.41023 3.43561 4.41017 3.43555C4.37747 3.40267 4.31078 3.53606 4.3191 3.67692C4.3191 3.67692 4.3191 3.67693 4.3191 3.67693C4.32287 3.74071 4.36278 3.84368 4.4041 3.90662L4.40097 3.91418C4.3326 3.89729 4.3002 3.87306 4.26164 3.8017C4.2815 3.78493 4.30786 3.77352 4.33216 3.76998L4.33398 3.77573L4.33409 3.77548L4.33684 3.76939C4.33532 3.76955 4.33379 3.76974 4.33226 3.76996C4.33223 3.76997 4.33219 3.76997 4.33216 3.76998L4.32718 3.7542C4.32234 3.73866 4.31878 3.72501 4.31689 3.71191C4.31543 3.70177 4.31497 3.69197 4.31571 3.68189C4.31469 3.68188 4.31368 3.68188 4.31266 3.6819C4.2797 3.68251 4.24191 3.69892 4.20646 3.72723L4.19067 3.70618C4.18119 3.69369 4.15661 3.66206 4.13938 3.6399C4.13089 3.62898 4.12419 3.62035 4.12197 3.61747C4.05571 3.53118 4.01813 3.47049 3.99001 3.39534C3.95284 3.29589 3.94842 3.20531 3.97448 3.15803C3.99185 3.12652 4.01932 3.12 4.0504 3.13879C4.05412 3.14338 4.05777 3.14789 4.0613 3.15225C4.06756 3.15997 4.07342 3.1672 4.07854 3.17352C4.03756 3.12849 4.00043 3.12625 3.9799 3.16352C3.95567 3.20748 3.95991 3.29452 3.99604 3.39118C4.02374 3.4652 4.06089 3.52521 4.12666 3.61085C4.12886 3.61371 4.13552 3.62229 4.14399 3.63318C4.16121 3.65533 4.18586 3.68705 4.19538 3.69959C4.20091 3.70687 4.20616 3.71387 4.20695 3.72018C4.23836 3.69123 4.27597 3.67438 4.31229 3.67633M4.08328 3.16696C4.07207 3.1546 4.06103 3.14521 4.0504 3.13879C4.02408 3.10631 3.99455 3.06993 3.9836 3.05701C3.94728 3.01418 3.91995 2.98696 3.89352 2.96869C3.8879 2.96481 3.88234 2.96135 3.87681 2.95832C3.79829 2.91517 3.7155 3.02335 3.75449 3.18183C3.79778 3.35794 3.85289 3.45893 3.98021 3.63281L3.98962 3.64564C4.11248 3.81337 4.16392 3.90488 4.20613 4.06349C4.23474 4.17115 4.26524 4.24168 4.30379 4.27804C4.34966 4.3213 4.40612 4.3135 4.47754 4.24594L4.50175 4.22332L4.50205 4.22304L4.52121 4.20493C4.57566 4.16223 4.64237 4.23347 4.64501 4.34919C4.64294 4.35689 4.64061 4.36491 4.63803 4.37329L4.64452 4.37543C4.64505 4.36646 4.6452 4.35771 4.64501 4.34919C4.66296 4.28241 4.6617 4.24016 4.6451 4.19396C4.64196 4.18522 4.63827 4.17616 4.63318 4.16448C4.63309 4.16427 4.63299 4.16403 4.63287 4.16377C4.63022 4.15769 4.62154 4.13782 4.62343 4.1339C4.61483 4.14011 4.60788 4.13512 4.60299 4.122C4.59964 4.11301 4.59742 4.10223 4.59389 4.08052L4.59303 4.07523C4.58855 4.04765 4.58567 4.03603 4.58172 4.03246L4.58181 4.02474C4.68626 3.93665 4.79179 3.86998 4.91724 3.82632C4.92372 3.90822 4.94006 3.94993 4.97356 3.94233C4.98955 3.93751 5.00516 3.93317 5.02075 3.92924C5.0276 3.93352 5.03553 3.93476 5.04465 3.93284C5.0215 3.93808 4.99868 3.94415 4.97486 3.95132C4.93549 3.96026 4.91738 3.91404 4.91482 3.83121C4.79573 3.87797 4.69182 3.94329 4.58907 4.02942C4.59303 4.03638 4.59567 4.04886 4.59963 4.07325L4.60049 4.07853C4.60389 4.09944 4.60602 4.10981 4.60902 4.11786C4.6124 4.1269 4.61557 4.12918 4.62475 4.12751L4.63901 4.15981C4.64418 4.17168 4.64794 4.18094 4.65117 4.18993C4.6706 4.24397 4.67 4.29331 4.64427 4.37683L4.63778 4.37469C4.64511 4.25049 4.57776 4.17117 4.52486 4.21263L4.50587 4.2306L4.50557 4.23088L4.4814 4.25346C4.40785 4.32304 4.34838 4.33126 4.29993 4.28557C4.25992 4.24783 4.22882 4.17592 4.19977 4.0666C4.15799 3.90958 4.10703 3.81895 3.98482 3.65211L3.97542 3.63927C3.84742 3.46447 3.79178 3.3625 3.74808 3.18473C3.70728 3.01889 3.79544 2.9037 3.87935 2.94981C3.88506 2.95295 3.89079 2.95651 3.89659 2.96051C3.92361 2.97919 3.95134 3.00681 3.98803 3.05008C4.0006 3.06491 4.03743 3.11037 4.06595 3.14558C4.07225 3.15336 4.07815 3.16063 4.08328 3.16696ZM5.04533 3.93268C5.04511 3.93273 5.04488 3.93279 5.04465 3.93284C5.04488 3.93279 5.04511 3.93274 5.04534 3.93269L5.04533 3.93268ZM5.04422 3.92364C5.03637 3.92541 5.02856 3.92727 5.02075 3.92924C4.99867 3.91544 4.98783 3.87006 4.98441 3.79745C5.05096 3.77671 5.12122 3.76202 5.19563 3.75376C5.28471 3.74384 5.37575 3.71926 5.4647 3.68506C5.48544 3.7831 5.51055 3.83896 5.54355 3.82398C5.57344 3.81099 5.60118 3.79736 5.62702 3.78282C5.63586 3.78423 5.64546 3.78198 5.65596 3.77575C5.62265 3.79636 5.58607 3.81512 5.54566 3.83269C5.50669 3.85038 5.48015 3.79132 5.46249 3.69069C5.37734 3.72821 5.28578 3.75293 5.19619 3.7629C5.12209 3.77112 5.05215 3.78575 4.98853 3.80143C4.99524 3.8871 5.01107 3.93116 5.04422 3.92363L5.04422 3.92364ZM5.04422 3.92364C5.04422 3.92364 5.04422 3.92364 5.04422 3.92364L5.04533 3.93268L5.04422 3.92364ZM4.08328 3.16696C4.08887 3.17313 4.0945 3.18003 4.10013 3.18767L4.09549 3.19434C4.0923 3.19047 4.08626 3.18304 4.07854 3.17352C4.08408 3.17961 4.0897 3.18649 4.09535 3.19415L4.1 3.18749C4.09685 3.18367 4.0909 3.17635 4.08328 3.16696ZM5.65596 3.77575C5.65681 3.77522 5.65766 3.77469 5.65851 3.77416L5.65564 3.76586C5.65566 3.76585 5.65567 3.76584 5.65568 3.76583L5.65855 3.77414C5.65768 3.7747 5.65682 3.77524 5.65596 3.77575ZM5.65564 3.76586C5.65557 3.7659 5.6555 3.76594 5.65543 3.76599C5.6555 3.76594 5.65557 3.7659 5.65564 3.76585L5.65564 3.76586ZM4.39269 3.90269C4.37101 3.86747 4.35024 3.82254 4.33521 3.77878C4.31126 3.78177 4.28482 3.79274 4.26603 3.80266C4.30249 3.86242 4.3323 3.88629 4.39269 3.90269Z" fill="black"/>
<path fill-rule="evenodd" clip-rule="evenodd" d="M6.38194 5.34281C6.33737 5.58838 6.38977 5.86538 6.51011 6.01399L6.51003 6.02086C6.34383 6.21485 6.16828 6.36668 5.983 6.48889C5.92856 6.52479 5.88213 6.56506 5.83142 6.61764C5.81885 6.63068 5.8064 6.64403 5.79031 6.66162C5.79177 6.66002 5.7597 6.6952 5.75085 6.70479C5.71124 6.74769 5.68172 6.77659 5.64993 6.80188C5.8339 6.8442 6.04315 7.07466 6.18322 7.37648C6.34897 7.73349 6.51386 7.90869 6.78218 8.0902C6.93132 8.19119 6.92361 8.3216 6.80364 8.51458C6.72376 8.64307 6.692 8.74689 6.64566 8.97873C6.59518 9.23129 6.56002 9.34325 6.4666 9.48626C6.38114 9.61712 6.26362 9.57117 6.25101 9.44951C6.24652 9.40599 6.24912 9.35676 6.25837 9.28821C6.26252 9.25746 6.27946 9.15214 6.28782 9.1001L6.28782 9.1001L6.28782 9.1001L6.28782 9.1001L6.29243 9.07135C6.29353 9.06418 6.29448 9.05721 6.29527 9.05023C6.29513 9.05993 6.29619 9.06905 6.29834 9.07753L6.29437 9.10231C6.28599 9.15445 6.26913 9.25932 6.26501 9.28987C6.25587 9.35754 6.25332 9.40589 6.25769 9.44824C6.26948 9.56208 6.37985 9.60524 6.46152 9.48018C6.55406 9.3385 6.58889 9.22763 6.63912 8.97633C6.6857 8.74329 6.71777 8.63846 6.79846 8.50867C6.91601 8.31957 6.92332 8.19604 6.77914 8.09841C6.50982 7.91622 6.34399 7.74004 6.17748 7.38138C6.03595 7.0764 5.82341 6.8449 5.63943 6.80894L5.63825 6.80041C5.67296 6.7738 5.70382 6.74397 5.74661 6.69763C5.75544 6.68806 5.7875 6.6529 5.78605 6.65448C5.80218 6.63685 5.81467 6.62345 5.8273 6.61036C5.87834 6.55743 5.92514 6.51684 5.98002 6.48064C6.16374 6.35947 6.33784 6.20911 6.50272 6.01727L6.50554 6.02078L6.50561 6.01391L6.50272 6.01727C6.38246 5.86548 6.33057 5.58744 6.37606 5.34469C6.28821 5.20431 6.06884 5.1463 5.90004 5.20506C5.73766 5.36082 5.60245 5.56033 5.47416 5.81498C5.43884 5.8851 5.3674 6.04575 5.29786 6.20212C5.22561 6.36458 5.15541 6.52243 5.12992 6.56932C5.1219 6.58407 5.11401 6.59793 5.10622 6.61096C5.02868 6.74058 5.02681 6.99965 5.14123 7.12256C5.14658 7.1283 5.15175 7.1341 5.15681 7.14002C5.17228 7.15812 5.18632 7.17683 5.20285 7.20085L5.22235 7.22981C5.23537 7.24923 5.25105 7.27259 5.25819 7.28292C5.28301 7.31883 5.30775 7.35195 5.33737 7.3881C5.4138 7.48141 5.51725 7.58759 5.66396 7.71933C5.7386 7.78635 5.97337 7.98673 5.9722 7.98571C6.07597 8.07618 6.13476 8.13511 6.16735 8.18529C6.27214 8.34653 6.31039 8.44008 6.29744 8.5638C6.29209 8.615 6.29051 8.66044 6.29205 8.71737L6.28884 8.71657L6.28539 8.72076C6.28369 8.66188 6.28526 8.61525 6.29077 8.5625C6.30333 8.4424 6.26582 8.35064 6.1623 8.19135C6.13027 8.14203 6.07179 8.08341 5.96856 7.99342C5.9698 7.99449 5.73497 7.79407 5.66024 7.72697C5.51328 7.595 5.40957 7.48855 5.33286 7.39491C5.3031 7.35858 5.27822 7.32528 5.25328 7.28919C5.24609 7.2788 5.23037 7.25537 5.21734 7.23595L5.21731 7.2359L5.21731 7.23589L5.2173 7.23588L5.19793 7.2071C5.18155 7.1833 5.16767 7.16482 5.15241 7.14696C5.14742 7.14113 5.14232 7.13541 5.13705 7.12975C5.01936 7.00332 5.02127 6.73844 5.10099 6.60517C5.10871 6.59226 5.11653 6.57851 5.12449 6.56387C5.1498 6.51733 5.21966 6.36022 5.29173 6.19817C5.36139 6.04154 5.4331 5.88028 5.4686 5.8098C5.59731 5.55431 5.73304 5.35402 5.89727 5.19687C6.06946 5.13661 6.29148 5.19533 6.38194 5.34281ZM6.28574 8.73169L6.28539 8.72076L6.28486 8.72141C6.28505 8.72492 6.28534 8.72835 6.28574 8.73169ZM6.29385 8.76384C6.28987 8.75418 6.28715 8.74345 6.28574 8.73169C6.28684 8.7635 6.28884 8.79901 6.29162 8.84091L6.29209 8.84789L6.29098 8.84902C6.29159 8.85748 6.29249 8.8655 6.29371 8.87311C6.29897 8.95688 6.30008 9.00026 6.29627 9.04067L6.29576 9.04105C6.29548 9.04416 6.29532 9.04722 6.29527 9.05023L6.29627 9.04067L6.30061 9.03749L6.30321 9.03923C6.30292 9.04244 6.3026 9.04563 6.30226 9.04881L6.30211 9.04872C6.30218 9.04656 6.30231 9.04438 6.3025 9.04216L6.29765 9.04572L6.30211 9.04872C6.3021 9.04928 6.30209 9.04985 6.30208 9.05041C6.30124 9.05794 6.30022 9.06547 6.29903 9.07323L6.29834 9.07753C6.31271 9.13434 6.3757 9.16285 6.45111 9.14786L6.45212 9.13921L6.30321 9.03923C6.30626 9.00496 6.30587 8.96825 6.30251 8.9074C6.32673 8.97144 6.3897 8.99186 6.52251 8.97689L6.52349 8.96806L6.29873 8.84602L6.29834 8.84009C6.29648 8.81206 6.29497 8.78692 6.29385 8.76384ZM6.29246 8.73058L6.29385 8.76384C6.32322 8.83528 6.42086 8.84866 6.56078 8.79293L6.56044 8.78402L6.29205 8.71737L6.29233 8.72677L6.29203 8.7267L6.29159 8.72076L6.28761 8.7256L6.29203 8.7267L6.29246 8.73058ZM6.54493 8.78951C6.3977 8.84441 6.30346 8.81872 6.29246 8.73058L6.29233 8.72677L6.54493 8.78951ZM6.54493 8.78951L6.55886 8.78414L6.5592 8.79305L6.54493 8.78951ZM6.2994 8.85626L6.29873 8.84602L6.2956 8.84432L6.29209 8.84789L6.29371 8.87311C6.29573 8.88569 6.29862 8.89711 6.30251 8.9074L6.30036 8.87127C6.31376 8.95381 6.36737 8.98286 6.50752 8.96926L6.52099 8.97658L6.52197 8.96775L6.50752 8.96926L6.2994 8.85626ZM6.29836 8.85569C6.29889 8.86108 6.29955 8.86627 6.30036 8.87127L6.2994 8.85626L6.29836 8.85569ZM6.29836 8.85569L6.29772 8.84813L6.2931 8.85283L6.29836 8.85569ZM6.4391 9.14069L6.30226 9.04881C6.3022 9.04934 6.30214 9.04988 6.30208 9.05041C6.3013 9.11466 6.3613 9.15188 6.4391 9.14069ZM6.4391 9.14069L6.44916 9.14745L6.45017 9.1388C6.44644 9.13954 6.44275 9.14017 6.4391 9.14069Z" fill="black"/>
<path fill-rule="evenodd" clip-rule="evenodd" d="M6.15713 5.84032C6.25636 5.77092 6.29761 5.73672 6.36948 5.65448L6.37498 5.65715C6.37596 5.66432 6.37744 5.6737 6.37897 5.68348C6.3812 5.69766 6.38355 5.71269 6.38476 5.72306C6.32059 5.79317 6.28322 5.82344 6.19072 5.88816L6.17167 5.90158C6.07461 5.97072 6.009 6.03866 5.91316 6.18449C5.79343 6.36665 5.61313 6.57554 5.50694 6.65653L5.47705 6.60963C5.57857 6.5285 5.75833 6.32022 5.87755 6.13875C5.97399 5.992 6.04026 5.9234 6.13809 5.85374L6.15713 5.84032ZM6.3683 5.65882L6.3738 5.66149C6.37233 5.66318 6.37086 5.66485 6.36941 5.6665C6.369 5.66376 6.36863 5.66118 6.3683 5.65882ZM6.36941 5.6665C6.29974 5.7457 6.25781 5.7802 6.1602 5.84847L6.1412 5.86186C6.04407 5.93102 5.97845 5.99895 5.88256 6.14485C5.7629 6.32699 5.58262 6.53588 5.48107 6.61026L5.50753 6.64926C5.60902 6.56814 5.78879 6.35987 5.90808 6.17838C6.00448 6.0317 6.07074 5.96309 6.1685 5.89345L6.18759 5.88C6.27972 5.81555 6.31676 5.78553 6.3794 5.72095C6.37659 5.70966 6.37215 5.68464 6.36941 5.6665Z" fill="black"/>
<path fill-rule="evenodd" clip-rule="evenodd" d="M6.38311 6.0288C6.40553 6.00348 6.43416 5.97736 6.46458 5.95405L6.46877 5.955L6.47675 5.96704C6.48822 5.98427 6.50144 6.00413 6.50999 6.02083C6.34379 6.21481 6.16824 6.36665 5.98296 6.48885C5.92852 6.52476 5.88209 6.56502 5.83138 6.61761C5.81881 6.63064 5.80636 6.644 5.79027 6.66158C5.79173 6.65998 5.75965 6.69517 5.7508 6.70476C5.70776 6.75138 5.67663 6.78146 5.63694 6.80661L5.60171 6.71252C5.65496 6.67138 5.76852 6.55577 5.84788 6.46566C5.83832 6.45758 5.83028 6.44205 5.81911 6.41433L5.81285 6.3987C5.81049 6.39288 5.80861 6.3884 5.8068 6.38441C5.79673 6.36211 5.79 6.35665 5.78194 6.36648L5.79238 6.35266C5.79907 6.35482 5.80563 6.36418 5.8126 6.37961C5.81447 6.38375 5.8164 6.38834 5.8188 6.39428L5.82507 6.40993C5.83725 6.44016 5.84545 6.45492 5.85527 6.46053L5.85614 6.46827C5.77634 6.55932 5.65966 6.67833 5.60635 6.71425L5.63826 6.80036C5.67297 6.77376 5.70383 6.74393 5.74662 6.69758C5.75545 6.68802 5.78751 6.65285 5.78606 6.65443C5.80219 6.6368 5.81468 6.6234 5.82731 6.61031C5.87835 6.55738 5.92515 6.51679 5.98003 6.4806C6.16482 6.35872 6.33988 6.20731 6.50548 6.02066C6.49507 6.00715 6.47824 5.98304 6.46557 5.96386L6.46794 5.96204L6.46375 5.96109L6.46557 5.96386C6.43637 5.98645 6.40885 6.01156 6.38285 6.03548C6.36739 6.01338 6.35568 5.98125 6.34346 5.93342L6.33449 5.89655L6.32645 5.86353C6.32037 5.83991 6.31532 5.82516 6.30997 5.81663C6.3044 5.80774 6.29906 5.80643 6.29196 5.81296C6.28215 5.82172 6.25304 5.84354 6.22211 5.86587C6.2175 5.86239 6.21273 5.86225 6.20771 5.86584L6.21086 5.87394L6.21083 5.87396L6.20768 5.86584C6.24229 5.84107 6.27748 5.81488 6.28817 5.80533C6.29821 5.79612 6.30736 5.79836 6.31509 5.81069C6.32114 5.82035 6.32646 5.83586 6.3328 5.86051L6.34093 5.8939L6.34982 5.93042C6.36174 5.9771 6.37311 6.00827 6.38311 6.0288ZM6.21125 5.87368L6.22211 5.86587C6.22836 5.8706 6.23431 5.88149 6.24018 5.89765C6.24754 5.91793 6.25373 5.94187 6.2648 5.98983C6.27234 6.02247 6.27249 6.02313 6.27524 6.03444C6.28616 6.07929 6.29452 6.10328 6.30219 6.10886L6.30284 6.11633C6.26955 6.15658 6.23157 6.19233 6.18519 6.2289C6.166 6.24403 6.1187 6.27833 6.08369 6.30372L6.08368 6.30372L6.08367 6.30373L6.08367 6.30373C6.06431 6.31777 6.0487 6.32909 6.04371 6.33291C6.00685 6.36116 5.98136 6.38497 5.95787 6.41011C5.94598 6.39413 5.93559 6.37203 5.92214 6.33707L5.91821 6.32673L5.90571 6.29391C5.89977 6.27885 5.89502 6.2683 5.89052 6.26056C5.88115 6.24447 5.87407 6.2421 5.86598 6.25346C5.85747 6.26614 5.84243 6.2865 5.81716 6.31993L5.81635 6.32099C5.81936 6.31702 5.80399 6.3373 5.79238 6.35266C5.78735 6.35103 5.78224 6.35346 5.77682 6.36044L5.78151 6.36702L5.78145 6.3671L5.77675 6.3605C5.78357 6.35142 5.81601 6.30859 5.81157 6.31446L5.8124 6.31336C5.83757 6.28008 5.85257 6.25977 5.86102 6.24719C5.87252 6.23104 5.88418 6.23493 5.89579 6.25487C5.9006 6.26314 5.90553 6.27409 5.91164 6.28959L5.92424 6.32266L5.9281 6.33283C5.93811 6.35884 5.94635 6.3775 5.95258 6.39159L5.95784 6.40359C5.97709 6.37776 6.00301 6.35354 6.04035 6.32493C6.04542 6.32105 6.06116 6.30963 6.08065 6.29549C6.11565 6.27012 6.16271 6.23599 6.18176 6.22097C6.22632 6.18584 6.26301 6.15152 6.29516 6.11326C6.28673 6.10296 6.27892 6.07895 6.26879 6.03732C6.26602 6.02595 6.26587 6.02529 6.25832 5.99258C6.24736 5.9451 6.24123 5.9214 6.23408 5.90171C6.22558 5.87829 6.21812 5.86933 6.21125 5.87368ZM6.21125 5.87368L6.21086 5.87394L6.21087 5.87395L6.21125 5.87368ZM5.78151 6.36702L5.78194 6.36648L5.78152 6.36704L5.78151 6.36702ZM5.50637 7.58639C5.5394 7.61987 5.58913 7.58046 5.65151 7.48365C5.7014 7.40621 5.75777 7.29408 5.81135 7.17043L5.80603 7.16489L5.50598 7.5795L5.50637 7.58639ZM5.51368 7.58197L5.51082 7.58591L5.51043 7.57902L5.51368 7.58197ZM5.64644 7.47759C5.58854 7.56746 5.5427 7.60539 5.51368 7.58197L5.79114 7.19856C5.74215 7.30868 5.69157 7.40755 5.64644 7.47759ZM5.79114 7.19856L5.80554 7.16577L5.81087 7.1713L5.79114 7.19856ZM5.8488 7.1381C5.87666 7.166 5.9031 7.19514 5.92795 7.22553L5.93228 7.21866L5.93233 7.21872L5.92793 7.22569L5.84853 7.13798L5.85267 7.13073L5.85289 7.13095L5.8488 7.1381ZM5.85442 7.13249L5.85289 7.13095L5.85294 7.13086L5.85442 7.13249ZM5.85442 7.13249L5.9308 7.21685C5.90675 7.18758 5.88125 7.15946 5.85442 7.13249ZM5.9308 7.21685L5.93228 7.21866L5.93235 7.21856L5.9308 7.21685ZM6.29587 7.80437C6.29598 7.8045 6.29608 7.80463 6.29619 7.80477L6.3014 7.79773L6.30135 7.79766C6.30139 7.79771 6.30143 7.79776 6.30147 7.79781L6.29624 7.80486L6.29587 7.80437ZM6.23981 7.72807L6.29587 7.80437C6.27756 7.78081 6.259 7.75553 6.23981 7.72807ZM6.23957 7.72772C6.23965 7.72784 6.23973 7.72795 6.23981 7.72807L6.23956 7.72773L6.23957 7.72772ZM6.24493 7.72087L6.23957 7.72772C6.23955 7.72769 6.23952 7.72765 6.2395 7.72762L6.24486 7.72077L6.24493 7.72087ZM6.24493 7.72087L6.24493 7.72087C6.24498 7.72093 6.24503 7.721 6.24508 7.72107L6.24493 7.72087ZM6.24508 7.72107L6.30135 7.79766C6.28297 7.77403 6.26435 7.74867 6.24508 7.72107Z" fill="black"/>
<path fill-rule="evenodd" clip-rule="evenodd" d="M5.51323 7.00395L5.51135 6.99584C5.51406 6.99615 5.51678 6.99649 5.51951 6.99688L5.51323 7.00395ZM5.90828 6.9787C5.91392 6.99635 5.91291 7.01657 5.9061 7.0389C5.8999 7.05923 5.8894 7.08026 5.87429 7.10477C5.86866 7.11389 5.8631 7.12243 5.84865 7.13812C5.74681 7.03599 5.64297 6.97307 5.55272 6.95947L5.51951 6.99688C5.70352 7.02303 5.92851 7.24198 6.07908 7.5264C6.22462 7.80131 6.38312 7.97518 6.57742 8.11279C6.56924 8.13134 6.56679 8.14779 6.56441 8.18627L6.56435 8.18728L6.563 8.20659C6.54975 8.36363 6.49556 8.47317 6.42246 8.52066C6.37144 8.55381 6.32031 8.5479 6.29967 8.51108C6.29944 8.50152 6.29876 8.492 6.29755 8.48147L6.29755 8.48146L6.29088 8.48292C6.29217 8.4937 6.29521 8.50311 6.29967 8.51108C6.30006 8.52692 6.29918 8.54288 6.29731 8.56377L6.29568 8.58289C6.29103 8.63775 6.40952 8.64939 6.49524 8.56919C6.53404 8.53287 6.57976 8.43462 6.59938 8.35449L6.60577 8.3544C6.62911 8.44308 6.62984 8.4933 6.60365 8.5743C6.58304 8.55943 6.5626 8.53419 6.5481 8.50734L6.55086 8.50236L6.55063 8.50235L6.54539 8.50218C6.54625 8.50387 6.54713 8.50556 6.54804 8.50724C6.54806 8.50727 6.54808 8.50731 6.5481 8.50734L6.53796 8.52562C6.53247 8.53522 6.5274 8.54324 6.52178 8.55094C6.51493 8.56032 6.5075 8.56884 6.50011 8.57071C6.50061 8.57191 6.50112 8.5731 6.50164 8.5743C6.50079 8.57515 6.49993 8.57597 6.49908 8.57676C6.49881 8.57702 6.49854 8.57727 6.49827 8.57752C6.49721 8.57478 6.4962 8.57201 6.49524 8.56922C6.5033 8.56165 6.51041 8.55349 6.51698 8.5445C6.52239 8.53709 6.52729 8.52935 6.53262 8.52001L6.54549 8.4968L6.55096 8.49699C6.55136 8.49778 6.55177 8.49858 6.55218 8.49937C6.57259 8.45985 6.59089 8.413 6.60258 8.36988C6.62224 8.44896 6.62191 8.49596 6.60207 8.56868C6.58637 8.55163 6.56617 8.5261 6.55218 8.49937M6.28777 9.10039C6.2889 9.091 6.29046 9.08122 6.29246 9.07108L6.29904 9.07321C6.29857 9.07621 6.29684 9.08698 6.29438 9.10229M6.28777 9.10039C6.27939 9.15253 6.26251 9.25752 6.25836 9.28822C6.24911 9.35677 6.24652 9.40599 6.251 9.44951C6.26361 9.57117 6.38113 9.61713 6.46659 9.48627C6.56001 9.34325 6.59517 9.2313 6.64565 8.97873C6.69199 8.7469 6.72375 8.64308 6.80363 8.51459C6.85887 8.42573 6.8892 8.35327 6.89329 8.28739C6.89824 8.2076 6.86327 8.14182 6.78209 8.09016L6.75537 8.07298L6.75512 8.07282L6.73431 8.05954C6.68138 8.01813 6.69833 7.89931 6.78124 7.84583L6.77936 7.83713C6.70447 7.85019 6.67544 7.87682 6.64644 7.94492C6.644 7.95065 6.63703 7.96769 6.63297 7.97762C6.63148 7.98126 6.63038 7.98394 6.63004 7.98476C6.63547 7.99451 6.63575 7.99897 6.63233 8.00667C6.62916 8.0138 6.6236 8.02178 6.61353 8.03438L6.61045 8.03822C6.59434 8.05822 6.58755 8.06747 6.58515 8.07569C6.47885 7.99803 6.38527 7.9086 6.29585 7.79199C6.34743 7.74776 6.36793 7.70323 6.34247 7.66144C6.32646 7.63778 6.31116 7.61395 6.29596 7.58898C6.29575 7.58862 6.29553 7.58825 6.29531 7.58788L6.29009 7.59372C6.29009 7.59372 6.29009 7.59373 6.2901 7.59373L6.29009 7.59374C6.31152 7.62897 6.29138 7.66948 6.23997 7.72033C6.19826 7.65356 6.15395 7.57866 6.11157 7.49559C6.06046 7.39533 5.99892 7.30014 5.93233 7.21875C5.98778 7.14757 6.01213 7.08699 5.98137 7.04999C5.94999 7.0113 5.91973 6.9777 5.88997 6.94898C5.88919 6.94819 5.88839 6.94742 5.88758 6.94666L5.88371 6.95418C5.88372 6.9542 5.88374 6.95421 5.88375 6.95422L5.88761 6.94671C5.88839 6.94746 5.88918 6.94822 5.88997 6.94898C5.89875 6.95782 5.90479 6.96777 5.90828 6.9787C5.90006 6.97017 5.89188 6.96201 5.88375 6.95422M5.90828 6.9787C5.93066 7.00192 5.95343 7.02791 5.97686 7.0568C6.00292 7.08814 5.97988 7.14545 5.92763 7.21896C5.994 7.30645 6.0552 7.40111 6.10601 7.50079C6.14858 7.58423 6.19309 7.65946 6.23948 7.72714C6.28417 7.68674 6.30769 7.65137 6.30544 7.61855C6.31591 7.63517 6.32651 7.65139 6.33738 7.66745C6.35904 7.70302 6.34054 7.74318 6.29152 7.79157C6.38215 7.91724 6.47742 8.0079 6.58585 8.08659L6.59082 8.08284C6.59114 8.076 6.59687 8.06749 6.61502 8.04497L6.61812 8.04111C6.62866 8.02791 6.63451 8.01952 6.63812 8.01139C6.64327 7.99982 6.64261 7.98972 6.63478 7.98309C6.63699 7.98585 6.64687 7.96237 6.65116 7.95218C6.6516 7.95113 6.65198 7.95021 6.65229 7.94949C6.6777 7.88983 6.70248 7.86378 6.76143 7.85001C6.68884 7.91097 6.6767 8.02504 6.73121 8.06766L6.75221 8.08107L6.75246 8.08124L6.77923 8.09845C6.85805 8.14861 6.89124 8.21106 6.88655 8.2866C6.88261 8.35008 6.85287 8.42114 6.79847 8.50865C6.71778 8.63844 6.68571 8.74327 6.63913 8.97631C6.5889 9.22761 6.55407 9.33848 6.46153 9.48016C6.37986 9.60522 6.26949 9.56206 6.25769 9.44822C6.25333 9.40587 6.25588 9.35752 6.26502 9.28985C6.26802 9.26759 6.27779 9.20585 6.28611 9.15382C6.28963 9.19981 6.30754 9.2289 6.33637 9.23355C6.37958 9.24052 6.43518 9.19004 6.48004 9.09665C6.51748 9.01871 6.5358 8.94533 6.56275 8.79182C6.57616 8.71543 6.57756 8.70761 6.58368 8.67638C6.54785 8.64889 6.51848 8.6127 6.50164 8.5743M6.76143 7.85001C6.76734 7.84863 6.77359 7.84737 6.78022 7.84621L6.77834 7.83752C6.77238 7.84137 6.76674 7.84555 6.76143 7.85001ZM6.28777 9.10039C6.2854 9.12001 6.2849 9.13792 6.28611 9.15382ZM6.28611 9.15382C6.2892 9.13451 6.29209 9.11654 6.29436 9.10241ZM6.30544 7.61855C6.30475 7.60848 6.30164 7.59865 6.29596 7.58898C6.29574 7.58862 6.29553 7.58826 6.29531 7.5879L6.2901 7.59373C6.2952 7.60212 6.3003 7.61039 6.30544 7.61855Z" fill="black"/>
<path fill-rule="evenodd" clip-rule="evenodd" d="M6.78964 7.72407L6.73625 7.63647L6.73035 7.63836L6.71088 7.75257L6.62696 7.75151L6.62439 7.75896L6.67848 7.85085L6.62575 7.93855L6.62842 7.94593L6.71523 7.94666L6.73247 8.05722L6.73839 8.05901L6.79286 7.96742L6.86818 8.01745L6.87287 8.01223L6.85318 7.89788L6.92925 7.84958L6.9292 7.84136L6.85087 7.78991L6.87115 7.67986L6.8664 7.67474L6.78964 7.72407ZM6.86307 7.68702L6.79015 7.73389L6.7861 7.73267L6.73524 7.64922L6.73693 7.64043L6.73103 7.64232L6.73524 7.64922L6.71423 7.75819L6.63369 7.76049L6.62966 7.75323L6.62709 7.76068L6.63369 7.76049L6.6838 7.85078L6.6351 7.93707L6.62845 7.93676L6.63111 7.94413L6.6351 7.93707L6.71853 7.94099L6.73747 8.04634L6.73311 8.05325L6.73903 8.05505L6.73747 8.04634L6.79161 7.96036L6.86494 8.00539L6.86628 8.01431L6.87096 8.00909L6.86494 8.00539L6.84835 7.89483L6.92031 7.84543L6.92624 7.84962L6.92619 7.8414L6.92031 7.84543L6.84609 7.79307L6.86307 7.68702ZM6.86307 7.68702L6.86928 7.68303L6.86453 7.67791L6.86307 7.68702Z" fill="black"/>
<path fill-rule="evenodd" clip-rule="evenodd" d="M6.52713 5.3123C6.70613 5.24182 6.85678 5.0417 6.8914 4.82612L6.89582 4.82276C7.10288 4.92116 7.2877 5.05157 7.45812 5.20803C7.52883 5.27293 7.57103 5.29899 7.69509 5.36394C7.75418 5.39488 7.78898 5.41549 7.82437 5.44287C7.75944 5.2055 7.80189 4.8444 7.92448 4.52888C8.0695 4.15567 8.09887 3.87447 8.08059 3.46825C8.07043 3.24242 8.15747 3.18632 8.34068 3.2308C8.46019 3.25984 8.54548 3.24547 8.70661 3.18772L8.71911 3.18324C8.90183 3.11762 8.99229 3.10301 9.12942 3.14106C9.25564 3.17603 9.28507 3.3372 9.21369 3.41273C9.18664 3.44137 9.1518 3.46372 9.09799 3.48904C9.08105 3.49702 9.02879 3.51966 8.991 3.53604L8.99098 3.53605L8.95173 3.55314L8.94606 3.55577C8.95161 3.55119 8.95635 3.54583 8.96031 3.53978L8.98909 3.52725L8.98911 3.52724L8.98915 3.52723L8.9892 3.52721L8.98922 3.5272L8.98928 3.52717L8.98931 3.52716C9.02706 3.5108 9.07899 3.48829 9.0958 3.48038C9.14897 3.45535 9.18322 3.43338 9.20956 3.40549C9.27635 3.33483 9.24871 3.18347 9.12809 3.15005C8.99225 3.11236 8.90266 3.12682 8.72087 3.19211L8.70837 3.19659C8.54636 3.25466 8.46024 3.26916 8.33952 3.23983C8.16 3.19624 8.07754 3.24939 8.08737 3.46769C8.10571 3.87544 8.07618 4.15822 7.93049 4.53316C7.80662 4.85197 7.76514 5.21747 7.83414 5.45167L7.82929 5.45732C7.79127 5.42688 7.75608 5.40569 7.69268 5.3725C7.56816 5.30731 7.52563 5.28104 7.45436 5.21563C7.28539 5.06049 7.10223 4.93105 6.8972 4.83313L6.89804 4.82807L6.89362 4.83142L6.8972 4.83313C6.86051 5.05022 6.70895 5.25027 6.53128 5.31825C6.48559 5.49161 6.55822 5.77827 6.68016 5.9474C6.74605 5.98861 6.81451 6.02284 6.8858 6.05077C7.10545 6.13683 7.28534 6.15557 7.64278 6.15671C7.82626 6.15729 7.89787 6.16066 7.97439 6.17721C8.09591 6.20346 8.2622 6.07614 8.28343 5.8803C8.28696 5.84778 8.29196 5.81798 8.29927 5.78386C8.3038 5.76276 8.3237 5.67871 8.32178 5.68697C8.33189 5.64339 8.33981 5.60527 8.34752 5.56126C8.37262 5.41809 8.39099 5.23321 8.40295 4.96766C8.40755 4.86529 8.4088 4.82474 8.41479 4.6062C8.42229 4.33248 8.42925 4.22128 8.44866 4.14313C8.49931 3.93922 8.53982 3.84766 8.62521 3.80104C8.65941 3.78236 8.69111 3.75992 8.72591 3.73052L8.72703 3.73477L8.73136 3.73669C8.6955 3.76715 8.66294 3.79031 8.62771 3.80955C8.54481 3.85481 8.50508 3.94462 8.45504 4.14606C8.43594 4.22298 8.42899 4.334 8.42152 4.60654C8.41553 4.82517 8.41428 4.86575 8.40967 4.96822C8.39769 5.23426 8.37926 5.41965 8.35407 5.56338C8.34632 5.60762 8.33835 5.64594 8.3282 5.68972C8.33009 5.68159 8.31023 5.76547 8.30574 5.78643C8.2985 5.82016 8.29357 5.84956 8.2901 5.88163C8.26826 6.08307 8.09823 6.21325 7.9733 6.18626C7.89726 6.16982 7.82582 6.16647 7.64273 6.16588C7.28468 6.16474 7.10434 6.14595 6.8839 6.05958C6.81228 6.03152 6.74351 5.99713 6.6763 5.95478C6.55171 5.78241 6.4782 5.49228 6.52713 5.3123ZM8.73843 3.73063L8.73136 3.73669L8.73211 3.73703C8.73433 3.73499 8.73644 3.73285 8.73843 3.73063ZM8.75468 3.7053C8.75054 3.71469 8.74513 3.72316 8.73843 3.73063C8.74964 3.72093 8.7612 3.71051 8.77328 3.69928L8.80917 3.6653L8.81047 3.66605C8.81559 3.66107 8.82028 3.65597 8.82454 3.6507L8.83876 3.6372C8.86327 3.61424 8.88216 3.59786 8.90044 3.5842C8.91119 3.57617 8.92152 3.56927 8.93161 3.56345L8.93288 3.56437C8.93769 3.56193 8.94208 3.55905 8.94606 3.55577C8.94128 3.55809 8.93648 3.56064 8.93161 3.56345L8.9275 3.56044L8.92726 3.55602C8.92974 3.55456 8.93221 3.55317 8.93466 3.55183L8.93473 3.55312C8.93312 3.55412 8.93145 3.55507 8.92972 3.55595L8.9351 3.55987L8.93473 3.55312C8.93705 3.55167 8.93923 3.55008 8.9413 3.54837C8.94409 3.54698 8.94687 3.54566 8.94964 3.54442L8.96031 3.53978C8.99055 3.49357 8.97481 3.40757 8.92201 3.32831L8.91512 3.33145L8.92726 3.55602C8.9175 3.56175 8.90754 3.56845 8.89721 3.57616C8.88051 3.58864 8.86337 3.6033 8.84207 3.62301C8.87064 3.56253 8.85214 3.47836 8.77633 3.33002L8.77021 3.33329L8.80467 3.65841L8.76949 3.69171L8.75468 3.7053ZM8.73424 3.7234C8.74091 3.71764 8.74771 3.71161 8.75468 3.7053C8.78565 3.63508 8.74536 3.51361 8.63978 3.37703L8.63426 3.38189L8.72591 3.73052L8.73178 3.72552L8.73189 3.72594L8.72832 3.72942L8.7334 3.73168L8.73189 3.72594L8.73424 3.7234ZM8.6455 3.39733C8.75415 3.54282 8.7849 3.66636 8.73424 3.7234L8.73178 3.72552L8.6455 3.39733ZM8.6455 3.39733L8.63511 3.38366L8.64063 3.3788L8.6455 3.39733ZM8.81088 3.65251L8.80467 3.65841L8.80515 3.66298L8.80917 3.6653L8.81667 3.65817L8.81676 3.65809L8.82454 3.6507C8.83158 3.64198 8.83744 3.63281 8.84207 3.62301L8.83494 3.62965L8.82008 3.64377C8.86591 3.58672 8.85762 3.5092 8.77897 3.35146L8.7769 3.33197L8.77078 3.33524L8.77897 3.35146L8.81088 3.65251ZM8.81104 3.65404C8.81425 3.65068 8.81726 3.64726 8.82008 3.64377L8.81283 3.65064L8.81276 3.65071L8.81276 3.65071L8.81265 3.65082L8.81088 3.65251L8.81104 3.65404ZM8.81104 3.65404L8.80653 3.65858L8.81185 3.66166L8.81104 3.65404ZM8.92354 3.34609L8.93466 3.55183C8.93688 3.55063 8.93909 3.54948 8.9413 3.54837C8.9827 3.51407 8.97413 3.4286 8.92354 3.34609ZM8.92354 3.34609L8.92272 3.33088L8.91582 3.33402C8.91849 3.33803 8.92107 3.34206 8.92354 3.34609Z" fill="black"/>
<path fill-rule="evenodd" clip-rule="evenodd" d="M6.78302 5.19787C6.76692 5.18869 6.75006 5.17976 6.73225 5.17104L6.7312 5.16323C6.73555 5.1582 6.74104 5.15149 6.74671 5.14458C6.75448 5.1351 6.76257 5.12523 6.76842 5.11877C6.77726 5.12342 6.78587 5.12812 6.79427 5.1329C6.85972 5.17009 6.88834 5.19248 6.97494 5.26785C7.07879 5.35823 7.15059 5.40056 7.29875 5.4423C7.47494 5.49199 7.69844 5.59937 7.8031 5.68355L7.78814 5.74216C7.68555 5.66345 7.46276 5.55638 7.28731 5.50699C7.13827 5.465 7.06573 5.42222 6.9612 5.33124C6.87542 5.25659 6.84731 5.23456 6.78302 5.19787ZM6.73559 5.17021L6.73455 5.16241C6.73635 5.1633 6.73815 5.16419 6.73995 5.16508C6.73841 5.16691 6.73695 5.16864 6.73559 5.17021ZM6.76975 5.12607C6.76398 5.13506 6.75033 5.15263 6.73995 5.16508C6.75588 5.173 6.77108 5.18111 6.78565 5.18942C6.8504 5.22637 6.87876 5.24859 6.96485 5.32352C7.06872 5.41393 7.14051 5.45626 7.28868 5.49801C7.46478 5.54759 7.68822 5.65497 7.78652 5.73709L7.79815 5.68646C7.69576 5.60786 7.47292 5.50079 7.29737 5.45129C7.14835 5.40931 7.0758 5.36653 6.97129 5.27558C6.88501 5.20048 6.85664 5.17828 6.79166 5.14136C6.79121 5.1411 6.79075 5.14084 6.79029 5.14058C6.78239 5.1361 6.77449 5.13162 6.76975 5.12607Z" fill="black"/>
<path fill-rule="evenodd" clip-rule="evenodd" d="M8.14374 4.1912C8.14376 4.19113 8.14377 4.19106 8.14379 4.19099L8.1363 4.18866L8.11371 4.28488L8.12113 4.28745C8.12114 4.28744 8.12114 4.28743 8.12114 4.28741L8.12119 4.28743L8.12165 4.28546C8.12999 4.25309 8.1372 4.22244 8.14341 4.19281L8.14378 4.19121L8.14374 4.1912ZM8.14374 4.1912L8.1363 4.18888C8.12991 4.21951 8.12245 4.25123 8.11376 4.28485L8.12114 4.28741C8.12131 4.28676 8.12148 4.28611 8.12165 4.28546L8.14341 4.19281C8.14352 4.19227 8.14363 4.19173 8.14374 4.1912ZM6.96442 4.96785C6.93704 4.95407 6.90603 4.93347 6.87598 4.90945L6.87449 4.90405L6.87823 4.88852C6.88351 4.86641 6.88956 4.84107 6.89591 4.82278C7.10296 4.92118 7.28779 5.05159 7.45821 5.20805C7.52892 5.27295 7.57112 5.29901 7.69517 5.36396C7.75889 5.39732 7.79436 5.41868 7.83397 5.45572L7.79154 5.54417C7.7386 5.5021 7.60785 5.42636 7.51089 5.37834C7.5105 5.39131 7.50608 5.40619 7.49791 5.42555L7.49135 5.44046C7.47862 5.46866 7.47612 5.4747 7.4739 5.48454C7.47127 5.49617 7.47309 5.50227 7.48099 5.50555L7.46682 5.50016C7.4656 5.49505 7.46584 5.4889 7.46744 5.48185C7.46991 5.4709 7.47242 5.46484 7.48559 5.43567L7.49205 5.42099C7.50108 5.39958 7.5051 5.38437 7.50398 5.37227L7.50848 5.36738C7.60623 5.41543 7.74071 5.49314 7.79035 5.53788L7.82935 5.45733C7.79133 5.42689 7.75614 5.4057 7.69274 5.37251C7.56822 5.30732 7.52569 5.28106 7.45443 5.21564C7.28447 5.0596 7.10015 4.92955 6.89808 4.82819C6.89469 4.84709 6.88772 4.87881 6.88177 4.90341L6.87942 4.90154L6.88091 4.90694L6.88177 4.90341C6.91076 4.92637 6.94056 4.94617 6.96885 4.96485C6.96783 4.96953 6.96657 4.97427 6.96508 4.97909C6.95654 5.00673 6.94178 5.03415 6.91735 5.07156L6.89147 5.11064C6.8824 5.1246 6.87624 5.13497 6.87183 5.14404C6.86181 5.1646 6.86176 5.17599 6.8723 5.18294C6.88278 5.19007 6.9107 5.21291 6.94096 5.23853C6.94104 5.24567 6.94334 5.25134 6.94811 5.25543L6.94811 5.25544C6.91416 5.22649 6.88068 5.19892 6.8693 5.19117C6.85415 5.18118 6.85423 5.16353 6.86618 5.13899C6.87081 5.12948 6.87713 5.11883 6.8864 5.10458L6.91228 5.06548C6.93626 5.02878 6.95066 5.002 6.95884 4.97555L6.95906 4.97485C6.96036 4.97059 6.96157 4.96667 6.96442 4.96785ZM6.95171 5.24767L6.94811 5.25543L6.95172 5.24767L6.95171 5.24767ZM6.95145 5.24744L6.94096 5.23853C6.94085 5.22912 6.94457 5.21716 6.95149 5.20285C6.96039 5.18444 6.97279 5.16467 6.99639 5.12979L6.99943 5.12531C7.04307 5.06093 7.05636 5.03822 7.05602 5.02284L7.06046 5.01835C7.11503 5.04284 7.166 5.07824 7.23217 5.13358L7.23455 5.13561L7.23455 5.13561C7.24783 5.14694 7.3129 5.20244 7.33144 5.21716C7.36628 5.24483 7.39342 5.26217 7.42048 5.27693C7.41753 5.29223 7.41199 5.30895 7.40381 5.32845C7.39965 5.33837 7.39504 5.34851 7.38878 5.36173L7.38845 5.36242L7.38845 5.36242C7.36816 5.40524 7.36403 5.41396 7.36105 5.42305L7.35864 5.43106C7.35313 5.44997 7.35518 5.4594 7.36644 5.46321C7.37886 5.46689 7.39947 5.47441 7.4339 5.48756L7.43654 5.48857L7.45998 5.49755L7.46682 5.50016C7.46842 5.50684 7.47251 5.51171 7.47933 5.51444L7.48119 5.50563L7.48124 5.50565L7.47937 5.51447L7.45813 5.50638L7.4347 5.4974L7.43207 5.4964C7.39778 5.4833 7.37723 5.4758 7.36489 5.47215C7.34889 5.46673 7.34551 5.45116 7.35234 5.42769L7.35497 5.41897C7.35804 5.40962 7.36228 5.40066 7.3826 5.3578L7.38308 5.35678C7.38929 5.34368 7.39384 5.33367 7.39793 5.32392C7.40076 5.31717 7.40325 5.31079 7.40553 5.30496L7.40553 5.30495L7.40554 5.30495C7.40962 5.29449 7.413 5.28585 7.41631 5.2802C7.39095 5.27077 7.36332 5.25312 7.32802 5.22508C7.30929 5.21021 7.24354 5.15412 7.23077 5.14323L7.22862 5.1414C7.16452 5.0878 7.11488 5.05308 7.06243 5.02893C7.06012 5.047 7.04573 5.07055 7.0044 5.13152L7.00137 5.13599C6.97803 5.1705 6.96577 5.19004 6.95714 5.20788C6.94696 5.22893 6.94524 5.24173 6.95145 5.24744ZM6.95145 5.24744L6.95171 5.24767L6.95172 5.24767L6.95145 5.24744ZM7.48119 5.50563L7.48099 5.50555L7.48119 5.50562L7.48119 5.50563ZM8.39694 5.21921C8.40182 5.16368 8.35181 5.12497 8.25881 5.10011C8.18445 5.08022 8.08471 5.07006 7.97894 5.06891L7.97807 5.07794L8.39274 5.22311L8.39694 5.21921ZM8.39051 5.21285L8.39445 5.21423L8.39025 5.21813L8.39051 5.21285ZM8.00708 5.07861C8.1019 5.08112 8.19027 5.09112 8.25753 5.10911C8.34385 5.13219 8.39098 5.16706 8.39051 5.21285L8.00708 5.07861ZM8.00708 5.07861L7.97892 5.07808L7.97979 5.06905L8.00708 5.07861ZM7.95923 4.90492L7.9593 4.90454L7.95929 4.90453L7.95932 4.90431L7.95171 4.90262C7.94372 4.94715 7.93753 4.99304 7.93302 5.04016L7.94069 5.04141L7.94071 5.0412L7.94073 5.0412L7.94077 5.04077L7.95923 4.90492ZM7.95923 4.90492C7.95135 4.9489 7.94524 4.99422 7.94077 5.04077L7.94071 5.0412L7.93307 5.03995L7.9517 4.90285L7.95929 4.90453L7.95923 4.90492Z" fill="black"/>
<path fill-rule="evenodd" clip-rule="evenodd" d="M8.07846 4.58003C7.97134 4.90168 7.94504 5.27926 8.02358 5.50476L8.01936 5.51103L7.9693 5.48454C7.93042 5.36747 7.91855 5.2124 7.93563 5.04516L7.91853 5.04041C7.90447 5.03659 7.89343 5.0341 7.88269 5.03259C7.83546 5.02596 7.80853 5.04127 7.80488 5.08957C7.80577 5.0767 7.80686 5.06361 7.80814 5.05028C7.82156 5.02583 7.84744 5.01842 7.88338 5.02347C7.89438 5.02501 7.90561 5.02754 7.91986 5.03141C7.92375 5.03247 7.93596 5.0359 7.93966 5.04119C7.92539 5.21192 7.93713 5.36538 7.97355 5.47835L8.01406 5.4986C8.01517 5.502 8.01631 5.50536 8.01747 5.50869L8.02169 5.50242L8.01406 5.4986C7.93873 5.26931 7.96601 4.89541 8.07229 4.57625C8.17499 4.26771 8.20672 3.99444 8.19735 3.69752C8.213 3.69788 8.22501 3.6925 8.24957 3.67685L8.25074 3.6761C8.25748 3.67181 8.26061 3.66985 8.26448 3.66758C8.37132 3.60465 8.46833 3.61356 8.53517 3.67569C8.58163 3.71887 8.60342 3.78152 8.5906 3.82415C8.58481 3.82898 8.57969 3.83426 8.57257 3.84201L8.57257 3.84201L8.57683 3.84914C8.5832 3.84208 8.58775 3.83361 8.5906 3.82415C8.59977 3.81648 8.61062 3.80991 8.63375 3.7963L8.63825 3.7936C8.67558 3.77152 8.62381 3.62655 8.52975 3.56591C8.48719 3.53845 8.40164 3.53384 8.34061 3.55085L8.33736 3.54339C8.38238 3.47157 8.41401 3.44565 8.47881 3.43596C8.47964 3.46766 8.47374 3.5043 8.46384 3.5347L8.45926 3.53396L8.45936 3.53422L8.46188 3.54048C8.46253 3.53863 8.46317 3.53674 8.46379 3.53483C8.46381 3.53479 8.46382 3.53474 8.46384 3.5347L8.46627 3.5351C8.48549 3.53809 8.49817 3.54077 8.509 3.54599C8.51577 3.54925 8.52182 3.5535 8.52829 3.55945C8.5288 3.55826 8.52931 3.55707 8.5298 3.55586C8.5459 3.51679 8.55431 3.46421 8.55396 3.40835C8.57183 3.40182 8.58931 3.39498 8.61431 3.38489C8.69386 3.35278 8.7075 3.34754 8.74136 3.33742C8.78962 3.323 8.83203 3.31698 8.874 3.32005C8.95605 3.32607 9.01608 3.36616 9.03325 3.42042C9.04469 3.45657 9.03513 3.4921 9.00764 3.5192C9.00123 3.52198 8.99498 3.52469 8.98908 3.52725C8.98268 3.53002 8.97669 3.53262 8.97136 3.53493C9.02058 3.50932 9.04057 3.46681 9.02704 3.42404C9.01108 3.37359 8.95339 3.33506 8.87364 3.32921C8.83234 3.32619 8.79052 3.33213 8.74282 3.34638C8.70919 3.35643 8.6956 3.36165 8.61624 3.39368C8.5912 3.40379 8.57366 3.41065 8.55821 3.41244C8.56099 3.46388 8.55296 3.51647 8.53354 3.5582M8.45669 3.53389C8.46678 3.50417 8.47299 3.46766 8.476 3.44064C8.41966 3.45366 8.38955 3.47671 8.34884 3.53941C8.38222 3.53159 8.42127 3.52967 8.45669 3.53389ZM8.97325 3.54374C8.98673 3.53676 8.99823 3.52847 9.00764 3.5192C9.04227 3.50419 9.08157 3.48707 9.09578 3.48038C9.14895 3.45535 9.18321 3.43338 9.20954 3.40549C9.27633 3.33483 9.24869 3.18347 9.12807 3.15005C8.99223 3.11236 8.90264 3.12682 8.72085 3.19211L8.70835 3.19659C8.54634 3.25466 8.46022 3.26916 8.3395 3.23983C8.25644 3.21966 8.19621 3.22024 8.15374 3.24735C8.10318 3.27962 8.07993 3.34986 8.08734 3.46758L8.0896 3.5058L8.08971 3.50771L8.09168 3.53939C8.09168 3.62473 8.01292 3.66747 7.93778 3.61274C7.93388 3.60645 7.92991 3.5997 7.92585 3.59246L7.92124 3.59902C7.92671 3.60414 7.93224 3.60871 7.93778 3.61274C7.95997 3.64854 7.97981 3.66942 8.00052 3.68027C8.01996 3.69045 8.03474 3.69195 8.07575 3.69091C8.08236 3.69074 8.08532 3.69067 8.08589 3.69504C8.08623 3.68197 8.09277 3.67626 8.10341 3.67695C8.11074 3.67742 8.11886 3.68021 8.13401 3.68669L8.136 3.68755C8.15858 3.69724 8.16705 3.69973 8.17151 3.69674L8.17639 3.7007C8.18042 3.8672 8.17018 4.02469 8.13529 4.19408C8.07976 4.16071 8.04504 4.15906 8.03311 4.20227C8.02822 4.22332 8.02318 4.24383 8.01788 4.2642C8.01173 4.27011 8.00698 4.27881 8.00365 4.29052C8.0119 4.26052 8.01945 4.23061 8.02672 4.19928C8.04074 4.14852 8.07923 4.15035 8.13338 4.18878C8.1631 4.02534 8.1734 3.87046 8.16977 3.70696C8.16332 3.70821 8.154 3.7049 8.13397 3.69629L8.13198 3.69544C8.11742 3.68921 8.10963 3.68653 8.10309 3.68611C8.09581 3.68564 8.09284 3.68824 8.08931 3.69979L8.07588 3.70008C8.03398 3.70115 8.01863 3.69958 7.99809 3.68883C7.97242 3.67538 7.94834 3.64769 7.92047 3.59802L7.92508 3.59146C8.00066 3.66219 8.08492 3.62274 8.08494 3.53981L8.08297 3.50842L8.08286 3.50651L8.08061 3.46836C8.07298 3.34712 8.09747 3.27313 8.15086 3.23905C8.19495 3.21091 8.25636 3.21032 8.3407 3.2308C8.4602 3.25984 8.5455 3.24547 8.70663 3.18772L8.71913 3.18324C8.90185 3.11762 8.9923 3.10301 9.12943 3.14106C9.25565 3.17603 9.28508 3.3372 9.2137 3.41273C9.18666 3.44137 9.15181 3.46372 9.098 3.48904C9.08107 3.49702 9.02879 3.51967 8.991 3.53605C8.98458 3.53883 8.97859 3.54143 8.97325 3.54374ZM8.00974 4.2946C8.01253 4.28447 8.01524 4.27435 8.01788 4.2642C8.03769 4.24516 8.07202 4.25514 8.12015 4.28745C8.10017 4.37583 8.07441 4.46579 8.04246 4.5575C8.00424 4.66696 7.97444 4.78617 7.95177 4.90802C7.87884 4.88335 7.83062 4.88493 7.82363 4.93126C7.81695 4.97315 7.81177 5.01266 7.80814 5.05028C7.80283 5.05997 7.79947 5.07233 7.79822 5.08766C7.80168 5.03835 7.80799 4.98598 7.81702 4.92936C7.82526 4.87468 7.87625 4.87301 7.94928 4.90261C7.96794 4.78356 7.99791 4.66367 8.03635 4.55357C8.06817 4.46226 8.09381 4.37271 8.11555 4.29029C8.05741 4.25531 8.0215 4.25187 8.00974 4.2946L8.00974 4.2946ZM7.80471 5.09197C7.80471 5.09199 7.80471 5.09201 7.80471 5.09203L7.79797 5.09124C7.79804 5.09003 7.79813 5.08884 7.79822 5.08766C7.79814 5.08884 7.79806 5.09001 7.79798 5.09119L7.80471 5.09197ZM7.80475 5.09149C7.80474 5.09165 7.80473 5.09181 7.80472 5.09197L7.80471 5.09197C7.80473 5.09181 7.80474 5.09165 7.80475 5.09149ZM8.00974 4.2946C8.00973 4.2946 8.00973 4.29461 8.00973 4.29461L8.0034 4.2914C8.00348 4.2911 8.00356 4.29081 8.00365 4.29052C8.00357 4.29081 8.00349 4.2911 8.0034 4.29139L8.00974 4.2946ZM8.97325 3.54374C8.96651 3.54724 8.95927 3.55041 8.95156 3.55321L8.94962 3.54442C8.95339 3.54274 8.96119 3.53934 8.97136 3.53493C8.9647 3.53839 8.95752 3.54155 8.94981 3.54435L8.95174 3.55314C8.95547 3.55147 8.96318 3.54811 8.97325 3.54374Z" fill="black"/>
</g>
</svg>
