<svg width="13" height="12" viewBox="0 0 13 12" fill="none" xmlns="http://www.w3.org/2000/svg">
<rect width="13" height="12" rx="2" fill="white"/>
<mask id="mask0" mask-type="alpha" maskUnits="userSpaceOnUse" x="0" y="0" width="13" height="12">
<rect width="13" height="12" rx="2" fill="white"/>
</mask>
<g mask="url(#mask0)">
<rect width="13" height="12" fill="#E92434"/>
<path fill-rule="evenodd" clip-rule="evenodd" d="M9.28566 6C9.28566 7.98823 8.03846 9.6 6.49995 9.6C4.96144 9.6 3.71423 7.98823 3.71423 6C3.71423 4.01178 4.96144 2.4 6.49995 2.4C8.03846 2.4 9.28566 4.01178 9.28566 6ZM5.57138 6C5.57138 4.67011 6.344 3.57343 7.34081 3.41869C7.08226 3.27785 6.79813 3.2 6.49992 3.2C5.30331 3.2 4.33326 4.4536 4.33326 6C4.33326 7.5464 5.30331 8.8 6.49992 8.8C6.79813 8.8 7.08226 8.72215 7.34082 8.58131C6.344 8.42658 5.57138 7.32989 5.57138 6ZM7.02432 7.59305L7.59298 6.70206L8.43019 7.10624L7.95021 6.13198L8.50636 5.2279L7.64105 5.51677L7.14757 4.55384L7.09276 5.70663L6.23161 6.01559L7.06305 6.43918L7.02432 7.59305Z" fill="white"/>
</g>
</svg>
